solid changer.v.3.0
facet normal -0.7200738067292847 0.41573480615127306 -0.5555702330189767
  outer loop
    vertex 415.5373596818701 144.688571652595 0.5000000000052941
    vertex 413.1986244219004 140.49241922988836 0.3912385709986107
    vertex 413.1147099510597 140.49241922988836 0.5000000000074044
  endloop
endfacet
facet normal -0.7200738067292847 0.41573480615127306 -0.5555702330189767
  outer loop
    vertex 413.1986244219004 140.49241922988836 0.3912385709986107
    vertex 415.5373596818701 144.688571652595 0.5000000000052941
    vertex 415.5793169172903 144.6158995891018 0.39123857099653686
  endloop
endfacet
facet normal -0.056640771401172046 -0.032701564615072995 -0.997858923238554
  outer loop
    vertex 414.1147099510593 140.49241922988836 6.5325581055653e-12
    vertex 415.96200034965506 137.0317660187461 0.008555138631113507
    vertex 413.9639912866301 140.49241922988836 0.00855513863285385
  endloop
endfacet
facet normal -0.056640771401172046 -0.032701564615072995 -0.997858923238554
  outer loop
    vertex 415.96200034965506 137.0317660187461 0.008555138631113507
    vertex 414.1147099510593 140.49241922988836 6.5325581055653e-12
    vertex 416.0373596818696 137.16229221096617 4.85792100990423e-12
  endloop
endfacet
facet normal -0.5710102257562775 0.32967290755003875 -0.7518398074784738
  outer loop
    vertex 415.629111391406 144.5296530299971 0.29289321881866676
    vertex 413.4117728012385 140.49241922988836 0.2066466597159108
    vertex 413.29821337013186 140.49241922988836 0.29289321882069713
  endloop
endfacet
facet normal -0.5710102257562775 0.32967290755003875 -0.7518398074784738
  outer loop
    vertex 413.4117728012385 140.49241922988836 0.2066466597159108
    vertex 415.629111391406 144.5296530299971 0.29289321881866676
    vertex 415.68589110695933 144.43130767781926 0.2066466597139298
  endloop
endfacet
facet normal -0.48113793538213645 0.2777851165098001 -0.8314696123021283
  outer loop
    vertex 415.68589110695933 144.43130767781926 0.2066466597139298
    vertex 413.5373596818697 140.49241922988836 0.13397459622259789
    vertex 413.4117728012385 140.49241922988836 0.2066466597159108
  endloop
endfacet
facet normal -0.48113793538213645 0.2777851165098001 -0.8314696123021283
  outer loop
    vertex 413.5373596818697 140.49241922988836 0.13397459622259789
    vertex 415.68589110695933 144.43130767781926 0.2066466597139298
    vertex 415.74868454727493 144.32254624881054 0.13397459622067157
  endloop
endfacet
facet normal -0.4811379353821374 -0.2777851165098001 -0.8314696123021279
  outer loop
    vertex 413.5373596818697 140.49241922988836 0.13397459622259789
    vertex 415.68589110695933 136.55353078195745 0.20664665971392993
    vertex 413.4117728012385 140.49241922988836 0.2066466597159108
  endloop
endfacet
facet normal -0.4811379353821374 -0.2777851165098001 -0.8314696123021279
  outer loop
    vertex 415.68589110695933 136.55353078195745 0.20664665971392993
    vertex 413.5373596818697 140.49241922988836 0.13397459622259789
    vertex 415.74868454727493 136.66229221096617 0.13397459622067168
  endloop
endfacet
facet normal -0.6511123728537718 -0.37591990373949036 -0.6593458150994993
  outer loop
    vertex 413.29821337013186 140.49241922988836 0.29289321882069713
    vertex 415.5793169172903 136.36893887067492 0.3912385709965371
    vertex 413.1986244219004 140.49241922988836 0.3912385709986107
  endloop
endfacet
facet normal -0.6511123728537718 -0.37591990373949036 -0.6593458150994993
  outer loop
    vertex 415.5793169172903 136.36893887067492 0.3912385709965371
    vertex 413.29821337013186 140.49241922988836 0.29289321882069713
    vertex 415.629111391406 136.45518542977962 0.29289321881866687
  endloop
endfacet
facet normal -0.38303324153698637 0.2211443451095038 -0.8968727415323521
  outer loop
    vertex 415.74868454727493 144.32254624881054 0.13397459622067157
    vertex 413.67282518567856 140.49241922988836 0.07612046749563113
    vertex 413.5373596818697 140.49241922988836 0.13397459622259789
  endloop
endfacet
facet normal -0.38303324153698637 0.2211443451095038 -0.8968727415323521
  outer loop
    vertex 413.67282518567856 140.49241922988836 0.07612046749563113
    vertex 415.74868454727493 144.32254624881054 0.13397459622067157
    vertex 415.8164172991793 144.20522968117564 0.07612046749376403
  endloop
endfacet
facet normal -0.16895317489931108 0.09754516100806623 -0.9807852804030825
  outer loop
    vertex 415.8879304365084 144.08136529391305 0.03407417371592023
    vertex 413.9639912866301 140.49241922988836 0.00855513863285385
    vertex 413.81585146033666 140.49241922988836 0.034074173717725295
  endloop
endfacet
facet normal -0.16895317489931108 0.09754516100806623 -0.9807852804030825
  outer loop
    vertex 413.9639912866301 140.49241922988836 0.00855513863285385
    vertex 415.8879304365084 144.08136529391305 0.03407417371592023
    vertex 415.96200034965506 143.9530724410306 0.008555138631113367
  endloop
endfacet
facet normal -0.05664077140117162 0.03270156461507276 -0.997858923238554
  outer loop
    vertex 415.96200034965506 143.9530724410306 0.008555138631113367
    vertex 414.1147099510593 140.49241922988836 6.5325581055653e-12
    vertex 413.9639912866301 140.49241922988836 0.00855513863285385
  endloop
endfacet
facet normal -0.05664077140117162 0.03270156461507276 -0.997858923238554
  outer loop
    vertex 414.1147099510593 140.49241922988836 6.5325581055653e-12
    vertex 415.96200034965506 143.9530724410306 0.008555138631113367
    vertex 416.0373596818696 143.82254624881054 4.857780011580103e-12
  endloop
endfacet
facet normal -0.8200655477519316 0.4734650647475558 -0.32143946530243794
  outer loop
    vertex 415.47968214604504 144.7884720750996 0.7411809549028232
    vertex 413.0479057574715 140.49241922988836 0.6173165676423726
    vertex 412.99935487940945 140.49241922988836 0.7411809549049839
  endloop
endfacet
facet normal -0.8200655477519316 0.4734650647475558 -0.32143946530243794
  outer loop
    vertex 413.0479057574715 140.49241922988836 0.6173165676423726
    vertex 415.47968214604504 144.7884720750996 0.7411809549028232
    vertex 415.50395758507597 144.74642578132182 0.6173165676402332
  endloop
endfacet
facet normal -0.16895317489931214 -0.09754516100806672 -0.9807852804030824
  outer loop
    vertex 413.9639912866301 140.49241922988836 0.00855513863285385
    vertex 415.8879304365084 136.90347316586363 0.03407417371592038
    vertex 413.81585146033666 140.49241922988836 0.034074173717725295
  endloop
endfacet
facet normal -0.16895317489931214 -0.09754516100806672 -0.9807852804030824
  outer loop
    vertex 415.8879304365084 136.90347316586363 0.03407417371592038
    vertex 413.9639912866301 140.49241922988836 0.00855513863285385
    vertex 415.96200034965506 137.0317660187461 0.008555138631113507
  endloop
endfacet
facet normal -0.3830332415369849 -0.22114434510950257 -0.8968727415323531
  outer loop
    vertex 413.67282518567856 140.49241922988836 0.07612046749563113
    vertex 415.74868454727493 136.66229221096617 0.13397459622067168
    vertex 413.5373596818697 140.49241922988836 0.13397459622259789
  endloop
endfacet
facet normal -0.3830332415369849 -0.22114434510950257 -0.8968727415323531
  outer loop
    vertex 415.74868454727493 136.66229221096617 0.13397459622067168
    vertex 413.67282518567856 140.49241922988836 0.07612046749563113
    vertex 415.8164172991793 136.77960877860107 0.07612046749376417
  endloop
endfacet
facet normal -0.8641711769176729 0.498929461619303 -0.0654031292293933
  outer loop
    vertex 412.9600094126809 140.49241922988836 1.000000000007538
    vertex 415.4649487242696 144.81399111018436 0.8694738077853051
    vertex 412.96988803585833 140.49241922988836 0.8694738077874785
  endloop
endfacet
facet normal -0.8641711769176729 0.498929461619303 -0.0654031292293933
  outer loop
    vertex 415.4649487242696 144.81399111018436 0.8694738077853051
    vertex 412.9600094126809 140.49241922988836 1.000000000007538
    vertex 415.46000941268085 144.82254624881054 1.000000000005361
  endloop
endfacet
facet normal -0.7767145781294811 0.44843637076634185 -0.4422886902183392
  outer loop
    vertex 413.0479057574715 140.49241922988836 0.6173165676423726
    vertex 415.5373596818701 144.688571652595 0.5000000000052941
    vertex 413.1147099510597 140.49241922988836 0.5000000000074044
  endloop
endfacet
facet normal -0.7767145781294811 0.44843637076634185 -0.4422886902183392
  outer loop
    vertex 415.5373596818701 144.688571652595 0.5000000000052941
    vertex 413.0479057574715 140.49241922988836 0.6173165676423726
    vertex 415.50395758507597 144.74642578132182 0.6173165676402332
  endloop
endfacet
facet normal -0.6511123728537709 0.3759199037394903 -0.6593458150995002
  outer loop
    vertex 415.5793169172903 144.6158995891018 0.39123857099653686
    vertex 413.29821337013186 140.49241922988836 0.29289321882069713
    vertex 413.1986244219004 140.49241922988836 0.3912385709986107
  endloop
endfacet
facet normal -0.6511123728537709 0.3759199037394903 -0.6593458150995002
  outer loop
    vertex 413.29821337013186 140.49241922988836 0.29289321882069713
    vertex 415.5793169172903 144.6158995891018 0.39123857099653686
    vertex 415.629111391406 144.5296530299971 0.29289321881866676
  endloop
endfacet
facet normal -0.27837474273225427 0.16071973265158424 -0.9469301294948611
  outer loop
    vertex 415.8164172991793 144.20522968117564 0.07612046749376403
    vertex 413.81585146033666 140.49241922988836 0.034074173717725295
    vertex 413.67282518567856 140.49241922988836 0.07612046749563113
  endloop
endfacet
facet normal -0.27837474273225427 0.16071973265158424 -0.9469301294948611
  outer loop
    vertex 413.81585146033666 140.49241922988836 0.034074173717725295
    vertex 415.8164172991793 144.20522968117564 0.07612046749376403
    vertex 415.8879304365084 144.08136529391305 0.03407417371592023
  endloop
endfacet
facet normal -0.7200738067292829 -0.41573480615127145 -0.5555702330189803
  outer loop
    vertex 413.1147099510597 140.49241922988836 0.5000000000074044
    vertex 415.5793169172903 136.36893887067492 0.3912385709965371
    vertex 415.5373596818701 136.29626680718172 0.5000000000052942
  endloop
endfacet
facet normal -0.7200738067292829 -0.41573480615127145 -0.5555702330189803
  outer loop
    vertex 415.5793169172903 136.36893887067492 0.3912385709965371
    vertex 413.1147099510597 140.49241922988836 0.5000000000074044
    vertex 413.1986244219004 140.49241922988836 0.3912385709986107
  endloop
endfacet
facet normal -0.2783747427322504 -0.16071973265158163 -0.9469301294948628
  outer loop
    vertex 413.81585146033666 140.49241922988836 0.034074173717725295
    vertex 415.8164172991793 136.77960877860107 0.07612046749376417
    vertex 413.67282518567856 140.49241922988836 0.07612046749563113
  endloop
endfacet
facet normal -0.2783747427322504 -0.16071973265158163 -0.9469301294948628
  outer loop
    vertex 415.8164172991793 136.77960877860107 0.07612046749376417
    vertex 413.81585146033666 140.49241922988836 0.034074173717725295
    vertex 415.8879304365084 136.90347316586363 0.03407417371592038
  endloop
endfacet
facet normal -0.5710102257562801 -0.32967290755003986 -0.7518398074784713
  outer loop
    vertex 413.4117728012385 140.49241922988836 0.2066466597159108
    vertex 415.629111391406 136.45518542977962 0.29289321881866687
    vertex 413.29821337013186 140.49241922988836 0.29289321882069713
  endloop
endfacet
facet normal -0.5710102257562801 -0.32967290755003986 -0.7518398074784713
  outer loop
    vertex 415.629111391406 136.45518542977962 0.29289321881866687
    vertex 413.4117728012385 140.49241922988836 0.2066466597159108
    vertex 415.68589110695933 136.55353078195745 0.20664665971392993
  endloop
endfacet
facet normal -0.8493849684872128 0.49039264020161777 -0.19509032201537624
  outer loop
    vertex 415.4649487242696 144.81399111018436 0.8694738077853051
    vertex 412.99935487940945 140.49241922988836 0.7411809549049839
    vertex 412.96988803585833 140.49241922988836 0.8694738077874785
  endloop
endfacet
facet normal -0.8493849684872128 0.49039264020161777 -0.19509032201537624
  outer loop
    vertex 412.99935487940945 140.49241922988836 0.7411809549049839
    vertex 415.4649487242696 144.81399111018436 0.8694738077853051
    vertex 415.47968214604504 144.7884720750996 0.7411809549028232
  endloop
endfacet
facet normal -7.243599607575461e-13 -0.5555702330195957 -0.8314696123025496
  outer loop
    vertex 415.74868454727493 136.66229221096617 0.13397459622067168
    vertex 420.23412771840106 136.55353078195745 0.2066466597099676
    vertex 415.68589110695933 136.55353078195745 0.20664665971392993
  endloop
endfacet
facet normal -7.243599607575461e-13 -0.5555702330195957 -0.8314696123025496
  outer loop
    vertex 420.23412771840106 136.55353078195745 0.2066466597099676
    vertex 415.74868454727493 136.66229221096617 0.13397459622067168
    vertex 420.17133427808534 136.66229221096617 0.1339745962168188
  endloop
endfacet
facet normal -8.693004288248883e-13 -0.06540312923014488 -0.9978589232386033
  outer loop
    vertex 416.0373596818696 137.16229221096617 4.85792100990423e-12
    vertex 419.95801847570493 137.0317660187461 0.008555138627632257
    vertex 415.96200034965506 137.0317660187461 0.008555138631113507
  endloop
endfacet
facet normal -8.693004288248883e-13 -0.06540312923014488 -0.9978589232386033
  outer loop
    vertex 419.95801847570493 137.0317660187461 0.008555138627632257
    vertex 416.0373596818696 137.16229221096617 4.85792100990423e-12
    vertex 419.8826591434904 137.16229221096617 1.5080828252855835e-12
  endloop
endfacet
facet normal -8.544175156540733e-13 -0.19509032201613294 -0.9807852804032295
  outer loop
    vertex 415.96200034965506 137.0317660187461 0.008555138631113507
    vertex 420.0320883888518 136.90347316586363 0.03407417371231025
    vertex 415.8879304365084 136.90347316586363 0.03407417371592038
  endloop
endfacet
facet normal -8.544175156540733e-13 -0.19509032201613294 -0.9807852804032295
  outer loop
    vertex 420.0320883888518 136.90347316586363 0.03407417371231025
    vertex 415.96200034965506 137.0317660187461 0.008555138631113507
    vertex 419.95801847570493 137.0317660187461 0.008555138627632257
  endloop
endfacet
facet normal -0.849384968487213 -0.49039264020161705 -0.1950903220153766
  outer loop
    vertex 412.96988803585833 140.49241922988836 0.8694738077874785
    vertex 415.47968214604504 136.19636638467708 0.7411809549028234
    vertex 415.4649487242696 136.17084734959235 0.8694738077853054
  endloop
endfacet
facet normal -0.849384968487213 -0.49039264020161705 -0.1950903220153766
  outer loop
    vertex 415.47968214604504 136.19636638467708 0.7411809549028234
    vertex 412.96988803585833 140.49241922988836 0.8694738077874785
    vertex 412.99935487940945 140.49241922988836 0.7411809549049839
  endloop
endfacet
facet normal -6.549689311587964e-13 -0.659345815100083 -0.7518398074789651
  outer loop
    vertex 415.68589110695933 136.55353078195745 0.20664665971392993
    vertex 420.29090743395454 136.45518542977962 0.29289321881460584
    vertex 415.629111391406 136.45518542977962 0.29289321881866687
  endloop
endfacet
facet normal -6.549689311587964e-13 -0.659345815100083 -0.7518398074789651
  outer loop
    vertex 420.29090743395454 136.45518542977962 0.29289321881460584
    vertex 415.68589110695933 136.55353078195745 0.20664665971392993
    vertex 420.23412771840106 136.55353078195745 0.2066466597099676
  endloop
endfacet
facet normal -7.813222669561577e-13 -0.44228869021900447 -0.8968727415326867
  outer loop
    vertex 415.8164172991793 136.77960877860107 0.07612046749376417
    vertex 420.17133427808534 136.66229221096617 0.1339745962168188
    vertex 415.74868454727493 136.66229221096617 0.13397459622067168
  endloop
endfacet
facet normal -7.813222669561577e-13 -0.44228869021900447 -0.8968727415326867
  outer loop
    vertex 420.17133427808534 136.66229221096617 0.1339745962168188
    vertex 415.8164172991793 136.77960877860107 0.07612046749376417
    vertex 420.10360152618085 136.77960877860107 0.0761204674900294
  endloop
endfacet
facet normal -8.249092277171397e-13 -0.3214394653031646 -0.9469301294951047
  outer loop
    vertex 415.8879304365084 136.90347316586363 0.03407417371592038
    vertex 420.10360152618085 136.77960877860107 0.0761204674900294
    vertex 415.8164172991793 136.77960877860107 0.07612046749376417
  endloop
endfacet
facet normal -8.249092277171397e-13 -0.3214394653031646 -0.9469301294951047
  outer loop
    vertex 420.10360152618085 136.77960877860107 0.0761204674900294
    vertex 415.8879304365084 136.90347316586363 0.03407417371592038
    vertex 420.0320883888518 136.90347316586363 0.03407417371231025
  endloop
endfacet
facet normal -0.8200655477519269 -0.47346506474755184 -0.32143946530245604
  outer loop
    vertex 412.99935487940945 140.49241922988836 0.7411809549049839
    vertex 415.50395758507597 136.23841267845486 0.6173165676402335
    vertex 415.47968214604504 136.19636638467708 0.7411809549028234
  endloop
endfacet
facet normal -0.8200655477519269 -0.47346506474755184 -0.32143946530245604
  outer loop
    vertex 415.50395758507597 136.23841267845486 0.6173165676402335
    vertex 412.99935487940945 140.49241922988836 0.7411809549049839
    vertex 413.0479057574715 140.49241922988836 0.6173165676423726
  endloop
endfacet
facet normal -0.7767145781294846 -0.44843637076634285 -0.44228869021833217
  outer loop
    vertex 413.0479057574715 140.49241922988836 0.6173165676423726
    vertex 415.5373596818701 136.29626680718172 0.5000000000052942
    vertex 415.50395758507597 136.23841267845486 0.6173165676402335
  endloop
endfacet
facet normal -0.7767145781294846 -0.44843637076634285 -0.44228869021833217
  outer loop
    vertex 415.5373596818701 136.29626680718172 0.5000000000052942
    vertex 413.0479057574715 140.49241922988836 0.6173165676423726
    vertex 413.1147099510597 140.49241922988836 0.5000000000074044
  endloop
endfacet
facet normal -0.8641711769176733 -0.4989294616193024 -0.06540312922939173
  outer loop
    vertex 412.9600094126809 140.49241922988836 1.000000000007538
    vertex 415.4649487242696 136.17084734959235 0.8694738077853054
    vertex 415.46000941268085 136.16229221096617 1.000000000005361
  endloop
endfacet
facet normal -0.8641711769176733 -0.4989294616193024 -0.06540312922939173
  outer loop
    vertex 415.4649487242696 136.17084734959235 0.8694738077853054
    vertex 412.9600094126809 140.49241922988836 1.000000000007538
    vertex 412.96988803585833 140.49241922988836 0.8694738077874785
  endloop
endfacet
facet normal -0.9895469004654704 0.13027632092613822 -0.06184668127822607
  outer loop
    vertex 411.92297299839163 142.1100382617791 21.000000000008452
    vertex 412.9600094126809 140.49241922988836 1.000000000007538
    vertex 411.7100094126983 140.49241922988836 21.000000000008637
  endloop
endfacet
facet normal 0.38195084679904484 -0.9221109145022709 -0.06184668127942102
  outer loop
    vertex 419.57762844458904 134.4553828155817 21.000000000001783
    vertex 420.4600094126809 136.16229221096617 1.0000000000010048
    vertex 421.08500941269835 135.07976045623562 21.00000000000047
  endloop
endfacet
facet normal 0.9895469004653624 0.1302763209261385 -0.06184668127995033
  outer loop
    vertex 423.997045827005 142.1100382617791 20.999999999997932
    vertex 424.21000941269835 140.49241922988836 20.99999999999775
    vertex 422.96000941268085 140.49241922988836 0.9999999999988277
  endloop
endfacet
facet normal 0.7908981031256954 0.6068774592697658 -0.07861259379037498
  outer loop
    vertex 422.3794267951142 144.91183661230428 20.999999999999343
    vertex 423.372668186351 143.61741922988836 20.999999999998476
    vertex 420.4600094126809 144.82254624881054 1.0000000000010048
  endloop
endfacet
facet normal -0.6075960536663718 -0.791834593576133 -0.061846681278559044
  outer loop
    vertex 413.5405920302824 136.07300184747243 21.000000000007045
    vertex 415.46000941268085 136.16229221096617 1.000000000005361
    vertex 414.8350094126983 135.07976045623562 21.00000000000592
  endloop
endfacet
facet normal 0.9210203482745861 0.38149911947695464 -0.07861259379048822
  outer loop
    vertex 423.372668186351 143.61741922988836 20.999999999998476
    vertex 423.997045827005 142.1100382617791 20.999999999997932
    vertex 422.96000941268085 140.49241922988836 0.9999999999988277
  endloop
endfacet
facet normal 0.8620626526915642 0.49771210458984666 -0.09555440219649255
  outer loop
    vertex 420.4600094126809 144.82254624881054 1.0000000000010048
    vertex 423.372668186351 143.61741922988836 20.999999999998476
    vertex 422.96000941268085 140.49241922988836 0.9999999999988277
  endloop
endfacet
facet normal 0.6075960536662647 -0.7918345935761324 -0.061846681279617635
  outer loop
    vertex 421.08500941269835 135.07976045623562 21.00000000000047
    vertex 420.4600094126809 136.16229221096617 1.0000000000010048
    vertex 422.3794267951142 136.07300184747243 20.999999999999343
  endloop
endfacet
facet normal 0.38195084679904423 0.9221109145022711 -0.06184668127942128
  outer loop
    vertex 419.57762844458904 146.52945564419502 21.000000000001783
    vertex 421.08500941269835 145.9050780035411 21.00000000000047
    vertex 420.4600094126809 144.82254624881054 1.0000000000010048
  endloop
endfacet
facet normal 8.71201785029942e-13 2.6682310034466093e-28 0.9999999999999999
  outer loop
    vertex 411.92297299839163 138.8748001979976 21.000000000008452
    vertex 411.92297299839163 142.1100382617791 21.000000000008452
    vertex 411.7100094126983 140.49241922988836 21.000000000008637
  endloop
endfacet
facet normal 8.71201785029942e-13 2.6682310034466093e-28 0.9999999999999999
  outer loop
    vertex 411.92297299839163 142.1100382617791 21.000000000008452
    vertex 411.92297299839163 138.8748001979976 21.000000000008452
    vertex 412.54735063904553 143.61741922988836 21.000000000007912
  endloop
endfacet
facet normal 8.71201785029942e-13 2.6682310034466093e-28 0.9999999999999999
  outer loop
    vertex 412.54735063904553 143.61741922988836 21.000000000007912
    vertex 411.92297299839163 138.8748001979976 21.000000000008452
    vertex 412.54735063904553 137.36741922988836 21.000000000007912
  endloop
endfacet
facet normal 8.71201785029942e-13 2.6682310034466093e-28 0.9999999999999999
  outer loop
    vertex 412.54735063904553 143.61741922988836 21.000000000007912
    vertex 412.54735063904553 137.36741922988836 21.000000000007912
    vertex 413.5405920302824 136.07300184747243 21.000000000007045
  endloop
endfacet
facet normal 8.71201785029942e-13 2.6682310034466093e-28 0.9999999999999999
  outer loop
    vertex 412.54735063904553 143.61741922988836 21.000000000007912
    vertex 413.5405920302824 136.07300184747243 21.000000000007045
    vertex 413.5405920302824 144.91183661230428 21.000000000007045
  endloop
endfacet
facet normal 8.71201785029942e-13 2.6682310034466093e-28 0.9999999999999999
  outer loop
    vertex 413.5405920302824 144.91183661230428 21.000000000007045
    vertex 413.5405920302824 136.07300184747243 21.000000000007045
    vertex 414.8350094126983 135.07976045623562 21.00000000000592
  endloop
endfacet
facet normal 8.71201785029942e-13 2.6682310034466093e-28 0.9999999999999999
  outer loop
    vertex 413.5405920302824 144.91183661230428 21.000000000007045
    vertex 414.8350094126983 135.07976045623562 21.00000000000592
    vertex 414.40930525718204 138.44241922988843 21.000000000001833
  endloop
endfacet
facet normal 8.71201785029942e-13 2.6682310034466093e-28 0.9999999999999999
  outer loop
    vertex 414.40930525718204 138.44241922988843 21.000000000001833
    vertex 414.8350094126983 135.07976045623562 21.00000000000592
    vertex 417.9600094126981 136.39241922988833 21.000000000001833
  endloop
endfacet
facet normal 8.71201785029942e-13 2.6682310034466093e-28 0.9999999999999999
  outer loop
    vertex 417.9600094126981 136.39241922988833 21.000000000001833
    vertex 414.8350094126983 135.07976045623562 21.00000000000592
    vertex 416.34239038080756 134.4553828155817 21.000000000004604
  endloop
endfacet
facet normal 8.71201785029942e-13 2.6682310034466093e-28 0.9999999999999999
  outer loop
    vertex 417.9600094126981 136.39241922988833 21.000000000001833
    vertex 416.34239038080756 134.4553828155817 21.000000000004604
    vertex 417.96000941269835 134.24241922988836 21.00000000000319
  endloop
endfacet
facet normal 8.71201785029942e-13 2.6682310034466093e-28 0.9999999999999999
  outer loop
    vertex 417.9600094126981 136.39241922988833 21.000000000001833
    vertex 417.96000941269835 134.24241922988836 21.00000000000319
    vertex 421.51071356821444 138.44241922988823 21.000000000001833
  endloop
endfacet
facet normal 8.71201785029942e-13 2.6682310034466093e-28 0.9999999999999999
  outer loop
    vertex 421.51071356821444 138.44241922988823 21.000000000001833
    vertex 417.96000941269835 134.24241922988836 21.00000000000319
    vertex 419.57762844458904 134.4553828155817 21.000000000001783
  endloop
endfacet
facet normal 8.71201785029942e-13 2.6682310034466093e-28 0.9999999999999999
  outer loop
    vertex 421.51071356821444 138.44241922988823 21.000000000001833
    vertex 419.57762844458904 134.4553828155817 21.000000000001783
    vertex 421.08500941269835 135.07976045623562 21.00000000000047
  endloop
endfacet
facet normal 8.71201785029942e-13 2.6682310034466093e-28 0.9999999999999999
  outer loop
    vertex 421.51071356821444 138.44241922988823 21.000000000001833
    vertex 421.08500941269835 135.07976045623562 21.00000000000047
    vertex 422.3794267951142 136.07300184747243 20.999999999999343
  endloop
endfacet
facet normal 8.71201785029942e-13 2.6682310034466093e-28 0.9999999999999999
  outer loop
    vertex 421.51071356821444 138.44241922988823 21.000000000001833
    vertex 422.3794267951142 136.07300184747243 20.999999999999343
    vertex 421.5107135682146 142.54241922988822 21.000000000001833
  endloop
endfacet
facet normal 8.71201785029942e-13 2.6682310034466093e-28 0.9999999999999999
  outer loop
    vertex 421.5107135682146 142.54241922988822 21.000000000001833
    vertex 422.3794267951142 136.07300184747243 20.999999999999343
    vertex 422.3794267951142 144.91183661230428 20.999999999999343
  endloop
endfacet
facet normal 8.71201785029942e-13 2.6682310034466093e-28 0.9999999999999999
  outer loop
    vertex 422.3794267951142 144.91183661230428 20.999999999999343
    vertex 422.3794267951142 136.07300184747243 20.999999999999343
    vertex 423.372668186351 143.61741922988836 20.999999999998476
  endloop
endfacet
facet normal 8.71201785029942e-13 2.6682310034466093e-28 0.9999999999999999
  outer loop
    vertex 423.372668186351 143.61741922988836 20.999999999998476
    vertex 422.3794267951142 136.07300184747243 20.999999999999343
    vertex 423.372668186351 137.36741922988838 20.999999999998476
  endloop
endfacet
facet normal 8.71201785029942e-13 2.6682310034466093e-28 0.9999999999999999
  outer loop
    vertex 423.372668186351 143.61741922988836 20.999999999998476
    vertex 423.372668186351 137.36741922988838 20.999999999998476
    vertex 423.997045827005 142.1100382617791 20.999999999997932
  endloop
endfacet
facet normal 8.71201785029942e-13 2.6682310034466093e-28 0.9999999999999999
  outer loop
    vertex 423.997045827005 142.1100382617791 20.999999999997932
    vertex 423.372668186351 137.36741922988838 20.999999999998476
    vertex 423.997045827005 138.87480019799762 20.999999999997932
  endloop
endfacet
facet normal 8.71201785029942e-13 2.6682310034466093e-28 0.9999999999999999
  outer loop
    vertex 423.997045827005 142.1100382617791 20.999999999997932
    vertex 423.997045827005 138.87480019799762 20.999999999997932
    vertex 424.21000941269835 140.49241922988836 20.99999999999775
  endloop
endfacet
facet normal 8.71201785029942e-13 2.6682310034466093e-28 0.9999999999999999
  outer loop
    vertex 413.5405920302824 144.91183661230428 21.000000000007045
    vertex 414.40930525718215 142.54241922988842 21.000000000001833
    vertex 414.8350094126983 145.9050780035411 21.00000000000592
  endloop
endfacet
facet normal 8.71201785029942e-13 2.6682310034466093e-28 0.9999999999999999
  outer loop
    vertex 414.40930525718215 142.54241922988842 21.000000000001833
    vertex 413.5405920302824 144.91183661230428 21.000000000007045
    vertex 414.40930525718204 138.44241922988843 21.000000000001833
  endloop
endfacet
facet normal 8.71201785029942e-13 2.6682310034466093e-28 0.9999999999999999
  outer loop
    vertex 414.8350094126983 145.9050780035411 21.00000000000592
    vertex 414.40930525718215 142.54241922988842 21.000000000001833
    vertex 417.9600094126984 144.59241922988832 21.000000000001833
  endloop
endfacet
facet normal 8.71201785029942e-13 2.6682310034466093e-28 0.9999999999999999
  outer loop
    vertex 414.8350094126983 145.9050780035411 21.00000000000592
    vertex 417.9600094126984 144.59241922988832 21.000000000001833
    vertex 416.34239038080756 146.52945564419502 21.000000000004604
  endloop
endfacet
facet normal 8.71201785029942e-13 2.6682310034466093e-28 0.9999999999999999
  outer loop
    vertex 416.34239038080756 146.52945564419502 21.000000000004604
    vertex 417.9600094126984 144.59241922988832 21.000000000001833
    vertex 417.96000941269835 146.74241922988836 21.00000000000319
  endloop
endfacet
facet normal 8.71201785029942e-13 2.6682310034466093e-28 0.9999999999999999
  outer loop
    vertex 417.96000941269835 146.74241922988836 21.00000000000319
    vertex 417.9600094126984 144.59241922988832 21.000000000001833
    vertex 419.57762844458904 146.52945564419502 21.000000000001783
  endloop
endfacet
facet normal 8.71201785029942e-13 2.6682310034466093e-28 0.9999999999999999
  outer loop
    vertex 419.57762844458904 146.52945564419502 21.000000000001783
    vertex 417.9600094126984 144.59241922988832 21.000000000001833
    vertex 421.5107135682146 142.54241922988822 21.000000000001833
  endloop
endfacet
facet normal 8.71201785029942e-13 2.6682310034466093e-28 0.9999999999999999
  outer loop
    vertex 419.57762844458904 146.52945564419502 21.000000000001783
    vertex 421.5107135682146 142.54241922988822 21.000000000001833
    vertex 421.08500941269835 145.9050780035411 21.00000000000047
  endloop
endfacet
facet normal 8.71201785029942e-13 2.6682310034466093e-28 0.9999999999999999
  outer loop
    vertex 421.08500941269835 145.9050780035411 21.00000000000047
    vertex 421.5107135682146 142.54241922988822 21.000000000001833
    vertex 422.3794267951142 144.91183661230428 20.999999999999343
  endloop
endfacet
facet normal 0.7908981031256959 -0.6068774592697652 -0.07861259379037486
  outer loop
    vertex 423.372668186351 137.36741922988838 20.999999999998476
    vertex 422.3794267951142 136.07300184747243 20.999999999999343
    vertex 420.4600094126809 136.16229221096617 1.0000000000010048
  endloop
endfacet
facet normal -0.9895469004654702 -0.13027632092613875 -0.06184668127822607
  outer loop
    vertex 411.7100094126983 140.49241922988836 21.000000000008637
    vertex 412.9600094126809 140.49241922988836 1.000000000007538
    vertex 411.92297299839163 138.8748001979976 21.000000000008452
  endloop
endfacet
facet normal -0.3819508467991519 0.922110914502271 -0.06184668127875583
  outer loop
    vertex 414.8350094126983 145.9050780035411 21.00000000000592
    vertex 416.34239038080756 146.52945564419502 21.000000000004604
    vertex 415.46000941268085 144.82254624881054 1.000000000005361
  endloop
endfacet
facet normal -0.7908981031258323 -0.6068774592697659 -0.07861259378899685
  outer loop
    vertex 412.54735063904553 137.36741922988836 21.000000000007912
    vertex 415.46000941268085 136.16229221096617 1.000000000005361
    vertex 413.5405920302824 136.07300184747243 21.000000000007045
  endloop
endfacet
facet normal 0.13012224514882256 -0.9883765787467192 -0.07861259378979911
  outer loop
    vertex 417.96000941269835 134.24241922988836 21.00000000000319
    vertex 420.4600094126809 136.16229221096617 1.0000000000010048
    vertex 419.57762844458904 134.4553828155817 21.000000000001783
  endloop
endfacet
facet normal 0.9999999999999999 -2.916258020976362e-14 -1.2015596808269157e-30
  outer loop
    vertex 414.40930525718215 142.54241922988842 19.00000000000619
    vertex 414.40930525718204 138.44241922988843 21.000000000001833
    vertex 414.40930525718204 138.44241922988843 19.00000000000619
  endloop
endfacet
facet normal 0.9999999999999999 -2.916258020976362e-14 -1.2015596808269157e-30
  outer loop
    vertex 414.40930525718204 138.44241922988843 21.000000000001833
    vertex 414.40930525718215 142.54241922988842 19.00000000000619
    vertex 414.40930525718215 142.54241922988842 21.000000000001833
  endloop
endfacet
facet normal 0.9895469004653624 -0.13027632092613792 -0.061846681279950314
  outer loop
    vertex 424.21000941269835 140.49241922988836 20.99999999999775
    vertex 423.997045827005 138.87480019799762 20.999999999997932
    vertex 422.96000941268085 140.49241922988836 0.9999999999988277
  endloop
endfacet
facet normal 0.0 0.0 0.9999999999999999
  outer loop
    vertex 417.9600094126981 136.39241922988833 14.000000000006192
    vertex 414.40930525718215 142.54241922988842 14.000000000006192
    vertex 414.40930525718204 138.44241922988843 14.000000000006192
  endloop
endfacet
facet normal 0.0 0.0 0.9999999999999999
  outer loop
    vertex 414.40930525718215 142.54241922988842 14.000000000006192
    vertex 417.9600094126981 136.39241922988833 14.000000000006192
    vertex 417.9600094126984 144.59241922988832 14.000000000006192
  endloop
endfacet
facet normal 0.0 0.0 0.9999999999999999
  outer loop
    vertex 417.9600094126984 144.59241922988832 14.000000000006192
    vertex 417.9600094126981 136.39241922988833 14.000000000006192
    vertex 421.51071356821444 138.44241922988823 14.000000000006192
  endloop
endfacet
facet normal 0.0 0.0 0.9999999999999999
  outer loop
    vertex 417.9600094126984 144.59241922988832 14.000000000006192
    vertex 421.51071356821444 138.44241922988823 14.000000000006192
    vertex 421.5107135682146 142.54241922988822 14.000000000006192
  endloop
endfacet
facet normal 0.13012224514882165 0.9883765787467194 -0.0786125937897994
  outer loop
    vertex 417.96000941269835 146.74241922988836 21.00000000000319
    vertex 419.57762844458904 146.52945564419502 21.000000000001783
    vertex 420.4600094126809 144.82254624881054 1.0000000000010048
  endloop
endfacet
facet normal -0.4999999999999746 0.8660254037844534 2.2477343221065036e-17
  outer loop
    vertex 417.9600094126981 136.39241922988833 21.000000000001833
    vertex 421.51071356821444 138.44241922988823 19.00000000000619
    vertex 417.9600094126981 136.39241922988833 19.00000000000619
  endloop
endfacet
facet normal -0.4999999999999746 0.8660254037844534 2.2477343221065036e-17
  outer loop
    vertex 421.51071356821444 138.44241922988823 19.00000000000619
    vertex 417.9600094126981 136.39241922988833 21.000000000001833
    vertex 421.51071356821444 138.44241922988823 21.000000000001833
  endloop
endfacet
facet normal -0.8620626526917305 0.49771210458984716 -0.09555440219499049
  outer loop
    vertex 415.46000941268085 144.82254624881054 1.000000000005361
    vertex 412.9600094126809 140.49241922988836 1.000000000007538
    vertex 412.54735063904553 143.61741922988836 21.000000000007912
  endloop
endfacet
facet normal 0.9210203482745865 -0.38149911947695403 -0.07861259379048813
  outer loop
    vertex 422.96000941268085 140.49241922988836 0.9999999999988277
    vertex 423.997045827005 138.87480019799762 20.999999999997932
    vertex 423.372668186351 137.36741922988838 20.999999999998476
  endloop
endfacet
facet normal 0.6075960536662641 0.791834593576133 -0.061846681279617836
  outer loop
    vertex 421.08500941269835 145.9050780035411 21.00000000000047
    vertex 422.3794267951142 144.91183661230428 20.999999999999343
    vertex 420.4600094126809 144.82254624881054 1.0000000000010048
  endloop
endfacet
facet normal -8.323037263973986e-14 -0.9954242091796915 -0.09555440219574142
  outer loop
    vertex 417.96000941269835 134.24241922988836 21.00000000000319
    vertex 415.46000941268085 136.16229221096617 1.000000000005361
    vertex 420.4600094126809 136.16229221096617 1.0000000000010048
  endloop
endfacet
facet normal -0.38195084679915114 -0.9221109145022715 -0.061846681278755616
  outer loop
    vertex 414.8350094126983 135.07976045623562 21.00000000000592
    vertex 415.46000941268085 136.16229221096617 1.000000000005361
    vertex 416.34239038080756 134.4553828155817 21.000000000004604
  endloop
endfacet
facet normal -0.8628885305775722 -0.4981889254095604 -0.08503633574505567
  outer loop
    vertex 412.9600094126809 140.49241922988836 1.000000000007538
    vertex 415.46000941268085 136.16229221096617 1.000000000005361
    vertex 411.92297299839163 138.8748001979976 21.000000000008452
  endloop
endfacet
facet normal 0.8620626526915645 -0.49771210458984627 -0.0955544021964924
  outer loop
    vertex 422.96000941268085 140.49241922988836 0.9999999999988277
    vertex 423.372668186351 137.36741922988838 20.999999999998476
    vertex 420.4600094126809 136.16229221096617 1.0000000000010048
  endloop
endfacet
facet normal -0.9210203482747235 0.381499119476954 -0.07861259378888334
  outer loop
    vertex 412.54735063904553 143.61741922988836 21.000000000007912
    vertex 412.9600094126809 140.49241922988836 1.000000000007538
    vertex 411.92297299839163 142.1100382617791 21.000000000008452
  endloop
endfacet
facet normal -0.1301222451489592 0.9883765787467192 -0.07861259378957272
  outer loop
    vertex 416.34239038080756 146.52945564419502 21.000000000004604
    vertex 417.96000941269835 146.74241922988836 21.00000000000319
    vertex 415.46000941268085 144.82254624881054 1.000000000005361
  endloop
endfacet
facet normal -8.370477866502587e-14 0.9954242091796915 -0.0955544021957417
  outer loop
    vertex 417.96000941269835 146.74241922988836 21.00000000000319
    vertex 420.4600094126809 144.82254624881054 1.0000000000010048
    vertex 415.46000941268085 144.82254624881054 1.000000000005361
  endloop
endfacet
facet normal -0.7908981031258326 0.6068774592697657 -0.078612593788997
  outer loop
    vertex 413.5405920302824 144.91183661230428 21.000000000007045
    vertex 415.46000941268085 144.82254624881054 1.000000000005361
    vertex 412.54735063904553 143.61741922988836 21.000000000007912
  endloop
endfacet
facet normal -0.918190776170935 -0.3803270723358412 -0.11080169945927579
  outer loop
    vertex 411.92297299839163 138.8748001979976 21.000000000008452
    vertex 415.46000941268085 136.16229221096617 1.000000000005361
    vertex 412.54735063904553 137.36741922988836 21.000000000007912
  endloop
endfacet
facet normal -0.13012224514895834 -0.9883765787467196 -0.07861259378957255
  outer loop
    vertex 416.34239038080756 134.4553828155817 21.000000000004604
    vertex 415.46000941268085 136.16229221096617 1.000000000005361
    vertex 417.96000941269835 134.24241922988836 21.00000000000319
  endloop
endfacet
facet normal -0.6075960536663718 0.791834593576133 -0.06184668127855924
  outer loop
    vertex 413.5405920302824 144.91183661230428 21.000000000007045
    vertex 414.8350094126983 145.9050780035411 21.00000000000592
    vertex 415.46000941268085 144.82254624881054 1.000000000005361
  endloop
endfacet
facet normal -1.7083578045567687e-13 0.9807852804032318 -0.1950903220161218
  outer loop
    vertex 415.47968214604504 144.7884720750996 0.7411809549028232
    vertex 420.45507010109196 144.81399111018436 0.8694738077809582
    vertex 420.44033667931626 144.7884720750996 0.7411809548985019
  endloop
endfacet
facet normal -1.7083578045567687e-13 0.9807852804032318 -0.1950903220161218
  outer loop
    vertex 420.45507010109196 144.81399111018436 0.8694738077809582
    vertex 415.47968214604504 144.7884720750996 0.7411809549028232
    vertex 415.4649487242696 144.81399111018436 0.8694738077853051
  endloop
endfacet
facet normal -4.847460345740527e-13 0.8314696123025461 -0.555570233019601
  outer loop
    vertex 415.5793169172903 144.6158995891018 0.39123857099653686
    vertex 420.38265914349086 144.688571652595 0.5000000000010734
    vertex 420.34070190807034 144.6158995891018 0.3912385709923892
  endloop
endfacet
facet normal -4.847460345740527e-13 0.8314696123025461 -0.555570233019601
  outer loop
    vertex 420.38265914349086 144.688571652595 0.5000000000010734
    vertex 415.5793169172903 144.6158995891018 0.39123857099653686
    vertex 415.5373596818701 144.688571652595 0.5000000000052941
  endloop
endfacet
facet normal -8.693019131391955e-13 0.06540312923014478 -0.9978589232386033
  outer loop
    vertex 419.95801847570493 143.9530724410306 0.008555138627632257
    vertex 416.0373596818696 143.82254624881054 4.857780011580103e-12
    vertex 415.96200034965506 143.9530724410306 0.008555138631113367
  endloop
endfacet
facet normal -8.693019131391955e-13 0.06540312923014478 -0.9978589232386033
  outer loop
    vertex 416.0373596818696 143.82254624881054 4.857780011580103e-12
    vertex 419.95801847570493 143.9530724410306 0.008555138627632257
    vertex 419.8826591434904 143.82254624881054 1.5080828252855835e-12
  endloop
endfacet
facet normal -5.752621058210368e-13 0.7518398074789822 -0.6593458151000633
  outer loop
    vertex 415.629111391406 144.5296530299971 0.29289321881866676
    vertex 420.34070190807034 144.6158995891018 0.3912385709923892
    vertex 420.29090743395454 144.5296530299971 0.29289321881460584
  endloop
endfacet
facet normal -5.752621058210368e-13 0.7518398074789822 -0.6593458151000633
  outer loop
    vertex 420.34070190807034 144.6158995891018 0.3912385709923892
    vertex 415.629111391406 144.5296530299971 0.29289321881866676
    vertex 415.5793169172903 144.6158995891018 0.39123857099653686
  endloop
endfacet
facet normal -8.544648521621288e-13 0.1950903220161318 -0.9807852804032297
  outer loop
    vertex 420.0320883888518 144.08136529391305 0.03407417371231025
    vertex 415.96200034965506 143.9530724410306 0.008555138631113367
    vertex 415.8879304365084 144.08136529391305 0.03407417371592023
  endloop
endfacet
facet normal -8.544648521621288e-13 0.1950903220161318 -0.9807852804032297
  outer loop
    vertex 415.96200034965506 143.9530724410306 0.008555138631113367
    vertex 420.0320883888518 144.08136529391305 0.03407417371231025
    vertex 419.95801847570493 143.9530724410306 0.008555138627632257
  endloop
endfacet
facet normal -5.832577178574247e-14 0.9978589232386033 -0.06540312923014753
  outer loop
    vertex 415.4649487242696 144.81399111018436 0.8694738077853051
    vertex 420.4600094126809 144.82254624881054 1.0000000000010048
    vertex 420.45507010109196 144.81399111018436 0.8694738077809582
  endloop
endfacet
facet normal -5.832577178574247e-14 0.9978589232386033 -0.06540312923014753
  outer loop
    vertex 420.4600094126809 144.82254624881054 1.0000000000010048
    vertex 415.4649487242696 144.81399111018436 0.8694738077853051
    vertex 415.46000941268085 144.82254624881054 1.000000000005361
  endloop
endfacet
facet normal -3.861128334529312e-13 0.8968727415326833 -0.4422886902190115
  outer loop
    vertex 415.5373596818701 144.688571652595 0.5000000000052941
    vertex 420.41606124028516 144.74642578132182 0.6173165676359543
    vertex 420.38265914349086 144.688571652595 0.5000000000010734
  endloop
endfacet
facet normal -3.861128334529312e-13 0.8968727415326833 -0.4422886902190115
  outer loop
    vertex 420.41606124028516 144.74642578132182 0.6173165676359543
    vertex 415.5373596818701 144.688571652595 0.5000000000052941
    vertex 415.50395758507597 144.74642578132182 0.6173165676402332
  endloop
endfacet
facet normal -2.80656824656077e-13 0.9469301294951079 -0.3214394653031552
  outer loop
    vertex 415.50395758507597 144.74642578132182 0.6173165676402332
    vertex 420.44033667931626 144.7884720750996 0.7411809548985019
    vertex 420.41606124028516 144.74642578132182 0.6173165676359543
  endloop
endfacet
facet normal -2.80656824656077e-13 0.9469301294951079 -0.3214394653031552
  outer loop
    vertex 420.44033667931626 144.7884720750996 0.7411809548985019
    vertex 415.50395758507597 144.74642578132182 0.6173165676402332
    vertex 415.47968214604504 144.7884720750996 0.7411809549028232
  endloop
endfacet
facet normal -7.250302459278687e-13 0.5555702330195971 -0.8314696123025488
  outer loop
    vertex 420.23412771840106 144.43130767781926 0.2066466597099676
    vertex 415.74868454727493 144.32254624881054 0.13397459622067157
    vertex 415.68589110695933 144.43130767781926 0.2066466597139298
  endloop
endfacet
facet normal -7.250302459278687e-13 0.5555702330195971 -0.8314696123025488
  outer loop
    vertex 415.74868454727493 144.32254624881054 0.13397459622067157
    vertex 420.23412771840106 144.43130767781926 0.2066466597099676
    vertex 420.17133427808534 144.32254624881054 0.1339745962168188
  endloop
endfacet
facet normal -8.251368326180024e-13 0.32143946530316503 -0.9469301294951046
  outer loop
    vertex 420.10360152618085 144.20522968117564 0.0761204674900294
    vertex 415.8879304365084 144.08136529391305 0.03407417371592023
    vertex 415.8164172991793 144.20522968117564 0.07612046749376403
  endloop
endfacet
facet normal -8.251368326180024e-13 0.32143946530316503 -0.9469301294951046
  outer loop
    vertex 415.8879304365084 144.08136529391305 0.03407417371592023
    vertex 420.10360152618085 144.20522968117564 0.0761204674900294
    vertex 420.0320883888518 144.08136529391305 0.03407417371231025
  endloop
endfacet
facet normal -6.557548230791763e-13 0.6593458151000731 -0.7518398074789736
  outer loop
    vertex 420.29090743395454 144.5296530299971 0.29289321881460584
    vertex 415.68589110695933 144.43130767781926 0.2066466597139298
    vertex 415.629111391406 144.5296530299971 0.29289321881866676
  endloop
endfacet
facet normal -6.557548230791763e-13 0.6593458151000731 -0.7518398074789736
  outer loop
    vertex 415.68589110695933 144.43130767781926 0.2066466597139298
    vertex 420.29090743395454 144.5296530299971 0.29289321881460584
    vertex 420.23412771840106 144.43130767781926 0.2066466597099676
  endloop
endfacet
facet normal -7.818678925123946e-13 0.4422886902190046 -0.8968727415326866
  outer loop
    vertex 420.17133427808534 144.32254624881054 0.1339745962168188
    vertex 415.8164172991793 144.20522968117564 0.07612046749376403
    vertex 415.74868454727493 144.32254624881054 0.13397459622067157
  endloop
endfacet
facet normal -7.818678925123946e-13 0.4422886902190046 -0.8968727415326866
  outer loop
    vertex 415.8164172991793 144.20522968117564 0.07612046749376403
    vertex 420.17133427808534 144.32254624881054 0.1339745962168188
    vertex 420.10360152618085 144.20522968117564 0.0761204674900294
  endloop
endfacet
facet normal -2.916258020976362e-14 -0.9999999999999999 0.0
  outer loop
    vertex 414.40930525718215 142.54241922988842 19.00000000000619
    vertex 413.4093052571822 142.54241922988848 17.000000000006185
    vertex 414.40930525718215 142.54241922988842 17.000000000006185
  endloop
endfacet
facet normal -2.916258020976362e-14 -0.9999999999999999 0.0
  outer loop
    vertex 413.4093052571822 142.54241922988848 17.000000000006185
    vertex 414.40930525718215 142.54241922988842 19.00000000000619
    vertex 413.4093052571822 142.54241922988848 19.00000000000619
  endloop
endfacet
facet normal -0.5000000000000259 -0.8660254037844237 0.0
  outer loop
    vertex 422.0107135682146 143.40844463367264 19.00000000000619
    vertex 418.46000941269847 145.45844463367277 17.000000000006185
    vertex 422.0107135682146 143.40844463367264 17.000000000006185
  endloop
endfacet
facet normal -0.5000000000000259 -0.8660254037844237 0.0
  outer loop
    vertex 418.46000941269847 145.45844463367277 17.000000000006185
    vertex 422.0107135682146 143.40844463367264 19.00000000000619
    vertex 418.46000941269847 145.45844463367277 19.00000000000619
  endloop
endfacet
facet normal -0.5000000000000259 -0.8660254037844237 -9.385927685228955e-20
  outer loop
    vertex 421.5107135682146 142.54241922988822 21.000000000001833
    vertex 417.9600094126984 144.59241922988832 19.00000000000619
    vertex 421.5107135682146 142.54241922988822 19.00000000000619
  endloop
endfacet
facet normal -0.5000000000000259 -0.8660254037844237 -9.385927685228955e-20
  outer loop
    vertex 417.9600094126984 144.59241922988832 19.00000000000619
    vertex 421.5107135682146 142.54241922988822 21.000000000001833
    vertex 417.9600094126984 144.59241922988832 21.000000000001833
  endloop
endfacet
facet normal 0.5000000000000253 0.8660254037844239 8.090561688629713e-32
  outer loop
    vertex 414.40930525718204 138.44241922988843 17.000000000006185
    vertex 417.9600094126981 136.39241922988833 14.000000000006192
    vertex 414.40930525718204 138.44241922988843 14.000000000006192
  endloop
endfacet
facet normal 0.5000000000000253 0.8660254037844239 8.090561688629713e-32
  outer loop
    vertex 417.9600094126981 136.39241922988833 14.000000000006192
    vertex 414.40930525718204 138.44241922988843 17.000000000006185
    vertex 417.9600094126981 136.39241922988833 17.000000000006185
  endloop
endfacet
facet normal 0.5000000000000253 0.8660254037844239 8.090561688629713e-32
  outer loop
    vertex 417.9600094126981 136.39241922988833 17.000000000006185
    vertex 414.40930525718204 138.44241922988843 17.000000000006185
    vertex 414.40930525718204 138.44241922988843 19.00000000000619
  endloop
endfacet
facet normal 0.5000000000000253 0.8660254037844239 8.090561688629713e-32
  outer loop
    vertex 417.9600094126981 136.39241922988833 17.000000000006185
    vertex 414.40930525718204 138.44241922988843 19.00000000000619
    vertex 417.9600094126981 136.39241922988833 19.00000000000619
  endloop
endfacet
facet normal 0.5000000000000253 0.8660254037844239 8.090561688629713e-32
  outer loop
    vertex 417.9600094126981 136.39241922988833 19.00000000000619
    vertex 414.40930525718204 138.44241922988843 19.00000000000619
    vertex 414.40930525718204 138.44241922988843 21.000000000001833
  endloop
endfacet
facet normal 0.5000000000000253 0.8660254037844239 8.090561688629713e-32
  outer loop
    vertex 417.9600094126981 136.39241922988833 19.00000000000619
    vertex 414.40930525718204 138.44241922988843 21.000000000001833
    vertex 417.9600094126981 136.39241922988833 21.000000000001833
  endloop
endfacet
facet normal 0.0 0.0 0.9999999999999999
  outer loop
    vertex 418.4600094126981 135.52639382610388 17.000000000006185
    vertex 421.51071356821444 138.44241922988823 17.000000000006185
    vertex 417.9600094126981 136.39241922988833 17.000000000006185
  endloop
endfacet
facet normal 0.0 0.0 0.9999999999999999
  outer loop
    vertex 421.51071356821444 138.44241922988823 17.000000000006185
    vertex 418.4600094126981 135.52639382610388 17.000000000006185
    vertex 422.0107135682144 137.57639382610378 17.000000000006185
  endloop
endfacet
facet normal -0.9999999999999999 2.9712817572212007e-14 -5.82977614191161e-45
  outer loop
    vertex 421.5107135682146 142.54241922988822 21.000000000001833
    vertex 421.51071356821444 138.44241922988823 19.00000000000619
    vertex 421.51071356821444 138.44241922988823 21.000000000001833
  endloop
endfacet
facet normal -0.9999999999999999 2.9712817572212007e-14 -5.82977614191161e-45
  outer loop
    vertex 421.51071356821444 138.44241922988823 19.00000000000619
    vertex 421.5107135682146 142.54241922988822 21.000000000001833
    vertex 421.51071356821444 138.44241922988823 17.000000000006185
  endloop
endfacet
facet normal -0.9999999999999999 2.9712817572212007e-14 -5.82977614191161e-45
  outer loop
    vertex 421.51071356821444 138.44241922988823 17.000000000006185
    vertex 421.5107135682146 142.54241922988822 21.000000000001833
    vertex 421.51071356821444 138.44241922988823 14.000000000006192
  endloop
endfacet
facet normal -0.9999999999999999 2.9712817572212007e-14 -5.82977614191161e-45
  outer loop
    vertex 421.51071356821444 138.44241922988823 14.000000000006192
    vertex 421.5107135682146 142.54241922988822 21.000000000001833
    vertex 421.5107135682146 142.54241922988822 14.000000000006192
  endloop
endfacet
facet normal -0.9999999999999999 2.9712817572212007e-14 -5.82977614191161e-45
  outer loop
    vertex 421.5107135682146 142.54241922988822 14.000000000006192
    vertex 421.5107135682146 142.54241922988822 21.000000000001833
    vertex 421.5107135682146 142.54241922988822 19.00000000000619
  endloop
endfacet
facet normal -0.9999999999999999 2.9712817572212007e-14 -5.82977614191161e-45
  outer loop
    vertex 421.5107135682146 142.54241922988822 14.000000000006192
    vertex 421.5107135682146 142.54241922988822 19.00000000000619
    vertex 421.5107135682146 142.54241922988822 17.000000000006185
  endloop
endfacet
facet normal 0.499999999999974 -0.8660254037844537 -1.3121427162995917e-31
  outer loop
    vertex 417.9600094126984 144.59241922988832 17.000000000006185
    vertex 414.40930525718215 142.54241922988842 14.000000000006192
    vertex 417.9600094126984 144.59241922988832 14.000000000006192
  endloop
endfacet
facet normal 0.499999999999974 -0.8660254037844537 -1.3121427162995917e-31
  outer loop
    vertex 414.40930525718215 142.54241922988842 14.000000000006192
    vertex 417.9600094126984 144.59241922988832 17.000000000006185
    vertex 414.40930525718215 142.54241922988842 17.000000000006185
  endloop
endfacet
facet normal 0.499999999999974 -0.8660254037844537 -1.3121427162995917e-31
  outer loop
    vertex 414.40930525718215 142.54241922988842 17.000000000006185
    vertex 417.9600094126984 144.59241922988832 17.000000000006185
    vertex 417.9600094126984 144.59241922988832 19.00000000000619
  endloop
endfacet
facet normal 0.499999999999974 -0.8660254037844537 -1.3121427162995917e-31
  outer loop
    vertex 414.40930525718215 142.54241922988842 17.000000000006185
    vertex 417.9600094126984 144.59241922988832 19.00000000000619
    vertex 414.40930525718215 142.54241922988842 19.00000000000619
  endloop
endfacet
facet normal 0.499999999999974 -0.8660254037844537 -1.3121427162995917e-31
  outer loop
    vertex 414.40930525718215 142.54241922988842 19.00000000000619
    vertex 417.9600094126984 144.59241922988832 19.00000000000619
    vertex 417.9600094126984 144.59241922988832 21.000000000001833
  endloop
endfacet
facet normal 0.499999999999974 -0.8660254037844537 -1.3121427162995917e-31
  outer loop
    vertex 414.40930525718215 142.54241922988842 19.00000000000619
    vertex 417.9600094126984 144.59241922988832 21.000000000001833
    vertex 414.40930525718215 142.54241922988842 21.000000000001833
  endloop
endfacet
facet normal 0.8660254037844534 0.4999999999999744 0.0
  outer loop
    vertex 417.9600094126981 136.39241922988833 17.000000000006185
    vertex 418.4600094126981 135.52639382610388 19.00000000000619
    vertex 418.4600094126981 135.52639382610388 17.000000000006185
  endloop
endfacet
facet normal 0.8660254037844534 0.4999999999999744 0.0
  outer loop
    vertex 418.4600094126981 135.52639382610388 19.00000000000619
    vertex 417.9600094126981 136.39241922988833 17.000000000006185
    vertex 417.9600094126981 136.39241922988833 19.00000000000619
  endloop
endfacet
facet normal 0.0 0.0 -0.9999999999999999
  outer loop
    vertex 421.51071356821444 138.44241922988823 19.00000000000619
    vertex 418.4600094126981 135.52639382610388 19.00000000000619
    vertex 417.9600094126981 136.39241922988833 19.00000000000619
  endloop
endfacet
facet normal 0.0 0.0 -0.9999999999999999
  outer loop
    vertex 418.4600094126981 135.52639382610388 19.00000000000619
    vertex 421.51071356821444 138.44241922988823 19.00000000000619
    vertex 422.0107135682144 137.57639382610378 19.00000000000619
  endloop
endfacet
facet normal -0.49999999999997446 0.8660254037844534 0.0
  outer loop
    vertex 417.9600094126981 136.39241922988833 17.000000000006185
    vertex 421.51071356821444 138.44241922988823 14.000000000006192
    vertex 417.9600094126981 136.39241922988833 14.000000000006192
  endloop
endfacet
facet normal -0.49999999999997446 0.8660254037844534 0.0
  outer loop
    vertex 421.51071356821444 138.44241922988823 14.000000000006192
    vertex 417.9600094126981 136.39241922988833 17.000000000006185
    vertex 421.51071356821444 138.44241922988823 17.000000000006185
  endloop
endfacet
facet normal -0.8660254037844534 -0.4999999999999744 -0.0
  outer loop
    vertex 421.51071356821444 138.44241922988823 19.00000000000619
    vertex 422.0107135682144 137.57639382610378 17.000000000006185
    vertex 422.0107135682144 137.57639382610378 19.00000000000619
  endloop
endfacet
facet normal -0.8660254037844534 -0.4999999999999744 -0.0
  outer loop
    vertex 422.0107135682144 137.57639382610378 17.000000000006185
    vertex 421.51071356821444 138.44241922988823 19.00000000000619
    vertex 421.51071356821444 138.44241922988823 17.000000000006185
  endloop
endfacet
facet normal 0.0 0.0 0.9999999999999999
  outer loop
    vertex 421.5107135682146 142.54241922988822 17.000000000006185
    vertex 418.46000941269847 145.45844463367277 17.000000000006185
    vertex 417.9600094126984 144.59241922988832 17.000000000006185
  endloop
endfacet
facet normal 0.0 0.0 0.9999999999999999
  outer loop
    vertex 418.46000941269847 145.45844463367277 17.000000000006185
    vertex 421.5107135682146 142.54241922988822 17.000000000006185
    vertex 422.0107135682146 143.40844463367264 17.000000000006185
  endloop
endfacet
facet normal -0.8660254037844237 0.5000000000000259 0.0
  outer loop
    vertex 422.0107135682146 143.40844463367264 19.00000000000619
    vertex 421.5107135682146 142.54241922988822 17.000000000006185
    vertex 421.5107135682146 142.54241922988822 19.00000000000619
  endloop
endfacet
facet normal -0.8660254037844237 0.5000000000000259 0.0
  outer loop
    vertex 421.5107135682146 142.54241922988822 17.000000000006185
    vertex 422.0107135682146 143.40844463367264 19.00000000000619
    vertex 422.0107135682146 143.40844463367264 17.000000000006185
  endloop
endfacet
facet normal 0.9999999999999999 -2.916258020976362e-14 0.0
  outer loop
    vertex 413.4093052571822 142.54241922988848 17.000000000006185
    vertex 413.4093052571821 138.44241922988846 19.00000000000619
    vertex 413.4093052571821 138.44241922988846 17.000000000006185
  endloop
endfacet
facet normal 0.9999999999999999 -2.916258020976362e-14 0.0
  outer loop
    vertex 413.4093052571821 138.44241922988846 19.00000000000619
    vertex 413.4093052571822 142.54241922988848 17.000000000006185
    vertex 413.4093052571822 142.54241922988848 19.00000000000619
  endloop
endfacet
facet normal 0.9999999999999999 -2.916258020976362e-14 5.654905573470924e-31
  outer loop
    vertex 414.40930525718215 142.54241922988842 14.000000000006192
    vertex 414.40930525718204 138.44241922988843 17.000000000006185
    vertex 414.40930525718204 138.44241922988843 14.000000000006192
  endloop
endfacet
facet normal 0.9999999999999999 -2.916258020976362e-14 5.654905573470924e-31
  outer loop
    vertex 414.40930525718204 138.44241922988843 17.000000000006185
    vertex 414.40930525718215 142.54241922988842 14.000000000006192
    vertex 414.40930525718215 142.54241922988842 17.000000000006185
  endloop
endfacet
facet normal 2.916258020976362e-14 0.9999999999999999 0.0
  outer loop
    vertex 413.4093052571821 138.44241922988846 19.00000000000619
    vertex 414.40930525718204 138.44241922988843 17.000000000006185
    vertex 413.4093052571821 138.44241922988846 17.000000000006185
  endloop
endfacet
facet normal 2.916258020976362e-14 0.9999999999999999 0.0
  outer loop
    vertex 414.40930525718204 138.44241922988843 17.000000000006185
    vertex 413.4093052571821 138.44241922988846 19.00000000000619
    vertex 414.40930525718204 138.44241922988843 19.00000000000619
  endloop
endfacet
facet normal -0.0 -0.0 -0.9999999999999999
  outer loop
    vertex 418.46000941269847 145.45844463367277 19.00000000000619
    vertex 421.5107135682146 142.54241922988822 19.00000000000619
    vertex 417.9600094126984 144.59241922988832 19.00000000000619
  endloop
endfacet
facet normal -0.0 -0.0 -0.9999999999999999
  outer loop
    vertex 421.5107135682146 142.54241922988822 19.00000000000619
    vertex 418.46000941269847 145.45844463367277 19.00000000000619
    vertex 422.0107135682146 143.40844463367264 19.00000000000619
  endloop
endfacet
facet normal 0.0 0.0 0.9999999999999999
  outer loop
    vertex 414.40930525718204 138.44241922988843 17.000000000006185
    vertex 413.4093052571822 142.54241922988848 17.000000000006185
    vertex 413.4093052571821 138.44241922988846 17.000000000006185
  endloop
endfacet
facet normal 0.0 0.0 0.9999999999999999
  outer loop
    vertex 413.4093052571822 142.54241922988848 17.000000000006185
    vertex 414.40930525718204 138.44241922988843 17.000000000006185
    vertex 414.40930525718215 142.54241922988842 17.000000000006185
  endloop
endfacet
facet normal -0.49999999999997446 0.8660254037844534 0.0
  outer loop
    vertex 418.4600094126981 135.52639382610388 19.00000000000619
    vertex 422.0107135682144 137.57639382610378 17.000000000006185
    vertex 418.4600094126981 135.52639382610388 17.000000000006185
  endloop
endfacet
facet normal -0.49999999999997446 0.8660254037844534 0.0
  outer loop
    vertex 422.0107135682144 137.57639382610378 17.000000000006185
    vertex 418.4600094126981 135.52639382610388 19.00000000000619
    vertex 422.0107135682144 137.57639382610378 19.00000000000619
  endloop
endfacet
facet normal -0.5000000000000259 -0.8660254037844237 -1.9896430182422725e-17
  outer loop
    vertex 421.5107135682146 142.54241922988822 17.000000000006185
    vertex 417.9600094126984 144.59241922988832 14.000000000006192
    vertex 421.5107135682146 142.54241922988822 14.000000000006192
  endloop
endfacet
facet normal -0.5000000000000259 -0.8660254037844237 -1.9896430182422725e-17
  outer loop
    vertex 417.9600094126984 144.59241922988832 14.000000000006192
    vertex 421.5107135682146 142.54241922988822 17.000000000006185
    vertex 417.9600094126984 144.59241922988832 17.000000000006185
  endloop
endfacet
facet normal -0.0 -0.0 -0.9999999999999999
  outer loop
    vertex 413.4093052571822 142.54241922988848 19.00000000000619
    vertex 414.40930525718204 138.44241922988843 19.00000000000619
    vertex 413.4093052571821 138.44241922988846 19.00000000000619
  endloop
endfacet
facet normal -0.0 -0.0 -0.9999999999999999
  outer loop
    vertex 414.40930525718204 138.44241922988843 19.00000000000619
    vertex 413.4093052571822 142.54241922988848 19.00000000000619
    vertex 414.40930525718215 142.54241922988842 19.00000000000619
  endloop
endfacet
facet normal 0.8660254037844237 -0.5000000000000259 0.0
  outer loop
    vertex 418.46000941269847 145.45844463367277 17.000000000006185
    vertex 417.9600094126984 144.59241922988832 19.00000000000619
    vertex 417.9600094126984 144.59241922988832 17.000000000006185
  endloop
endfacet
facet normal 0.8660254037844237 -0.5000000000000259 0.0
  outer loop
    vertex 417.9600094126984 144.59241922988832 19.00000000000619
    vertex 418.46000941269847 145.45844463367277 17.000000000006185
    vertex 418.46000941269847 145.45844463367277 19.00000000000619
  endloop
endfacet
facet normal -8.710964439998699e-13 -1.4943608491618597e-17 -0.9999999999999999
  outer loop
    vertex 416.0373596818696 143.82254624881054 4.857780011580103e-12
    vertex 416.0373596818696 137.16229221096617 4.85792100990423e-12
    vertex 414.1147099510593 140.49241922988836 6.5325581055653e-12
  endloop
endfacet
facet normal -8.710964439998699e-13 -1.4943608491618597e-17 -0.9999999999999999
  outer loop
    vertex 416.0373596818696 137.16229221096617 4.85792100990423e-12
    vertex 416.0373596818696 143.82254624881054 4.857780011580103e-12
    vertex 419.8826591434904 137.16229221096617 1.5080828252855835e-12
  endloop
endfacet
facet normal -8.710964439998699e-13 -1.4943608491618597e-17 -0.9999999999999999
  outer loop
    vertex 419.8826591434904 137.16229221096617 1.5080828252855835e-12
    vertex 416.0373596818696 143.82254624881054 4.857780011580103e-12
    vertex 419.8826591434904 143.82254624881054 1.5080828252855835e-12
  endloop
endfacet
facet normal -8.710964439998699e-13 -1.4943608491618597e-17 -0.9999999999999999
  outer loop
    vertex 419.8826591434904 137.16229221096617 1.5080828252855835e-12
    vertex 419.8826591434904 143.82254624881054 1.5080828252855835e-12
    vertex 421.80530887430075 140.49241922988836 -1.665542703754852e-13
  endloop
endfacet
facet normal 0.7200738067283212 0.41573480615127534 -0.5555702330202238
  outer loop
    vertex 422.7213944034604 140.49241922988836 0.3912385709903155
    vertex 420.38265914349086 144.688571652595 0.5000000000010734
    vertex 422.80530887430126 140.49241922988836 0.4999999999989631
  endloop
endfacet
facet normal 0.7200738067283212 0.41573480615127534 -0.5555702330202238
  outer loop
    vertex 420.38265914349086 144.688571652595 0.5000000000010734
    vertex 422.7213944034604 140.49241922988836 0.3912385709903155
    vertex 420.34070190807034 144.6158995891018 0.3912385709923892
  endloop
endfacet
facet normal 0.8641711769175603 -0.49892946161930246 -0.06540312923088455
  outer loop
    vertex 420.45507010109196 136.17084734959235 0.8694738077809582
    vertex 422.96000941268085 140.49241922988836 0.9999999999988277
    vertex 420.4600094126809 136.16229221096617 1.0000000000010048
  endloop
endfacet
facet normal 0.8641711769175603 -0.49892946161930246 -0.06540312923088455
  outer loop
    vertex 422.96000941268085 140.49241922988836 0.9999999999988277
    vertex 420.45507010109196 136.17084734959235 0.8694738077809582
    vertex 422.9501307895032 140.49241922988836 0.8694738077787849
  endloop
endfacet
facet normal 0.8493849684868704 0.4903926402016156 -0.19509032201687207
  outer loop
    vertex 422.92066394595184 140.49241922988836 0.7411809548963415
    vertex 420.45507010109196 144.81399111018436 0.8694738077809582
    vertex 422.9501307895032 140.49241922988836 0.8694738077787849
  endloop
endfacet
facet normal 0.8493849684868704 0.4903926402016156 -0.19509032201687207
  outer loop
    vertex 420.45507010109196 144.81399111018436 0.8694738077809582
    vertex 422.92066394595184 140.49241922988836 0.7411809548963415
    vertex 420.44033667931626 144.7884720750996 0.7411809548985019
  endloop
endfacet
facet normal 0.7767145781287135 0.44843637076634296 -0.4422886902196861
  outer loop
    vertex 420.38265914349086 144.688571652595 0.5000000000010734
    vertex 422.87211306788964 140.49241922988836 0.617316567633815
    vertex 422.80530887430126 140.49241922988836 0.4999999999989631
  endloop
endfacet
facet normal 0.7767145781287135 0.44843637076634296 -0.4422886902196861
  outer loop
    vertex 422.87211306788964 140.49241922988836 0.617316567633815
    vertex 420.38265914349086 144.688571652595 0.5000000000010734
    vertex 420.41606124028516 144.74642578132182 0.6173165676359543
  endloop
endfacet
facet normal 0.8641711769175588 0.49892946161930235 -0.06540312923090227
  outer loop
    vertex 420.45507010109196 144.81399111018436 0.8694738077809582
    vertex 422.96000941268085 140.49241922988836 0.9999999999988277
    vertex 422.9501307895032 140.49241922988836 0.8694738077787849
  endloop
endfacet
facet normal 0.8641711769175588 0.49892946161930235 -0.06540312923090227
  outer loop
    vertex 422.96000941268085 140.49241922988836 0.9999999999988277
    vertex 420.45507010109196 144.81399111018436 0.8694738077809582
    vertex 420.4600094126809 144.82254624881054 1.0000000000010048
  endloop
endfacet
facet normal 0.8200655477513709 -0.47346506474755395 -0.32143946530387135
  outer loop
    vertex 420.41606124028516 136.23841267845486 0.6173165676359543
    vertex 422.92066394595184 140.49241922988836 0.7411809548963415
    vertex 420.44033667931626 136.19636638467708 0.7411809548985019
  endloop
endfacet
facet normal 0.8200655477513709 -0.47346506474755395 -0.32143946530387135
  outer loop
    vertex 422.92066394595184 140.49241922988836 0.7411809548963415
    vertex 420.41606124028516 136.23841267845486 0.6173165676359543
    vertex 422.87211306788964 140.49241922988836 0.617316567633815
  endloop
endfacet
facet normal 0.8493849684868694 -0.4903926402016143 -0.19509032201687926
  outer loop
    vertex 420.44033667931626 136.19636638467708 0.7411809548985019
    vertex 422.9501307895032 140.49241922988836 0.8694738077787849
    vertex 420.45507010109196 136.17084734959235 0.8694738077809582
  endloop
endfacet
facet normal 0.8493849684868694 -0.4903926402016143 -0.19509032201687926
  outer loop
    vertex 422.9501307895032 140.49241922988836 0.8694738077787849
    vertex 420.44033667931626 136.19636638467708 0.7411809548985019
    vertex 422.92066394595184 140.49241922988836 0.7411809548963415
  endloop
endfacet
facet normal 0.16895317489760295 0.09754516100806648 -0.9807852804033768
  outer loop
    vertex 420.0320883888518 144.08136529391305 0.03407417371231025
    vertex 421.95602753872987 140.49241922988836 0.008555138625891915
    vertex 419.95801847570493 143.9530724410306 0.008555138627632257
  endloop
endfacet
facet normal 0.16895317489760295 0.09754516100806648 -0.9807852804033768
  outer loop
    vertex 421.95602753872987 140.49241922988836 0.008555138625891915
    vertex 420.0320883888518 144.08136529391305 0.03407417371231025
    vertex 422.1041673650235 140.49241922988836 0.034074173710505334
  endloop
endfacet
facet normal 0.05664077139943221 0.03270156461507212 -0.9978589232386527
  outer loop
    vertex 419.95801847570493 143.9530724410306 0.008555138627632257
    vertex 421.80530887430075 140.49241922988836 -1.665542703754852e-13
    vertex 419.8826591434904 143.82254624881054 1.5080828252855835e-12
  endloop
endfacet
facet normal 0.05664077139943221 0.03270156461507212 -0.9978589232386527
  outer loop
    vertex 421.80530887430075 140.49241922988836 -1.665542703754852e-13
    vertex 419.95801847570493 143.9530724410306 0.008555138627632257
    vertex 421.95602753872987 140.49241922988836 0.008555138625891915
  endloop
endfacet
facet normal 0.7767145781287137 -0.4484363707663422 -0.4422886902196868
  outer loop
    vertex 420.38265914349086 136.29626680718172 0.5000000000010734
    vertex 422.87211306788964 140.49241922988836 0.617316567633815
    vertex 420.41606124028516 136.23841267845486 0.6173165676359543
  endloop
endfacet
facet normal 0.7767145781287137 -0.4484363707663422 -0.4422886902196868
  outer loop
    vertex 422.87211306788964 140.49241922988836 0.617316567633815
    vertex 420.38265914349086 136.29626680718172 0.5000000000010734
    vertex 422.80530887430126 140.49241922988836 0.4999999999989631
  endloop
endfacet
facet normal 0.820065547751372 0.47346506474755534 -0.32143946530386597
  outer loop
    vertex 422.87211306788964 140.49241922988836 0.617316567633815
    vertex 420.44033667931626 144.7884720750996 0.7411809548985019
    vertex 422.92066394595184 140.49241922988836 0.7411809548963415
  endloop
endfacet
facet normal 0.820065547751372 0.47346506474755534 -0.32143946530386597
  outer loop
    vertex 420.44033667931626 144.7884720750996 0.7411809548985019
    vertex 422.87211306788964 140.49241922988836 0.617316567633815
    vertex 420.41606124028516 144.74642578132182 0.6173165676359543
  endloop
endfacet
facet normal 0.27837474273060336 0.16071973265158326 -0.9469301294953467
  outer loop
    vertex 420.10360152618085 144.20522968117564 0.0761204674900294
    vertex 422.1041673650235 140.49241922988836 0.034074173710505334
    vertex 420.0320883888518 144.08136529391305 0.03407417371231025
  endloop
endfacet
facet normal 0.27837474273060336 0.16071973265158326 -0.9469301294953467
  outer loop
    vertex 422.1041673650235 140.49241922988836 0.034074173710505334
    vertex 420.10360152618085 144.20522968117564 0.0761204674900294
    vertex 422.24719363968165 140.49241922988836 0.07612046748816244
  endloop
endfacet
facet normal 0.4811379353806857 0.27778511650979854 -0.8314696123029685
  outer loop
    vertex 420.23412771840106 144.43130767781926 0.2066466597099676
    vertex 422.3826591434905 140.49241922988836 0.13397459621489258
    vertex 420.17133427808534 144.32254624881054 0.1339745962168188
  endloop
endfacet
facet normal 0.4811379353806857 0.27778511650979854 -0.8314696123029685
  outer loop
    vertex 422.3826591434905 140.49241922988836 0.13397459621489258
    vertex 420.23412771840106 144.43130767781926 0.2066466597099676
    vertex 422.5082460241219 140.49241922988836 0.2066466597079867
  endloop
endfacet
facet normal 0.7200738067283153 -0.4157348061512712 -0.5555702330202343
  outer loop
    vertex 420.34070190807034 136.36893887067492 0.3912385709923892
    vertex 422.80530887430126 140.49241922988836 0.4999999999989631
    vertex 420.38265914349086 136.29626680718172 0.5000000000010734
  endloop
endfacet
facet normal 0.7200738067283153 -0.4157348061512712 -0.5555702330202343
  outer loop
    vertex 422.80530887430126 140.49241922988836 0.4999999999989631
    vertex 420.34070190807034 136.36893887067492 0.3912385709923892
    vertex 422.7213944034604 140.49241922988836 0.3912385709903155
  endloop
endfacet
facet normal 0.3830332415354207 0.2211443451095016 -0.8968727415330213
  outer loop
    vertex 420.17133427808534 144.32254624881054 0.1339745962168188
    vertex 422.24719363968165 140.49241922988836 0.07612046748816244
    vertex 420.10360152618085 144.20522968117564 0.0761204674900294
  endloop
endfacet
facet normal 0.3830332415354207 0.2211443451095016 -0.8968727415330213
  outer loop
    vertex 422.24719363968165 140.49241922988836 0.07612046748816244
    vertex 420.17133427808534 144.32254624881054 0.1339745962168188
    vertex 422.3826591434905 140.49241922988836 0.13397459621489258
  endloop
endfacet
facet normal 0.5710102257549656 0.32967290755003736 -0.7518398074794709
  outer loop
    vertex 420.29090743395454 144.5296530299971 0.29289321881460584
    vertex 422.5082460241219 140.49241922988836 0.2066466597079867
    vertex 420.23412771840106 144.43130767781926 0.2066466597099676
  endloop
endfacet
facet normal 0.5710102257549656 0.32967290755003736 -0.7518398074794709
  outer loop
    vertex 422.5082460241219 140.49241922988836 0.2066466597079867
    vertex 420.29090743395454 144.5296530299971 0.29289321881460584
    vertex 422.62180545522875 140.49241922988836 0.29289321881257563
  endloop
endfacet
facet normal 0.571010225754972 -0.3296729075500404 -0.7518398074794647
  outer loop
    vertex 422.5082460241219 140.49241922988836 0.2066466597079867
    vertex 420.29090743395454 136.45518542977962 0.29289321881460584
    vertex 420.23412771840106 136.55353078195745 0.2066466597099676
  endloop
endfacet
facet normal 0.571010225754972 -0.3296729075500404 -0.7518398074794647
  outer loop
    vertex 420.29090743395454 136.45518542977962 0.29289321881460584
    vertex 422.5082460241219 140.49241922988836 0.2066466597079867
    vertex 422.62180545522875 140.49241922988836 0.29289321881257563
  endloop
endfacet
facet normal 0.6511123728526256 0.3759199037394918 -0.6593458151006304
  outer loop
    vertex 420.34070190807034 144.6158995891018 0.3912385709923892
    vertex 422.62180545522875 140.49241922988836 0.29289321881257563
    vertex 420.29090743395454 144.5296530299971 0.29289321881460584
  endloop
endfacet
facet normal 0.6511123728526256 0.3759199037394918 -0.6593458151006304
  outer loop
    vertex 422.62180545522875 140.49241922988836 0.29289321881257563
    vertex 420.34070190807034 144.6158995891018 0.3912385709923892
    vertex 422.7213944034604 140.49241922988836 0.3912385709903155
  endloop
endfacet
facet normal 0.48113793538068517 -0.27778511650979765 -0.8314696123029691
  outer loop
    vertex 422.3826591434905 140.49241922988836 0.13397459621489258
    vertex 420.23412771840106 136.55353078195745 0.2066466597099676
    vertex 420.17133427808534 136.66229221096617 0.1339745962168188
  endloop
endfacet
facet normal 0.48113793538068517 -0.27778511650979765 -0.8314696123029691
  outer loop
    vertex 420.23412771840106 136.55353078195745 0.2066466597099676
    vertex 422.3826591434905 140.49241922988836 0.13397459621489258
    vertex 422.5082460241219 140.49241922988836 0.2066466597079867
  endloop
endfacet
facet normal 0.6511123728526252 -0.3759199037394909 -0.6593458151006311
  outer loop
    vertex 422.62180545522875 140.49241922988836 0.29289321881257563
    vertex 420.34070190807034 136.36893887067492 0.3912385709923892
    vertex 420.29090743395454 136.45518542977962 0.29289321881460584
  endloop
endfacet
facet normal 0.6511123728526252 -0.3759199037394909 -0.6593458151006311
  outer loop
    vertex 420.34070190807034 136.36893887067492 0.3912385709923892
    vertex 422.62180545522875 140.49241922988836 0.29289321881257563
    vertex 422.7213944034604 140.49241922988836 0.3912385709903155
  endloop
endfacet
facet normal -5.697604973618634e-14 -0.9978589232386038 -0.06540312923013895
  outer loop
    vertex 420.4600094126809 136.16229221096617 1.0000000000010048
    vertex 415.4649487242696 136.17084734959235 0.8694738077853054
    vertex 420.45507010109196 136.17084734959235 0.8694738077809582
  endloop
endfacet
facet normal -5.697604973618634e-14 -0.9978589232386038 -0.06540312923013895
  outer loop
    vertex 415.4649487242696 136.17084734959235 0.8694738077853054
    vertex 420.4600094126809 136.16229221096617 1.0000000000010048
    vertex 415.46000941268085 136.16229221096617 1.000000000005361
  endloop
endfacet
facet normal -3.8529644635994017e-13 -0.8968727415326833 -0.44228869021901146
  outer loop
    vertex 420.41606124028516 136.23841267845486 0.6173165676359543
    vertex 415.5373596818701 136.29626680718172 0.5000000000052942
    vertex 420.38265914349086 136.29626680718172 0.5000000000010734
  endloop
endfacet
facet normal -3.8529644635994017e-13 -0.8968727415326833 -0.44228869021901146
  outer loop
    vertex 415.5373596818701 136.29626680718172 0.5000000000052942
    vertex 420.41606124028516 136.23841267845486 0.6173165676359543
    vertex 415.50395758507597 136.23841267845486 0.6173165676402335
  endloop
endfacet
facet normal 0.056640771399432584 -0.03270156461507229 -0.9978589232386528
  outer loop
    vertex 421.80530887430075 140.49241922988836 -1.665542703754852e-13
    vertex 419.95801847570493 137.0317660187461 0.008555138627632257
    vertex 419.8826591434904 137.16229221096617 1.5080828252855835e-12
  endloop
endfacet
facet normal 0.056640771399432584 -0.03270156461507229 -0.9978589232386528
  outer loop
    vertex 419.95801847570493 137.0317660187461 0.008555138627632257
    vertex 421.80530887430075 140.49241922988836 -1.665542703754852e-13
    vertex 421.95602753872987 140.49241922988836 0.008555138625891915
  endloop
endfacet
facet normal -5.743841796258858e-13 -0.7518398074789806 -0.6593458151000652
  outer loop
    vertex 420.34070190807034 136.36893887067492 0.3912385709923892
    vertex 415.629111391406 136.45518542977962 0.29289321881866687
    vertex 420.29090743395454 136.45518542977962 0.29289321881460584
  endloop
endfacet
facet normal -5.743841796258858e-13 -0.7518398074789806 -0.6593458151000652
  outer loop
    vertex 415.629111391406 136.45518542977962 0.29289321881866687
    vertex 420.34070190807034 136.36893887067492 0.3912385709923892
    vertex 415.5793169172903 136.36893887067492 0.3912385709965371
  endloop
endfacet
facet normal 0.16895317489760334 -0.09754516100806651 -0.9807852804033766
  outer loop
    vertex 421.95602753872987 140.49241922988836 0.008555138625891915
    vertex 420.0320883888518 136.90347316586363 0.03407417371231025
    vertex 419.95801847570493 137.0317660187461 0.008555138627632257
  endloop
endfacet
facet normal 0.16895317489760334 -0.09754516100806651 -0.9807852804033766
  outer loop
    vertex 420.0320883888518 136.90347316586363 0.03407417371231025
    vertex 421.95602753872987 140.49241922988836 0.008555138625891915
    vertex 422.1041673650235 140.49241922988836 0.034074173710505334
  endloop
endfacet
facet normal -1.6995265810259929e-13 -0.9807852804032312 -0.1950903220161246
  outer loop
    vertex 420.45507010109196 136.17084734959235 0.8694738077809582
    vertex 415.47968214604504 136.19636638467708 0.7411809549028234
    vertex 420.44033667931626 136.19636638467708 0.7411809548985019
  endloop
endfacet
facet normal -1.6995265810259929e-13 -0.9807852804032312 -0.1950903220161246
  outer loop
    vertex 415.47968214604504 136.19636638467708 0.7411809549028234
    vertex 420.45507010109196 136.17084734959235 0.8694738077809582
    vertex 415.4649487242696 136.17084734959235 0.8694738077853054
  endloop
endfacet
facet normal -2.8002069169992373e-13 -0.9469301294951044 -0.3214394653031654
  outer loop
    vertex 420.44033667931626 136.19636638467708 0.7411809548985019
    vertex 415.50395758507597 136.23841267845486 0.6173165676402335
    vertex 420.41606124028516 136.23841267845486 0.6173165676359543
  endloop
endfacet
facet normal -2.8002069169992373e-13 -0.9469301294951044 -0.3214394653031654
  outer loop
    vertex 415.50395758507597 136.23841267845486 0.6173165676402335
    vertex 420.44033667931626 136.19636638467708 0.7411809548985019
    vertex 415.47968214604504 136.19636638467708 0.7411809549028234
  endloop
endfacet
facet normal -4.839821559929855e-13 -0.8314696123025401 -0.5555702330196098
  outer loop
    vertex 420.38265914349086 136.29626680718172 0.5000000000010734
    vertex 415.5793169172903 136.36893887067492 0.3912385709965371
    vertex 420.34070190807034 136.36893887067492 0.3912385709923892
  endloop
endfacet
facet normal -4.839821559929855e-13 -0.8314696123025401 -0.5555702330196098
  outer loop
    vertex 415.5793169172903 136.36893887067492 0.3912385709965371
    vertex 420.38265914349086 136.29626680718172 0.5000000000010734
    vertex 415.5373596818701 136.29626680718172 0.5000000000052942
  endloop
endfacet
facet normal 0.2783747427306028 -0.16071973265158263 -0.9469301294953469
  outer loop
    vertex 422.1041673650235 140.49241922988836 0.034074173710505334
    vertex 420.10360152618085 136.77960877860107 0.0761204674900294
    vertex 420.0320883888518 136.90347316586363 0.03407417371231025
  endloop
endfacet
facet normal 0.2783747427306028 -0.16071973265158263 -0.9469301294953469
  outer loop
    vertex 420.10360152618085 136.77960877860107 0.0761204674900294
    vertex 422.1041673650235 140.49241922988836 0.034074173710505334
    vertex 422.24719363968165 140.49241922988836 0.07612046748816244
  endloop
endfacet
facet normal 0.3830332415354205 -0.22114434510950115 -0.8968727415330214
  outer loop
    vertex 422.24719363968165 140.49241922988836 0.07612046748816244
    vertex 420.17133427808534 136.66229221096617 0.1339745962168188
    vertex 420.10360152618085 136.77960877860107 0.0761204674900294
  endloop
endfacet
facet normal 0.3830332415354205 -0.22114434510950115 -0.8968727415330214
  outer loop
    vertex 420.17133427808534 136.66229221096617 0.1339745962168188
    vertex 422.24719363968165 140.49241922988836 0.07612046748816244
    vertex 422.3826591434905 140.49241922988836 0.13397459621489258
  endloop
endfacet
endsolid changer.v.3.0
