solid changer.nut.v.1.0
facet normal 0.4811379353806857 0.2777851165097986 -0.8314696123029685
  outer loop
    vertex -27.258816942885858 101.88888447930914 -7.933533402932188
    vertex -5.773502691990906 62.5 -8.660254037882938
    vertex -27.886751346042832 100.80127018922194 -8.660254037863677
  endloop
endfacet
facet normal 0.4811379353806857 0.2777851165097986 -0.8314696123029685
  outer loop
    vertex -5.773502691990906 62.5 -8.660254037882938
    vertex -27.258816942885858 101.88888447930914 -7.933533402932188
    vertex -4.5176338856775855 62.5 -7.933533402951997
  endloop
endfacet
facet normal 0.7767145781287136 0.44843637076634296 -0.44228869021968614
  outer loop
    vertex -25.77350269198778 104.4615242270663 -5.000000000021131
    vertex -0.8789634479994136 62.5 -3.826834323693713
    vertex -1.5470053838839912 62.5 -5.000000000042233
  endloop
endfacet
facet normal 0.7767145781287136 0.44843637076634296 -0.44228869021968614
  outer loop
    vertex -0.8789634479994136 62.5 -3.826834323693713
    vertex -25.77350269198778 104.4615242270663 -5.000000000021131
    vertex -25.43948172404498 105.0400655143348 -3.826834323672321
  endloop
endfacet
facet normal 0.38303324153542073 0.22114434510950162 -0.8968727415330214
  outer loop
    vertex -27.886751346042832 100.80127018922194 -8.660254037863677
    vertex -7.128157730079781 62.5 -9.238795325150239
    vertex -28.56407886508752 99.62810451287282 -9.23879532513157
  endloop
endfacet
facet normal 0.38303324153542073 0.22114434510950162 -0.8968727415330214
  outer loop
    vertex -7.128157730079781 62.5 -9.238795325150239
    vertex -27.886751346042832 100.80127018922194 -8.660254037863677
    vertex -5.773502691990906 62.5 -8.660254037882938
  endloop
endfacet
facet normal 0.6511123728526256 0.37591990373949186 -0.6593458151006305
  outer loop
    vertex -26.19307504619239 103.73480359213427 -6.087614290107972
    vertex -3.3820395746085192 62.50000000000002 -7.071067811906107
    vertex -26.69101978735094 102.87233800108741 -7.071067811885805
  endloop
endfacet
facet normal 0.6511123728526256 0.37591990373949186 -0.6593458151006305
  outer loop
    vertex -3.3820395746085192 62.50000000000002 -7.071067811906107
    vertex -26.19307504619239 103.73480359213427 -6.087614290107972
    vertex -2.386150092292273 62.50000000000002 -6.087614290128709
  endloop
endfacet
facet normal 0.16895317489760295 0.0975451610080665 -0.9807852804033769
  outer loop
    vertex -29.279210238378397 98.38946064024715 -9.65925826290876
    vertex -10.039818739597356 62.5 -9.914448613772946
    vertex -30.019909369846594 97.10653211142245 -9.91444861375554
  endloop
endfacet
facet normal 0.16895317489760295 0.0975451610080665 -0.9807852804033769
  outer loop
    vertex -10.039818739597356 62.5 -9.914448613772946
    vertex -29.279210238378397 98.38946064024715 -9.65925826290876
    vertex -8.558420476661174 62.5 -9.65925826292681
  endloop
endfacet
facet normal 0.056640771399432216 0.03270156461507212 -0.9978589232386528
  outer loop
    vertex -30.019909369846594 97.10653211142245 -9.91444861375554
    vertex -11.54700538388831 62.499999999999986 -10.000000000033529
    vertex -30.77350269199211 95.80127018922194 -10.000000000016783
  endloop
endfacet
facet normal 0.056640771399432216 0.03270156461507212 -0.9978589232386528
  outer loop
    vertex -11.54700538388831 62.499999999999986 -10.000000000033529
    vertex -30.019909369846594 97.10653211142245 -9.91444861375554
    vertex -10.039818739597356 62.5 -9.914448613772946
  endloop
endfacet
facet normal 0.8493849684868705 0.49039264020161566 -0.1950903220168721
  outer loop
    vertex -0.3934546673777851 62.499999999999986 -2.588190451068447
    vertex -25.04939311597616 105.71571880296003 -1.3052619222222819
    vertex -0.09878623186394764 62.49999999999998 -1.3052619222440138
  endloop
endfacet
facet normal 0.8493849684868705 0.49039264020161566 -0.1950903220168721
  outer loop
    vertex -25.04939311597616 105.71571880296003 -1.3052619222222819
    vertex -0.3934546673777851 62.499999999999986 -2.588190451068447
    vertex -25.196727333733634 105.4605284521126 -2.5881904510468434
  endloop
endfacet
facet normal 0.27837474273060336 0.16071973265158326 -0.9469301294953467
  outer loop
    vertex -28.56407886508752 99.62810451287282 -9.23879532513157
    vertex -8.558420476661174 62.5 -9.65925826292681
    vertex -29.279210238378397 98.38946064024715 -9.65925826290876
  endloop
endfacet
facet normal 0.27837474273060336 0.16071973265158326 -0.9469301294953467
  outer loop
    vertex -8.558420476661174 62.5 -9.65925826292681
    vertex -28.56407886508752 99.62810451287282 -9.23879532513157
    vertex -7.128157730079781 62.5 -9.238795325150239
  endloop
endfacet
facet normal 0.5710102257549655 0.3296729075500373 -0.7518398074794709
  outer loop
    vertex -26.69101978735094 102.87233800108741 -7.071067811885805
    vertex -4.5176338856775855 62.5 -7.933533402951997
    vertex -27.258816942885858 101.88888447930914 -7.933533402932188
  endloop
endfacet
facet normal 0.5710102257549655 0.3296729075500373 -0.7518398074794709
  outer loop
    vertex -4.5176338856775855 62.5 -7.933533402951997
    vertex -26.69101978735094 102.87233800108741 -7.071067811885805
    vertex -3.3820395746085192 62.50000000000002 -7.071067811906107
  endloop
endfacet
facet normal 0.8200655477513721 0.4734650647475554 -0.32143946530386597
  outer loop
    vertex -0.8789634479994136 62.5 -3.826834323693713
    vertex -25.196727333733634 105.4605284521126 -2.5881904510468434
    vertex -0.3934546673777851 62.499999999999986 -2.588190451068447
  endloop
endfacet
facet normal 0.8200655477513721 0.4734650647475554 -0.32143946530386597
  outer loop
    vertex -25.196727333733634 105.4605284521126 -2.5881904510468434
    vertex -0.8789634479994136 62.5 -3.826834323693713
    vertex -25.43948172404498 105.0400655143348 -3.826834323672321
  endloop
endfacet
facet normal 0.864171176917559 0.49892946161930235 -0.06540312923090227
  outer loop
    vertex -25.04939311597616 105.71571880296003 -1.3052619222222819
    vertex -8.710171472969819e-11 62.499999999999986 -4.35854019542603e-11
    vertex -0.09878623186394764 62.49999999999998 -1.3052619222440138
  endloop
endfacet
facet normal 0.864171176917559 0.49892946161930235 -0.06540312923090227
  outer loop
    vertex -8.710171472969819e-11 62.499999999999986 -4.35854019542603e-11
    vertex -25.04939311597616 105.71571880296003 -1.3052619222222819
    vertex -25.00000000008716 105.80127018922192 -2.1815260708990535e-11
  endloop
endfacet
facet normal 0.7200738067283212 0.4157348061512754 -0.5555702330202239
  outer loop
    vertex -2.386150092292273 62.50000000000002 -6.087614290128709
    vertex -25.77350269198778 104.4615242270663 -5.000000000021131
    vertex -1.5470053838839912 62.5 -5.000000000042233
  endloop
endfacet
facet normal 0.7200738067283212 0.4157348061512754 -0.5555702330202239
  outer loop
    vertex -25.77350269198778 104.4615242270663 -5.000000000021131
    vertex -2.386150092292273 62.50000000000002 -6.087614290128709
    vertex -26.19307504619239 103.73480359213427 -6.087614290107972
  endloop
endfacet
facet normal 0.48113793538068517 -0.27778511650979765 -0.8314696123029691
  outer loop
    vertex -5.773502691990906 62.5 -8.660254037882938
    vertex -27.258816942885833 23.111115520690817 -7.933533402932188
    vertex -27.88675134604281 24.19872981077804 -8.660254037863677
  endloop
endfacet
facet normal 0.48113793538068517 -0.27778511650979765 -0.8314696123029691
  outer loop
    vertex -27.258816942885833 23.111115520690817 -7.933533402932188
    vertex -5.773502691990906 62.5 -8.660254037882938
    vertex -4.5176338856775855 62.5 -7.933533402951997
  endloop
endfacet
facet normal 0.38303324153542057 -0.22114434510950118 -0.8968727415330215
  outer loop
    vertex -7.128157730079781 62.5 -9.238795325150239
    vertex -27.88675134604281 24.19872981077804 -8.660254037863677
    vertex -28.564078865087495 25.37189548712714 -9.23879532513157
  endloop
endfacet
facet normal 0.38303324153542057 -0.22114434510950118 -0.8968727415330215
  outer loop
    vertex -27.88675134604281 24.19872981077804 -8.660254037863677
    vertex -7.128157730079781 62.5 -9.238795325150239
    vertex -5.773502691990906 62.5 -8.660254037882938
  endloop
endfacet
facet normal 0.7767145781287137 -0.44843637076634224 -0.44228869021968686
  outer loop
    vertex -25.77350269198776 20.53847577293367 -5.000000000021131
    vertex -0.8789634479994136 62.5 -3.826834323693713
    vertex -25.43948172404496 19.959934485665173 -3.826834323672321
  endloop
endfacet
facet normal 0.7767145781287137 -0.44843637076634224 -0.44228869021968686
  outer loop
    vertex -0.8789634479994136 62.5 -3.826834323693713
    vertex -25.77350269198776 20.53847577293367 -5.000000000021131
    vertex -1.5470053838839912 62.5 -5.000000000042233
  endloop
endfacet
facet normal 0.6511123728526254 -0.37591990373949097 -0.6593458151006312
  outer loop
    vertex -3.3820395746085192 62.50000000000002 -7.071067811906107
    vertex -26.193075046192376 21.26519640786572 -6.087614290107972
    vertex -26.691019787350925 22.127661998912586 -7.071067811885805
  endloop
endfacet
facet normal 0.6511123728526254 -0.37591990373949097 -0.6593458151006312
  outer loop
    vertex -26.193075046192376 21.26519640786572 -6.087614290107972
    vertex -3.3820395746085192 62.50000000000002 -7.071067811906107
    vertex -2.386150092292273 62.50000000000002 -6.087614290128709
  endloop
endfacet
facet normal 0.2783747427306028 -0.16071973265158265 -0.946930129495347
  outer loop
    vertex -8.558420476661174 62.5 -9.65925826292681
    vertex -28.564078865087495 25.37189548712714 -9.23879532513157
    vertex -29.27921023837838 26.610539359752817 -9.65925826290876
  endloop
endfacet
facet normal 0.2783747427306028 -0.16071973265158265 -0.946930129495347
  outer loop
    vertex -28.564078865087495 25.37189548712714 -9.23879532513157
    vertex -8.558420476661174 62.5 -9.65925826292681
    vertex -7.128157730079781 62.5 -9.238795325150239
  endloop
endfacet
facet normal 0.8200655477513709 -0.4734650647475539 -0.32143946530387135
  outer loop
    vertex -25.43948172404496 19.959934485665173 -3.826834323672321
    vertex -0.3934546673777851 62.499999999999986 -2.588190451068447
    vertex -25.196727333733605 19.539471547887352 -2.5881904510468434
  endloop
endfacet
facet normal 0.8200655477513709 -0.4734650647475539 -0.32143946530387135
  outer loop
    vertex -0.3934546673777851 62.499999999999986 -2.588190451068447
    vertex -25.43948172404496 19.959934485665173 -3.826834323672321
    vertex -0.8789634479994136 62.5 -3.826834323693713
  endloop
endfacet
facet normal 0.8641711769175604 -0.4989294616193025 -0.06540312923088455
  outer loop
    vertex -25.049393115976116 19.284281197039935 -1.3052619222222819
    vertex -8.710171472969819e-11 62.499999999999986 -4.35854019542603e-11
    vertex -25.000000000087137 19.198729810778033 -2.1815260708990535e-11
  endloop
endfacet
facet normal 0.8641711769175604 -0.4989294616193025 -0.06540312923088455
  outer loop
    vertex -8.710171472969819e-11 62.499999999999986 -4.35854019542603e-11
    vertex -25.049393115976116 19.284281197039935 -1.3052619222222819
    vertex -0.09878623186394764 62.49999999999998 -1.3052619222440138
  endloop
endfacet
facet normal 0.8493849684868695 -0.4903926402016144 -0.1950903220168793
  outer loop
    vertex -25.196727333733605 19.539471547887352 -2.5881904510468434
    vertex -0.09878623186394764 62.49999999999998 -1.3052619222440138
    vertex -25.049393115976116 19.284281197039935 -1.3052619222222819
  endloop
endfacet
facet normal 0.8493849684868695 -0.4903926402016144 -0.1950903220168793
  outer loop
    vertex -0.09878623186394764 62.49999999999998 -1.3052619222440138
    vertex -25.196727333733605 19.539471547887352 -2.5881904510468434
    vertex -0.3934546673777851 62.499999999999986 -2.588190451068447
  endloop
endfacet
facet normal 0.7200738067283154 -0.41573480615127123 -0.5555702330202343
  outer loop
    vertex -26.193075046192376 21.26519640786572 -6.087614290107972
    vertex -1.5470053838839912 62.5 -5.000000000042233
    vertex -25.77350269198776 20.53847577293367 -5.000000000021131
  endloop
endfacet
facet normal 0.7200738067283154 -0.41573480615127123 -0.5555702330202343
  outer loop
    vertex -1.5470053838839912 62.5 -5.000000000042233
    vertex -26.193075046192376 21.26519640786572 -6.087614290107972
    vertex -2.386150092292273 62.50000000000002 -6.087614290128709
  endloop
endfacet
facet normal 0.5710102257549721 -0.3296729075500405 -0.7518398074794647
  outer loop
    vertex -4.5176338856775855 62.5 -7.933533402951997
    vertex -26.691019787350925 22.127661998912586 -7.071067811885805
    vertex -27.258816942885833 23.111115520690817 -7.933533402932188
  endloop
endfacet
facet normal 0.5710102257549721 -0.3296729075500405 -0.7518398074794647
  outer loop
    vertex -26.691019787350925 22.127661998912586 -7.071067811885805
    vertex -4.5176338856775855 62.5 -7.933533402951997
    vertex -3.3820395746085192 62.50000000000002 -7.071067811906107
  endloop
endfacet
facet normal -0.7767145781294847 -0.44843637076634296 -0.4422886902183323
  outer loop
    vertex -99.12103655218162 62.5 -3.826834323608137
    vertex -74.22649730819529 20.53847577293367 -4.999999999978922
    vertex -74.56051827613605 19.959934485665173 -3.8268343236295292
  endloop
endfacet
facet normal -0.7767145781294847 -0.44843637076634296 -0.4422886902183323
  outer loop
    vertex -74.22649730819529 20.53847577293367 -4.999999999978922
    vertex -99.12103655218162 62.5 -3.826834323608137
    vertex -98.45299461629908 62.49999999999998 -4.9999999999578195
  endloop
endfacet
facet normal -3.8529644635994017e-13 -0.8968727415326834 -0.4422886902190115
  outer loop
    vertex -25.43948172404496 19.959934485665173 -3.826834323672321
    vertex -74.22649730819529 20.53847577293367 -4.999999999978922
    vertex -25.77350269198776 20.53847577293367 -5.000000000021131
  endloop
endfacet
facet normal -3.8529644635994017e-13 -0.8968727415326834 -0.4422886902190115
  outer loop
    vertex -74.22649730819529 20.53847577293367 -4.999999999978922
    vertex -25.43948172404496 19.959934485665173 -3.826834323672321
    vertex -74.56051827613605 19.959934485665173 -3.8268343236295292
  endloop
endfacet
facet normal -5.697604973618634e-14 -0.9978589232386039 -0.06540312923013895
  outer loop
    vertex -25.000000000087137 19.198729810778033 -2.1815260708990535e-11
    vertex -74.95060688420048 19.284281197039935 -1.3052619221788102
    vertex -25.049393115976116 19.284281197039935 -1.3052619222222819
  endloop
endfacet
facet normal -5.697604973618634e-14 -0.9978589232386039 -0.06540312923013895
  outer loop
    vertex -74.95060688420048 19.284281197039935 -1.3052619221788102
    vertex -25.000000000087137 19.198729810778033 -2.1815260708990535e-11
    vertex -75.0000000000872 19.198729810778033 2.1747581513409385e-11
  endloop
endfacet
facet normal -2.8002069169992373e-13 -0.9469301294951044 -0.32143946530316536
  outer loop
    vertex -25.196727333733605 19.539471547887352 -2.5881904510468434
    vertex -74.56051827613605 19.959934485665173 -3.8268343236295292
    vertex -25.43948172404496 19.959934485665173 -3.826834323672321
  endloop
endfacet
facet normal -2.8002069169992373e-13 -0.9469301294951044 -0.32143946530316536
  outer loop
    vertex -74.56051827613605 19.959934485665173 -3.8268343236295292
    vertex -25.196727333733605 19.539471547887352 -2.5881904510468434
    vertex -74.80327266644527 19.539471547887352 -2.5881904510036287
  endloop
endfacet
facet normal -7.813222669561577e-13 -0.4422886902190044 -0.8968727415326867
  outer loop
    vertex -71.43592113510294 25.37189548712714 -9.238795325094221
    vertex -27.88675134604281 24.19872981077804 -8.660254037863677
    vertex -72.11324865414662 24.19872981077804 -8.660254037825148
  endloop
endfacet
facet normal -7.813222669561577e-13 -0.4422886902190044 -0.8968727415326867
  outer loop
    vertex -27.88675134604281 24.19872981077804 -8.660254037863677
    vertex -71.43592113510294 25.37189548712714 -9.238795325094221
    vertex -28.564078865087495 25.37189548712714 -9.23879532513157
  endloop
endfacet
facet normal -4.839821559929855e-13 -0.8314696123025402 -0.55557023301961
  outer loop
    vertex -25.77350269198776 20.53847577293367 -5.000000000021131
    vertex -73.80692495399258 21.26519640786572 -6.087614290066493
    vertex -26.193075046192376 21.26519640786572 -6.087614290107972
  endloop
endfacet
facet normal -4.839821559929855e-13 -0.8314696123025402 -0.55557023301961
  outer loop
    vertex -73.80692495399258 21.26519640786572 -6.087614290066493
    vertex -25.77350269198776 20.53847577293367 -5.000000000021131
    vertex -74.22649730819529 20.53847577293367 -4.999999999978922
  endloop
endfacet
facet normal -0.8641711769176732 -0.4989294616193024 -0.06540312922939173
  outer loop
    vertex -100.00000000008728 62.499999999999986 4.3517722758679155e-11
    vertex -74.95060688420048 19.284281197039935 -1.3052619221788102
    vertex -75.0000000000872 19.198729810778033 2.1747581513409385e-11
  endloop
endfacet
facet normal -0.8641711769176732 -0.4989294616193024 -0.06540312922939173
  outer loop
    vertex -74.95060688420048 19.284281197039935 -1.3052619221788102
    vertex -100.00000000008728 62.499999999999986 4.3517722758679155e-11
    vertex -99.90121376831269 62.49999999999998 -1.3052619221570783
  endloop
endfacet
facet normal -8.249092277171398e-13 -0.3214394653031646 -0.9469301294951047
  outer loop
    vertex -70.7207897618128 26.610539359752817 -9.65925826287266
    vertex -28.564078865087495 25.37189548712714 -9.23879532513157
    vertex -71.43592113510294 25.37189548712714 -9.238795325094221
  endloop
endfacet
facet normal -8.249092277171398e-13 -0.3214394653031646 -0.9469301294951047
  outer loop
    vertex -28.564078865087495 25.37189548712714 -9.23879532513157
    vertex -70.7207897618128 26.610539359752817 -9.65925826287266
    vertex -29.27921023837838 26.610539359752817 -9.65925826290876
  endloop
endfacet
facet normal 0.16895317489760334 -0.09754516100806651 -0.9807852804033766
  outer loop
    vertex -10.039818739597356 62.5 -9.914448613772946
    vertex -29.27921023837838 26.610539359752817 -9.65925826290876
    vertex -30.019909369846584 27.89346788857749 -9.91444861375554
  endloop
endfacet
facet normal 0.16895317489760334 -0.09754516100806651 -0.9807852804033766
  outer loop
    vertex -29.27921023837838 26.610539359752817 -9.65925826290876
    vertex -10.039818739597356 62.5 -9.914448613772946
    vertex -8.558420476661174 62.5 -9.65925826292681
  endloop
endfacet
facet normal -8.544175156540734e-13 -0.19509032201613297 -0.9807852804032295
  outer loop
    vertex -69.98009063034503 27.89346788857749 -9.91444861372073
    vertex -29.27921023837838 26.610539359752817 -9.65925826290876
    vertex -70.7207897618128 26.610539359752817 -9.65925826287266
  endloop
endfacet
facet normal -8.544175156540734e-13 -0.19509032201613297 -0.9807852804032295
  outer loop
    vertex -29.27921023837838 26.610539359752817 -9.65925826290876
    vertex -69.98009063034503 27.89346788857749 -9.91444861372073
    vertex -30.019909369846584 27.89346788857749 -9.91444861375554
  endloop
endfacet
facet normal 0.05664077139943259 -0.03270156461507229 -0.9978589232386529
  outer loop
    vertex -11.54700538388831 62.499999999999986 -10.000000000033529
    vertex -30.019909369846584 27.89346788857749 -9.91444861375554
    vertex -30.773502691992093 29.198729810778016 -10.000000000016783
  endloop
endfacet
facet normal 0.05664077139943259 -0.03270156461507229 -0.9978589232386529
  outer loop
    vertex -30.019909369846584 27.89346788857749 -9.91444861375554
    vertex -11.54700538388831 62.499999999999986 -10.000000000033529
    vertex -10.039818739597356 62.5 -9.914448613772946
  endloop
endfacet
facet normal -5.743841796258859e-13 -0.7518398074789807 -0.6593458151000652
  outer loop
    vertex -26.193075046192376 21.26519640786572 -6.087614290107972
    vertex -73.30898021283572 22.127661998912586 -7.071067811845195
    vertex -26.691019787350925 22.127661998912586 -7.071067811885805
  endloop
endfacet
facet normal -5.743841796258859e-13 -0.7518398074789807 -0.6593458151000652
  outer loop
    vertex -73.30898021283572 22.127661998912586 -7.071067811845195
    vertex -26.193075046192376 21.26519640786572 -6.087614290107972
    vertex -73.80692495399258 21.26519640786572 -6.087614290066493
  endloop
endfacet
facet normal -0.720073806729283 -0.4157348061512715 -0.5555702330189803
  outer loop
    vertex -98.45299461629908 62.49999999999998 -4.9999999999578195
    vertex -73.80692495399258 21.26519640786572 -6.087614290066493
    vertex -74.22649730819529 20.53847577293367 -4.999999999978922
  endloop
endfacet
facet normal -0.720073806729283 -0.4157348061512715 -0.5555702330189803
  outer loop
    vertex -73.80692495399258 21.26519640786572 -6.087614290066493
    vertex -98.45299461629908 62.49999999999998 -4.9999999999578195
    vertex -97.61384990789269 62.499999999999986 -6.087614290045757
  endloop
endfacet
facet normal -0.6511123728537718 -0.37591990373949036 -0.6593458150994993
  outer loop
    vertex -96.61796042557813 62.49999999999998 -7.071067811824892
    vertex -73.80692495399258 21.26519640786572 -6.087614290066493
    vertex -97.61384990789269 62.499999999999986 -6.087614290045757
  endloop
endfacet
facet normal -0.6511123728537718 -0.37591990373949036 -0.6593458150994993
  outer loop
    vertex -73.80692495399258 21.26519640786572 -6.087614290066493
    vertex -96.61796042557813 62.49999999999998 -7.071067811824892
    vertex -73.30898021283572 22.127661998912586 -7.071067811845195
  endloop
endfacet
facet normal -0.5710102257562802 -0.3296729075500399 -0.7518398074784713
  outer loop
    vertex -95.48236611451058 62.499999999999986 -7.933533402872755
    vertex -73.30898021283572 22.127661998912586 -7.071067811845195
    vertex -96.61796042557813 62.49999999999998 -7.071067811824892
  endloop
endfacet
facet normal -0.5710102257562802 -0.3296729075500399 -0.7518398074784713
  outer loop
    vertex -73.30898021283572 22.127661998912586 -7.071067811845195
    vertex -95.48236611451058 62.499999999999986 -7.933533402872755
    vertex -72.74118305730232 23.111115520690817 -7.933533402892564
  endloop
endfacet
facet normal -0.48113793538213745 -0.27778511650980015 -0.8314696123021279
  outer loop
    vertex -94.22649730819855 62.49999999999998 -8.660254037805885
    vertex -72.74118305730232 23.111115520690817 -7.933533402892564
    vertex -95.48236611451058 62.499999999999986 -7.933533402872755
  endloop
endfacet
facet normal -0.48113793538213745 -0.27778511650980015 -0.8314696123021279
  outer loop
    vertex -72.74118305730232 23.111115520690817 -7.933533402892564
    vertex -94.22649730819855 62.49999999999998 -8.660254037805885
    vertex -72.11324865414662 24.19872981077804 -8.660254037825148
  endloop
endfacet
facet normal -1.699526581025993e-13 -0.9807852804032313 -0.19509032201612464
  outer loop
    vertex -25.049393115976116 19.284281197039935 -1.3052619222222819
    vertex -74.80327266644527 19.539471547887352 -2.5881904510036287
    vertex -25.196727333733605 19.539471547887352 -2.5881904510468434
  endloop
endfacet
facet normal -1.699526581025993e-13 -0.9807852804032313 -0.19509032201612464
  outer loop
    vertex -74.80327266644527 19.539471547887352 -2.5881904510036287
    vertex -25.049393115976116 19.284281197039935 -1.3052619222222819
    vertex -74.95060688420048 19.284281197039935 -1.3052619221788102
  endloop
endfacet
facet normal -8.693004288248884e-13 -0.06540312923014488 -0.9978589232386034
  outer loop
    vertex -69.22649730819968 29.198729810778016 -9.999999999983284
    vertex -30.019909369846584 27.89346788857749 -9.91444861375554
    vertex -69.98009063034503 27.89346788857749 -9.91444861372073
  endloop
endfacet
facet normal -8.693004288248884e-13 -0.06540312923014488 -0.9978589232386034
  outer loop
    vertex -30.019909369846584 27.89346788857749 -9.91444861375554
    vertex -69.22649730819968 29.198729810778016 -9.999999999983284
    vertex -30.773502691992093 29.198729810778016 -10.000000000016783
  endloop
endfacet
facet normal -6.549689311587965e-13 -0.659345815100083 -0.7518398074789651
  outer loop
    vertex -72.74118305730232 23.111115520690817 -7.933533402892564
    vertex -26.691019787350925 22.127661998912586 -7.071067811885805
    vertex -73.30898021283572 22.127661998912586 -7.071067811845195
  endloop
endfacet
facet normal -6.549689311587965e-13 -0.659345815100083 -0.7518398074789651
  outer loop
    vertex -26.691019787350925 22.127661998912586 -7.071067811885805
    vertex -72.74118305730232 23.111115520690817 -7.933533402892564
    vertex -27.258816942885833 23.111115520690817 -7.933533402932188
  endloop
endfacet
facet normal -7.243599607575462e-13 -0.5555702330195957 -0.8314696123025497
  outer loop
    vertex -72.11324865414662 24.19872981077804 -8.660254037825148
    vertex -27.258816942885833 23.111115520690817 -7.933533402932188
    vertex -72.74118305730232 23.111115520690817 -7.933533402892564
  endloop
endfacet
facet normal -7.243599607575462e-13 -0.5555702330195957 -0.8314696123025497
  outer loop
    vertex -27.258816942885833 23.111115520690817 -7.933533402932188
    vertex -72.11324865414662 24.19872981077804 -8.660254037825148
    vertex -27.88675134604281 24.19872981077804 -8.660254037863677
  endloop
endfacet
facet normal -0.849384968487213 -0.49039264020161705 -0.19509032201537657
  outer loop
    vertex -99.90121376831269 62.49999999999998 -1.3052619221570783
    vertex -74.80327266644527 19.539471547887352 -2.5881904510036287
    vertex -74.95060688420048 19.284281197039935 -1.3052619221788102
  endloop
endfacet
facet normal -0.849384968487213 -0.49039264020161705 -0.19509032201537657
  outer loop
    vertex -74.80327266644527 19.539471547887352 -2.5881904510036287
    vertex -99.90121376831269 62.49999999999998 -1.3052619221570783
    vertex -99.6065453328011 62.49999999999998 -2.588190450982025
  endloop
endfacet
facet normal -0.8200655477519269 -0.4734650647475519 -0.32143946530245604
  outer loop
    vertex -99.6065453328011 62.49999999999998 -2.588190450982025
    vertex -74.56051827613605 19.959934485665173 -3.8268343236295292
    vertex -74.80327266644527 19.539471547887352 -2.5881904510036287
  endloop
endfacet
facet normal -0.8200655477519269 -0.4734650647475519 -0.32143946530245604
  outer loop
    vertex -74.56051827613605 19.959934485665173 -3.8268343236295292
    vertex -99.6065453328011 62.49999999999998 -2.588190450982025
    vertex -99.12103655218162 62.5 -3.826834323608137
  endloop
endfacet
facet normal -0.864171176917673 0.49892946161930307 -0.0654031292293933
  outer loop
    vertex -100.00000000008728 62.499999999999986 4.3517722758679155e-11
    vertex -74.95060688420047 105.71571880295996 -1.305261922178812
    vertex -99.90121376831269 62.49999999999998 -1.3052619221570783
  endloop
endfacet
facet normal -0.864171176917673 0.49892946161930307 -0.0654031292293933
  outer loop
    vertex -74.95060688420047 105.71571880295996 -1.305261922178812
    vertex -100.00000000008728 62.499999999999986 4.3517722758679155e-11
    vertex -75.0000000000872 105.8012701892219 2.1747581513409385e-11
  endloop
endfacet
facet normal -0.8493849684872129 0.49039264020161777 -0.19509032201537624
  outer loop
    vertex -74.95060688420047 105.71571880295996 -1.305261922178812
    vertex -99.6065453328011 62.49999999999998 -2.588190450982025
    vertex -99.90121376831269 62.49999999999998 -1.3052619221570783
  endloop
endfacet
facet normal -0.8493849684872129 0.49039264020161777 -0.19509032201537624
  outer loop
    vertex -99.6065453328011 62.49999999999998 -2.588190450982025
    vertex -74.95060688420047 105.71571880295996 -1.305261922178812
    vertex -74.80327266644522 105.46052845211257 -2.588190451003631
  endloop
endfacet
facet normal -0.8200655477519317 0.47346506474755584 -0.32143946530243794
  outer loop
    vertex -74.80327266644522 105.46052845211257 -2.588190451003631
    vertex -99.12103655218162 62.5 -3.826834323608137
    vertex -99.6065453328011 62.49999999999998 -2.588190450982025
  endloop
endfacet
facet normal -0.8200655477519317 0.47346506474755584 -0.32143946530243794
  outer loop
    vertex -99.12103655218162 62.5 -3.826834323608137
    vertex -74.80327266644522 105.46052845211257 -2.588190451003631
    vertex -74.56051827613604 105.04006551433476 -3.8268343236295306
  endloop
endfacet
facet normal -0.3830332415369849 -0.2211443451095026 -0.8968727415323532
  outer loop
    vertex -92.87184227011068 62.499999999999986 -9.238795325075552
    vertex -72.11324865414662 24.19872981077804 -8.660254037825148
    vertex -94.22649730819855 62.49999999999998 -8.660254037805885
  endloop
endfacet
facet normal -0.3830332415369849 -0.2211443451095026 -0.8968727415323532
  outer loop
    vertex -72.11324865414662 24.19872981077804 -8.660254037825148
    vertex -92.87184227011068 62.499999999999986 -9.238795325075552
    vertex -71.43592113510294 25.37189548712714 -9.238795325094221
  endloop
endfacet
facet normal -0.27837474273225044 -0.16071973265158165 -0.9469301294948629
  outer loop
    vertex -91.44157952353002 62.5 -9.65925826285461
    vertex -71.43592113510294 25.37189548712714 -9.238795325094221
    vertex -92.87184227011068 62.499999999999986 -9.238795325075552
  endloop
endfacet
facet normal -0.27837474273225044 -0.16071973265158165 -0.9469301294948629
  outer loop
    vertex -71.43592113510294 25.37189548712714 -9.238795325094221
    vertex -91.44157952353002 62.5 -9.65925826285461
    vertex -70.7207897618128 26.610539359752817 -9.65925826287266
  endloop
endfacet
facet normal -0.7767145781294812 0.44843637076634185 -0.4422886902183392
  outer loop
    vertex -99.12103655218162 62.5 -3.826834323608137
    vertex -74.22649730819528 104.46152422706625 -4.999999999978923
    vertex -98.45299461629908 62.49999999999998 -4.9999999999578195
  endloop
endfacet
facet normal -0.7767145781294812 0.44843637076634185 -0.4422886902183392
  outer loop
    vertex -74.22649730819528 104.46152422706625 -4.999999999978923
    vertex -99.12103655218162 62.5 -3.826834323608137
    vertex -74.56051827613604 105.04006551433476 -3.8268343236295306
  endloop
endfacet
facet normal -0.16895317489931216 -0.09754516100806672 -0.9807852804030824
  outer loop
    vertex -89.96018126059428 62.499999999999986 -9.914448613703325
    vertex -70.7207897618128 26.610539359752817 -9.65925826287266
    vertex -91.44157952353002 62.5 -9.65925826285461
  endloop
endfacet
facet normal -0.16895317489931216 -0.09754516100806672 -0.9807852804030824
  outer loop
    vertex -70.7207897618128 26.610539359752817 -9.65925826287266
    vertex -89.96018126059428 62.499999999999986 -9.914448613703325
    vertex -69.98009063034503 27.89346788857749 -9.91444861372073
  endloop
endfacet
facet normal -0.7200738067292848 0.4157348061512731 -0.5555702330189767
  outer loop
    vertex -74.22649730819528 104.46152422706625 -4.999999999978923
    vertex -97.61384990789269 62.499999999999986 -6.087614290045757
    vertex -98.45299461629908 62.49999999999998 -4.9999999999578195
  endloop
endfacet
facet normal -0.7200738067292848 0.4157348061512731 -0.5555702330189767
  outer loop
    vertex -97.61384990789269 62.499999999999986 -6.087614290045757
    vertex -74.22649730819528 104.46152422706625 -4.999999999978923
    vertex -73.80692495399255 103.73480359213423 -6.087614290066495
  endloop
endfacet
facet normal -0.056640771401172046 -0.032701564615072995 -0.9978589232385541
  outer loop
    vertex -88.45299461630349 62.499999999999986 -9.999999999966539
    vertex -69.98009063034503 27.89346788857749 -9.91444861372073
    vertex -89.96018126059428 62.499999999999986 -9.914448613703325
  endloop
endfacet
facet normal -0.056640771401172046 -0.032701564615072995 -0.9978589232385541
  outer loop
    vertex -69.98009063034503 27.89346788857749 -9.91444861372073
    vertex -88.45299461630349 62.499999999999986 -9.999999999966539
    vertex -69.22649730819968 29.198729810778016 -9.999999999983284
  endloop
endfacet
facet normal -1.0 2.9712817572212007e-14 -5.829776141911611e-45
  outer loop
    vertex -14.492958444750364 82.9999999999987 199.99999999998647
    vertex -14.492958444751583 41.99999999999872 180.00000000003004
    vertex -14.492958444751583 41.99999999999872 199.99999999998647
  endloop
endfacet
facet normal -1.0 2.9712817572212007e-14 -5.829776141911611e-45
  outer loop
    vertex -14.492958444751583 41.99999999999872 180.00000000003004
    vertex -14.492958444750364 82.9999999999987 199.99999999998647
    vertex -14.492958444751583 41.99999999999872 160.00000000002998
  endloop
endfacet
facet normal -1.0 2.9712817572212007e-14 -5.829776141911611e-45
  outer loop
    vertex -14.492958444751583 41.99999999999872 160.00000000002998
    vertex -14.492958444750364 82.9999999999987 199.99999999998647
    vertex -14.492958444751583 41.99999999999872 130.00000000003007
  endloop
endfacet
facet normal -1.0 2.9712817572212007e-14 -5.829776141911611e-45
  outer loop
    vertex -14.492958444751583 41.99999999999872 130.00000000003007
    vertex -14.492958444750364 82.9999999999987 199.99999999998647
    vertex -14.492958444750364 82.9999999999987 130.00000000003007
  endloop
endfacet
facet normal -1.0 2.9712817572212007e-14 -5.829776141911611e-45
  outer loop
    vertex -14.492958444750364 82.9999999999987 130.00000000003007
    vertex -14.492958444750364 82.9999999999987 199.99999999998647
    vertex -14.492958444750364 82.9999999999987 180.00000000003004
  endloop
endfacet
facet normal -1.0 2.9712817572212007e-14 -5.829776141911611e-45
  outer loop
    vertex -14.492958444750364 82.9999999999987 130.00000000003007
    vertex -14.492958444750364 82.9999999999987 180.00000000003004
    vertex -14.492958444750364 82.9999999999987 160.00000000002998
  endloop
endfacet
facet normal -0.0 -0.0 -1.0
  outer loop
    vertex -95.50704155507435 83.00000000000111 180.00000000003004
    vertex -85.50704155507555 42.00000000000082 180.00000000003004
    vertex -95.50704155507556 42.00000000000111 180.00000000003004
  endloop
endfacet
facet normal -0.0 -0.0 -1.0
  outer loop
    vertex -85.50704155507555 42.00000000000082 180.00000000003004
    vertex -95.50704155507435 83.00000000000111 180.00000000003004
    vertex -85.50704155507435 83.00000000000082 180.00000000003004
  endloop
endfacet
facet normal 2.916258020976362e-14 1.0 0.0
  outer loop
    vertex -95.50704155507556 42.00000000000111 180.00000000003004
    vertex -85.50704155507555 42.00000000000082 160.00000000002998
    vertex -95.50704155507556 42.00000000000111 160.00000000002998
  endloop
endfacet
facet normal 2.916258020976362e-14 1.0 0.0
  outer loop
    vertex -85.50704155507555 42.00000000000082 160.00000000002998
    vertex -95.50704155507556 42.00000000000111 180.00000000003004
    vertex -85.50704155507555 42.00000000000082 180.00000000003004
  endloop
endfacet
facet normal -0.4999999999999744 0.8660254037844534 0.0
  outer loop
    vertex -44.999999999914415 12.839745962155241 180.00000000003004
    vertex -9.492958444751839 33.33974596215419 160.00000000002998
    vertex -44.999999999914415 12.839745962155241 160.00000000002998
  endloop
endfacet
facet normal -0.4999999999999744 0.8660254037844534 0.0
  outer loop
    vertex -9.492958444751839 33.33974596215419 160.00000000002998
    vertex -44.999999999914415 12.839745962155241 180.00000000003004
    vertex -9.492958444751839 33.33974596215419 180.00000000003004
  endloop
endfacet
facet normal 0.5000000000000254 0.866025403784424 8.090561688629713e-32
  outer loop
    vertex -85.50704155507555 42.00000000000082 160.00000000002998
    vertex -49.99999999991416 21.499999999999776 130.00000000003007
    vertex -85.50704155507555 42.00000000000082 130.00000000003007
  endloop
endfacet
facet normal 0.5000000000000254 0.866025403784424 8.090561688629713e-32
  outer loop
    vertex -49.99999999991416 21.499999999999776 130.00000000003007
    vertex -85.50704155507555 42.00000000000082 160.00000000002998
    vertex -49.99999999991416 21.499999999999776 160.00000000002998
  endloop
endfacet
facet normal 0.5000000000000254 0.866025403784424 8.090561688629713e-32
  outer loop
    vertex -49.99999999991416 21.499999999999776 160.00000000002998
    vertex -85.50704155507555 42.00000000000082 160.00000000002998
    vertex -85.50704155507555 42.00000000000082 180.00000000003004
  endloop
endfacet
facet normal 0.5000000000000254 0.866025403784424 8.090561688629713e-32
  outer loop
    vertex -49.99999999991416 21.499999999999776 160.00000000002998
    vertex -85.50704155507555 42.00000000000082 180.00000000003004
    vertex -49.99999999991416 21.499999999999776 180.00000000003004
  endloop
endfacet
facet normal 0.5000000000000254 0.866025403784424 8.090561688629713e-32
  outer loop
    vertex -49.99999999991416 21.499999999999776 180.00000000003004
    vertex -85.50704155507555 42.00000000000082 180.00000000003004
    vertex -85.50704155507555 42.00000000000082 199.99999999998647
  endloop
endfacet
facet normal 0.5000000000000254 0.866025403784424 8.090561688629713e-32
  outer loop
    vertex -49.99999999991416 21.499999999999776 180.00000000003004
    vertex -85.50704155507555 42.00000000000082 199.99999999998647
    vertex -49.99999999991416 21.499999999999776 199.99999999998647
  endloop
endfacet
facet normal 0.0 0.0 1.0
  outer loop
    vertex -49.99999999991416 21.499999999999776 130.00000000003007
    vertex -85.50704155507435 83.00000000000082 130.00000000003007
    vertex -85.50704155507555 42.00000000000082 130.00000000003007
  endloop
endfacet
facet normal 0.0 0.0 1.0
  outer loop
    vertex -85.50704155507435 83.00000000000082 130.00000000003007
    vertex -49.99999999991416 21.499999999999776 130.00000000003007
    vertex -49.99999999991173 103.49999999999976 130.00000000003007
  endloop
endfacet
facet normal 0.0 0.0 1.0
  outer loop
    vertex -49.99999999991173 103.49999999999976 130.00000000003007
    vertex -49.99999999991416 21.499999999999776 130.00000000003007
    vertex -14.492958444751583 41.99999999999872 130.00000000003007
  endloop
endfacet
facet normal 0.0 0.0 1.0
  outer loop
    vertex -49.99999999991173 103.49999999999976 130.00000000003007
    vertex -14.492958444751583 41.99999999999872 130.00000000003007
    vertex -14.492958444750364 82.9999999999987 130.00000000003007
  endloop
endfacet
facet normal -0.6075960536663719 -0.7918345935761331 -0.06184668127855905
  outer loop
    vertex -94.19417382407221 18.305826175840767 200.00000000003857
    vertex -75.0000000000872 19.198729810778033 2.1747581513409385e-11
    vertex -81.24999999991293 8.373412263472558 200.00000000002728
  endloop
endfacet
facet normal 0.499999999999974 -0.8660254037844537 -1.3121427162995917e-31
  outer loop
    vertex -49.99999999991173 103.49999999999976 160.00000000002998
    vertex -85.50704155507435 83.00000000000082 130.00000000003007
    vertex -49.99999999991173 103.49999999999976 130.00000000003007
  endloop
endfacet
facet normal 0.499999999999974 -0.8660254037844537 -1.3121427162995917e-31
  outer loop
    vertex -85.50704155507435 83.00000000000082 130.00000000003007
    vertex -49.99999999991173 103.49999999999976 160.00000000002998
    vertex -85.50704155507435 83.00000000000082 160.00000000002998
  endloop
endfacet
facet normal 0.499999999999974 -0.8660254037844537 -1.3121427162995917e-31
  outer loop
    vertex -85.50704155507435 83.00000000000082 160.00000000002998
    vertex -49.99999999991173 103.49999999999976 160.00000000002998
    vertex -49.99999999991173 103.49999999999976 180.00000000003004
  endloop
endfacet
facet normal 0.499999999999974 -0.8660254037844537 -1.3121427162995917e-31
  outer loop
    vertex -85.50704155507435 83.00000000000082 160.00000000002998
    vertex -49.99999999991173 103.49999999999976 180.00000000003004
    vertex -85.50704155507435 83.00000000000082 180.00000000003004
  endloop
endfacet
facet normal 0.499999999999974 -0.8660254037844537 -1.3121427162995917e-31
  outer loop
    vertex -85.50704155507435 83.00000000000082 180.00000000003004
    vertex -49.99999999991173 103.49999999999976 180.00000000003004
    vertex -49.99999999991173 103.49999999999976 199.99999999998647
  endloop
endfacet
facet normal 0.499999999999974 -0.8660254037844537 -1.3121427162995917e-31
  outer loop
    vertex -85.50704155507435 83.00000000000082 180.00000000003004
    vertex -49.99999999991173 103.49999999999976 199.99999999998647
    vertex -85.50704155507435 83.00000000000082 199.99999999998647
  endloop
endfacet
facet normal -0.4999999999999744 0.8660254037844534 -0.0
  outer loop
    vertex -49.99999999991416 21.499999999999776 160.00000000002998
    vertex -14.492958444751583 41.99999999999872 130.00000000003007
    vertex -49.99999999991416 21.499999999999776 130.00000000003007
  endloop
endfacet
facet normal -0.4999999999999744 0.8660254037844534 -0.0
  outer loop
    vertex -14.492958444751583 41.99999999999872 130.00000000003007
    vertex -49.99999999991416 21.499999999999776 160.00000000002998
    vertex -14.492958444751583 41.99999999999872 160.00000000002998
  endloop
endfacet
facet normal 0.1301222451488226 -0.9883765787467195 -0.07861259378979914
  outer loop
    vertex -49.99999999991294 0.0 200.00000000000006
    vertex -25.000000000087137 19.198729810778033 -2.1815260708990535e-11
    vertex -33.82380968100534 2.1296358569332416 199.999999999986
  endloop
endfacet
facet normal 1.0 -2.916258020976362e-14 5.654905573470924e-31
  outer loop
    vertex -85.50704155507435 83.00000000000082 130.00000000003007
    vertex -85.50704155507555 42.00000000000082 160.00000000002998
    vertex -85.50704155507555 42.00000000000082 130.00000000003007
  endloop
endfacet
facet normal 1.0 -2.916258020976362e-14 5.654905573470924e-31
  outer loop
    vertex -85.50704155507555 42.00000000000082 160.00000000002998
    vertex -85.50704155507435 83.00000000000082 130.00000000003007
    vertex -85.50704155507435 83.00000000000082 160.00000000002998
  endloop
endfacet
facet normal 0.8620626526915646 -0.49771210458984627 -0.0955544021964924
  outer loop
    vertex -8.710171472969819e-11 62.499999999999986 -4.35854019542603e-11
    vertex 4.126587736614509 31.250000000000018 199.9999999999529
    vertex -25.000000000087137 19.198729810778033 -2.1815260708990535e-11
  endloop
endfacet
facet normal 1.0 -2.916258020976362e-14 -1.2015596808269157e-30
  outer loop
    vertex -85.50704155507435 83.00000000000082 180.00000000003004
    vertex -85.50704155507555 42.00000000000082 199.99999999998647
    vertex -85.50704155507555 42.00000000000082 180.00000000003004
  endloop
endfacet
facet normal 1.0 -2.916258020976362e-14 -1.2015596808269157e-30
  outer loop
    vertex -85.50704155507555 42.00000000000082 199.99999999998647
    vertex -85.50704155507435 83.00000000000082 180.00000000003004
    vertex -85.50704155507435 83.00000000000082 199.99999999998647
  endloop
endfacet
facet normal -0.500000000000026 -0.8660254037844237 -1.9896430182422728e-17
  outer loop
    vertex -14.492958444750364 82.9999999999987 160.00000000002998
    vertex -49.99999999991173 103.49999999999976 130.00000000003007
    vertex -14.492958444750364 82.9999999999987 130.00000000003007
  endloop
endfacet
facet normal -0.500000000000026 -0.8660254037844237 -1.9896430182422728e-17
  outer loop
    vertex -49.99999999991173 103.49999999999976 130.00000000003007
    vertex -14.492958444750364 82.9999999999987 160.00000000002998
    vertex -49.99999999991173 103.49999999999976 160.00000000002998
  endloop
endfacet
facet normal -0.4999999999999745 0.8660254037844534 2.2477343221065033e-17
  outer loop
    vertex -49.99999999991416 21.499999999999776 199.99999999998647
    vertex -14.492958444751583 41.99999999999872 180.00000000003004
    vertex -49.99999999991416 21.499999999999776 180.00000000003004
  endloop
endfacet
facet normal -0.4999999999999745 0.8660254037844534 2.2477343221065033e-17
  outer loop
    vertex -14.492958444751583 41.99999999999872 180.00000000003004
    vertex -49.99999999991416 21.499999999999776 199.99999999998647
    vertex -14.492958444751583 41.99999999999872 199.99999999998647
  endloop
endfacet
facet normal 1.0 -2.916258020976362e-14 0.0
  outer loop
    vertex -95.50704155507435 83.00000000000111 160.00000000002998
    vertex -95.50704155507556 42.00000000000111 180.00000000003004
    vertex -95.50704155507556 42.00000000000111 160.00000000002998
  endloop
endfacet
facet normal 1.0 -2.916258020976362e-14 0.0
  outer loop
    vertex -95.50704155507556 42.00000000000111 180.00000000003004
    vertex -95.50704155507435 83.00000000000111 160.00000000002998
    vertex -95.50704155507435 83.00000000000111 180.00000000003004
  endloop
endfacet
facet normal -0.0 -0.0 1.0
  outer loop
    vertex -85.50704155507555 42.00000000000082 160.00000000002998
    vertex -95.50704155507435 83.00000000000111 160.00000000002998
    vertex -95.50704155507556 42.00000000000111 160.00000000002998
  endloop
endfacet
facet normal -0.0 -0.0 1.0
  outer loop
    vertex -95.50704155507435 83.00000000000111 160.00000000002998
    vertex -85.50704155507555 42.00000000000082 160.00000000002998
    vertex -85.50704155507435 83.00000000000082 160.00000000002998
  endloop
endfacet
facet normal -2.916258020976362e-14 -1.0 0.0
  outer loop
    vertex -85.50704155507435 83.00000000000082 180.00000000003004
    vertex -95.50704155507435 83.00000000000111 160.00000000002998
    vertex -85.50704155507435 83.00000000000082 160.00000000002998
  endloop
endfacet
facet normal -2.916258020976362e-14 -1.0 0.0
  outer loop
    vertex -95.50704155507435 83.00000000000111 160.00000000002998
    vertex -85.50704155507435 83.00000000000082 180.00000000003004
    vertex -95.50704155507435 83.00000000000111 180.00000000003004
  endloop
endfacet
facet normal -0.5000000000000259 -0.8660254037844237 -9.385927685228956e-20
  outer loop
    vertex -14.492958444750364 82.9999999999987 199.99999999998647
    vertex -49.99999999991173 103.49999999999976 180.00000000003004
    vertex -14.492958444750364 82.9999999999987 180.00000000003004
  endloop
endfacet
facet normal -0.5000000000000259 -0.8660254037844237 -9.385927685228956e-20
  outer loop
    vertex -49.99999999991173 103.49999999999976 180.00000000003004
    vertex -14.492958444750364 82.9999999999987 199.99999999998647
    vertex -49.99999999991173 103.49999999999976 199.99999999998647
  endloop
endfacet
facet normal -0.8620626526917305 0.4977121045898472 -0.0955544021949905
  outer loop
    vertex -75.0000000000872 105.8012701892219 2.1747581513409385e-11
    vertex -100.00000000008728 62.499999999999986 4.3517722758679155e-11
    vertex -104.1265877364404 93.75 200.00000000004724
  endloop
endfacet
facet normal -0.0 0.0 1.0
  outer loop
    vertex -44.999999999914415 12.839745962155241 160.00000000002998
    vertex -14.492958444751583 41.99999999999872 160.00000000002998
    vertex -49.99999999991416 21.499999999999776 160.00000000002998
  endloop
endfacet
facet normal -0.0 0.0 1.0
  outer loop
    vertex -14.492958444751583 41.99999999999872 160.00000000002998
    vertex -44.999999999914415 12.839745962155241 160.00000000002998
    vertex -9.492958444751839 33.33974596215419 160.00000000002998
  endloop
endfacet
facet normal -0.8660254037844535 -0.49999999999997446 -0.0
  outer loop
    vertex -14.492958444751583 41.99999999999872 180.00000000003004
    vertex -9.492958444751839 33.33974596215419 160.00000000002998
    vertex -9.492958444751839 33.33974596215419 180.00000000003004
  endloop
endfacet
facet normal -0.8660254037844535 -0.49999999999997446 -0.0
  outer loop
    vertex -9.492958444751839 33.33974596215419 160.00000000002998
    vertex -14.492958444751583 41.99999999999872 180.00000000003004
    vertex -14.492958444751583 41.99999999999872 160.00000000002998
  endloop
endfacet
facet normal -0.500000000000026 -0.8660254037844237 0.0
  outer loop
    vertex -9.492958444750105 91.66025403784295 180.00000000003004
    vertex -44.999999999911466 112.16025403784401 160.00000000002998
    vertex -9.492958444750105 91.66025403784295 160.00000000002998
  endloop
endfacet
facet normal -0.500000000000026 -0.8660254037844237 0.0
  outer loop
    vertex -44.999999999911466 112.16025403784401 160.00000000002998
    vertex -9.492958444750105 91.66025403784295 180.00000000003004
    vertex -44.999999999911466 112.16025403784401 180.00000000003004
  endloop
endfacet
facet normal -0.8660254037844237 0.500000000000026 -0.0
  outer loop
    vertex -9.492958444750105 91.66025403784295 180.00000000003004
    vertex -14.492958444750364 82.9999999999987 160.00000000002998
    vertex -14.492958444750364 82.9999999999987 180.00000000003004
  endloop
endfacet
facet normal -0.8660254037844237 0.500000000000026 -0.0
  outer loop
    vertex -14.492958444750364 82.9999999999987 160.00000000002998
    vertex -9.492958444750105 91.66025403784295 180.00000000003004
    vertex -9.492958444750105 91.66025403784295 160.00000000002998
  endloop
endfacet
facet normal -0.6511123728537709 0.37591990373949036 -0.6593458150995003
  outer loop
    vertex -73.80692495399255 103.73480359213423 -6.087614290066495
    vertex -96.61796042557813 62.49999999999998 -7.071067811824892
    vertex -97.61384990789269 62.499999999999986 -6.087614290045757
  endloop
endfacet
facet normal -0.6511123728537709 0.37591990373949036 -0.6593458150995003
  outer loop
    vertex -96.61796042557813 62.49999999999998 -7.071067811824892
    vertex -73.80692495399255 103.73480359213423 -6.087614290066495
    vertex -73.30898021283572 102.87233800108734 -7.071067811845196
  endloop
endfacet
facet normal 0.8660254037844535 0.49999999999997446 -0.0
  outer loop
    vertex -49.99999999991416 21.499999999999776 160.00000000002998
    vertex -44.999999999914415 12.839745962155241 180.00000000003004
    vertex -44.999999999914415 12.839745962155241 160.00000000002998
  endloop
endfacet
facet normal 0.8660254037844535 0.49999999999997446 -0.0
  outer loop
    vertex -44.999999999914415 12.839745962155241 180.00000000003004
    vertex -49.99999999991416 21.499999999999776 160.00000000002998
    vertex -49.99999999991416 21.499999999999776 180.00000000003004
  endloop
endfacet
facet normal -0.0 -0.0 -1.0
  outer loop
    vertex -44.999999999911466 112.16025403784401 180.00000000003004
    vertex -14.492958444750364 82.9999999999987 180.00000000003004
    vertex -49.99999999991173 103.49999999999976 180.00000000003004
  endloop
endfacet
facet normal -0.0 -0.0 -1.0
  outer loop
    vertex -14.492958444750364 82.9999999999987 180.00000000003004
    vertex -44.999999999911466 112.16025403784401 180.00000000003004
    vertex -9.492958444750105 91.66025403784295 180.00000000003004
  endloop
endfacet
facet normal -0.0 0.0 1.0
  outer loop
    vertex -14.492958444750364 82.9999999999987 160.00000000002998
    vertex -44.999999999911466 112.16025403784401 160.00000000002998
    vertex -49.99999999991173 103.49999999999976 160.00000000002998
  endloop
endfacet
facet normal -0.0 0.0 1.0
  outer loop
    vertex -44.999999999911466 112.16025403784401 160.00000000002998
    vertex -14.492958444750364 82.9999999999987 160.00000000002998
    vertex -9.492958444750105 91.66025403784295 160.00000000002998
  endloop
endfacet
facet normal 0.0 -0.0 -1.0
  outer loop
    vertex -14.492958444751583 41.99999999999872 180.00000000003004
    vertex -44.999999999914415 12.839745962155241 180.00000000003004
    vertex -49.99999999991416 21.499999999999776 180.00000000003004
  endloop
endfacet
facet normal 0.0 -0.0 -1.0
  outer loop
    vertex -44.999999999914415 12.839745962155241 180.00000000003004
    vertex -14.492958444751583 41.99999999999872 180.00000000003004
    vertex -9.492958444751839 33.33974596215419 180.00000000003004
  endloop
endfacet
facet normal 0.8660254037844237 -0.500000000000026 -0.0
  outer loop
    vertex -44.999999999911466 112.16025403784401 160.00000000002998
    vertex -49.99999999991173 103.49999999999976 180.00000000003004
    vertex -49.99999999991173 103.49999999999976 160.00000000002998
  endloop
endfacet
facet normal 0.8660254037844237 -0.500000000000026 -0.0
  outer loop
    vertex -49.99999999991173 103.49999999999976 180.00000000003004
    vertex -44.999999999911466 112.16025403784401 160.00000000002998
    vertex -44.999999999911466 112.16025403784401 180.00000000003004
  endloop
endfacet
facet normal -8.7109644399987e-13 -1.4943608491618597e-17 -1.0
  outer loop
    vertex -69.22649730819967 95.80127018922192 -9.999999999983286
    vertex -69.22649730819968 29.198729810778016 -9.999999999983284
    vertex -88.45299461630349 62.499999999999986 -9.999999999966539
  endloop
endfacet
facet normal -8.7109644399987e-13 -1.4943608491618597e-17 -1.0
  outer loop
    vertex -69.22649730819968 29.198729810778016 -9.999999999983284
    vertex -69.22649730819967 95.80127018922192 -9.999999999983286
    vertex -30.773502691992093 29.198729810778016 -10.000000000016783
  endloop
endfacet
facet normal -8.7109644399987e-13 -1.4943608491618597e-17 -1.0
  outer loop
    vertex -30.773502691992093 29.198729810778016 -10.000000000016783
    vertex -69.22649730819967 95.80127018922192 -9.999999999983286
    vertex -30.77350269199211 95.80127018922194 -10.000000000016783
  endloop
endfacet
facet normal -8.7109644399987e-13 -1.4943608491618597e-17 -1.0
  outer loop
    vertex -30.773502691992093 29.198729810778016 -10.000000000016783
    vertex -30.77350269199211 95.80127018922194 -10.000000000016783
    vertex -11.54700538388831 62.499999999999986 -10.000000000033529
  endloop
endfacet
facet normal -0.13012224514895923 0.9883765787467195 -0.07861259378957275
  outer loop
    vertex -66.17619031882052 122.87036414306677 200.00000000001415
    vertex -49.99999999991296 125.0 200.00000000000006
    vertex -75.0000000000872 105.8012701892219 2.1747581513409385e-11
  endloop
endfacet
facet normal 0.9895469004653625 -0.13027632092613792 -0.061846681279950314
  outer loop
    vertex 12.500000000087084 62.50000000000001 199.99999999994563
    vertex 10.370364143153862 46.32380968109248 199.99999999994748
    vertex -8.710171472969819e-11 62.499999999999986 -4.35854019542603e-11
  endloop
endfacet
facet normal -8.370477866502588e-14 0.9954242091796915 -0.0955544021957417
  outer loop
    vertex -50.000000000087184 105.8012701892219 -3.3839597790574766e-14
    vertex -49.99999999991296 125.0 200.00000000000006
    vertex -25.00000000008716 105.80127018922192 -2.1815260708990535e-11
  endloop
endfacet
facet normal -8.370477866502588e-14 0.9954242091796915 -0.0955544021957417
  outer loop
    vertex -49.99999999991296 125.0 200.00000000000006
    vertex -50.000000000087184 105.8012701892219 -3.3839597790574766e-14
    vertex -75.0000000000872 105.8012701892219 2.1747581513409385e-11
  endloop
endfacet
facet normal 0.38195084679904423 0.9221109145022712 -0.061846681279421285
  outer loop
    vertex -33.8238096810054 122.87036414306678 199.999999999986
    vertex -18.74999999991294 116.62658773652741 199.99999999997286
    vertex -25.00000000008716 105.80127018922192 -2.1815260708990535e-11
  endloop
endfacet
facet normal -0.7908981031258328 0.6068774592697658 -0.07861259378899703
  outer loop
    vertex -94.19417382407221 106.69417382415922 200.00000000003857
    vertex -75.0000000000872 105.8012701892219 2.1747581513409385e-11
    vertex -104.1265877364404 93.75 200.00000000004724
  endloop
endfacet
facet normal -0.3819508467991512 -0.9221109145022715 -0.06184668127875562
  outer loop
    vertex -81.24999999991293 8.373412263472558 200.00000000002728
    vertex -75.0000000000872 19.198729810778033 2.1747581513409385e-11
    vertex -66.17619031882047 2.1296358569332203 200.00000000001415
  endloop
endfacet
facet normal 0.790898103125696 -0.6068774592697653 -0.07861259379037487
  outer loop
    vertex 4.126587736614509 31.250000000000018 199.9999999999529
    vertex -5.805826175753676 18.305826175840803 199.99999999996157
    vertex -25.000000000087137 19.198729810778033 -2.1815260708990535e-11
  endloop
endfacet
facet normal -0.6075960536663719 0.7918345935761331 -0.061846681278559246
  outer loop
    vertex -94.19417382407221 106.69417382415922 200.00000000003857
    vertex -81.24999999991296 116.62658773652741 200.00000000002728
    vertex -75.0000000000872 105.8012701892219 2.1747581513409385e-11
  endloop
endfacet
facet normal -0.9210203482747235 0.381499119476954 -0.07861259378888336
  outer loop
    vertex -104.1265877364404 93.75 200.00000000004724
    vertex -100.00000000008728 62.499999999999986 4.3517722758679155e-11
    vertex -110.37036414297977 78.67619031890754 200.00000000005267
  endloop
endfacet
facet normal -0.918190776170935 -0.3803270723358412 -0.1108016994592758
  outer loop
    vertex -110.37036414297972 46.3238096810924 200.00000000005267
    vertex -75.0000000000872 19.198729810778033 2.1747581513409385e-11
    vertex -104.1265877364404 31.24999999999997 200.00000000004724
  endloop
endfacet
facet normal 0.9895469004653625 0.13027632092613853 -0.061846681279950334
  outer loop
    vertex 10.370364143153848 78.67619031890756 199.99999999994748
    vertex 12.500000000087084 62.50000000000001 199.99999999994563
    vertex -8.710171472969819e-11 62.499999999999986 -4.35854019542603e-11
  endloop
endfacet
facet normal -0.13012224514895834 -0.9883765787467196 -0.07861259378957255
  outer loop
    vertex -66.17619031882047 2.1296358569332203 200.00000000001415
    vertex -75.0000000000872 19.198729810778033 2.1747581513409385e-11
    vertex -49.99999999991294 0.0 200.00000000000006
  endloop
endfacet
facet normal -0.9895469004654704 0.13027632092613822 -0.061846681278226075
  outer loop
    vertex -110.37036414297977 78.67619031890754 200.00000000005267
    vertex -100.00000000008728 62.499999999999986 4.3517722758679155e-11
    vertex -112.49999999991299 62.5 200.0000000000545
  endloop
endfacet
facet normal 0.9210203482745865 -0.3814991194769541 -0.07861259379048813
  outer loop
    vertex -8.710171472969819e-11 62.499999999999986 -4.35854019542603e-11
    vertex 10.370364143153862 46.32380968109248 199.99999999994748
    vertex 4.126587736614509 31.250000000000018 199.9999999999529
  endloop
endfacet
facet normal 0.3819508467990449 -0.922110914502271 -0.06184668127942103
  outer loop
    vertex -33.82380968100534 2.1296358569332416 199.999999999986
    vertex -25.000000000087137 19.198729810778033 -2.1815260708990535e-11
    vertex -18.7499999999129 8.3734122634726 199.99999999997286
  endloop
endfacet
facet normal 0.7908981031256954 0.6068774592697659 -0.078612593790375
  outer loop
    vertex -5.805826175753705 106.69417382415922 199.99999999996157
    vertex 4.126587736614487 93.75000000000001 199.9999999999529
    vertex -25.00000000008716 105.80127018922192 -2.1815260708990535e-11
  endloop
endfacet
facet normal -0.3819508467991519 0.9221109145022711 -0.06184668127875584
  outer loop
    vertex -81.24999999991296 116.62658773652741 200.00000000002728
    vertex -66.17619031882052 122.87036414306677 200.00000000001415
    vertex -75.0000000000872 105.8012701892219 2.1747581513409385e-11
  endloop
endfacet
facet normal 0.6075960536662642 0.7918345935761331 -0.06184668127961784
  outer loop
    vertex -18.74999999991294 116.62658773652741 199.99999999997286
    vertex -5.805826175753705 106.69417382415922 199.99999999996157
    vertex -25.00000000008716 105.80127018922192 -2.1815260708990535e-11
  endloop
endfacet
facet normal 0.8620626526915642 0.4977121045898466 -0.09555440219649254
  outer loop
    vertex -25.00000000008716 105.80127018922192 -2.1815260708990535e-11
    vertex 4.126587736614487 93.75000000000001 199.9999999999529
    vertex -8.710171472969819e-11 62.499999999999986 -4.35854019542603e-11
  endloop
endfacet
facet normal -0.8628885305775722 -0.49818892540956045 -0.08503633574505569
  outer loop
    vertex -100.00000000008728 62.499999999999986 4.3517722758679155e-11
    vertex -75.0000000000872 19.198729810778033 2.1747581513409385e-11
    vertex -110.37036414297972 46.3238096810924 200.00000000005267
  endloop
endfacet
facet normal -0.9895469004654703 -0.13027632092613875 -0.06184668127822607
  outer loop
    vertex -112.49999999991299 62.5 200.0000000000545
    vertex -100.00000000008728 62.499999999999986 4.3517722758679155e-11
    vertex -110.37036414297972 46.3238096810924 200.00000000005267
  endloop
endfacet
facet normal -8.323037263973986e-14 -0.9954242091796917 -0.09555440219574143
  outer loop
    vertex -49.99999999991294 0.0 200.00000000000006
    vertex -75.0000000000872 19.198729810778033 2.1747581513409385e-11
    vertex -25.000000000087137 19.198729810778033 -2.1815260708990535e-11
  endloop
endfacet
facet normal 0.6075960536662647 -0.7918345935761324 -0.06184668127961763
  outer loop
    vertex -18.7499999999129 8.3734122634726 199.99999999997286
    vertex -25.000000000087137 19.198729810778033 -2.1815260708990535e-11
    vertex -5.805826175753676 18.305826175840803 199.99999999996157
  endloop
endfacet
facet normal 0.9210203482745862 0.3814991194769547 -0.07861259379048824
  outer loop
    vertex 4.126587736614487 93.75000000000001 199.9999999999529
    vertex 10.370364143153848 78.67619031890756 199.99999999994748
    vertex -8.710171472969819e-11 62.499999999999986 -4.35854019542603e-11
  endloop
endfacet
facet normal 0.13012224514882167 0.9883765787467196 -0.07861259378979943
  outer loop
    vertex -49.99999999991296 125.0 200.00000000000006
    vertex -33.8238096810054 122.87036414306678 199.999999999986
    vertex -25.00000000008716 105.80127018922192 -2.1815260708990535e-11
  endloop
endfacet
facet normal -0.7908981031258324 -0.606877459269766 -0.07861259378899685
  outer loop
    vertex -104.1265877364404 31.24999999999997 200.00000000004724
    vertex -75.0000000000872 19.198729810778033 2.1747581513409385e-11
    vertex -94.19417382407221 18.305826175840767 200.00000000003857
  endloop
endfacet
facet normal 8.71201785029942e-13 2.66823100344661e-28 1.0
  outer loop
    vertex -110.37036414297972 46.3238096810924 200.00000000005267
    vertex -110.37036414297977 78.67619031890754 200.00000000005267
    vertex -112.49999999991299 62.5 200.0000000000545
  endloop
endfacet
facet normal 8.71201785029942e-13 2.66823100344661e-28 1.0
  outer loop
    vertex -110.37036414297977 78.67619031890754 200.00000000005267
    vertex -110.37036414297972 46.3238096810924 200.00000000005267
    vertex -104.1265877364404 93.75 200.00000000004724
  endloop
endfacet
facet normal 8.71201785029942e-13 2.66823100344661e-28 1.0
  outer loop
    vertex -104.1265877364404 93.75 200.00000000004724
    vertex -110.37036414297972 46.3238096810924 200.00000000005267
    vertex -104.1265877364404 31.24999999999997 200.00000000004724
  endloop
endfacet
facet normal 8.71201785029942e-13 2.66823100344661e-28 1.0
  outer loop
    vertex -104.1265877364404 93.75 200.00000000004724
    vertex -104.1265877364404 31.24999999999997 200.00000000004724
    vertex -94.19417382407221 18.305826175840767 200.00000000003857
  endloop
endfacet
facet normal 8.71201785029942e-13 2.66823100344661e-28 1.0
  outer loop
    vertex -104.1265877364404 93.75 200.00000000004724
    vertex -94.19417382407221 18.305826175840767 200.00000000003857
    vertex -94.19417382407221 106.69417382415922 200.00000000003857
  endloop
endfacet
facet normal 8.71201785029942e-13 2.66823100344661e-28 1.0
  outer loop
    vertex -94.19417382407221 106.69417382415922 200.00000000003857
    vertex -94.19417382407221 18.305826175840767 200.00000000003857
    vertex -81.24999999991293 8.373412263472558 200.00000000002728
  endloop
endfacet
facet normal 8.71201785029942e-13 2.66823100344661e-28 1.0
  outer loop
    vertex -94.19417382407221 106.69417382415922 200.00000000003857
    vertex -81.24999999991293 8.373412263472558 200.00000000002728
    vertex -85.50704155507555 42.00000000000082 199.99999999998647
  endloop
endfacet
facet normal 8.71201785029942e-13 2.66823100344661e-28 1.0
  outer loop
    vertex -85.50704155507555 42.00000000000082 199.99999999998647
    vertex -81.24999999991293 8.373412263472558 200.00000000002728
    vertex -49.99999999991416 21.499999999999776 199.99999999998647
  endloop
endfacet
facet normal 8.71201785029942e-13 2.66823100344661e-28 1.0
  outer loop
    vertex -49.99999999991416 21.499999999999776 199.99999999998647
    vertex -81.24999999991293 8.373412263472558 200.00000000002728
    vertex -66.17619031882047 2.1296358569332203 200.00000000001415
  endloop
endfacet
facet normal 8.71201785029942e-13 2.66823100344661e-28 1.0
  outer loop
    vertex -49.99999999991416 21.499999999999776 199.99999999998647
    vertex -66.17619031882047 2.1296358569332203 200.00000000001415
    vertex -49.99999999991294 0.0 200.00000000000006
  endloop
endfacet
facet normal 8.71201785029942e-13 2.66823100344661e-28 1.0
  outer loop
    vertex -49.99999999991416 21.499999999999776 199.99999999998647
    vertex -49.99999999991294 0.0 200.00000000000006
    vertex -14.492958444751583 41.99999999999872 199.99999999998647
  endloop
endfacet
facet normal 8.71201785029942e-13 2.66823100344661e-28 1.0
  outer loop
    vertex -14.492958444751583 41.99999999999872 199.99999999998647
    vertex -49.99999999991294 0.0 200.00000000000006
    vertex -33.82380968100534 2.1296358569332416 199.999999999986
  endloop
endfacet
facet normal 8.71201785029942e-13 2.66823100344661e-28 1.0
  outer loop
    vertex -14.492958444751583 41.99999999999872 199.99999999998647
    vertex -33.82380968100534 2.1296358569332416 199.999999999986
    vertex -18.7499999999129 8.3734122634726 199.99999999997286
  endloop
endfacet
facet normal 8.71201785029942e-13 2.66823100344661e-28 1.0
  outer loop
    vertex -14.492958444751583 41.99999999999872 199.99999999998647
    vertex -18.7499999999129 8.3734122634726 199.99999999997286
    vertex -5.805826175753676 18.305826175840803 199.99999999996157
  endloop
endfacet
facet normal 8.71201785029942e-13 2.66823100344661e-28 1.0
  outer loop
    vertex -14.492958444751583 41.99999999999872 199.99999999998647
    vertex -5.805826175753676 18.305826175840803 199.99999999996157
    vertex -14.492958444750364 82.9999999999987 199.99999999998647
  endloop
endfacet
facet normal 8.71201785029942e-13 2.66823100344661e-28 1.0
  outer loop
    vertex -14.492958444750364 82.9999999999987 199.99999999998647
    vertex -5.805826175753676 18.305826175840803 199.99999999996157
    vertex -5.805826175753705 106.69417382415922 199.99999999996157
  endloop
endfacet
facet normal 8.71201785029942e-13 2.66823100344661e-28 1.0
  outer loop
    vertex -5.805826175753705 106.69417382415922 199.99999999996157
    vertex -5.805826175753676 18.305826175840803 199.99999999996157
    vertex 4.126587736614487 93.75000000000001 199.9999999999529
  endloop
endfacet
facet normal 8.71201785029942e-13 2.66823100344661e-28 1.0
  outer loop
    vertex 4.126587736614487 93.75000000000001 199.9999999999529
    vertex -5.805826175753676 18.305826175840803 199.99999999996157
    vertex 4.126587736614509 31.250000000000018 199.9999999999529
  endloop
endfacet
facet normal 8.71201785029942e-13 2.66823100344661e-28 1.0
  outer loop
    vertex 4.126587736614487 93.75000000000001 199.9999999999529
    vertex 4.126587736614509 31.250000000000018 199.9999999999529
    vertex 10.370364143153848 78.67619031890756 199.99999999994748
  endloop
endfacet
facet normal 8.71201785029942e-13 2.66823100344661e-28 1.0
  outer loop
    vertex 10.370364143153848 78.67619031890756 199.99999999994748
    vertex 4.126587736614509 31.250000000000018 199.9999999999529
    vertex 10.370364143153862 46.32380968109248 199.99999999994748
  endloop
endfacet
facet normal 8.71201785029942e-13 2.66823100344661e-28 1.0
  outer loop
    vertex 10.370364143153848 78.67619031890756 199.99999999994748
    vertex 10.370364143153862 46.32380968109248 199.99999999994748
    vertex 12.500000000087084 62.50000000000001 199.99999999994563
  endloop
endfacet
facet normal 8.71201785029942e-13 2.66823100344661e-28 1.0
  outer loop
    vertex -94.19417382407221 106.69417382415922 200.00000000003857
    vertex -85.50704155507435 83.00000000000082 199.99999999998647
    vertex -81.24999999991296 116.62658773652741 200.00000000002728
  endloop
endfacet
facet normal 8.71201785029942e-13 2.66823100344661e-28 1.0
  outer loop
    vertex -85.50704155507435 83.00000000000082 199.99999999998647
    vertex -94.19417382407221 106.69417382415922 200.00000000003857
    vertex -85.50704155507555 42.00000000000082 199.99999999998647
  endloop
endfacet
facet normal 8.71201785029942e-13 2.66823100344661e-28 1.0
  outer loop
    vertex -81.24999999991296 116.62658773652741 200.00000000002728
    vertex -85.50704155507435 83.00000000000082 199.99999999998647
    vertex -49.99999999991173 103.49999999999976 199.99999999998647
  endloop
endfacet
facet normal 8.71201785029942e-13 2.66823100344661e-28 1.0
  outer loop
    vertex -81.24999999991296 116.62658773652741 200.00000000002728
    vertex -49.99999999991173 103.49999999999976 199.99999999998647
    vertex -66.17619031882052 122.87036414306677 200.00000000001415
  endloop
endfacet
facet normal 8.71201785029942e-13 2.66823100344661e-28 1.0
  outer loop
    vertex -66.17619031882052 122.87036414306677 200.00000000001415
    vertex -49.99999999991173 103.49999999999976 199.99999999998647
    vertex -49.99999999991296 125.0 200.00000000000006
  endloop
endfacet
facet normal 8.71201785029942e-13 2.66823100344661e-28 1.0
  outer loop
    vertex -49.99999999991296 125.0 200.00000000000006
    vertex -49.99999999991173 103.49999999999976 199.99999999998647
    vertex -33.8238096810054 122.87036414306678 199.999999999986
  endloop
endfacet
facet normal 8.71201785029942e-13 2.66823100344661e-28 1.0
  outer loop
    vertex -33.8238096810054 122.87036414306678 199.999999999986
    vertex -49.99999999991173 103.49999999999976 199.99999999998647
    vertex -14.492958444750364 82.9999999999987 199.99999999998647
  endloop
endfacet
facet normal 8.71201785029942e-13 2.66823100344661e-28 1.0
  outer loop
    vertex -33.8238096810054 122.87036414306678 199.999999999986
    vertex -14.492958444750364 82.9999999999987 199.99999999998647
    vertex -18.74999999991294 116.62658773652741 199.99999999997286
  endloop
endfacet
facet normal 8.71201785029942e-13 2.66823100344661e-28 1.0
  outer loop
    vertex -18.74999999991294 116.62658773652741 199.99999999997286
    vertex -14.492958444750364 82.9999999999987 199.99999999998647
    vertex -5.805826175753705 106.69417382415922 199.99999999996157
  endloop
endfacet
facet normal -0.48113793538213645 0.2777851165098001 -0.8314696123021285
  outer loop
    vertex -72.74118305730231 101.8888844793091 -7.933533402892566
    vertex -94.22649730819855 62.49999999999998 -8.660254037805885
    vertex -95.48236611451058 62.499999999999986 -7.933533402872755
  endloop
endfacet
facet normal -0.48113793538213645 0.2777851165098001 -0.8314696123021285
  outer loop
    vertex -94.22649730819855 62.49999999999998 -8.660254037805885
    vertex -72.74118305730231 101.8888844793091 -7.933533402892566
    vertex -72.11324865414662 100.80127018922187 -8.660254037825148
  endloop
endfacet
facet normal -0.16895317489931108 0.09754516100806622 -0.9807852804030825
  outer loop
    vertex -70.7207897618128 98.38946064024712 -9.659258262872662
    vertex -89.96018126059428 62.499999999999986 -9.914448613703325
    vertex -91.44157952353002 62.5 -9.65925826285461
  endloop
endfacet
facet normal -0.16895317489931108 0.09754516100806622 -0.9807852804030825
  outer loop
    vertex -89.96018126059428 62.499999999999986 -9.914448613703325
    vertex -70.7207897618128 98.38946064024712 -9.659258262872662
    vertex -69.98009063034503 97.10653211142245 -9.91444861372073
  endloop
endfacet
facet normal -0.056640771401171644 0.032701564615072766 -0.9978589232385542
  outer loop
    vertex -69.98009063034503 97.10653211142245 -9.91444861372073
    vertex -88.45299461630349 62.499999999999986 -9.999999999966539
    vertex -89.96018126059428 62.499999999999986 -9.914448613703325
  endloop
endfacet
facet normal -0.056640771401171644 0.032701564615072766 -0.9978589232385542
  outer loop
    vertex -88.45299461630349 62.499999999999986 -9.999999999966539
    vertex -69.98009063034503 97.10653211142245 -9.91444861372073
    vertex -69.22649730819967 95.80127018922192 -9.999999999983286
  endloop
endfacet
facet normal -2.8065682465607696e-13 0.9469301294951078 -0.32143946530315515
  outer loop
    vertex -50.00000000009054 105.04006551433477 -3.8268343236509264
    vertex -25.196727333733634 105.4605284521126 -2.5881904510468434
    vertex -25.43948172404498 105.0400655143348 -3.826834323672321
  endloop
endfacet
facet normal -2.8065682465607696e-13 0.9469301294951078 -0.32143946530315515
  outer loop
    vertex -25.196727333733634 105.4605284521126 -2.5881904510468434
    vertex -50.00000000009054 105.04006551433477 -3.8268343236509264
    vertex -74.56051827613604 105.04006551433476 -3.8268343236295306
  endloop
endfacet
facet normal -2.8065682465607696e-13 0.9469301294951078 -0.32143946530315515
  outer loop
    vertex -25.196727333733634 105.4605284521126 -2.5881904510468434
    vertex -74.56051827613604 105.04006551433476 -3.8268343236295306
    vertex -50.00000000008946 105.46052845211257 -2.588190451025238
  endloop
endfacet
facet normal -2.8065682465607696e-13 0.9469301294951078 -0.32143946530315515
  outer loop
    vertex -50.00000000008946 105.46052845211257 -2.588190451025238
    vertex -74.56051827613604 105.04006551433476 -3.8268343236295306
    vertex -74.80327266644522 105.46052845211257 -2.588190451003631
  endloop
endfacet
facet normal -8.544648521621288e-13 0.19509032201613183 -0.9807852804032298
  outer loop
    vertex -50.0000000000956 98.38946064024712 -9.659258262890711
    vertex -69.98009063034503 97.10653211142245 -9.91444861372073
    vertex -70.7207897618128 98.38946064024712 -9.659258262872662
  endloop
endfacet
facet normal -8.544648521621288e-13 0.19509032201613183 -0.9807852804032298
  outer loop
    vertex -69.98009063034503 97.10653211142245 -9.91444861372073
    vertex -50.0000000000956 98.38946064024712 -9.659258262890711
    vertex -50.000000000095824 97.10653211142244 -9.914448613738136
  endloop
endfacet
facet normal -8.544648521621288e-13 0.19509032201613183 -0.9807852804032298
  outer loop
    vertex -50.000000000095824 97.10653211142244 -9.914448613738136
    vertex -50.0000000000956 98.38946064024712 -9.659258262890711
    vertex -30.019909369846594 97.10653211142245 -9.91444861375554
  endloop
endfacet
facet normal -8.544648521621288e-13 0.19509032201613183 -0.9807852804032298
  outer loop
    vertex -30.019909369846594 97.10653211142245 -9.91444861375554
    vertex -50.0000000000956 98.38946064024712 -9.659258262890711
    vertex -29.279210238378397 98.38946064024715 -9.65925826290876
  endloop
endfacet
facet normal -6.557548230791764e-13 0.6593458151000732 -0.7518398074789737
  outer loop
    vertex -50.00000000009336 102.87233800108739 -7.071067811865501
    vertex -72.74118305730231 101.8888844793091 -7.933533402892566
    vertex -73.30898021283572 102.87233800108734 -7.071067811845196
  endloop
endfacet
facet normal -6.557548230791764e-13 0.6593458151000732 -0.7518398074789737
  outer loop
    vertex -72.74118305730231 101.8888844793091 -7.933533402892566
    vertex -50.00000000009336 102.87233800108739 -7.071067811865501
    vertex -50.000000000094104 101.88888447930913 -7.933533402912379
  endloop
endfacet
facet normal -6.557548230791764e-13 0.6593458151000732 -0.7518398074789737
  outer loop
    vertex -50.000000000094104 101.88888447930913 -7.933533402912379
    vertex -50.00000000009336 102.87233800108739 -7.071067811865501
    vertex -27.258816942885858 101.88888447930914 -7.933533402932188
  endloop
endfacet
facet normal -6.557548230791764e-13 0.6593458151000732 -0.7518398074789737
  outer loop
    vertex -27.258816942885858 101.88888447930914 -7.933533402932188
    vertex -50.00000000009336 102.87233800108739 -7.071067811865501
    vertex -26.69101978735094 102.87233800108741 -7.071067811885805
  endloop
endfacet
facet normal -5.752621058210368e-13 0.7518398074789822 -0.6593458151000634
  outer loop
    vertex -50.00000000009336 102.87233800108739 -7.071067811865501
    vertex -26.19307504619239 103.73480359213427 -6.087614290107972
    vertex -26.69101978735094 102.87233800108741 -7.071067811885805
  endloop
endfacet
facet normal -5.752621058210368e-13 0.7518398074789822 -0.6593458151000634
  outer loop
    vertex -26.19307504619239 103.73480359213427 -6.087614290107972
    vertex -50.00000000009336 102.87233800108739 -7.071067811865501
    vertex -73.30898021283572 102.87233800108734 -7.071067811845196
  endloop
endfacet
facet normal -5.752621058210368e-13 0.7518398074789822 -0.6593458151000634
  outer loop
    vertex -26.19307504619239 103.73480359213427 -6.087614290107972
    vertex -73.30898021283572 102.87233800108734 -7.071067811845196
    vertex -50.000000000092506 103.73480359213424 -6.087614290087234
  endloop
endfacet
facet normal -5.752621058210368e-13 0.7518398074789822 -0.6593458151000634
  outer loop
    vertex -50.000000000092506 103.73480359213424 -6.087614290087234
    vertex -73.30898021283572 102.87233800108734 -7.071067811845196
    vertex -73.80692495399255 103.73480359213423 -6.087614290066495
  endloop
endfacet
facet normal -0.5710102257562775 0.3296729075500388 -0.7518398074784738
  outer loop
    vertex -73.30898021283572 102.87233800108734 -7.071067811845196
    vertex -95.48236611451058 62.499999999999986 -7.933533402872755
    vertex -96.61796042557813 62.49999999999998 -7.071067811824892
  endloop
endfacet
facet normal -0.5710102257562775 0.3296729075500388 -0.7518398074784738
  outer loop
    vertex -95.48236611451058 62.499999999999986 -7.933533402872755
    vertex -73.30898021283572 102.87233800108734 -7.071067811845196
    vertex -72.74118305730231 101.8888844793091 -7.933533402892566
  endloop
endfacet
facet normal -5.832577178574247e-14 0.9978589232386034 -0.06540312923014753
  outer loop
    vertex -50.00000000008834 105.71571880296 -1.305261922200548
    vertex -25.00000000008716 105.80127018922192 -2.1815260708990535e-11
    vertex -25.04939311597616 105.71571880296003 -1.3052619222222819
  endloop
endfacet
facet normal -5.832577178574247e-14 0.9978589232386034 -0.06540312923014753
  outer loop
    vertex -25.00000000008716 105.80127018922192 -2.1815260708990535e-11
    vertex -50.00000000008834 105.71571880296 -1.305261922200548
    vertex -74.95060688420047 105.71571880295996 -1.305261922178812
  endloop
endfacet
facet normal -5.832577178574247e-14 0.9978589232386034 -0.06540312923014753
  outer loop
    vertex -25.00000000008716 105.80127018922192 -2.1815260708990535e-11
    vertex -74.95060688420047 105.71571880295996 -1.305261922178812
    vertex -75.0000000000872 105.8012701892219 2.1747581513409385e-11
  endloop
endfacet
facet normal -5.832577178574247e-14 0.9978589232386034 -0.06540312923014753
  outer loop
    vertex -25.00000000008716 105.80127018922192 -2.1815260708990535e-11
    vertex -75.0000000000872 105.8012701892219 2.1747581513409385e-11
    vertex -50.000000000087184 105.8012701892219 -3.3839597790574766e-14
  endloop
endfacet
facet normal -8.251368326180023e-13 0.32143946530316503 -0.9469301294951045
  outer loop
    vertex -50.00000000009525 99.62810451287281 -9.238795325112898
    vertex -70.7207897618128 98.38946064024712 -9.659258262872662
    vertex -71.43592113510293 99.62810451287278 -9.238795325094223
  endloop
endfacet
facet normal -8.251368326180023e-13 0.32143946530316503 -0.9469301294951045
  outer loop
    vertex -70.7207897618128 98.38946064024712 -9.659258262872662
    vertex -50.00000000009525 99.62810451287281 -9.238795325112898
    vertex -50.0000000000956 98.38946064024712 -9.659258262890711
  endloop
endfacet
facet normal -8.251368326180023e-13 0.32143946530316503 -0.9469301294951045
  outer loop
    vertex -50.0000000000956 98.38946064024712 -9.659258262890711
    vertex -50.00000000009525 99.62810451287281 -9.238795325112898
    vertex -29.279210238378397 98.38946064024715 -9.65925826290876
  endloop
endfacet
facet normal -8.251368326180023e-13 0.32143946530316503 -0.9469301294951045
  outer loop
    vertex -29.279210238378397 98.38946064024715 -9.65925826290876
    vertex -50.00000000009525 99.62810451287281 -9.238795325112898
    vertex -28.56407886508752 99.62810451287282 -9.23879532513157
  endloop
endfacet
facet normal -4.847460345740527e-13 0.8314696123025461 -0.555570233019601
  outer loop
    vertex -50.000000000092506 103.73480359213424 -6.087614290087234
    vertex -25.77350269198778 104.4615242270663 -5.000000000021131
    vertex -26.19307504619239 103.73480359213427 -6.087614290107972
  endloop
endfacet
facet normal -4.847460345740527e-13 0.8314696123025461 -0.555570233019601
  outer loop
    vertex -25.77350269198778 104.4615242270663 -5.000000000021131
    vertex -50.000000000092506 103.73480359213424 -6.087614290087234
    vertex -73.80692495399255 103.73480359213423 -6.087614290066495
  endloop
endfacet
facet normal -4.847460345740527e-13 0.8314696123025461 -0.555570233019601
  outer loop
    vertex -25.77350269198778 104.4615242270663 -5.000000000021131
    vertex -73.80692495399255 103.73480359213423 -6.087614290066495
    vertex -50.00000000009156 104.46152422706628 -5.0000000000000275
  endloop
endfacet
facet normal -4.847460345740527e-13 0.8314696123025461 -0.555570233019601
  outer loop
    vertex -50.00000000009156 104.46152422706628 -5.0000000000000275
    vertex -73.80692495399255 103.73480359213423 -6.087614290066495
    vertex -74.22649730819528 104.46152422706625 -4.999999999978923
  endloop
endfacet
facet normal -0.38303324153698637 0.2211443451095038 -0.8968727415323522
  outer loop
    vertex -72.11324865414662 100.80127018922187 -8.660254037825148
    vertex -92.87184227011068 62.499999999999986 -9.238795325075552
    vertex -94.22649730819855 62.49999999999998 -8.660254037805885
  endloop
endfacet
facet normal -0.38303324153698637 0.2211443451095038 -0.8968727415323522
  outer loop
    vertex -92.87184227011068 62.499999999999986 -9.238795325075552
    vertex -72.11324865414662 100.80127018922187 -8.660254037825148
    vertex -71.43592113510293 99.62810451287278 -9.238795325094223
  endloop
endfacet
facet normal -8.693019131391956e-13 0.06540312923014478 -0.9978589232386034
  outer loop
    vertex -50.000000000095824 97.10653211142244 -9.914448613738136
    vertex -69.22649730819967 95.80127018922192 -9.999999999983286
    vertex -69.98009063034503 97.10653211142245 -9.91444861372073
  endloop
endfacet
facet normal -8.693019131391956e-13 0.06540312923014478 -0.9978589232386034
  outer loop
    vertex -69.22649730819967 95.80127018922192 -9.999999999983286
    vertex -50.000000000095824 97.10653211142244 -9.914448613738136
    vertex -30.77350269199211 95.80127018922194 -10.000000000016783
  endloop
endfacet
facet normal -8.693019131391956e-13 0.06540312923014478 -0.9978589232386034
  outer loop
    vertex -30.77350269199211 95.80127018922194 -10.000000000016783
    vertex -50.000000000095824 97.10653211142244 -9.914448613738136
    vertex -30.019909369846594 97.10653211142245 -9.91444861375554
  endloop
endfacet
facet normal -1.7083578045567687e-13 0.9807852804032318 -0.19509032201612184
  outer loop
    vertex -50.00000000008946 105.46052845211257 -2.588190451025238
    vertex -25.04939311597616 105.71571880296003 -1.3052619222222819
    vertex -25.196727333733634 105.4605284521126 -2.5881904510468434
  endloop
endfacet
facet normal -1.7083578045567687e-13 0.9807852804032318 -0.19509032201612184
  outer loop
    vertex -25.04939311597616 105.71571880296003 -1.3052619222222819
    vertex -50.00000000008946 105.46052845211257 -2.588190451025238
    vertex -74.80327266644522 105.46052845211257 -2.588190451003631
  endloop
endfacet
facet normal -1.7083578045567687e-13 0.9807852804032318 -0.19509032201612184
  outer loop
    vertex -25.04939311597616 105.71571880296003 -1.3052619222222819
    vertex -74.80327266644522 105.46052845211257 -2.588190451003631
    vertex -50.00000000008834 105.71571880296 -1.305261922200548
  endloop
endfacet
facet normal -1.7083578045567687e-13 0.9807852804032318 -0.19509032201612184
  outer loop
    vertex -50.00000000008834 105.71571880296 -1.305261922200548
    vertex -74.80327266644522 105.46052845211257 -2.588190451003631
    vertex -74.95060688420047 105.71571880295996 -1.305261922178812
  endloop
endfacet
facet normal -0.2783747427322543 0.16071973265158424 -0.9469301294948612
  outer loop
    vertex -71.43592113510293 99.62810451287278 -9.238795325094223
    vertex -91.44157952353002 62.5 -9.65925826285461
    vertex -92.87184227011068 62.499999999999986 -9.238795325075552
  endloop
endfacet
facet normal -0.2783747427322543 0.16071973265158424 -0.9469301294948612
  outer loop
    vertex -91.44157952353002 62.5 -9.65925826285461
    vertex -71.43592113510293 99.62810451287278 -9.238795325094223
    vertex -70.7207897618128 98.38946064024712 -9.659258262872662
  endloop
endfacet
facet normal -7.250302459278687e-13 0.5555702330195971 -0.8314696123025488
  outer loop
    vertex -50.000000000094104 101.88888447930913 -7.933533402912379
    vertex -72.11324865414662 100.80127018922187 -8.660254037825148
    vertex -72.74118305730231 101.8888844793091 -7.933533402892566
  endloop
endfacet
facet normal -7.250302459278687e-13 0.5555702330195971 -0.8314696123025488
  outer loop
    vertex -72.11324865414662 100.80127018922187 -8.660254037825148
    vertex -50.000000000094104 101.88888447930913 -7.933533402912379
    vertex -50.000000000094744 100.80127018922191 -8.660254037844414
  endloop
endfacet
facet normal -7.250302459278687e-13 0.5555702330195971 -0.8314696123025488
  outer loop
    vertex -50.000000000094744 100.80127018922191 -8.660254037844414
    vertex -50.000000000094104 101.88888447930913 -7.933533402912379
    vertex -27.886751346042832 100.80127018922194 -8.660254037863677
  endloop
endfacet
facet normal -7.250302459278687e-13 0.5555702330195971 -0.8314696123025488
  outer loop
    vertex -27.886751346042832 100.80127018922194 -8.660254037863677
    vertex -50.000000000094104 101.88888447930913 -7.933533402912379
    vertex -27.258816942885858 101.88888447930914 -7.933533402932188
  endloop
endfacet
facet normal -3.861128334529312e-13 0.8968727415326834 -0.44228869021901157
  outer loop
    vertex -50.00000000009156 104.46152422706628 -5.0000000000000275
    vertex -25.43948172404498 105.0400655143348 -3.826834323672321
    vertex -25.77350269198778 104.4615242270663 -5.000000000021131
  endloop
endfacet
facet normal -3.861128334529312e-13 0.8968727415326834 -0.44228869021901157
  outer loop
    vertex -25.43948172404498 105.0400655143348 -3.826834323672321
    vertex -50.00000000009156 104.46152422706628 -5.0000000000000275
    vertex -74.22649730819528 104.46152422706625 -4.999999999978923
  endloop
endfacet
facet normal -3.861128334529312e-13 0.8968727415326834 -0.44228869021901157
  outer loop
    vertex -25.43948172404498 105.0400655143348 -3.826834323672321
    vertex -74.22649730819528 104.46152422706625 -4.999999999978923
    vertex -50.00000000009054 105.04006551433477 -3.8268343236509264
  endloop
endfacet
facet normal -3.861128334529312e-13 0.8968727415326834 -0.44228869021901157
  outer loop
    vertex -50.00000000009054 105.04006551433477 -3.8268343236509264
    vertex -74.22649730819528 104.46152422706625 -4.999999999978923
    vertex -74.56051827613604 105.04006551433476 -3.8268343236295306
  endloop
endfacet
facet normal -7.818678925123945e-13 0.4422886902190046 -0.8968727415326866
  outer loop
    vertex -50.000000000094744 100.80127018922191 -8.660254037844414
    vertex -71.43592113510293 99.62810451287278 -9.238795325094223
    vertex -72.11324865414662 100.80127018922187 -8.660254037825148
  endloop
endfacet
facet normal -7.818678925123945e-13 0.4422886902190046 -0.8968727415326866
  outer loop
    vertex -71.43592113510293 99.62810451287278 -9.238795325094223
    vertex -50.000000000094744 100.80127018922191 -8.660254037844414
    vertex -50.00000000009525 99.62810451287281 -9.238795325112898
  endloop
endfacet
facet normal -7.818678925123945e-13 0.4422886902190046 -0.8968727415326866
  outer loop
    vertex -50.00000000009525 99.62810451287281 -9.238795325112898
    vertex -50.000000000094744 100.80127018922191 -8.660254037844414
    vertex -28.56407886508752 99.62810451287282 -9.23879532513157
  endloop
endfacet
facet normal -7.818678925123945e-13 0.4422886902190046 -0.8968727415326866
  outer loop
    vertex -28.56407886508752 99.62810451287282 -9.23879532513157
    vertex -50.000000000094744 100.80127018922191 -8.660254037844414
    vertex -27.886751346042832 100.80127018922194 -8.660254037863677
  endloop
endfacet
endsolid changer.nut.v.1.0
