 0
SECTION
 2
ENTITIES
  0
POLYLINE
 8
Group#41
 66
     1
70
    8
 10
0.0
 20
 0.0
 30
0.0
  0
VERTEX
  8
MY3DLAYER
10
544.129206430785
20
0.0
30
0.0
 70
     32
  0
VERTEX
  8
MY3DLAYER
10
544.129206432654
20
97.1999999999995
30
8.47144155099899e-005
 70
     32
  0
VERTEX
  8
MY3DLAYER
10
559.479206427044
20
97.1999999999946
30
-0.00016942883102139
 70
     32
  0
VERTEX
  8
MY3DLAYER
10
559.479206427044
20
86.1999999999946
30
-0.00016942883102139
 70
     32
  0
VERTEX
  8
MY3DLAYER
10
559.482963641582
20
86.0376992571377
30
-0.00016942883102139
 70
     32
  0
VERTEX
  8
MY3DLAYER
10
559.49422723541
20
85.8757462415836
30
-0.00016942883102139
 70
     32
  0
VERTEX
  8
MY3DLAYER
10
559.512973076421
20
85.7144879356338
30
-0.00016942883102139
 70
     32
  0
VERTEX
  8
MY3DLAYER
10
559.539161001885
20
85.5542698331833
30
-0.00016942883102139
 70
     32
  0
VERTEX
  8
MY3DLAYER
10
559.572734904501
20
85.3954351995037
30
-0.00016942883102139
 70
     32
  0
VERTEX
  8
MY3DLAYER
10
559.613622852604
20
85.2383243358027
30
-0.00016942883102139
 70
     32
  0
VERTEX
  8
MY3DLAYER
10
559.66173724428
20
85.0832738501321
30
-0.00016942883102139
 70
     32
  0
VERTEX
  8
MY3DLAYER
10
559.716974995048
20
84.93061593621
30
-0.00016942883102139
 70
     32
  0
VERTEX
  8
MY3DLAYER
10
559.779217758721
20
84.7806776616991
30
-0.00016942883102139
 70
     32
  0
VERTEX
  8
MY3DLAYER
10
559.848332180961
20
84.6337802674693
30
-0.00016942883102139
 70
     32
  0
VERTEX
  8
MY3DLAYER
10
559.924170184985
20
84.4902384793425
30
-0.00016942883102139
 70
     32
  0
VERTEX
  8
MY3DLAYER
10
560.006569288822
20
84.3503598337965
30
-0.00016942883102139
 70
     32
  0
VERTEX
  8
MY3DLAYER
10
566.313699609223
20
74.1888720953726
30
-0.00016942883102139
 70
     32
  0
VERTEX
  8
MY3DLAYER
10
566.34165918373
20
74.1327623011033
30
-0.00016942883102139
 70
     32
  0
VERTEX
  8
MY3DLAYER
10
566.358735290199
20
74.0724427072108
30
-0.00016942883102139
 70
     32
  0
VERTEX
  8
MY3DLAYER
10
566.364336258196
20
74.0100033287944
30
-0.00016942883102139
 70
     32
  0
VERTEX
  8
MY3DLAYER
10
566.358268019642
20
73.9476076294204
30
-0.00016942883102139
 70
     32
  0
VERTEX
  8
MY3DLAYER
10
566.340740833085
20
73.8874175592186
30
-0.00016942883102139
 70
     32
  0
VERTEX
  8
MY3DLAYER
10
566.312361998444
20
73.831518645419
30
-0.00016942883102139
 70
     32
  0
VERTEX
  8
MY3DLAYER
10
566.274114814664
20
73.7818477308676
30
-0.00016942883102139
 70
     32
  0
VERTEX
  8
MY3DLAYER
10
566.227324509359
20
73.7401258643103
30
-0.00016942883102139
 70
     32
  0
VERTEX
  8
MY3DLAYER
10
566.173612320976
20
73.7077986677326
30
-0.00016942883102139
 70
     32
  0
VERTEX
  8
MY3DLAYER
10
566.114839324456
20
73.6859862469679
30
-0.00016942883102139
 70
     32
  0
VERTEX
  8
MY3DLAYER
10
566.053041946809
20
73.6754443811223
30
-0.00016942883102139
 70
     32
  0
VERTEX
  8
MY3DLAYER
10
565.990361406901
20
73.6765383355662
30
-0.00016942883102139
 70
     32
  0
VERTEX
  8
MY3DLAYER
10
560.479206427044
20
74.2888888888835
30
-0.00016942883102139
 70
     32
  0
VERTEX
  8
MY3DLAYER
10
560.353227320945
20
74.2940060308787
30
-0.00016942883102139
 70
     32
  0
VERTEX
  8
MY3DLAYER
10
560.227768249504
20
74.2814783930685
30
-0.00016942883102139
 70
     32
  0
VERTEX
  8
MY3DLAYER
10
560.105288439804
20
74.251551540049
30
-0.00016942883102139
 70
     32
  0
VERTEX
  8
MY3DLAYER
10
559.988188719951
20
74.2048120928315
30
-0.00016942883102139
 70
     32
  0
VERTEX
  8
MY3DLAYER
10
559.878764458459
20
74.1421762299999
30
-0.00016942883102139
 70
     32
  0
VERTEX
  8
MY3DLAYER
10
559.779160570829
20
74.0648717289351
30
-0.00016942883102139
 70
     32
  0
VERTEX
  8
MY3DLAYER
10
559.69132947529
20
73.9744138991347
30
-0.00016942883102139
 70
     32
  0
VERTEX
  8
MY3DLAYER
10
559.616992821828
20
73.8725758793783
30
-0.00016942883102139
 70
     32
  0
VERTEX
  8
MY3DLAYER
10
559.557607744705
20
73.7613538809657
30
-0.00016942883102139
 70
     32
  0
VERTEX
  8
MY3DLAYER
10
559.51433829996
20
73.6429280583284
30
-0.00016942883102139
 70
     32
  0
VERTEX
  8
MY3DLAYER
10
559.488032647787
20
73.5196197740179
30
-0.00016942883102139
 70
     32
  0
VERTEX
  8
MY3DLAYER
10
559.479206427044
20
73.3938460957571
30
-0.00016942883102139
 70
     32
  0
VERTEX
  8
MY3DLAYER
10
559.479206427044
20
68.1999999999945
30
-0.00016942883102139
 70
     32
  0
VERTEX
  8
MY3DLAYER
10
559.482963641582
20
68.0376992571376
30
-0.00016942883102139
 70
     32
  0
VERTEX
  8
MY3DLAYER
10
559.49422723541
20
67.8757462415835
30
-0.00016942883102139
 70
     32
  0
VERTEX
  8
MY3DLAYER
10
559.512973076421
20
67.7144879356338
30
-0.00016942883102139
 70
     32
  0
VERTEX
  8
MY3DLAYER
10
559.539161001885
20
67.5542698331832
30
-0.00016942883102139
 70
     32
  0
VERTEX
  8
MY3DLAYER
10
559.572734904501
20
67.3954351995035
30
-0.00016942883102139
 70
     32
  0
VERTEX
  8
MY3DLAYER
10
559.613622852605
20
67.2383243358025
30
-0.00016942883102139
 70
     32
  0
VERTEX
  8
MY3DLAYER
10
559.66173724428
20
67.083273850132
30
-0.00016942883102139
 70
     32
  0
VERTEX
  8
MY3DLAYER
10
559.716974995048
20
66.9306159362099
30
-0.00016942883102139
 70
     32
  0
VERTEX
  8
MY3DLAYER
10
559.779217758722
20
66.780677661699
30
-0.00016942883102139
 70
     32
  0
VERTEX
  8
MY3DLAYER
10
559.848332180961
20
66.6337802674692
30
-0.00016942883102139
 70
     32
  0
VERTEX
  8
MY3DLAYER
10
559.924170184985
20
66.4902384793424
30
-0.00016942883102139
 70
     32
  0
VERTEX
  8
MY3DLAYER
10
560.006569288822
20
66.3503598337964
30
-0.00016942883102139
 70
     32
  0
VERTEX
  8
MY3DLAYER
10
566.313699609224
20
56.1888720953725
30
-0.00016942883102139
 70
     32
  0
VERTEX
  8
MY3DLAYER
10
566.34165918373
20
56.1327623011032
30
-0.00016942883102139
 70
     32
  0
VERTEX
  8
MY3DLAYER
10
566.358735290199
20
56.0724427072106
30
-0.00016942883102139
 70
     32
  0
VERTEX
  8
MY3DLAYER
10
566.364336258196
20
56.0100033287943
30
-0.00016942883102139
 70
     32
  0
VERTEX
  8
MY3DLAYER
10
566.358268019642
20
55.9476076294203
30
-0.00016942883102139
 70
     32
  0
VERTEX
  8
MY3DLAYER
10
566.340740833085
20
55.8874175592184
30
-0.00016942883102139
 70
     32
  0
VERTEX
  8
MY3DLAYER
10
566.312361998444
20
55.8315186454189
30
-0.00016942883102139
 70
     32
  0
VERTEX
  8
MY3DLAYER
10
566.274114814664
20
55.7818477308675
30
-0.00016942883102139
 70
     32
  0
VERTEX
  8
MY3DLAYER
10
566.227324509359
20
55.7401258643101
30
-0.00016942883102139
 70
     32
  0
VERTEX
  8
MY3DLAYER
10
566.173612320976
20
55.7077986677326
30
-0.00016942883102139
 70
     32
  0
VERTEX
  8
MY3DLAYER
10
566.114839324456
20
55.6859862469678
30
-0.00016942883102139
 70
     32
  0
VERTEX
  8
MY3DLAYER
10
566.053041946809
20
55.6754443811222
30
-0.00016942883102139
 70
     32
  0
VERTEX
  8
MY3DLAYER
10
565.990361406901
20
55.6765383355661
30
-0.00016942883102139
 70
     32
  0
VERTEX
  8
MY3DLAYER
10
560.479206427044
20
56.2888888888834
30
-0.00016942883102139
 70
     32
  0
VERTEX
  8
MY3DLAYER
10
560.353227320945
20
56.2940060308786
30
-0.00016942883102139
 70
     32
  0
VERTEX
  8
MY3DLAYER
10
560.227768249504
20
56.2814783930685
30
-0.00016942883102139
 70
     32
  0
VERTEX
  8
MY3DLAYER
10
560.105288439804
20
56.2515515400488
30
-0.00016942883102139
 70
     32
  0
VERTEX
  8
MY3DLAYER
10
559.988188719951
20
56.2048120928315
30
-0.00016942883102139
 70
     32
  0
VERTEX
  8
MY3DLAYER
10
559.878764458459
20
56.1421762299999
30
-0.00016942883102139
 70
     32
  0
VERTEX
  8
MY3DLAYER
10
559.779160570829
20
56.064871728935
30
-0.00016942883102139
 70
     32
  0
VERTEX
  8
MY3DLAYER
10
559.69132947529
20
55.9744138991347
30
-0.00016942883102139
 70
     32
  0
VERTEX
  8
MY3DLAYER
10
559.616992821828
20
55.8725758793781
30
-0.00016942883102139
 70
     32
  0
VERTEX
  8
MY3DLAYER
10
559.557607744705
20
55.7613538809656
30
-0.00016942883102139
 70
     32
  0
VERTEX
  8
MY3DLAYER
10
559.51433829996
20
55.6429280583282
30
-0.00016942883102139
 70
     32
  0
VERTEX
  8
MY3DLAYER
10
559.488032647788
20
55.5196197740177
30
-0.00016942883102139
 70
     32
  0
VERTEX
  8
MY3DLAYER
10
559.479206427044
20
55.393846095757
30
-0.00016942883102139
 70
     32
  0
VERTEX
  8
MY3DLAYER
10
559.479206427044
20
51.1999999999946
30
-0.00016942883102139
 70
     32
  0
VERTEX
  8
MY3DLAYER
10
559.482963641582
20
51.0376992571377
30
-0.00016942883102139
 70
     32
  0
VERTEX
  8
MY3DLAYER
10
559.494227235411
20
50.8757462415836
30
-0.00016942883102139
 70
     32
  0
VERTEX
  8
MY3DLAYER
10
559.512973076421
20
50.7144879356338
30
-0.00016942883102139
 70
     32
  0
VERTEX
  8
MY3DLAYER
10
559.539161001885
20
50.5542698331831
30
-0.00016942883102139
 70
     32
  0
VERTEX
  8
MY3DLAYER
10
559.572734904501
20
50.3954351995036
30
-0.00016942883102139
 70
     32
  0
VERTEX
  8
MY3DLAYER
10
559.613622852605
20
50.2383243358026
30
-0.00016942883102139
 70
     32
  0
VERTEX
  8
MY3DLAYER
10
559.66173724428
20
50.0832738501321
30
-0.00016942883102139
 70
     32
  0
VERTEX
  8
MY3DLAYER
10
559.716974995049
20
49.93061593621
30
-0.00016942883102139
 70
     32
  0
VERTEX
  8
MY3DLAYER
10
559.779217758722
20
49.7806776616991
30
-0.00016942883102139
 70
     32
  0
VERTEX
  8
MY3DLAYER
10
559.848332180961
20
49.6337802674693
30
-0.00016942883102139
 70
     32
  0
VERTEX
  8
MY3DLAYER
10
559.924170184985
20
49.4902384793425
30
-0.00016942883102139
 70
     32
  0
VERTEX
  8
MY3DLAYER
10
560.006569288823
20
49.3503598337965
30
-0.00016942883102139
 70
     32
  0
VERTEX
  8
MY3DLAYER
10
566.313699609223
20
39.1888720953726
30
-0.00016942883102139
 70
     32
  0
VERTEX
  8
MY3DLAYER
10
566.34165918373
20
39.1327623011033
30
-0.00016942883102139
 70
     32
  0
VERTEX
  8
MY3DLAYER
10
566.358735290199
20
39.0724427072108
30
-0.00016942883102139
 70
     32
  0
VERTEX
  8
MY3DLAYER
10
566.364336258196
20
39.0100033287944
30
-0.00016942883102139
 70
     32
  0
VERTEX
  8
MY3DLAYER
10
566.358268019642
20
38.9476076294204
30
-0.00016942883102139
 70
     32
  0
VERTEX
  8
MY3DLAYER
10
566.340740833085
20
38.8874175592187
30
-0.00016942883102139
 70
     32
  0
VERTEX
  8
MY3DLAYER
10
566.312361998445
20
38.831518645419
30
-0.00016942883102139
 70
     32
  0
VERTEX
  8
MY3DLAYER
10
566.274114814664
20
38.7818477308676
30
-0.00016942883102139
 70
     32
  0
VERTEX
  8
MY3DLAYER
10
566.22732450936
20
38.7401258643104
30
-0.00016942883102139
 70
     32
  0
VERTEX
  8
MY3DLAYER
10
566.173612320976
20
38.7077986677326
30
-0.00016942883102139
 70
     32
  0
VERTEX
  8
MY3DLAYER
10
566.114839324456
20
38.6859862469679
30
-0.00016942883102139
 70
     32
  0
VERTEX
  8
MY3DLAYER
10
566.05304194681
20
38.6754443811224
30
-0.00016942883102139
 70
     32
  0
VERTEX
  8
MY3DLAYER
10
565.990361406901
20
38.6765383355662
30
-0.00016942883102139
 70
     32
  0
VERTEX
  8
MY3DLAYER
10
560.479206427044
20
39.2888888888836
30
-0.00016942883102139
 70
     32
  0
VERTEX
  8
MY3DLAYER
10
560.353227320945
20
39.2940060308786
30
-0.00016942883102139
 70
     32
  0
VERTEX
  8
MY3DLAYER
10
560.227768249504
20
39.2814783930685
30
-0.00016942883102139
 70
     32
  0
VERTEX
  8
MY3DLAYER
10
560.105288439804
20
39.251551540049
30
-0.00016942883102139
 70
     32
  0
VERTEX
  8
MY3DLAYER
10
559.988188719951
20
39.2048120928316
30
-0.00016942883102139
 70
     32
  0
VERTEX
  8
MY3DLAYER
10
559.878764458459
20
39.1421762299999
30
-0.00016942883102139
 70
     32
  0
VERTEX
  8
MY3DLAYER
10
559.779160570829
20
39.0648717289351
30
-0.00016942883102139
 70
     32
  0
VERTEX
  8
MY3DLAYER
10
559.69132947529
20
38.9744138991348
30
-0.00016942883102139
 70
     32
  0
VERTEX
  8
MY3DLAYER
10
559.616992821828
20
38.8725758793782
30
-0.00016942883102139
 70
     32
  0
VERTEX
  8
MY3DLAYER
10
559.557607744705
20
38.7613538809657
30
-0.00016942883102139
 70
     32
  0
VERTEX
  8
MY3DLAYER
10
559.51433829996
20
38.6429280583285
30
-0.00016942883102139
 70
     32
  0
VERTEX
  8
MY3DLAYER
10
559.488032647788
20
38.5196197740178
30
-0.00016942883102139
 70
     32
  0
VERTEX
  8
MY3DLAYER
10
559.479206427045
20
38.3938460957572
30
-0.00016942883102139
 70
     32
  0
VERTEX
  8
MY3DLAYER
10
559.479206427045
20
36.1999999999947
30
-0.00016942883102139
 70
     32
  0
VERTEX
  8
MY3DLAYER
10
559.482963641582
20
36.0376992571379
30
-0.00016942883102139
 70
     32
  0
VERTEX
  8
MY3DLAYER
10
559.494227235411
20
35.8757462415838
30
-0.00016942883102139
 70
     32
  0
VERTEX
  8
MY3DLAYER
10
559.512973076421
20
35.714487935634
30
-0.00016942883102139
 70
     32
  0
VERTEX
  8
MY3DLAYER
10
559.539161001885
20
35.5542698331834
30
-0.00016942883102139
 70
     32
  0
VERTEX
  8
MY3DLAYER
10
559.572734904501
20
35.3954351995038
30
-0.00016942883102139
 70
     32
  0
VERTEX
  8
MY3DLAYER
10
559.613622852605
20
35.2383243358028
30
-0.00016942883102139
 70
     32
  0
VERTEX
  8
MY3DLAYER
10
559.661737244281
20
35.0832738501322
30
-0.00016942883102139
 70
     32
  0
VERTEX
  8
MY3DLAYER
10
559.716974995049
20
34.9306159362101
30
-0.00016942883102139
 70
     32
  0
VERTEX
  8
MY3DLAYER
10
559.779217758722
20
34.7806776616992
30
-0.00016942883102139
 70
     32
  0
VERTEX
  8
MY3DLAYER
10
559.848332180962
20
34.6337802674697
30
-0.00016942883102139
 70
     32
  0
VERTEX
  8
MY3DLAYER
10
559.924170184985
20
34.4902384793426
30
-0.00016942883102139
 70
     32
  0
VERTEX
  8
MY3DLAYER
10
560.006569288823
20
34.3503598337968
30
-0.00016942883102139
 70
     32
  0
VERTEX
  8
MY3DLAYER
10
566.313699609224
20
24.1888720953727
30
-0.00016942883102139
 70
     32
  0
VERTEX
  8
MY3DLAYER
10
566.34165918373
20
24.1327623011035
30
-0.00016942883102139
 70
     32
  0
VERTEX
  8
MY3DLAYER
10
566.3587352902
20
24.0724427072109
30
-0.00016942883102139
 70
     32
  0
VERTEX
  8
MY3DLAYER
10
566.364336258197
20
24.0100033287946
30
-0.00016942883102139
 70
     32
  0
VERTEX
  8
MY3DLAYER
10
566.358268019642
20
23.9476076294206
30
-0.00016942883102139
 70
     32
  0
VERTEX
  8
MY3DLAYER
10
566.340740833085
20
23.8874175592187
30
-0.00016942883102139
 70
     32
  0
VERTEX
  8
MY3DLAYER
10
566.312361998445
20
23.8315186454192
30
-0.00016942883102139
 70
     32
  0
VERTEX
  8
MY3DLAYER
10
566.274114814664
20
23.7818477308678
30
-0.00016942883102139
 70
     32
  0
VERTEX
  8
MY3DLAYER
10
566.22732450936
20
23.7401258643105
30
-0.00016942883102139
 70
     32
  0
VERTEX
  8
MY3DLAYER
10
566.173612320976
20
23.7077986677328
30
-0.00016942883102139
 70
     32
  0
VERTEX
  8
MY3DLAYER
10
566.114839324456
20
23.6859862469681
30
-0.00016942883102139
 70
     32
  0
VERTEX
  8
MY3DLAYER
10
566.05304194681
20
23.6754443811224
30
-0.00016942883102139
 70
     32
  0
VERTEX
  8
MY3DLAYER
10
565.990361406901
20
23.6765383355664
30
-0.00016942883102139
 70
     32
  0
VERTEX
  8
MY3DLAYER
10
560.171875067113
20
24.3230368177651
30
-0.00016942883102139
 70
     32
  0
VERTEX
  8
MY3DLAYER
10
560.036570459152
20
24.2878314145158
30
-0.00016942883102139
 70
     32
  0
VERTEX
  8
MY3DLAYER
10
559.90875883221
20
24.2311662102727
30
-0.00016942883102139
 70
     32
  0
VERTEX
  8
MY3DLAYER
10
559.791818555082
20
24.1545390027115
30
-0.00016942883102139
 70
     32
  0
VERTEX
  8
MY3DLAYER
10
559.688840640632
20
24.0599752332809
30
-0.00016942883102139
 70
     32
  0
VERTEX
  8
MY3DLAYER
10
559.602547042888
20
23.9499744499122
30
-0.00016942883102139
 70
     32
  0
VERTEX
  8
MY3DLAYER
10
559.535218709246
20
23.8274442379546
30
-0.00016942883102139
 70
     32
  0
VERTEX
  8
MY3DLAYER
10
559.488635289546
20
23.6956233656981
30
-0.00016942883102139
 70
     32
  0
VERTEX
  8
MY3DLAYER
10
559.479206427045
20
23.6428880617924
30
-0.00016942883102139
 70
     32
  0
VERTEX
  8
MY3DLAYER
10
559.464028095644
20
23.5579961759368
30
-0.00016942883102139
 70
     32
  0
VERTEX
  8
MY3DLAYER
10
559.462047554873
20
23.4182004864051
30
-0.00016942883102139
 70
     32
  0
VERTEX
  8
MY3DLAYER
10
559.479206427045
20
23.3035764669995
30
-0.00016942883102139
 70
     32
  0
VERTEX
  8
MY3DLAYER
10
559.525576373935
20
23.1468438009542
30
-0.00016942883102139
 70
     32
  0
VERTEX
  8
MY3DLAYER
10
559.589406514238
20
23.0224554150725
30
-0.00016942883102139
 70
     32
  0
VERTEX
  8
MY3DLAYER
10
566.313699609224
20
12.1888720953729
30
-0.00016942883102139
 70
     32
  0
VERTEX
  8
MY3DLAYER
10
566.34165918373
20
12.1327623011037
30
-0.00016942883102139
 70
     32
  0
VERTEX
  8
MY3DLAYER
10
566.3587352902
20
12.0724427072111
30
-0.00016942883102139
 70
     32
  0
VERTEX
  8
MY3DLAYER
10
566.364336258197
20
12.0100033287948
30
-0.00016942883102139
 70
     32
  0
VERTEX
  8
MY3DLAYER
10
566.358268019643
20
11.9476076294208
30
-0.00016942883102139
 70
     32
  0
VERTEX
  8
MY3DLAYER
10
566.340740833085
20
11.887417559219
30
-0.00016942883102139
 70
     32
  0
VERTEX
  8
MY3DLAYER
10
566.312361998445
20
11.8315186454193
30
-0.00016942883102139
 70
     32
  0
VERTEX
  8
MY3DLAYER
10
566.274114814664
20
11.7818477308679
30
-0.00016942883102139
 70
     32
  0
VERTEX
  8
MY3DLAYER
10
566.22732450936
20
11.7401258643104
30
-0.00016942883102139
 70
     32
  0
VERTEX
  8
MY3DLAYER
10
566.173612320976
20
11.7077986677329
30
-0.00016942883102139
 70
     32
  0
VERTEX
  8
MY3DLAYER
10
566.114839324457
20
11.6859862469682
30
-0.00016942883102139
 70
     32
  0
VERTEX
  8
MY3DLAYER
10
566.05304194681
20
11.6754443811225
30
-0.00016942883102139
 70
     32
  0
VERTEX
  8
MY3DLAYER
10
565.990361406902
20
11.6765383355663
30
-0.00016942883102139
 70
     32
  0
VERTEX
  8
MY3DLAYER
10
560.479206427045
20
12.2888888888838
30
-0.00016942883102139
 70
     32
  0
VERTEX
  8
MY3DLAYER
10
560.353227320945
20
12.2940060308791
30
-0.00016942883102139
 70
     32
  0
VERTEX
  8
MY3DLAYER
10
560.227768249505
20
12.2814783930689
30
-0.00016942883102139
 70
     32
  0
VERTEX
  8
MY3DLAYER
10
560.105288439805
20
12.2515515400494
30
-0.00016942883102139
 70
     32
  0
VERTEX
  8
MY3DLAYER
10
559.988188719952
20
12.2048120928319
30
-0.00016942883102139
 70
     32
  0
VERTEX
  8
MY3DLAYER
10
559.878764458459
20
12.1421762300003
30
-0.00016942883102139
 70
     32
  0
VERTEX
  8
MY3DLAYER
10
559.77916057083
20
12.0648717289355
30
-0.00016942883102139
 70
     32
  0
VERTEX
  8
MY3DLAYER
10
559.69132947529
20
11.9744138991351
30
-0.00016942883102139
 70
     32
  0
VERTEX
  8
MY3DLAYER
10
559.616992821828
20
11.8725758793785
30
-0.00016942883102139
 70
     32
  0
VERTEX
  8
MY3DLAYER
10
559.557607744705
20
11.761353880966
30
-0.00016942883102139
 70
     32
  0
VERTEX
  8
MY3DLAYER
10
559.51433829996
20
11.6429280583286
30
-0.00016942883102139
 70
     32
  0
VERTEX
  8
MY3DLAYER
10
559.488032647788
20
11.5196197740181
30
-0.00016942883102139
 70
     32
  0
VERTEX
  8
MY3DLAYER
10
559.479206427045
20
11.3938460957573
30
-0.00016942883102139
 70
     32
  0
VERTEX
  8
MY3DLAYER
10
559.479206427045
20
9.69999999999488
30
-0.00016942883102139
 70
     32
  0
VERTEX
  8
MY3DLAYER
10
559.479206427045
20
-4.98570074114468e-012
30
-0.00016942883102139
 70
     32
  0
VERTEX
  8
MY3DLAYER
10
544.129206430785
20
0.0
30
0.0
 70
     32
  0
SEQEND
  0
POLYLINE
 8
Group#41
 66
     1
70
    8
 10
0.0
 20
 0.0
 30
0.0
  0
VERTEX
  8
MY3DLAYER
10
548.570903648834
20
6.77415947023356
30
-0.000132159061895319
 70
     32
  0
VERTEX
  8
MY3DLAYER
10
548.884438888235
20
6.64428891623794
30
-0.000130990891842042
 70
     32
  0
VERTEX
  8
MY3DLAYER
10
549.220903646196
20
6.59999248532741
30
-0.000129586383621505
 70
     32
  0
VERTEX
  8
MY3DLAYER
10
549.557368405495
20
6.64428890606518
30
-0.000128041252147876
 70
     32
  0
VERTEX
  8
MY3DLAYER
10
549.870903648821
20
6.77415945058128
30
-0.000126460795577633
 70
     32
  0
VERTEX
  8
MY3DLAYER
10
550.140142467483
20
6.98075365588816
30
-0.000124952719414211
 70
     32
  0
VERTEX
  8
MY3DLAYER
10
550.346736680926
20
7.24999246830723
30
-0.000123619796555933
 70
     32
  0
VERTEX
  8
MY3DLAYER
10
550.476607234919
20
7.56352770771028
30
-0.000122552863492831
 70
     32
  0
VERTEX
  8
MY3DLAYER
10
550.520903665826
20
7.8999924656735
30
-0.000121824629949965
 70
     32
  0
VERTEX
  8
MY3DLAYER
10
550.476607245087
20
8.23645722497598
30
-0.00012148472383982
 70
     32
  0
VERTEX
  8
MY3DLAYER
10
550.34673670057
20
8.54999246830559
30
-0.000121556309202079
 70
     32
  0
VERTEX
  8
MY3DLAYER
10
550.140142495262
20
8.81923128697086
30
-0.000122034507612606
 70
     32
  0
VERTEX
  8
MY3DLAYER
10
549.870903682844
20
9.02582550041798
30
-0.000122886730639983
 70
     32
  0
VERTEX
  8
MY3DLAYER
10
549.557368443443
20
9.1556960544136
30
-0.00012405490069326
 70
     32
  0
VERTEX
  8
MY3DLAYER
10
549.220903685482
20
9.19999248532413
30
-0.000125459408913798
 70
     32
  0
VERTEX
  8
MY3DLAYER
10
548.884438926183
20
9.15569606458635
30
-0.000127004540387426
 70
     32
  0
VERTEX
  8
MY3DLAYER
10
548.570903682857
20
9.02582552007026
30
-0.000128584996957669
 70
     32
  0
VERTEX
  8
MY3DLAYER
10
548.301664864195
20
8.81923131476338
30
-0.000130093073121091
 70
     32
  0
VERTEX
  8
MY3DLAYER
10
548.095070650752
20
8.54999250234432
30
-0.000131425995979369
 70
     32
  0
VERTEX
  8
MY3DLAYER
10
547.965200096759
20
8.23645726294125
30
-0.000132492929042471
 70
     32
  0
VERTEX
  8
MY3DLAYER
10
547.920903665851
20
7.89999250497804
30
-0.000133221162585337
 70
     32
  0
VERTEX
  8
MY3DLAYER
10
547.965200086591
20
7.56352774567555
30
-0.000133561068695482
 70
     32
  0
VERTEX
  8
MY3DLAYER
10
548.095070631108
20
7.24999250234596
30
-0.000133489483333223
 70
     32
  0
VERTEX
  8
MY3DLAYER
10
548.301664836416
20
6.98075368368067
30
-0.000133011284922696
 70
     32
  0
VERTEX
  8
MY3DLAYER
10
548.570903648834
20
6.77415947023356
30
-0.000132159061895319
 70
     32
  0
SEQEND
  0
POLYLINE
 8
Group#41
 66
     1
70
    8
 10
0.0
 20
 0.0
 30
0.0
  0
VERTEX
  8
MY3DLAYER
10
547.970904952082
20
94.1999913138039
30
-0.000159366183601939
 70
     32
  0
VERTEX
  8
MY3DLAYER
10
548.013497664316
20
93.8764675067802
30
-0.000159693016400084
 70
     32
  0
VERTEX
  8
MY3DLAYER
10
548.138373187875
20
93.5749913112649
30
-0.000159624184301981
 70
     32
  0
VERTEX
  8
MY3DLAYER
10
548.337021462197
20
93.3161078317692
30
-0.000159164378101363
 70
     32
  0
VERTEX
  8
MY3DLAYER
10
548.595904935666
20
93.1174595495959
30
-0.000158344932830938
 70
     32
  0
VERTEX
  8
MY3DLAYER
10
548.897381127392
20
92.992584016893
30
-0.000157221692331688
 70
     32
  0
VERTEX
  8
MY3DLAYER
10
549.220904933121
20
92.9499912948477
30
-0.000155871203587394
 70
     32
  0
VERTEX
  8
MY3DLAYER
10
549.544428740142
20
92.9925840070797
30
-0.000154385500174191
 70
     32
  0
VERTEX
  8
MY3DLAYER
10
549.845904935654
20
93.1174595306381
30
-0.000152865830324449
 70
     32
  0
VERTEX
  8
MY3DLAYER
10
550.104788415146
20
93.3161078049589
30
-0.000151415757027054
 70
     32
  0
VERTEX
  8
MY3DLAYER
10
550.303436697316
20
93.574991278429
30
-0.000150134100380863
 70
     32
  0
VERTEX
  8
MY3DLAYER
10
550.428312230016
20
93.8764674701566
30
-0.000149108203168278
 70
     32
  0
VERTEX
  8
MY3DLAYER
10
550.470904952058
20
94.1999912758884
30
-0.00014840797858896
 70
     32
  0
VERTEX
  8
MY3DLAYER
10
550.428312239824
20
94.5235150829121
30
-0.000148081145790815
 70
     32
  0
VERTEX
  8
MY3DLAYER
10
550.303436716265
20
94.8249912784274
30
-0.000148149977888919
 70
     32
  0
VERTEX
  8
MY3DLAYER
10
550.104788441944
20
95.083874757923
30
-0.000148609784089536
 70
     32
  0
VERTEX
  8
MY3DLAYER
10
549.845904968475
20
95.2825230400964
30
-0.000149429229359961
 70
     32
  0
VERTEX
  8
MY3DLAYER
10
549.544428776749
20
95.4073985727993
30
-0.000150552469859211
 70
     32
  0
VERTEX
  8
MY3DLAYER
10
549.220904971019
20
95.4499912948446
30
-0.000151902958603505
 70
     32
  0
VERTEX
  8
MY3DLAYER
10
548.897381163999
20
95.4073985826126
30
-0.000153388662016708
 70
     32
  0
VERTEX
  8
MY3DLAYER
10
548.595904968487
20
95.2825230590542
30
-0.00015490833186645
 70
     32
  0
VERTEX
  8
MY3DLAYER
10
548.337021488995
20
95.0838747847334
30
-0.000156358405163846
 70
     32
  0
VERTEX
  8
MY3DLAYER
10
548.138373206825
20
94.8249913112633
30
-0.000157640061810036
 70
     32
  0
VERTEX
  8
MY3DLAYER
10
548.013497674125
20
94.5235151195357
30
-0.000158665959022621
 70
     32
  0
VERTEX
  8
MY3DLAYER
10
547.970904952082
20
94.1999913138039
30
-0.000159366183601939
 70
     32
  0
SEQEND
 0
ENDSEC
 0
EOF
