 0
SECTION
 2
ENTITIES
  0
POLYLINE
 8
Group#16
 66
     1
70
    8
 10
0.0
 20
 0.0
 30
0.0
  0
VERTEX
  8
MY3DLAYER
10
532.459810960455
20
1.25820136531729e-009
30
0.000205083988699374
 70
     32
  0
VERTEX
  8
MY3DLAYER
10
526.697863251163
20
0.0
30
0.000328308038970365
 70
     32
  0
VERTEX
  8
MY3DLAYER
10
526.675655475433
20
3.91458905026407
30
0.000328308038981546
 70
     32
  0
VERTEX
  8
MY3DLAYER
10
530.369415475433
20
5.25900905026407
30
0.000328308038981546
 70
     32
  0
VERTEX
  8
MY3DLAYER
10
530.369415475433
20
7.71221905026408
30
0.000328308038981546
 70
     32
  0
VERTEX
  8
MY3DLAYER
10
526.675655475433
20
9.05663905026408
30
0.000328308038981546
 70
     32
  0
VERTEX
  8
MY3DLAYER
10
526.675655475433
20
11.454419050264
30
0.000328308038981546
 70
     32
  0
VERTEX
  8
MY3DLAYER
10
530.369415475433
20
12.7988390502641
30
0.000328308038981546
 70
     32
  0
VERTEX
  8
MY3DLAYER
10
530.369415475433
20
15.2520490502641
30
0.000328308038981546
 70
     32
  0
VERTEX
  8
MY3DLAYER
10
526.675655475433
20
16.5964590502641
30
0.000328308038981546
 70
     32
  0
VERTEX
  8
MY3DLAYER
10
526.675655475433
20
18.9942390502641
30
0.000328308038981546
 70
     32
  0
VERTEX
  8
MY3DLAYER
10
530.369415475433
20
20.3386590502641
30
0.000328308038981546
 70
     32
  0
VERTEX
  8
MY3DLAYER
10
530.369415475433
20
22.7918690502641
30
0.000328308038981546
 70
     32
  0
VERTEX
  8
MY3DLAYER
10
526.675655475433
20
24.1362890502641
30
0.000328308038981546
 70
     32
  0
VERTEX
  8
MY3DLAYER
10
526.697863251148
20
57.9632009809681
30
0.000673704059762413
 70
     32
  0
VERTEX
  8
MY3DLAYER
10
516.415351910809
20
70.4993246923524
30
0.000682881693891626
 70
     32
  0
VERTEX
  8
MY3DLAYER
10
516.2428587926
20
70.6960153967081
30
0.000682866097770985
 70
     32
  0
VERTEX
  8
MY3DLAYER
10
516.097514665613
20
70.9135382547255
30
0.000682819586365533
 70
     32
  0
VERTEX
  8
MY3DLAYER
10
515.98180640816
20
71.1481713899953
30
0.00068274295549831
 70
     32
  0
VERTEX
  8
MY3DLAYER
10
515.897713820604
20
71.3959001645203
30
0.000682637516344702
 70
     32
  0
VERTEX
  8
MY3DLAYER
10
515.829565473182
20
71.9135382547252
30
0.000682347891600169
 70
     32
  0
VERTEX
  8
MY3DLAYER
10
515.829565473182
20
85.0600223235182
30
0.000682347837852661
 70
     32
  0
VERTEX
  8
MY3DLAYER
10
515.897713820604
20
85.5776604137233
30
0.000682347837330718
 70
     32
  0
VERTEX
  8
MY3DLAYER
10
515.981806408159
20
85.8253891882484
30
0.000682347837035061
 70
     32
  0
VERTEX
  8
MY3DLAYER
10
516.097514665613
20
86.0600223235182
30
0.000682347836722903
 70
     32
  0
VERTEX
  8
MY3DLAYER
10
516.242858792599
20
86.2775451815357
30
0.000682347836399584
 70
     32
  0
VERTEX
  8
MY3DLAYER
10
516.415351910809
20
86.4742358858913
30
0.000682347836070637
 70
     32
  0
VERTEX
  8
MY3DLAYER
10
516.612042615164
20
86.6467290041006
30
0.000682347835741689
 70
     32
  0
VERTEX
  8
MY3DLAYER
10
516.829565473182
20
86.7920731310871
30
0.000682347835418371
 70
     32
  0
VERTEX
  8
MY3DLAYER
10
517.064198608452
20
86.9077813885408
30
0.000682347835106212
 70
     32
  0
VERTEX
  8
MY3DLAYER
10
517.311927382977
20
86.9918739760964
30
0.000682347834810555
 70
     32
  0
VERTEX
  8
MY3DLAYER
10
517.829565473182
20
87.0600223235182
30
0.000682347834288612
 70
     32
  0
VERTEX
  8
MY3DLAYER
10
532.653741711207
20
87.0600223235182
30
0.000682347834288612
 70
     32
  0
VERTEX
  8
MY3DLAYER
10
533.049658378433
20
86.8590278799181
30
0.000682347834288612
 70
     32
  0
VERTEX
  8
MY3DLAYER
10
533.397699877443
20
86.5833180891722
30
0.000682347834288612
 70
     32
  0
VERTEX
  8
MY3DLAYER
10
533.683964913849
20
86.24390520981
30
0.000682347834288612
 70
     32
  0
VERTEX
  8
MY3DLAYER
10
533.897019636935
20
85.8543458963331
30
0.000682347834288612
 70
     32
  0
VERTEX
  8
MY3DLAYER
10
534.028354324629
20
85.4301997262994
30
0.000682347834288612
 70
     32
  0
VERTEX
  8
MY3DLAYER
10
534.072723274445
20
84.9884077276868
30
0.000682347834288612
 70
     32
  0
VERTEX
  8
MY3DLAYER
10
534.028354324629
20
84.5466157290742
30
0.000682347834288612
 70
     32
  0
VERTEX
  8
MY3DLAYER
10
533.897019636935
20
84.1224695590405
30
0.000682347834288612
 70
     32
  0
VERTEX
  8
MY3DLAYER
10
533.683964913849
20
83.7329102455637
30
0.000682347834288612
 70
     32
  0
VERTEX
  8
MY3DLAYER
10
533.397699877443
20
83.3934973662014
30
0.000682347834288612
 70
     32
  0
VERTEX
  8
MY3DLAYER
10
533.049658378433
20
83.1177875754555
30
0.000682347834288612
 70
     32
  0
VERTEX
  8
MY3DLAYER
10
532.653741711207
20
82.9167931318554
30
0.000682347834288612
 70
     32
  0
VERTEX
  8
MY3DLAYER
10
526.829565473182
20
80.6600223235182
30
0.000682347834288612
 70
     32
  0
VERTEX
  8
MY3DLAYER
10
524.829565473182
20
82.0600223235182
30
0.000682347834288612
 70
     32
  0
VERTEX
  8
MY3DLAYER
10
520.329565473182
20
82.0600223235182
30
0.000682347834288612
 70
     32
  0
VERTEX
  8
MY3DLAYER
10
519.941336905528
20
82.0089110629518
30
0.000682347834288612
 70
     32
  0
VERTEX
  8
MY3DLAYER
10
519.579565473182
20
81.8590604291949
30
0.000682347834288612
 70
     32
  0
VERTEX
  8
MY3DLAYER
10
519.268905301402
20
81.620682495298
30
0.000682347834288612
 70
     32
  0
VERTEX
  8
MY3DLAYER
10
519.030527367505
20
81.3100223235182
30
0.000682347834288612
 70
     32
  0
VERTEX
  8
MY3DLAYER
10
518.880676733748
20
80.948250891172
30
0.000682347834288612
 70
     32
  0
VERTEX
  8
MY3DLAYER
10
518.829565473182
20
80.5600223235182
30
0.000682347834288612
 70
     32
  0
VERTEX
  8
MY3DLAYER
10
518.880676733748
20
80.1717937558644
30
0.000682347834288612
 70
     32
  0
VERTEX
  8
MY3DLAYER
10
519.030527367505
20
79.8100223235182
30
0.000682347834288612
 70
     32
  0
VERTEX
  8
MY3DLAYER
10
519.268905301402
20
79.4993621517384
30
0.000682347834288612
 70
     32
  0
VERTEX
  8
MY3DLAYER
10
519.579565473182
20
79.2609842178415
30
0.000682347834288612
 70
     32
  0
VERTEX
  8
MY3DLAYER
10
519.941336905528
20
79.1111335840846
30
0.000682347834288612
 70
     32
  0
VERTEX
  8
MY3DLAYER
10
520.329565473182
20
79.0600223235182
30
0.000682347834288612
 70
     32
  0
VERTEX
  8
MY3DLAYER
10
522.247197196665
20
79.0600223235182
30
0.000682347834288612
 70
     32
  0
VERTEX
  8
MY3DLAYER
10
522.986099314069
20
78.9823397398555
30
0.000682347834288612
 70
     32
  0
VERTEX
  8
MY3DLAYER
10
523.692690717567
20
78.7526888931082
30
0.000682347834288612
 70
     32
  0
VERTEX
  8
MY3DLAYER
10
524.130443467058
20
78.5198585187708
30
0.000682347834288612
 70
     32
  0
VERTEX
  8
MY3DLAYER
10
524.531521468836
20
78.2283557067937
30
0.000682347834288612
 70
     32
  0
VERTEX
  8
MY3DLAYER
10
524.88811404261
20
77.8838572463759
30
0.000682347834288612
 70
     32
  0
VERTEX
  8
MY3DLAYER
10
532.505386173854
20
69.4202215437822
30
0.000730022092309343
 70
     32
  0
VERTEX
  8
MY3DLAYER
10
532.459810960455
20
1.25820136531729e-009
30
0.000205083988699374
 70
     32
  0
SEQEND
  0
POLYLINE
 8
Group#16
 66
     1
70
    8
 10
0.0
 20
 0.0
 30
0.0
  0
VERTEX
  8
MY3DLAYER
10
532.505386173854
20
69.4202215437822
30
0.000730022092309343
 70
     32
  0
VERTEX
  8
MY3DLAYER
10
532.459810960455
20
1.25820136531729e-009
30
0.000205083988699374
 70
     32
  0
VERTEX
  8
MY3DLAYER
10
526.697863251163
20
0.0
30
0.000328308038970365
 70
     32
  0
VERTEX
  8
MY3DLAYER
10
526.675655475433
20
3.91458905026407
30
0.000328308038981546
 70
     32
  0
VERTEX
  8
MY3DLAYER
10
530.369415475433
20
5.25900905026407
30
0.000328308038981546
 70
     32
  0
VERTEX
  8
MY3DLAYER
10
530.369415475433
20
7.71221905026408
30
0.000328308038981546
 70
     32
  0
VERTEX
  8
MY3DLAYER
10
526.675655475433
20
9.05663905026408
30
0.000328308038981546
 70
     32
  0
VERTEX
  8
MY3DLAYER
10
526.675655475433
20
11.454419050264
30
0.000328308038981546
 70
     32
  0
VERTEX
  8
MY3DLAYER
10
530.369415475433
20
12.7988390502641
30
0.000328308038981546
 70
     32
  0
VERTEX
  8
MY3DLAYER
10
530.369415475433
20
15.2520490502641
30
0.000328308038981546
 70
     32
  0
VERTEX
  8
MY3DLAYER
10
526.675655475433
20
16.5964590502641
30
0.000328308038981546
 70
     32
  0
VERTEX
  8
MY3DLAYER
10
526.675655475433
20
18.9942390502641
30
0.000328308038981546
 70
     32
  0
VERTEX
  8
MY3DLAYER
10
530.369415475433
20
20.3386590502641
30
0.000328308038981546
 70
     32
  0
VERTEX
  8
MY3DLAYER
10
530.369415475433
20
22.7918690502641
30
0.000328308038981546
 70
     32
  0
VERTEX
  8
MY3DLAYER
10
526.675655475433
20
24.1362890502641
30
0.000328308038981546
 70
     32
  0
VERTEX
  8
MY3DLAYER
10
526.697863251148
20
57.9632009809681
30
0.000673704059762413
 70
     32
  0
VERTEX
  8
MY3DLAYER
10
516.415351910809
20
70.4993246923524
30
0.000682881693891626
 70
     32
  0
VERTEX
  8
MY3DLAYER
10
516.2428587926
20
70.6960153967081
30
0.000682866097770985
 70
     32
  0
VERTEX
  8
MY3DLAYER
10
516.097514665613
20
70.9135382547255
30
0.000682819586365533
 70
     32
  0
VERTEX
  8
MY3DLAYER
10
515.98180640816
20
71.1481713899953
30
0.00068274295549831
 70
     32
  0
VERTEX
  8
MY3DLAYER
10
515.897713820604
20
71.3959001645203
30
0.000682637516344702
 70
     32
  0
VERTEX
  8
MY3DLAYER
10
515.829565473182
20
71.9135382547252
30
0.000682347891600169
 70
     32
  0
VERTEX
  8
MY3DLAYER
10
515.829565473182
20
85.0600223235182
30
0.000682347837852661
 70
     32
  0
VERTEX
  8
MY3DLAYER
10
515.897713820604
20
85.5776604137233
30
0.000682347837330718
 70
     32
  0
VERTEX
  8
MY3DLAYER
10
515.981806408159
20
85.8253891882484
30
0.000682347837035061
 70
     32
  0
VERTEX
  8
MY3DLAYER
10
516.097514665613
20
86.0600223235182
30
0.000682347836722903
 70
     32
  0
VERTEX
  8
MY3DLAYER
10
516.242858792599
20
86.2775451815357
30
0.000682347836399584
 70
     32
  0
VERTEX
  8
MY3DLAYER
10
516.415351910809
20
86.4742358858913
30
0.000682347836070637
 70
     32
  0
VERTEX
  8
MY3DLAYER
10
516.612042615164
20
86.6467290041006
30
0.000682347835741689
 70
     32
  0
VERTEX
  8
MY3DLAYER
10
516.829565473182
20
86.7920731310871
30
0.000682347835418371
 70
     32
  0
VERTEX
  8
MY3DLAYER
10
517.064198608452
20
86.9077813885408
30
0.000682347835106212
 70
     32
  0
VERTEX
  8
MY3DLAYER
10
517.311927382977
20
86.9918739760964
30
0.000682347834810555
 70
     32
  0
VERTEX
  8
MY3DLAYER
10
517.829565473182
20
87.0600223235182
30
0.000682347834288612
 70
     32
  0
VERTEX
  8
MY3DLAYER
10
532.653741711207
20
87.0600223235182
30
0.000682347834288612
 70
     32
  0
VERTEX
  8
MY3DLAYER
10
533.049658378433
20
86.8590278799181
30
0.000682347834288612
 70
     32
  0
VERTEX
  8
MY3DLAYER
10
533.397699877443
20
86.5833180891722
30
0.000682347834288612
 70
     32
  0
VERTEX
  8
MY3DLAYER
10
533.683964913849
20
86.24390520981
30
0.000682347834288612
 70
     32
  0
VERTEX
  8
MY3DLAYER
10
533.897019636935
20
85.8543458963331
30
0.000682347834288612
 70
     32
  0
VERTEX
  8
MY3DLAYER
10
534.028354324629
20
85.4301997262994
30
0.000682347834288612
 70
     32
  0
VERTEX
  8
MY3DLAYER
10
534.072723274445
20
84.9884077276868
30
0.000682347834288612
 70
     32
  0
VERTEX
  8
MY3DLAYER
10
534.028354324629
20
84.5466157290742
30
0.000682347834288612
 70
     32
  0
VERTEX
  8
MY3DLAYER
10
533.897019636935
20
84.1224695590405
30
0.000682347834288612
 70
     32
  0
VERTEX
  8
MY3DLAYER
10
533.683964913849
20
83.7329102455637
30
0.000682347834288612
 70
     32
  0
VERTEX
  8
MY3DLAYER
10
533.397699877443
20
83.3934973662014
30
0.000682347834288612
 70
     32
  0
VERTEX
  8
MY3DLAYER
10
533.049658378433
20
83.1177875754555
30
0.000682347834288612
 70
     32
  0
VERTEX
  8
MY3DLAYER
10
532.653741711207
20
82.9167931318554
30
0.000682347834288612
 70
     32
  0
VERTEX
  8
MY3DLAYER
10
526.829565473182
20
80.6600223235182
30
0.000682347834288612
 70
     32
  0
VERTEX
  8
MY3DLAYER
10
524.829565473182
20
82.0600223235182
30
0.000682347834288612
 70
     32
  0
VERTEX
  8
MY3DLAYER
10
520.329565473182
20
82.0600223235182
30
0.000682347834288612
 70
     32
  0
VERTEX
  8
MY3DLAYER
10
519.941336905528
20
82.0089110629518
30
0.000682347834288612
 70
     32
  0
VERTEX
  8
MY3DLAYER
10
519.579565473182
20
81.8590604291949
30
0.000682347834288612
 70
     32
  0
VERTEX
  8
MY3DLAYER
10
519.268905301402
20
81.620682495298
30
0.000682347834288612
 70
     32
  0
VERTEX
  8
MY3DLAYER
10
519.030527367505
20
81.3100223235182
30
0.000682347834288612
 70
     32
  0
VERTEX
  8
MY3DLAYER
10
518.880676733748
20
80.948250891172
30
0.000682347834288612
 70
     32
  0
VERTEX
  8
MY3DLAYER
10
518.829565473182
20
80.5600223235182
30
0.000682347834288612
 70
     32
  0
VERTEX
  8
MY3DLAYER
10
518.880676733748
20
80.1717937558644
30
0.000682347834288612
 70
     32
  0
VERTEX
  8
MY3DLAYER
10
519.030527367505
20
79.8100223235182
30
0.000682347834288612
 70
     32
  0
VERTEX
  8
MY3DLAYER
10
519.268905301402
20
79.4993621517384
30
0.000682347834288612
 70
     32
  0
VERTEX
  8
MY3DLAYER
10
519.579565473182
20
79.2609842178415
30
0.000682347834288612
 70
     32
  0
VERTEX
  8
MY3DLAYER
10
519.941336905528
20
79.1111335840846
30
0.000682347834288612
 70
     32
  0
VERTEX
  8
MY3DLAYER
10
520.329565473182
20
79.0600223235182
30
0.000682347834288612
 70
     32
  0
VERTEX
  8
MY3DLAYER
10
522.247197196665
20
79.0600223235182
30
0.000682347834288612
 70
     32
  0
VERTEX
  8
MY3DLAYER
10
522.986099314069
20
78.9823397398555
30
0.000682347834288612
 70
     32
  0
VERTEX
  8
MY3DLAYER
10
523.692690717567
20
78.7526888931082
30
0.000682347834288612
 70
     32
  0
VERTEX
  8
MY3DLAYER
10
524.130443467058
20
78.5198585187708
30
0.000682347834288612
 70
     32
  0
VERTEX
  8
MY3DLAYER
10
524.531521468836
20
78.2283557067937
30
0.000682347834288612
 70
     32
  0
VERTEX
  8
MY3DLAYER
10
524.88811404261
20
77.8838572463759
30
0.000682347834288612
 70
     32
  0
VERTEX
  8
MY3DLAYER
10
532.505386173854
20
69.4202215437822
30
0.000730022092309343
 70
     32
  0
SEQEND
 0
ENDSEC
 0
EOF
