  0
SECTION
  2
HEADER
  9
$ACADVER
  1
AC1027
  9
$ACADMAINTVER
 70
   105
  9
$DWGCODEPAGE
  3
ANSI_1252
  9
$REQUIREDVERSIONS
160
                 0
  9
$INSBASE
 10
0.0
 20
0.0
 30
0.0
  9
$EXTMIN
 10
1.000000000000000E+20
 20
1.000000000000000E+20
 30
1.000000000000000E+20
  9
$EXTMAX
 10
-1.000000000000000E+20
 20
-1.000000000000000E+20
 30
-1.000000000000000E+20
  9
$LIMMIN
 10
0.0
 20
0.0
  9
$LIMMAX
 10
12.0
 20
9.0
  9
$ORTHOMODE
 70
     0
  9
$REGENMODE
 70
     1
  9
$FILLMODE
 70
     1
  9
$QTEXTMODE
 70
     0
  9
$MIRRTEXT
 70
     1
  9
$LTSCALE
 40
1.0
  9
$ATTMODE
 70
     1
  9
$TEXTSIZE
 40
0.2
  9
$TRACEWID
 40
0.05
  9
$TEXTSTYLE
  7
Standard
  9
$CLAYER
  8
0
  9
$CELTYPE
  6
ByLayer
  9
$CECOLOR
 62
   256
  9
$CELTSCALE
 40
1.0
  9
$DISPSILH
 70
     0
  9
$DIMSCALE
 40
1.0
  9
$DIMASZ
 40
0.18
  9
$DIMEXO
 40
0.0625
  9
$DIMDLI
 40
0.38
  9
$DIMRND
 40
0.0
  9
$DIMDLE
 40
0.0
  9
$DIMEXE
 40
0.18
  9
$DIMTP
 40
0.0
  9
$DIMTM
 40
0.0
  9
$DIMTXT
 40
0.18
  9
$DIMCEN
 40
0.09
  9
$DIMTSZ
 40
0.0
  9
$DIMTOL
 70
     0
  9
$DIMLIM
 70
     0
  9
$DIMTIH
 70
     1
  9
$DIMTOH
 70
     1
  9
$DIMSE1
 70
     0
  9
$DIMSE2
 70
     0
  9
$DIMTAD
 70
     0
  9
$DIMZIN
 70
     0
  9
$DIMBLK
  1

  9
$DIMASO
 70
     1
  9
$DIMSHO
 70
     1
  9
$DIMPOST
  1

  9
$DIMAPOST
  1

  9
$DIMALT
 70
     0
  9
$DIMALTD
 70
     2
  9
$DIMALTF
 40
25.4
  9
$DIMLFAC
 40
1.0
  9
$DIMTOFL
 70
     0
  9
$DIMTVP
 40
0.0
  9
$DIMTIX
 70
     0
  9
$DIMSOXD
 70
     0
  9
$DIMSAH
 70
     0
  9
$DIMBLK1
  1

  9
$DIMBLK2
  1

  9
$DIMSTYLE
  2
Standard
  9
$DIMCLRD
 70
     0
  9
$DIMCLRE
 70
     0
  9
$DIMCLRT
 70
     0
  9
$DIMTFAC
 40
1.0
  9
$DIMGAP
 40
0.09
  9
$DIMJUST
 70
     0
  9
$DIMSD1
 70
     0
  9
$DIMSD2
 70
     0
  9
$DIMTOLJ
 70
     1
  9
$DIMTZIN
 70
     0
  9
$DIMALTZ
 70
     0
  9
$DIMALTTZ
 70
     0
  9
$DIMUPT
 70
     0
  9
$DIMDEC
 70
     4
  9
$DIMTDEC
 70
     4
  9
$DIMALTU
 70
     2
  9
$DIMALTTD
 70
     2
  9
$DIMTXSTY
  7
Standard
  9
$DIMAUNIT
 70
     0
  9
$DIMADEC
 70
     0
  9
$DIMALTRND
 40
0.0
  9
$DIMAZIN
 70
     0
  9
$DIMDSEP
 70
    46
  9
$DIMATFIT
 70
     3
  9
$DIMFRAC
 70
     0
  9
$DIMLDRBLK
  1

  9
$DIMLUNIT
 70
     2
  9
$DIMLWD
 70
    -2
  9
$DIMLWE
 70
    -2
  9
$DIMTMOVE
 70
     0
  9
$DIMFXL
 40
1.0
  9
$DIMFXLON
 70
     0
  9
$DIMJOGANG
 40
0.7853981633974483
  9
$DIMTFILL
 70
     0
  9
$DIMTFILLCLR
 70
     0
  9
$DIMARCSYM
 70
     0
  9
$DIMLTYPE
  6

  9
$DIMLTEX1
  6

  9
$DIMLTEX2
  6

  9
$DIMTXTDIRECTION
 70
     0
  9
$LUNITS
 70
     2
  9
$LUPREC
 70
     4
  9
$SKETCHINC
 40
0.1
  9
$FILLETRAD
 40
0.5
  9
$AUNITS
 70
     0
  9
$AUPREC
 70
     0
  9
$MENU
  1
.
  9
$ELEVATION
 40
0.0
  9
$PELEVATION
 40
0.0
  9
$THICKNESS
 40
0.0
  9
$LIMCHECK
 70
     0
  9
$CHAMFERA
 40
0.0
  9
$CHAMFERB
 40
0.0
  9
$CHAMFERC
 40
0.0
  9
$CHAMFERD
 40
0.0
  9
$SKPOLY
 70
     0
  9
$TDCREATE
 40
2461223.836125984
  9
$TDUCREATE
 40
2461223.419459317
  9
$TDUPDATE
 40
2461223.836126111
  9
$TDUUPDATE
 40
2461223.419459444
  9
$TDINDWG
 40
0.0000000116
  9
$TDUSRTIMER
 40
0.0000000116
  9
$USRTIMER
 70
     1
  9
$ANGBASE
 50
0.0
  9
$ANGDIR
 70
     0
  9
$PDMODE
 70
     0
  9
$PDSIZE
 40
0.0
  9
$PLINEWID
 40
0.0
  9
$SPLFRAME
 70
     0
  9
$SPLINETYPE
 70
     6
  9
$SPLINESEGS
 70
     8
  9
$HANDSEED
  5
37C
  9
$SURFTAB1
 70
     6
  9
$SURFTAB2
 70
     6
  9
$SURFTYPE
 70
     6
  9
$SURFU
 70
     6
  9
$SURFV
 70
     6
  9
$UCSBASE
  2

  9
$UCSNAME
  2

  9
$UCSORG
 10
0.0
 20
0.0
 30
0.0
  9
$UCSXDIR
 10
1.0
 20
0.0
 30
0.0
  9
$UCSYDIR
 10
0.0
 20
1.0
 30
0.0
  9
$UCSORTHOREF
  2

  9
$UCSORTHOVIEW
 70
     0
  9
$UCSORGTOP
 10
0.0
 20
0.0
 30
0.0
  9
$UCSORGBOTTOM
 10
0.0
 20
0.0
 30
0.0
  9
$UCSORGLEFT
 10
0.0
 20
0.0
 30
0.0
  9
$UCSORGRIGHT
 10
0.0
 20
0.0
 30
0.0
  9
$UCSORGFRONT
 10
0.0
 20
0.0
 30
0.0
  9
$UCSORGBACK
 10
0.0
 20
0.0
 30
0.0
  9
$PUCSBASE
  2

  9
$PUCSNAME
  2

  9
$PUCSORG
 10
0.0
 20
0.0
 30
0.0
  9
$PUCSXDIR
 10
1.0
 20
0.0
 30
0.0
  9
$PUCSYDIR
 10
0.0
 20
1.0
 30
0.0
  9
$PUCSORTHOREF
  2

  9
$PUCSORTHOVIEW
 70
     0
  9
$PUCSORGTOP
 10
0.0
 20
0.0
 30
0.0
  9
$PUCSORGBOTTOM
 10
0.0
 20
0.0
 30
0.0
  9
$PUCSORGLEFT
 10
0.0
 20
0.0
 30
0.0
  9
$PUCSORGRIGHT
 10
0.0
 20
0.0
 30
0.0
  9
$PUCSORGFRONT
 10
0.0
 20
0.0
 30
0.0
  9
$PUCSORGBACK
 10
0.0
 20
0.0
 30
0.0
  9
$USERI1
 70
     0
  9
$USERI2
 70
     0
  9
$USERI3
 70
     0
  9
$USERI4
 70
     0
  9
$USERI5
 70
     0
  9
$USERR1
 40
0.0
  9
$USERR2
 40
0.0
  9
$USERR3
 40
0.0
  9
$USERR4
 40
0.0
  9
$USERR5
 40
0.0
  9
$WORLDVIEW
 70
     1
  9
$SHADEDGE
 70
     3
  9
$SHADEDIF
 70
    70
  9
$TILEMODE
 70
     1
  9
$MAXACTVP
 70
    64
  9
$PINSBASE
 10
0.0
 20
0.0
 30
0.0
  9
$PLIMCHECK
 70
     0
  9
$PEXTMIN
 10
1.000000000000000E+20
 20
1.000000000000000E+20
 30
1.000000000000000E+20
  9
$PEXTMAX
 10
-1.000000000000000E+20
 20
-1.000000000000000E+20
 30
-1.000000000000000E+20
  9
$PLIMMIN
 10
0.0
 20
0.0
  9
$PLIMMAX
 10
12.0
 20
9.0
  9
$UNITMODE
 70
     0
  9
$VISRETAIN
 70
     1
  9
$PLINEGEN
 70
     0
  9
$PSLTSCALE
 70
     1
  9
$TREEDEPTH
 70
  3020
  9
$CMLSTYLE
  2
Standard
  9
$CMLJUST
 70
     0
  9
$CMLSCALE
 40
1.0
  9
$PROXYGRAPHICS
 70
     1
  9
$MEASUREMENT
 70
     1
  9
$CELWEIGHT
370
    -1
  9
$ENDCAPS
280
     0
  9
$JOINSTYLE
280
     0
  9
$LWDISPLAY
290
     0
  9
$INSUNITS
 70
     4
  9
$HYPERLINKBASE
  1

  9
$STYLESHEET
  1

  9
$XEDIT
290
     1
  9
$CEPSNTYPE
380
     0
  9
$PSTYLEMODE
290
     1
  9
$FINGERPRINTGUID
  2
{8FED3C0A-E21E-4178-9FE3-02870A20FA7C}
  9
$VERSIONGUID
  2
{FAEB1C32-E019-11D5-929B-00C0DF256EC4}
  9
$EXTNAMES
290
     1
  9
$PSVPSCALE
 40
0.0
  9
$OLESTARTUP
290
     0
  9
$SORTENTS
280
   127
  9
$INDEXCTL
280
     0
  9
$HIDETEXT
280
     1
  9
$XCLIPFRAME
280
     2
  9
$HALOGAP
280
     0
  9
$OBSCOLOR
 70
   257
  9
$OBSLTYPE
280
     0
  9
$INTERSECTIONDISPLAY
280
     0
  9
$INTERSECTIONCOLOR
 70
   257
  9
$DIMASSOC
280
     2
  9
$PROJECTNAME
  1

  9
$CAMERADISPLAY
290
     0
  9
$LENSLENGTH
 40
50.0
  9
$CAMERAHEIGHT
 40
0.0
  9
$STEPSPERSEC
 40
2.0
  9
$STEPSIZE
 40
6.0
  9
$3DDWFPREC
 40
2.0
  9
$PSOLWIDTH
 40
0.25
  9
$PSOLHEIGHT
 40
4.0
  9
$LOFTANG1
 40
1.570796326794897
  9
$LOFTANG2
 40
1.570796326794897
  9
$LOFTMAG1
 40
0.0
  9
$LOFTMAG2
 40
0.0
  9
$LOFTPARAM
 70
     7
  9
$LOFTNORMALS
280
     1
  9
$LATITUDE
 40
37.795
  9
$LONGITUDE
 40
-122.394
  9
$NORTHDIRECTION
 40
0.0
  9
$TIMEZONE
 70
 -8000
  9
$LIGHTGLYPHDISPLAY
280
     1
  9
$TILEMODELIGHTSYNCH
280
     1
  9
$CMATERIAL
347
44
  9
$SOLIDHIST
280
     0
  9
$SHOWHIST
280
     1
  9
$DWFFRAME
280
     2
  9
$DGNFRAME
280
     2
  9
$REALWORLDSCALE
290
     1
  9
$INTERFERECOLOR
 62
   256
  9
$CSHADOW
280
     0
  9
$SHADOWPLANELOCATION
 40
0.0
  0
ENDSEC
  0
SECTION
  2
CLASSES
  0
CLASS
  1
ACDBDICTIONARYWDFLT
  2
AcDbDictionaryWithDefault
  3
ObjectDBX Classes
 90
        0
 91
        4
280
     0
281
     0
  0
CLASS
  1
VISUALSTYLE
  2
AcDbVisualStyle
  3
ObjectDBX Classes
 90
     4095
 91
        4
280
     0
281
     0
  0
CLASS
  1
MATERIAL
  2
AcDbMaterial
  3
ObjectDBX Classes
 90
     1153
 91
        4
280
     0
281
     0
  0
CLASS
  1
SCALE
  2
AcDbScale
  3
ObjectDBX Classes
 90
     1153
 91
        4
280
     0
281
     0
  0
CLASS
  1
TABLESTYLE
  2
AcDbTableStyle
  3
ObjectDBX Classes
 90
     4095
 91
        4
280
     0
281
     0
  0
CLASS
  1
MLEADERSTYLE
  2
AcDbMLeaderStyle
  3
ACDB_MLEADERSTYLE_CLASS
 90
     4095
 91
        4
280
     0
281
     0
  0
CLASS
  1
SUN
  2
AcDbSun
  3
SCENEOE
 90
     1153
 91
        4
280
     0
281
     0
  0
CLASS
  1
DICTIONARYVAR
  2
AcDbDictionaryVar
  3
ObjectDBX Classes
 90
        0
 91
        4
280
     0
281
     0
  0
CLASS
  1
CELLSTYLEMAP
  2
AcDbCellStyleMap
  3
ObjectDBX Classes
 90
     1152
 91
        4
280
     0
281
     0
  0
ENDSEC
  0
SECTION
  2
TABLES
  0
TABLE
  2
VPORT
  5
8
330
0
100
AcDbSymbolTable
 70
     1
  0
VPORT
  5
29
330
8
100
AcDbSymbolTableRecord
100
AcDbViewportTableRecord
  2
*Active
 70
     0
 10
0.0
 20
0.0
 11
1.0
 21
1.0
 12
0.0
 22
0.0
 13
0.0
 23
0.0
 14
0.5
 24
0.5
 15
0.5
 25
0.5
 16
-23.02724451228624
 26
-200.7418618222644
 36
443.84160129932
 17
85.89435662722084
 27
99.35920693706471
 37
9.40323131583159
 40
3378.2
 41
1.3333
 42
50.0
 43
-462.2709096528542
 44
24912.32909034715
 50
0.0
 51
0.0000000000000009
 71
     0
 72
   100
 73
     1
 74
     3
 75
     0
 76
     0
 77
     0
 78
     0
281
     0
 65
     1
110
0.0
120
0.0
130
0.0
111
1.0
121
0.0
131
0.0
112
0.0
122
1.0
132
0.0
 79
     0
146
0.0
348
2F
 60
     3
 61
     5
292
     1
282
     1
141
0.0
142
0.0
 63
   250
361
6D
  0
ENDTAB
  0
TABLE
  2
LTYPE
  5
5
330
0
100
AcDbSymbolTable
 70
     1
  0
LTYPE
  5
14
330
5
100
AcDbSymbolTableRecord
100
AcDbLinetypeTableRecord
  2
ByBlock
 70
     0
  3

 72
    65
 73
     0
 40
0.0
  0
LTYPE
  5
15
330
5
100
AcDbSymbolTableRecord
100
AcDbLinetypeTableRecord
  2
ByLayer
 70
     0
  3

 72
    65
 73
     0
 40
0.0
  0
LTYPE
  5
16
330
5
100
AcDbSymbolTableRecord
100
AcDbLinetypeTableRecord
  2
Continuous
 70
     0
  3
Solid line
 72
    65
 73
     0
 40
0.0
  0
ENDTAB
  0
TABLE
  2
LAYER
  5
2
330
0
100
AcDbSymbolTable
 70
     1
  0
LAYER
  5
10
330
2
100
AcDbSymbolTableRecord
100
AcDbLayerTableRecord
  2
0
 70
     0
 62
    13
420
 16733268
  6
Continuous
370
    -3
390
F
347
46
348
0
  0
ENDTAB
  0
TABLE
  2
STYLE
  5
3
330
0
100
AcDbSymbolTable
 70
     2
  0
STYLE
  5
11
330
3
100
AcDbSymbolTableRecord
100
AcDbTextStyleTableRecord
  2
Standard
 70
     0
 40
0.0
 41
1.0
 50
0.0
 71
     0
 42
0.2
  3
txt
  4

  0
STYLE
  5
6E
330
3
100
AcDbSymbolTableRecord
100
AcDbTextStyleTableRecord
  2
Tahoma
 70
     0
 40
0.0
 41
1.0
 50
0.0
 71
     0
 42
0.2
  3
Tahoma
  4

1001
ACAD
1000
Tahoma
1071
       34
  0
ENDTAB
  0
TABLE
  2
VIEW
  5
6
330
0
100
AcDbSymbolTable
 70
     0
  0
ENDTAB
  0
TABLE
  2
UCS
  5
7
330
0
100
AcDbSymbolTable
 70
     0
  0
ENDTAB
  0
TABLE
  2
APPID
  5
9
330
0
100
AcDbSymbolTable
 70
     1
  0
APPID
  5
12
330
9
100
AcDbSymbolTableRecord
100
AcDbRegAppTableRecord
  2
ACAD
 70
     0
  0
ENDTAB
  0
TABLE
  2
DIMSTYLE
  5
A
330
0
100
AcDbSymbolTable
 70
     1
100
AcDbDimStyleTable
  0
DIMSTYLE
105
27
330
A
100
AcDbSymbolTableRecord
100
AcDbDimStyleTableRecord
  2
Standard
 70
     0
178
     0
340
11
  0
ENDTAB
  0
TABLE
  2
BLOCK_RECORD
  5
1
330
0
100
AcDbSymbolTable
 70
     7
  0
BLOCK_RECORD
  5
1F
330
1
100
AcDbSymbolTableRecord
100
AcDbBlockTableRecord
  2
*Model_Space
340
22
 70
     0
280
     1
281
     0
  0
BLOCK_RECORD
  5
1B
330
1
100
AcDbSymbolTableRecord
100
AcDbBlockTableRecord
  2
*Paper_Space
340
1E
 70
     0
280
     1
281
     0
  0
BLOCK_RECORD
  5
23
330
1
100
AcDbSymbolTableRecord
100
AcDbBlockTableRecord
  2
*Paper_Space0
340
26
 70
     0
280
     1
281
     0
  0
BLOCK_RECORD
  5
6F
330
1
100
AcDbSymbolTableRecord
100
AcDbBlockTableRecord
  2
AutoChanger
340
0
102
{BLKREFS
331
371
102
}
 70
     0
280
     1
281
     0
  0
BLOCK_RECORD
  5
72
330
1
100
AcDbSymbolTableRecord
100
AcDbBlockTableRecord
  2
1
340
0
102
{BLKREFS
331
36D
102
}
 70
     0
280
     1
281
     0
  0
BLOCK_RECORD
  5
75
330
1
100
AcDbSymbolTableRecord
100
AcDbBlockTableRecord
  2
4
340
0
102
{BLKREFS
331
370
102
}
 70
     0
280
     1
281
     0
  0
BLOCK_RECORD
  5
78
330
1
100
AcDbSymbolTableRecord
100
AcDbBlockTableRecord
  2
3
340
0
102
{BLKREFS
331
36F
102
}
 70
     0
280
     1
281
     0
  0
BLOCK_RECORD
  5
7B
330
1
100
AcDbSymbolTableRecord
100
AcDbBlockTableRecord
  2
2
340
0
102
{BLKREFS
331
36E
102
}
 70
     0
280
     1
281
     0
  0
BLOCK_RECORD
  5
7E
330
1
100
AcDbSymbolTableRecord
100
AcDbBlockTableRecord
  2
Group_55
340
0
102
{BLKREFS
331
372
102
}
 70
     0
280
     1
281
     0
  0
ENDTAB
  0
ENDSEC
  0
SECTION
  2
BLOCKS
  0
BLOCK
  5
20
330
1F
100
AcDbEntity
  8
0
100
AcDbBlockBegin
  2
*Model_Space
 70
     0
 10
0.0
 20
0.0
 30
0.0
  3
*Model_Space
  1

  0
ENDBLK
  5
21
330
1F
100
AcDbEntity
  8
0
100
AcDbBlockEnd
  0
BLOCK
  5
1C
330
1B
100
AcDbEntity
 67
     1
  8
0
100
AcDbBlockBegin
  2
*Paper_Space
 70
     0
 10
0.0
 20
0.0
 30
0.0
  3
*Paper_Space
  1

  0
ENDBLK
  5
1D
330
1B
100
AcDbEntity
 67
     1
  8
0
100
AcDbBlockEnd
  0
BLOCK
  5
24
330
23
100
AcDbEntity
  8
0
100
AcDbBlockBegin
  2
*Paper_Space0
 70
     0
 10
0.0
 20
0.0
 30
0.0
  3
*Paper_Space0
  1

  0
ENDBLK
  5
25
330
23
100
AcDbEntity
  8
0
100
AcDbBlockEnd
  0
BLOCK
  5
70
330
6F
100
AcDbEntity
  8
0
100
AcDbBlockBegin
  2
AutoChanger
 70
     0
 10
0.0
 20
0.0
 30
0.0
  3
AutoChanger
  1

  0
LINE
  5
81
330
6F
100
AcDbEntity
  8
0
100
AcDbLine
 10
2.506948733786288
 20
5.70722668313774
 30
0.025
 11
3.250463248919086
 21
0.7072266831377394
 31
0.025
  0
LINE
  5
82
330
6F
100
AcDbEntity
  8
0
100
AcDbLine
 10
3.250463248919086
 20
0.7072266831377394
 30
0.025
 11
1.92171093267449
 21
0.7072266831377394
 31
0.025
  0
LINE
  5
83
330
6F
100
AcDbEntity
  8
0
100
AcDbLine
 10
1.92171093267449
 20
0.7072266831377394
 30
0.025
 11
1.851934064237184
 21
1.605929586164299
 31
0.025
  0
LINE
  5
84
330
6F
100
AcDbEntity
  8
0
100
AcDbLine
 10
1.851934064237184
 20
1.605929586164299
 30
0.025
 11
1.38685145151328
 21
1.605929586164299
 31
0.025
  0
LINE
  5
85
330
6F
100
AcDbEntity
  8
0
100
AcDbLine
 10
1.38685145151328
 20
1.605929586164299
 30
0.025
 11
1.308678196417542
 21
0.7072266831377394
 31
0.025
  0
LINE
  5
86
330
6F
100
AcDbEntity
  8
0
100
AcDbLine
 10
1.308678196417542
 20
0.7072266831377394
 30
0.025
 11
-0.0355157504632489
 21
0.7072266831377394
 31
0.025
  0
LINE
  5
87
330
6F
100
AcDbEntity
  8
0
100
AcDbLine
 10
-0.0355157504632489
 20
0.7072266831377394
 30
0.025
 11
0.6277022853613342
 21
5.70722668313774
 31
0.025
  0
LINE
  5
88
330
6F
100
AcDbEntity
  8
0
100
AcDbLine
 10
0.6277022853613342
 20
5.70722668313774
 30
0.025
 11
2.506948733786288
 21
5.70722668313774
 31
0.025
  0
LINE
  5
89
330
6F
100
AcDbEntity
  8
0
100
AcDbLine
 10
1.817865966646078
 20
2.492279184681903
 30
0.025
 11
1.619827053736875
 21
4.592340951204448
 31
0.025
  0
LINE
  5
8A
330
6F
100
AcDbEntity
  8
0
100
AcDbLine
 10
1.619827053736875
 20
4.592340951204448
 30
0.025
 11
1.370299953675108
 21
2.492279184681903
 31
0.025
  0
LINE
  5
8B
330
6F
100
AcDbEntity
  8
0
100
AcDbLine
 10
1.370299953675108
 20
2.492279184681903
 30
0.025
 11
1.817865966646078
 21
2.492279184681903
 31
0.025
  0
LINE
  5
8C
330
6F
100
AcDbEntity
  8
0
100
AcDbLine
 10
6.290920321185918
 20
4.805435453983941
 30
0.025
 11
6.290920321185918
 21
0.7072266831377394
 31
0.025
  0
LINE
  5
8D
330
6F
100
AcDbEntity
  8
0
100
AcDbLine
 10
6.290920321185918
 20
0.7072266831377394
 30
0.025
 11
5.021618282890674
 21
0.7072266831377394
 31
0.025
  0
LINE
  5
8E
330
6F
100
AcDbEntity
  8
0
100
AcDbLine
 10
5.021618282890674
 20
0.7072266831377394
 30
0.025
 11
5.043236565781346
 21
1.047714638665843
 31
0.025
  0
LINE
  5
8F
330
6F
100
AcDbEntity
  8
0
100
AcDbLine
 10
5.043236565781346
 20
1.047714638665843
 30
0.025
 11
4.898471278567017
 21
0.8663237337862878
 31
0.025
  0
LINE
  5
90
330
6F
100
AcDbEntity
  8
0
100
AcDbLine
 10
4.898471278567017
 20
0.8663237337862878
 30
0.025
 11
4.723594811612107
 21
0.7367588017294626
 31
0.025
  0
LINE
  5
91
330
6F
100
AcDbEntity
  8
0
100
AcDbLine
 10
4.723594811612107
 20
0.7367588017294626
 30
0.025
 11
4.519379246448425
 21
0.6590198424953676
 31
0.025
  0
LINE
  5
92
330
6F
100
AcDbEntity
  8
0
100
AcDbLine
 10
4.519379246448425
 20
0.6590198424953676
 30
0.025
 11
4.286596664607783
 21
0.6331068560840025
 31
0.025
  0
LINE
  5
93
330
6F
100
AcDbEntity
  8
0
100
AcDbLine
 10
4.286596664607783
 20
0.6331068560840025
 30
0.025
 11
4.029493514515133
 21
0.6578134651019149
 31
0.025
  0
LINE
  5
94
330
6F
100
AcDbEntity
  8
0
100
AcDbLine
 10
4.029493514515133
 20
0.6578134651019149
 30
0.025
 11
3.820259419394688
 21
0.7319332921556517
 31
0.025
  0
LINE
  5
95
330
6F
100
AcDbEntity
  8
0
100
AcDbLine
 10
3.820259419394688
 20
0.7319332921556517
 30
0.025
 11
3.659280420012354
 21
0.8469734403953059
 31
0.025
  0
LINE
  5
96
330
6F
100
AcDbEntity
  8
0
100
AcDbLine
 10
3.659280420012354
 20
0.8469734403953059
 30
0.025
 11
3.546942557134033
 21
0.9944410129709698
 31
0.025
  0
LINE
  5
97
330
6F
100
AcDbEntity
  8
0
100
AcDbLine
 10
3.546942557134033
 20
0.9944410129709698
 30
0.025
 11
3.437306979617047
 21
1.335701050030883
 31
0.025
  0
POLYLINE
  5
98
330
6F
100
AcDbEntity
  8
0
100
AcDb3dPolyline
 66
     1
 10
0.0
 20
0.0
 30
0.0
 70
     8
  0
VERTEX
  5
99
330
98
100
AcDbEntity
  8
0
100
AcDbVertex
100
AcDb3dPolylineVertex
 10
3.437306979617047
 20
1.335701050030883
 30
0.025
 70
    32
  0
VERTEX
  5
9A
330
98
100
AcDbEntity
  8
0
100
AcDbVertex
100
AcDb3dPolylineVertex
 10
3.415688696726375
 20
2.041383570105003
 30
0.025
 70
    32
  0
VERTEX
  5
9B
330
98
100
AcDbEntity
  8
0
100
AcDbVertex
100
AcDb3dPolylineVertex
 10
3.415688696726375
 20
4.805435453983941
 30
0.025
 70
    32
  0
SEQEND
  5
9C
330
98
100
AcDbEntity
  8
0
  0
LINE
  5
9D
330
6F
100
AcDbEntity
  8
0
100
AcDbLine
 10
3.415688696726375
 20
4.805435453983941
 30
0.025
 11
4.663372452130945
 21
4.805435453983941
 31
0.025
  0
POLYLINE
  5
9E
330
6F
100
AcDbEntity
  8
0
100
AcDb3dPolyline
 66
     1
 10
0.0
 20
0.0
 30
0.0
 70
     8
  0
VERTEX
  5
9F
330
9E
100
AcDbEntity
  8
0
100
AcDbVertex
100
AcDb3dPolylineVertex
 10
4.663372452130945
 20
4.805435453983941
 30
0.025
 70
    32
  0
VERTEX
  5
A0
330
9E
100
AcDbEntity
  8
0
100
AcDbVertex
100
AcDb3dPolylineVertex
 10
4.663372452130945
 20
2.016676961087091
 30
0.025
 70
    32
  0
VERTEX
  5
A1
330
9E
100
AcDbEntity
  8
0
100
AcDbVertex
100
AcDb3dPolylineVertex
 10
4.692711550339716
 20
1.448424953675108
 30
0.025
 70
    32
  0
SEQEND
  5
A2
330
9E
100
AcDbEntity
  8
0
  0
LINE
  5
A3
330
6F
100
AcDbEntity
  8
0
100
AcDbLine
 10
4.692711550339716
 20
1.448424953675108
 30
0.025
 11
4.747143298332304
 21
1.381253860407659
 31
0.025
  0
LINE
  5
A4
330
6F
100
AcDbEntity
  8
0
100
AcDbLine
 10
4.747143298332304
 20
1.381253860407659
 30
0.025
 11
4.851760345892527
 21
1.358863495985176
 31
0.025
  0
LINE
  5
A5
330
6F
100
AcDbEntity
  8
0
100
AcDbLine
 10
4.851760345892527
 20
1.358863495985176
 30
0.025
 11
4.962554045707227
 21
1.382025941939469
 31
0.025
  0
LINE
  5
A6
330
6F
100
AcDbEntity
  8
0
100
AcDbLine
 10
4.962554045707227
 20
1.382025941939469
 30
0.025
 11
5.016985793699814
 21
1.451513279802347
 31
0.025
  0
POLYLINE
  5
A7
330
6F
100
AcDbEntity
  8
0
100
AcDb3dPolyline
 66
     1
 10
0.0
 20
0.0
 30
0.0
 70
     8
  0
VERTEX
  5
A8
330
A7
100
AcDbEntity
  8
0
100
AcDbVertex
100
AcDb3dPolylineVertex
 10
5.016985793699814
 20
1.451513279802347
 30
0.025
 70
    32
  0
VERTEX
  5
A9
330
A7
100
AcDbEntity
  8
0
100
AcDbVertex
100
AcDb3dPolylineVertex
 10
5.043236565781346
 20
2.047560222359481
 30
0.025
 70
    32
  0
VERTEX
  5
AA
330
A7
100
AcDbEntity
  8
0
100
AcDbVertex
100
AcDb3dPolylineVertex
 10
5.043236565781346
 20
4.805435453983941
 30
0.025
 70
    32
  0
SEQEND
  5
AB
330
A7
100
AcDbEntity
  8
0
  0
LINE
  5
AC
330
6F
100
AcDbEntity
  8
0
100
AcDbLine
 10
5.043236565781346
 20
4.805435453983941
 30
0.025
 11
6.290920321185918
 21
4.805435453983941
 31
0.025
  0
LINE
  5
AD
330
6F
100
AcDbEntity
  8
0
100
AcDbLine
 10
8.054354539839407
 20
5.352069178505251
 30
0.025
 11
8.054354539839407
 21
4.706609017912292
 31
0.025
  0
LINE
  5
AE
330
6F
100
AcDbEntity
  8
0
100
AcDbLine
 10
8.054354539839407
 20
4.706609017912292
 30
0.025
 11
8.390982087708464
 21
4.706609017912292
 31
0.025
  0
LINE
  5
AF
330
6F
100
AcDbEntity
  8
0
100
AcDbLine
 10
8.390982087708464
 20
4.706609017912292
 30
0.025
 11
8.390982087708464
 21
4.058060531192094
 31
0.025
  0
LINE
  5
B0
330
6F
100
AcDbEntity
  8
0
100
AcDbLine
 10
8.390982087708464
 20
4.058060531192094
 30
0.025
 11
8.054354539839407
 21
4.058060531192094
 31
0.025
  0
POLYLINE
  5
B1
330
6F
100
AcDbEntity
  8
0
100
AcDb3dPolyline
 66
     1
 10
0.0
 20
0.0
 30
0.0
 70
     8
  0
VERTEX
  5
B2
330
B1
100
AcDbEntity
  8
0
100
AcDbVertex
100
AcDb3dPolylineVertex
 10
8.054354539839407
 20
4.058060531192094
 30
0.025
 70
    32
  0
VERTEX
  5
B3
330
B1
100
AcDbEntity
  8
0
100
AcDbVertex
100
AcDb3dPolylineVertex
 10
8.054354539839407
 20
1.865348980852378
 30
0.025
 70
    32
  0
VERTEX
  5
B4
330
B1
100
AcDbEntity
  8
0
100
AcDbVertex
100
AcDb3dPolylineVertex
 10
8.096046942557134
 20
1.414453366275479
 30
0.025
 70
    32
  0
SEQEND
  5
B5
330
B1
100
AcDbEntity
  8
0
  0
LINE
  5
B6
330
6F
100
AcDbEntity
  8
0
100
AcDbLine
 10
8.096046942557134
 20
1.414453366275479
 30
0.025
 11
8.203752316244595
 21
1.37970969734404
 31
0.025
  0
LINE
  5
B7
330
6F
100
AcDbEntity
  8
0
100
AcDbLine
 10
8.203752316244595
 20
1.37970969734404
 30
0.025
 11
8.443483631871526
 21
1.368128474366893
 31
0.025
  0
LINE
  5
B8
330
6F
100
AcDbEntity
  8
0
100
AcDbLine
 10
8.443483631871526
 20
1.368128474366893
 30
0.025
 11
8.443483631871526
 21
0.7072266831377394
 31
0.025
  0
LINE
  5
B9
330
6F
100
AcDbEntity
  8
0
100
AcDbLine
 10
8.443483631871526
 20
0.7072266831377394
 30
0.025
 11
7.940086473131564
 21
0.7072266831377394
 31
0.025
  0
LINE
  5
BA
330
6F
100
AcDbEntity
  8
0
100
AcDbLine
 10
7.940086473131564
 20
0.7072266831377394
 30
0.025
 11
7.331686226065473
 21
0.7427424336009882
 31
0.025
  0
LINE
  5
BB
330
6F
100
AcDbEntity
  8
0
100
AcDbLine
 10
7.331686226065473
 20
0.7427424336009882
 30
0.025
 11
7.160284126003706
 21
0.8014206300185301
 31
0.025
  0
LINE
  5
BC
330
6F
100
AcDbEntity
  8
0
100
AcDbLine
 10
7.160284126003706
 20
0.8014206300185301
 30
0.025
 11
7.010500308832613
 21
0.9064237183446572
 31
0.025
  0
LINE
  5
BD
330
6F
100
AcDbEntity
  8
0
100
AcDbLine
 10
7.010500308832613
 20
0.9064237183446572
 30
0.025
 11
6.897776405188387
 21
1.043854231006794
 31
0.025
  0
LINE
  5
BE
330
6F
100
AcDbEntity
  8
0
100
AcDbLine
 10
6.897776405188387
 20
1.043854231006794
 30
0.025
 11
6.837554045707227
 21
1.199814700432366
 31
0.025
  0
POLYLINE
  5
BF
330
6F
100
AcDbEntity
  8
0
100
AcDb3dPolyline
 66
     1
 10
0.0
 20
0.0
 30
0.0
 70
     8
  0
VERTEX
  5
C0
330
BF
100
AcDbEntity
  8
0
100
AcDbVertex
100
AcDb3dPolylineVertex
 10
6.837554045707227
 20
1.199814700432366
 30
0.025
 70
    32
  0
VERTEX
  5
C1
330
BF
100
AcDbEntity
  8
0
100
AcDbVertex
100
AcDb3dPolylineVertex
 10
6.803582458307598
 20
1.976528721432984
 30
0.025
 70
    32
  0
VERTEX
  5
C2
330
BF
100
AcDbEntity
  8
0
100
AcDbVertex
100
AcDb3dPolylineVertex
 10
6.803582458307598
 20
4.058060531192094
 30
0.025
 70
    32
  0
SEQEND
  5
C3
330
BF
100
AcDbEntity
  8
0
  0
LINE
  5
C4
330
6F
100
AcDbEntity
  8
0
100
AcDbLine
 10
6.803582458307598
 20
4.058060531192094
 30
0.025
 11
6.534898085237801
 21
4.058060531192094
 31
0.025
  0
LINE
  5
C5
330
6F
100
AcDbEntity
  8
0
100
AcDbLine
 10
6.534898085237801
 20
4.058060531192094
 30
0.025
 11
6.534898085237801
 21
4.706609017912292
 31
0.025
  0
LINE
  5
C6
330
6F
100
AcDbEntity
  8
0
100
AcDbLine
 10
6.534898085237801
 20
4.706609017912292
 30
0.025
 11
6.803582458307598
 21
4.706609017912292
 31
0.025
  0
LINE
  5
C7
330
6F
100
AcDbEntity
  8
0
100
AcDbLine
 10
6.803582458307598
 20
4.706609017912292
 30
0.025
 11
6.803582458307598
 21
5.352069178505251
 31
0.025
  0
LINE
  5
C8
330
6F
100
AcDbEntity
  8
0
100
AcDbLine
 10
6.803582458307598
 20
5.352069178505251
 30
0.025
 11
8.054354539839407
 21
5.352069178505251
 31
0.025
  0
LINE
  5
C9
330
6F
100
AcDbEntity
  8
0
100
AcDbLine
 10
11.48857319332922
 20
3.36627547869055
 30
0.025
 11
11.48857319332922
 21
2.362569487337863
 31
0.025
  0
LINE
  5
CA
330
6F
100
AcDbEntity
  8
0
100
AcDbLine
 10
11.48857319332922
 20
2.362569487337863
 30
0.025
 11
11.47467572575664
 21
1.883492896849907
 31
0.025
  0
LINE
  5
CB
330
6F
100
AcDbEntity
  8
0
100
AcDbLine
 10
11.47467572575664
 20
1.883492896849907
 30
0.025
 11
11.43298332303891
 21
1.551883878937616
 31
0.025
  0
LINE
  5
CC
330
6F
100
AcDbEntity
  8
0
100
AcDbLine
 10
11.43298332303891
 20
1.551883878937616
 30
0.025
 11
11.34573810994441
 21
1.302501544163064
 31
0.025
  0
LINE
  5
CD
330
6F
100
AcDbEntity
  8
0
100
AcDbLine
 10
11.34573810994441
 20
1.302501544163064
 30
0.025
 11
11.19518221124151
 21
1.070105003088326
 31
0.025
  0
LINE
  5
CE
330
6F
100
AcDbEntity
  8
0
100
AcDbLine
 10
11.19518221124151
 20
1.070105003088326
 30
0.025
 11
10.98710623841878
 21
0.8755404570722668
 31
0.025
  0
LINE
  5
CF
330
6F
100
AcDbEntity
  8
0
100
AcDbLine
 10
10.98710623841878
 20
0.8755404570722668
 30
0.025
 11
10.72730080296479
 21
0.7396541074737493
 31
0.025
  0
LINE
  5
D0
330
6F
100
AcDbEntity
  8
0
100
AcDbLine
 10
10.72730080296479
 20
0.7396541074737493
 30
0.025
 11
10.42039839407042
 21
0.6597436689314392
 31
0.025
  0
LINE
  5
D1
330
6F
100
AcDbEntity
  8
0
100
AcDbLine
 10
10.42039839407042
 20
0.6597436689314392
 30
0.025
 11
10.0710315009265
 21
0.6331068560840025
 31
0.025
  0
LINE
  5
D2
330
6F
100
AcDbEntity
  8
0
100
AcDbLine
 10
10.0710315009265
 20
0.6331068560840025
 30
0.025
 11
9.688851142680667
 21
0.6558832612723904
 31
0.025
  0
LINE
  5
D3
330
6F
100
AcDbEntity
  8
0
100
AcDbLine
 10
9.688851142680667
 20
0.6558832612723904
 30
0.025
 11
9.369981470043237
 21
0.7242124768375541
 31
0.025
  0
LINE
  5
D4
330
6F
100
AcDbEntity
  8
0
100
AcDbLine
 10
9.369981470043237
 20
0.7242124768375541
 30
0.025
 11
9.11480852378011
 21
0.8384805435453985
 31
0.025
  0
LINE
  5
D5
330
6F
100
AcDbEntity
  8
0
100
AcDbLine
 10
9.11480852378011
 20
0.8384805435453985
 30
0.025
 11
8.923718344657196
 21
0.9990735021618282
 31
0.025
  0
LINE
  5
D6
330
6F
100
AcDbEntity
  8
0
100
AcDbLine
 10
8.923718344657196
 20
0.9990735021618282
 30
0.025
 11
8.787445954292775
 21
1.202130945027795
 31
0.025
  0
LINE
  5
D7
330
6F
100
AcDbEntity
  8
0
100
AcDbLine
 10
8.787445954292775
 20
1.202130945027795
 30
0.025
 11
8.696726374305127
 21
1.44379246448425
 31
0.025
  0
LINE
  5
D8
330
6F
100
AcDbEntity
  8
0
100
AcDbLine
 10
8.696726374305127
 20
1.44379246448425
 30
0.025
 11
8.645768993205683
 21
1.769996911673873
 31
0.025
  0
LINE
  5
D9
330
6F
100
AcDbEntity
  8
0
100
AcDbLine
 10
8.645768993205683
 20
1.769996911673873
 30
0.025
 11
8.628783199505868
 21
2.226683137739345
 31
0.025
  0
LINE
  5
DA
330
6F
100
AcDbEntity
  8
0
100
AcDbLine
 10
8.628783199505868
 20
2.226683137739345
 30
0.025
 11
8.628783199505868
 21
3.276714021000618
 31
0.025
  0
LINE
  5
DB
330
6F
100
AcDbEntity
  8
0
100
AcDbLine
 10
8.628783199505868
 20
3.276714021000618
 30
0.025
 11
8.65966646077826
 21
3.785515750463249
 31
0.025
  0
LINE
  5
DC
330
6F
100
AcDbEntity
  8
0
100
AcDbLine
 10
8.65966646077826
 20
3.785515750463249
 30
0.025
 11
8.75231624459543
 21
4.1692402717727
 31
0.025
  0
LINE
  5
DD
330
6F
100
AcDbEntity
  8
0
100
AcDbLine
 10
8.75231624459543
 20
4.1692402717727
 30
0.025
 11
8.925262507720815
 21
4.458770846201358
 31
0.025
  0
LINE
  5
DE
330
6F
100
AcDbEntity
  8
0
100
AcDbLine
 10
8.925262507720815
 20
4.458770846201358
 30
0.025
 11
9.197035206917851
 21
4.684990735021619
 31
0.025
  0
LINE
  5
DF
330
6F
100
AcDbEntity
  8
0
100
AcDbLine
 10
9.197035206917851
 20
4.684990735021619
 30
0.025
 11
9.563001852995678
 21
4.830914144533662
 31
0.025
  0
LINE
  5
E0
330
6F
100
AcDbEntity
  8
0
100
AcDbLine
 10
9.563001852995678
 20
4.830914144533662
 30
0.025
 11
10.01852995676343
 21
4.879555281037677
 31
0.025
  0
LINE
  5
E1
330
6F
100
AcDbEntity
  8
0
100
AcDbLine
 10
10.01852995676343
 20
4.879555281037677
 30
0.025
 11
10.40881717109327
 21
4.848285978999383
 31
0.025
  0
LINE
  5
E2
330
6F
100
AcDbEntity
  8
0
100
AcDbLine
 10
10.40881717109327
 20
4.848285978999383
 30
0.025
 11
10.73965410747375
 21
4.754478072884496
 31
0.025
  0
LINE
  5
E3
330
6F
100
AcDbEntity
  8
0
100
AcDbLine
 10
10.73965410747375
 20
4.754478072884496
 30
0.025
 11
11.00640827671402
 21
4.610484867201976
 31
0.025
  0
LINE
  5
E4
330
6F
100
AcDbEntity
  8
0
100
AcDbLine
 10
11.00640827671402
 20
4.610484867201976
 30
0.025
 11
11.20444718962322
 21
4.428659666460779
 31
0.025
  0
LINE
  5
E5
330
6F
100
AcDbEntity
  8
0
100
AcDbLine
 10
11.20444718962322
 20
4.428659666460779
 30
0.025
 11
11.34226374305127
 21
4.224830142063002
 31
0.025
  0
LINE
  5
E6
330
6F
100
AcDbEntity
  8
0
100
AcDbLine
 10
11.34226374305127
 20
4.224830142063002
 30
0.025
 11
11.42835083384806
 21
4.014823965410748
 31
0.025
  0
LINE
  5
E7
330
6F
100
AcDbEntity
  8
0
100
AcDbLine
 10
11.42835083384806
 20
4.014823965410748
 30
0.025
 11
11.47351760345893
 21
3.746139592340952
 31
0.025
  0
LINE
  5
E8
330
6F
100
AcDbEntity
  8
0
100
AcDbLine
 10
11.47351760345893
 20
3.746139592340952
 30
0.025
 11
11.48857319332922
 21
3.36627547869055
 31
0.025
  0
LINE
  5
E9
330
6F
100
AcDbEntity
  8
0
100
AcDbLine
 10
10.20691785052502
 20
4.071957998764669
 30
0.025
 11
10.15364422483014
 21
4.133338480543546
 31
0.025
  0
LINE
  5
EA
330
6F
100
AcDbEntity
  8
0
100
AcDbLine
 10
10.15364422483014
 20
4.133338480543546
 30
0.025
 11
10.06176652254478
 21
4.153798641136504
 31
0.025
  0
LINE
  5
EB
330
6F
100
AcDbEntity
  8
0
100
AcDbLine
 10
10.06176652254478
 20
4.153798641136504
 30
0.025
 11
9.96911673872761
 21
4.133338480543546
 31
0.025
  0
LINE
  5
EC
330
6F
100
AcDbEntity
  8
0
100
AcDbLine
 10
9.96911673872761
 20
4.133338480543546
 30
0.025
 11
9.913526868437309
 21
4.071957998764669
 31
0.025
  0
POLYLINE
  5
ED
330
6F
100
AcDbEntity
  8
0
100
AcDb3dPolyline
 66
     1
 10
0.0
 20
0.0
 30
0.0
 70
     8
  0
VERTEX
  5
EE
330
ED
100
AcDbEntity
  8
0
100
AcDbVertex
100
AcDb3dPolylineVertex
 10
9.913526868437309
 20
4.071957998764669
 30
0.025
 70
    32
  0
VERTEX
  5
EF
330
ED
100
AcDbEntity
  8
0
100
AcDbVertex
100
AcDb3dPolylineVertex
 10
9.876466954910438
 20
3.675108091414454
 30
0.025
 70
    32
  0
VERTEX
  5
F0
330
ED
100
AcDbEntity
  8
0
100
AcDbVertex
100
AcDb3dPolylineVertex
 10
9.876466954910438
 20
1.825200741198271
 30
0.025
 70
    32
  0
VERTEX
  5
F1
330
ED
100
AcDbEntity
  8
0
100
AcDbVertex
100
AcDb3dPolylineVertex
 10
9.913526868437309
 20
1.446880790611489
 30
0.025
 70
    32
  0
SEQEND
  5
F2
330
ED
100
AcDbEntity
  8
0
  0
LINE
  5
F3
330
6F
100
AcDbEntity
  8
0
100
AcDbLine
 10
9.913526868437309
 20
1.446880790611489
 30
0.025
 11
9.9683446571958
 21
1.380867819641754
 31
0.025
  0
LINE
  5
F4
330
6F
100
AcDbEntity
  8
0
100
AcDbLine
 10
9.9683446571958
 20
1.380867819641754
 30
0.025
 11
10.05867819641754
 21
1.358863495985176
 31
0.025
  0
LINE
  5
F5
330
6F
100
AcDbEntity
  8
0
100
AcDbLine
 10
10.05867819641754
 20
1.358863495985176
 30
0.025
 11
10.15094193946881
 21
1.37893761581223
 31
0.025
  0
LINE
  5
F6
330
6F
100
AcDbEntity
  8
0
100
AcDbLine
 10
10.15094193946881
 20
1.37893761581223
 30
0.025
 11
10.2053736874614
 21
1.439159975293391
 31
0.025
  0
POLYLINE
  5
F7
330
6F
100
AcDbEntity
  8
0
100
AcDb3dPolyline
 66
     1
 10
0.0
 20
0.0
 30
0.0
 70
     8
  0
VERTEX
  5
F8
330
F7
100
AcDbEntity
  8
0
100
AcDbVertex
100
AcDb3dPolylineVertex
 10
10.2053736874614
 20
1.439159975293391
 30
0.025
 70
    32
  0
VERTEX
  5
F9
330
F7
100
AcDbEntity
  8
0
100
AcDbVertex
100
AcDb3dPolylineVertex
 10
10.24088943792465
 20
1.785052501544163
 30
0.025
 70
    32
  0
VERTEX
  5
FA
330
F7
100
AcDbEntity
  8
0
100
AcDbVertex
100
AcDb3dPolylineVertex
 10
10.24088943792465
 20
3.675108091414454
 30
0.025
 70
    32
  0
VERTEX
  5
FB
330
F7
100
AcDbEntity
  8
0
100
AcDbVertex
100
AcDb3dPolylineVertex
 10
10.20691785052502
 20
4.071957998764669
 30
0.025
 70
    32
  0
SEQEND
  5
FC
330
F7
100
AcDbEntity
  8
0
  0
LINE
  5
FD
330
6F
100
AcDbEntity
  8
0
100
AcDbLine
 10
14.97220506485485
 20
3.529956763434218
 30
0.025
 11
13.67201976528722
 21
3.529956763434218
 31
0.025
  0
LINE
  5
FE
330
6F
100
AcDbEntity
  8
0
100
AcDbLine
 10
13.67201976528722
 20
3.529956763434218
 30
0.025
 11
13.67201976528722
 21
4.398982782581841
 31
0.025
  0
LINE
  5
FF
330
6F
100
AcDbEntity
  8
0
100
AcDbLine
 10
13.67201976528722
 20
4.398982782581841
 30
0.025
 11
13.63032736256949
 21
4.872027486102533
 31
0.025
  0
LINE
  5
100
330
6F
100
AcDbEntity
  8
0
100
AcDbLine
 10
13.63032736256949
 20
4.872027486102533
 30
0.025
 11
13.56354231006794
 21
4.942528180975912
 31
0.025
  0
LINE
  5
101
330
6F
100
AcDbEntity
  8
0
100
AcDbLine
 10
13.56354231006794
 20
4.942528180975912
 30
0.025
 11
13.44657195799877
 21
4.966028412600371
 31
0.025
  0
LINE
  5
102
330
6F
100
AcDbEntity
  8
0
100
AcDbLine
 10
13.44657195799877
 20
4.966028412600371
 30
0.025
 11
13.31531809759111
 21
4.93746139592341
 31
0.025
  0
LINE
  5
103
330
6F
100
AcDbEntity
  8
0
100
AcDbLine
 10
13.31531809759111
 20
4.93746139592341
 30
0.025
 11
13.24274243360099
 21
4.851760345892527
 31
0.025
  0
POLYLINE
  5
104
330
6F
100
AcDbEntity
  8
0
100
AcDb3dPolyline
 66
     1
 10
0.0
 20
0.0
 30
0.0
 70
     8
  0
VERTEX
  5
105
330
104
100
AcDbEntity
  8
0
100
AcDbVertex
100
AcDb3dPolylineVertex
 10
13.24274243360099
 20
4.851760345892527
 30
0.025
 70
    32
  0
VERTEX
  5
106
330
104
100
AcDbEntity
  8
0
100
AcDbVertex
100
AcDb3dPolylineVertex
 10
13.19950586781964
 20
4.357628165534281
 30
0.025
 70
    32
  0
VERTEX
  5
107
330
104
100
AcDbEntity
  8
0
100
AcDbVertex
100
AcDb3dPolylineVertex
 10
13.19950586781964
 20
2.035206917850525
 30
0.025
 70
    32
  0
VERTEX
  5
108
330
104
100
AcDbEntity
  8
0
100
AcDbVertex
100
AcDb3dPolylineVertex
 10
13.24274243360099
 20
1.559604694255713
 30
0.025
 70
    32
  0
SEQEND
  5
109
330
104
100
AcDbEntity
  8
0
  0
LINE
  5
10A
330
6F
100
AcDbEntity
  8
0
100
AcDbLine
 10
13.24274243360099
 20
1.559604694255713
 30
0.025
 11
13.31300185299567
 21
1.47621988882026
 31
0.025
  0
LINE
  5
10B
330
6F
100
AcDbEntity
  8
0
100
AcDbLine
 10
13.31300185299567
 20
1.47621988882026
 30
0.025
 11
13.43730697961705
 21
1.448424953675108
 31
0.025
  0
LINE
  5
10C
330
6F
100
AcDbEntity
  8
0
100
AcDbLine
 10
13.43730697961705
 20
1.448424953675108
 30
0.025
 11
13.55736565781347
 21
1.476286239576899
 31
0.025
  0
LINE
  5
10D
330
6F
100
AcDbEntity
  8
0
100
AcDbLine
 10
13.55736565781347
 20
1.476286239576899
 30
0.025
 11
13.62723903644225
 21
1.559870097282273
 31
0.025
  0
LINE
  5
10E
330
6F
100
AcDbEntity
  8
0
100
AcDbLine
 10
13.62723903644225
 20
1.559870097282273
 30
0.025
 11
13.67201976528722
 21
2.08307597282273
 31
0.025
  0
LINE
  5
10F
330
6F
100
AcDbEntity
  8
0
100
AcDbLine
 10
13.67201976528722
 20
2.08307597282273
 30
0.025
 11
13.67201976528722
 21
2.711550339715874
 31
0.025
  0
LINE
  5
110
330
6F
100
AcDbEntity
  8
0
100
AcDbLine
 10
13.67201976528722
 20
2.711550339715874
 30
0.025
 11
14.97220506485485
 21
2.711550339715874
 31
0.025
  0
LINE
  5
111
330
6F
100
AcDbEntity
  8
0
100
AcDbLine
 10
14.97220506485485
 20
2.711550339715874
 30
0.025
 11
14.97220506485485
 21
2.516696263125386
 31
0.025
  0
LINE
  5
112
330
6F
100
AcDbEntity
  8
0
100
AcDbLine
 10
14.97220506485485
 20
2.516696263125386
 30
0.025
 11
14.9447961704756
 21
1.853297270691785
 31
0.025
  0
LINE
  5
113
330
6F
100
AcDbEntity
  8
0
100
AcDbLine
 10
14.9447961704756
 20
1.853297270691785
 30
0.025
 11
14.86256948733786
 21
1.415659743668932
 31
0.025
  0
LINE
  5
114
330
6F
100
AcDbEntity
  8
0
100
AcDbLine
 10
14.86256948733786
 20
1.415659743668932
 30
0.025
 11
14.68653489808524
 21
1.111007228613341
 31
0.025
  0
LINE
  5
115
330
6F
100
AcDbEntity
  8
0
100
AcDbLine
 10
14.68653489808524
 20
1.111007228613341
 30
0.025
 11
14.37770228536134
 21
0.8465632720815318
 31
0.025
  0
LINE
  5
116
330
6F
100
AcDbEntity
  8
0
100
AcDbLine
 10
14.37770228536134
 20
0.8465632720815318
 30
0.025
 11
13.95884805435454
 21
0.6633085141290921
 31
0.025
  0
LINE
  5
117
330
6F
100
AcDbEntity
  8
0
100
AcDbLine
 10
13.95884805435454
 20
0.6633085141290921
 30
0.025
 11
13.45274861025324
 21
0.6022235948116121
 31
0.025
  0
LINE
  5
118
330
6F
100
AcDbEntity
  8
0
100
AcDbLine
 10
13.45274861025324
 20
0.6022235948116121
 30
0.025
 11
12.93159357628165
 21
0.653953057442866
 31
0.025
  0
LINE
  5
119
330
6F
100
AcDbEntity
  8
0
100
AcDbLine
 10
12.93159357628165
 20
0.653953057442866
 30
0.025
 11
12.51080914144534
 21
0.8091414453366276
 31
0.025
  0
LINE
  5
11A
330
6F
100
AcDbEntity
  8
0
100
AcDbLine
 10
12.51080914144534
 20
0.8091414453366276
 30
0.025
 11
12.20274861025324
 21
1.055821494749845
 31
0.025
  0
LINE
  5
11B
330
6F
100
AcDbEntity
  8
0
100
AcDbLine
 10
12.20274861025324
 20
1.055821494749845
 30
0.025
 11
12.01976528721433
 21
1.382025941939469
 31
0.025
  0
LINE
  5
11C
330
6F
100
AcDbEntity
  8
0
100
AcDbLine
 10
12.01976528721433
 20
1.382025941939469
 30
0.025
 11
11.92943174799259
 21
1.840256331068561
 31
0.025
  0
POLYLINE
  5
11D
330
6F
100
AcDbEntity
  8
0
100
AcDb3dPolyline
 66
     1
 10
0.0
 20
0.0
 30
0.0
 70
     8
  0
VERTEX
  5
11E
330
11D
100
AcDbEntity
  8
0
100
AcDbVertex
100
AcDb3dPolylineVertex
 10
11.92943174799259
 20
1.840256331068561
 30
0.025
 70
    32
  0
VERTEX
  5
11F
330
11D
100
AcDbEntity
  8
0
100
AcDbVertex
100
AcDb3dPolylineVertex
 10
11.89932056825201
 20
2.483014206300186
 30
0.025
 70
    32
  0
VERTEX
  5
120
330
11D
100
AcDbEntity
  8
0
100
AcDbVertex
100
AcDb3dPolylineVertex
 10
11.89932056825201
 20
3.94379246448425
 30
0.025
 70
    32
  0
VERTEX
  5
121
330
11D
100
AcDbEntity
  8
0
100
AcDbVertex
100
AcDb3dPolylineVertex
 10
11.93638048177888
 20
4.754478072884496
 30
0.025
 70
    32
  0
SEQEND
  5
122
330
11D
100
AcDbEntity
  8
0
  0
LINE
  5
123
330
6F
100
AcDbEntity
  8
0
100
AcDbLine
 10
11.93638048177888
 20
4.754478072884496
 30
0.025
 11
12.01011426806671
 21
5.019688079061149
 31
0.025
  0
LINE
  5
124
330
6F
100
AcDbEntity
  8
0
100
AcDbLine
 10
12.01011426806671
 20
5.019688079061149
 30
0.025
 11
12.15719579987647
 21
5.274861025324275
 31
0.025
  0
LINE
  5
125
330
6F
100
AcDbEntity
  8
0
100
AcDbLine
 10
12.15719579987647
 20
5.274861025324275
 30
0.025
 11
12.37646695491044
 21
5.498378628783199
 31
0.025
  0
LINE
  5
126
330
6F
100
AcDbEntity
  8
0
100
AcDbLine
 10
12.37646695491044
 20
5.498378628783199
 30
0.025
 11
12.66676961087091
 21
5.668622606547252
 31
0.025
  0
LINE
  5
127
330
6F
100
AcDbEntity
  8
0
100
AcDbLine
 10
12.66676961087091
 20
5.668622606547252
 30
0.025
 11
13.01690858554663
 21
5.776327980234713
 31
0.025
  0
LINE
  5
128
330
6F
100
AcDbEntity
  8
0
100
AcDbLine
 10
13.01690858554663
 20
5.776327980234713
 30
0.025
 11
13.41568869672638
 21
5.812229771463867
 31
0.025
  0
LINE
  5
129
330
6F
100
AcDbEntity
  8
0
100
AcDbLine
 10
13.41568869672638
 20
5.812229771463867
 30
0.025
 11
13.9399320568252
 21
5.756712283817172
 31
0.025
  0
LINE
  5
12A
330
6F
100
AcDbEntity
  8
0
100
AcDbLine
 10
13.9399320568252
 20
5.756712283817172
 30
0.025
 11
14.36380481778876
 21
5.590159820877084
 31
0.025
  0
LINE
  5
12B
330
6F
100
AcDbEntity
  8
0
100
AcDbLine
 10
14.36380481778876
 20
5.590159820877084
 30
0.025
 11
14.67340951204448
 21
5.340723199119827
 31
0.025
  0
LINE
  5
12C
330
6F
100
AcDbEntity
  8
0
100
AcDbLine
 10
14.67340951204448
 20
5.340723199119827
 30
0.025
 11
14.85484867201977
 21
5.036553235021619
 31
0.025
  0
LINE
  5
12D
330
6F
100
AcDbEntity
  8
0
100
AcDbLine
 10
14.85484867201977
 20
5.036553235021619
 30
0.025
 11
14.94286596664608
 21
4.612879526327981
 31
0.025
  0
LINE
  5
12E
330
6F
100
AcDbEntity
  8
0
100
AcDbLine
 10
14.94286596664608
 20
4.612879526327981
 30
0.025
 11
14.97220506485485
 21
4.004931670784435
 31
0.025
  0
LINE
  5
12F
330
6F
100
AcDbEntity
  8
0
100
AcDbLine
 10
14.97220506485485
 20
4.004931670784435
 30
0.025
 11
14.97220506485485
 21
3.529956763434218
 31
0.025
  0
LINE
  5
130
330
6F
100
AcDbEntity
  8
0
100
AcDbLine
 10
16.64916615194565
 20
5.70722668313774
 30
0.025
 11
16.64916615194565
 21
4.582303891290921
 31
0.025
  0
LINE
  5
131
330
6F
100
AcDbEntity
  8
0
100
AcDbLine
 10
16.64916615194565
 20
4.582303891290921
 30
0.025
 11
16.81632180358246
 21
4.712351374305126
 31
0.025
  0
LINE
  5
132
330
6F
100
AcDbEntity
  8
0
100
AcDbLine
 10
16.81632180358246
 20
4.712351374305126
 30
0.025
 11
16.99660284126004
 21
4.805242433600989
 31
0.025
  0
LINE
  5
133
330
6F
100
AcDbEntity
  8
0
100
AcDbLine
 10
16.99660284126004
 20
4.805242433600989
 30
0.025
 11
17.19000926497838
 21
4.860977069178505
 31
0.025
  0
LINE
  5
134
330
6F
100
AcDbEntity
  8
0
100
AcDbLine
 10
17.19000926497838
 20
4.860977069178505
 30
0.025
 11
17.3965410747375
 21
4.879555281037677
 31
0.025
  0
LINE
  5
135
330
6F
100
AcDbEntity
  8
0
100
AcDbLine
 10
17.3965410747375
 20
4.879555281037677
 30
0.025
 11
17.69958307597282
 21
4.83786287831995
 31
0.025
  0
LINE
  5
136
330
6F
100
AcDbEntity
  8
0
100
AcDbLine
 10
17.69958307597282
 20
4.83786287831995
 30
0.025
 11
17.95398394070414
 21
4.712785670166769
 31
0.025
  0
LINE
  5
137
330
6F
100
AcDbEntity
  8
0
100
AcDbLine
 10
17.95398394070414
 20
4.712785670166769
 30
0.025
 11
18.13928350833848
 21
4.533276714021
 31
0.025
  0
LINE
  5
138
330
6F
100
AcDbEntity
  8
0
100
AcDbLine
 10
18.13928350833848
 20
4.533276714021
 30
0.025
 11
18.23502161828289
 21
4.328289067325509
 31
0.025
  0
POLYLINE
  5
139
330
6F
100
AcDbEntity
  8
0
100
AcDb3dPolyline
 66
     1
 10
0.0
 20
0.0
 30
0.0
 70
     8
  0
VERTEX
  5
13A
330
139
100
AcDbEntity
  8
0
100
AcDbVertex
100
AcDb3dPolylineVertex
 10
18.23502161828289
 20
4.328289067325509
 30
0.025
 70
    32
  0
VERTEX
  5
13B
330
139
100
AcDbEntity
  8
0
100
AcDbVertex
100
AcDb3dPolylineVertex
 10
18.28597899938234
 20
3.533045089561458
 30
0.025
 70
    32
  0
VERTEX
  5
13C
330
139
100
AcDbEntity
  8
0
100
AcDbVertex
100
AcDb3dPolylineVertex
 10
18.28597899938234
 20
0.7072266831377394
 30
0.025
 70
    32
  0
SEQEND
  5
13D
330
139
100
AcDbEntity
  8
0
  0
LINE
  5
13E
330
6F
100
AcDbEntity
  8
0
100
AcDbLine
 10
18.28597899938234
 20
0.7072266831377394
 30
0.025
 11
17.03829524397776
 21
0.7072266831377394
 31
0.025
  0
POLYLINE
  5
13F
330
6F
100
AcDbEntity
  8
0
100
AcDb3dPolyline
 66
     1
 10
0.0
 20
0.0
 30
0.0
 70
     8
  0
VERTEX
  5
140
330
13F
100
AcDbEntity
  8
0
100
AcDbVertex
100
AcDb3dPolylineVertex
 10
17.03829524397776
 20
0.7072266831377394
 30
0.025
 70
    32
  0
VERTEX
  5
141
330
13F
100
AcDbEntity
  8
0
100
AcDbVertex
100
AcDb3dPolylineVertex
 10
17.03829524397776
 20
3.591723285978999
 30
0.025
 70
    32
  0
VERTEX
  5
142
330
13F
100
AcDbEntity
  8
0
100
AcDbVertex
100
AcDb3dPolylineVertex
 10
17.00277949351452
 20
4.051883878937616
 30
0.025
 70
    32
  0
SEQEND
  5
143
330
13F
100
AcDbEntity
  8
0
  0
LINE
  5
144
330
6F
100
AcDbEntity
  8
0
100
AcDbLine
 10
17.00277949351452
 20
4.051883878937616
 30
0.025
 11
16.94525941939469
 21
4.128319950586782
 31
0.025
  0
LINE
  5
145
330
6F
100
AcDbEntity
  8
0
100
AcDbLine
 10
16.94525941939469
 20
4.128319950586782
 30
0.025
 11
16.8437306979617
 21
4.153798641136504
 31
0.025
  0
LINE
  5
146
330
6F
100
AcDbEntity
  8
0
100
AcDbLine
 10
16.8437306979617
 20
4.153798641136504
 30
0.025
 11
16.74799258801729
 21
4.127547869054973
 31
0.025
  0
LINE
  5
147
330
6F
100
AcDbEntity
  8
0
100
AcDbLine
 10
16.74799258801729
 20
4.127547869054973
 30
0.025
 11
16.68931439159975
 21
4.048795552810377
 31
0.025
  0
POLYLINE
  5
148
330
6F
100
AcDbEntity
  8
0
100
AcDb3dPolyline
 66
     1
 10
0.0
 20
0.0
 30
0.0
 70
     8
  0
VERTEX
  5
149
330
148
100
AcDbEntity
  8
0
100
AcDbVertex
100
AcDb3dPolylineVertex
 10
16.68931439159975
 20
4.048795552810377
 30
0.025
 70
    32
  0
VERTEX
  5
14A
330
148
100
AcDbEntity
  8
0
100
AcDbVertex
100
AcDb3dPolylineVertex
 10
16.64916615194565
 20
3.631871525633107
 30
0.025
 70
    32
  0
VERTEX
  5
14B
330
148
100
AcDbEntity
  8
0
100
AcDbVertex
100
AcDb3dPolylineVertex
 10
16.64916615194565
 20
0.7072266831377394
 30
0.025
 70
    32
  0
SEQEND
  5
14C
330
148
100
AcDbEntity
  8
0
  0
LINE
  5
14D
330
6F
100
AcDbEntity
  8
0
100
AcDbLine
 10
16.64916615194565
 20
0.7072266831377394
 30
0.025
 11
15.40148239654108
 21
0.7072266831377394
 31
0.025
  0
LINE
  5
14E
330
6F
100
AcDbEntity
  8
0
100
AcDbLine
 10
15.40148239654108
 20
0.7072266831377394
 30
0.025
 11
15.40148239654108
 21
5.70722668313774
 31
0.025
  0
LINE
  5
14F
330
6F
100
AcDbEntity
  8
0
100
AcDbLine
 10
15.40148239654108
 20
5.70722668313774
 30
0.025
 11
16.64916615194565
 21
5.70722668313774
 31
0.025
  0
LINE
  5
150
330
6F
100
AcDbEntity
  8
0
100
AcDbLine
 10
19.83014206300185
 20
3.218035824583076
 30
0.025
 11
18.65966646077826
 21
3.218035824583076
 31
0.025
  0
LINE
  5
151
330
6F
100
AcDbEntity
  8
0
100
AcDbLine
 10
18.65966646077826
 20
3.218035824583076
 30
0.025
 11
18.65966646077826
 21
3.49289684990735
 31
0.025
  0
LINE
  5
152
330
6F
100
AcDbEntity
  8
0
100
AcDbLine
 10
18.65966646077826
 20
3.49289684990735
 30
0.025
 11
18.68707535515751
 21
3.914067325509574
 31
0.025
  0
LINE
  5
153
330
6F
100
AcDbEntity
  8
0
100
AcDbLine
 10
18.68707535515751
 20
3.914067325509574
 30
0.025
 11
18.76930203829524
 21
4.226374305126622
 31
0.025
  0
LINE
  5
154
330
6F
100
AcDbEntity
  8
0
100
AcDbLine
 10
18.76930203829524
 20
4.226374305126622
 30
0.025
 11
18.93414144533663
 21
4.46919394688079
 31
0.025
  0
LINE
  5
155
330
6F
100
AcDbEntity
  8
0
100
AcDbLine
 10
18.93414144533663
 20
4.46919394688079
 30
0.025
 11
19.20938851142681
 21
4.68190240889438
 31
0.025
  0
LINE
  5
156
330
6F
100
AcDbEntity
  8
0
100
AcDbLine
 10
19.20938851142681
 20
4.68190240889438
 30
0.025
 11
19.58925262507721
 21
4.830142063001853
 31
0.025
  0
LINE
  5
157
330
6F
100
AcDbEntity
  8
0
100
AcDbLine
 10
19.58925262507721
 20
4.830142063001853
 30
0.025
 11
20.06794317479926
 21
4.879555281037677
 31
0.025
  0
LINE
  5
158
330
6F
100
AcDbEntity
  8
0
100
AcDbLine
 10
20.06794317479926
 20
4.879555281037677
 30
0.025
 11
20.62306979617048
 21
4.823579369981471
 31
0.025
  0
LINE
  5
159
330
6F
100
AcDbEntity
  8
0
100
AcDbLine
 10
20.62306979617048
 20
4.823579369981471
 30
0.025
 11
20.8421479308215
 21
4.753609481161211
 31
0.025
  0
LINE
  5
15A
330
6F
100
AcDbEntity
  8
0
100
AcDbLine
 10
20.8421479308215
 20
4.753609481161211
 30
0.025
 11
21.02223594811612
 21
4.655651636812848
 31
0.025
  0
LINE
  5
15B
330
6F
100
AcDbEntity
  8
0
100
AcDbLine
 10
21.02223594811612
 20
4.655651636812848
 30
0.025
 11
21.27933909820877
 21
4.406269302038296
 31
0.025
  0
LINE
  5
15C
330
6F
100
AcDbEntity
  8
0
100
AcDbLine
 10
21.27933909820877
 20
4.406269302038296
 30
0.025
 11
21.408276714021
 21
4.105929586164299
 31
0.025
  0
LINE
  5
15D
330
6F
100
AcDbEntity
  8
0
100
AcDbLine
 10
21.408276714021
 20
4.105929586164299
 30
0.025
 11
21.45691785052502
 21
3.6075509573811
 31
0.025
  0
POLYLINE
  5
15E
330
6F
100
AcDbEntity
  8
0
100
AcDb3dPolyline
 66
     1
 10
0.0
 20
0.0
 30
0.0
 70
     8
  0
VERTEX
  5
15F
330
15E
100
AcDbEntity
  8
0
100
AcDbVertex
100
AcDb3dPolylineVertex
 10
21.45691785052502
 20
3.6075509573811
 30
0.025
 70
    32
  0
VERTEX
  5
160
330
15E
100
AcDbEntity
  8
0
100
AcDbVertex
100
AcDb3dPolylineVertex
 10
21.47313156269302
 20
2.764051883878938
 30
0.025
 70
    32
  0
VERTEX
  5
161
330
15E
100
AcDbEntity
  8
0
100
AcDbVertex
100
AcDb3dPolylineVertex
 10
21.47313156269302
 20
0.7072266831377394
 30
0.025
 70
    32
  0
SEQEND
  5
162
330
15E
100
AcDbEntity
  8
0
  0
LINE
  5
163
330
6F
100
AcDbEntity
  8
0
100
AcDbLine
 10
21.47313156269302
 20
0.7072266831377394
 30
0.025
 11
20.25941939468808
 21
0.7072266831377394
 31
0.025
  0
LINE
  5
164
330
6F
100
AcDbEntity
  8
0
100
AcDbLine
 10
20.25941939468808
 20
0.7072266831377394
 30
0.025
 11
20.25941939468808
 21
1.072421247683755
 31
0.025
  0
LINE
  5
165
330
6F
100
AcDbEntity
  8
0
100
AcDbLine
 10
20.25941939468808
 20
1.072421247683755
 30
0.025
 11
20.12855157504633
 21
0.8802212013588636
 31
0.025
  0
LINE
  5
166
330
6F
100
AcDbEntity
  8
0
100
AcDbLine
 10
20.12855157504633
 20
0.8802212013588636
 30
0.025
 11
19.96448424953675
 21
0.7429354539839407
 31
0.025
  0
LINE
  5
167
330
6F
100
AcDbEntity
  8
0
100
AcDbLine
 10
19.96448424953675
 20
0.7429354539839407
 30
0.025
 11
19.76644533662755
 21
0.6605640055589872
 31
0.025
  0
LINE
  5
168
330
6F
100
AcDbEntity
  8
0
100
AcDbLine
 10
19.76644533662755
 20
0.6605640055589872
 30
0.025
 11
19.53366275478691
 21
0.6331068560840025
 31
0.025
  0
LINE
  5
169
330
6F
100
AcDbEntity
  8
0
100
AcDbLine
 10
19.53366275478691
 20
0.6331068560840025
 30
0.025
 11
19.21981161210624
 21
0.6790457072266832
 31
0.025
  0
LINE
  5
16A
330
6F
100
AcDbEntity
  8
0
100
AcDbLine
 10
19.21981161210624
 20
0.6790457072266832
 30
0.025
 11
18.93298332303891
 21
0.8168622606547251
 31
0.025
  0
LINE
  5
16B
330
6F
100
AcDbEntity
  8
0
100
AcDbLine
 10
18.93298332303891
 20
0.8168622606547251
 30
0.025
 11
18.81340719579988
 21
0.9360523471278565
 31
0.025
  0
LINE
  5
16C
330
6F
100
AcDbEntity
  8
0
100
AcDbLine
 10
18.81340719579988
 20
0.9360523471278565
 30
0.025
 11
18.72799567634343
 21
1.109867201976529
 31
0.025
  0
LINE
  5
16D
330
6F
100
AcDbEntity
  8
0
100
AcDbLine
 10
18.72799567634343
 20
1.109867201976529
 30
0.025
 11
18.67674876466955
 21
1.338306825200741
 31
0.025
  0
LINE
  5
16E
330
6F
100
AcDbEntity
  8
0
100
AcDbLine
 10
18.67674876466955
 20
1.338306825200741
 30
0.025
 11
18.65966646077826
 21
1.621371216800494
 31
0.025
  0
LINE
  5
16F
330
6F
100
AcDbEntity
  8
0
100
AcDbLine
 10
18.65966646077826
 20
1.621371216800494
 30
0.025
 11
18.65966646077826
 21
1.957998764669549
 31
0.025
  0
LINE
  5
170
330
6F
100
AcDbEntity
  8
0
100
AcDbLine
 10
18.65966646077826
 20
1.957998764669549
 30
0.025
 11
18.69595429277332
 21
2.344811612106238
 31
0.025
  0
LINE
  5
171
330
6F
100
AcDbEntity
  8
0
100
AcDbLine
 10
18.69595429277332
 20
2.344811612106238
 30
0.025
 11
18.80481778875849
 21
2.584928968499073
 31
0.025
  0
LINE
  5
172
330
6F
100
AcDbEntity
  8
0
100
AcDbLine
 10
18.80481778875849
 20
2.584928968499073
 30
0.025
 11
19.05728844966028
 21
2.765596046942557
 31
0.025
  0
LINE
  5
173
330
6F
100
AcDbEntity
  8
0
100
AcDbLine
 10
19.05728844966028
 20
2.765596046942557
 30
0.025
 11
19.52439777640519
 21
2.974058060531192
 31
0.025
  0
LINE
  5
174
330
6F
100
AcDbEntity
  8
0
100
AcDbLine
 10
19.52439777640519
 20
2.974058060531192
 30
0.025
 11
19.99613959234095
 21
3.175571340333539
 31
0.025
  0
LINE
  5
175
330
6F
100
AcDbEntity
  8
0
100
AcDbLine
 10
19.99613959234095
 20
3.175571340333539
 30
0.025
 11
20.1822112415071
 21
3.298332303891292
 31
0.025
  0
LINE
  5
176
330
6F
100
AcDbEntity
  8
0
100
AcDbLine
 10
20.1822112415071
 20
3.298332303891292
 30
0.025
 11
20.22544780728845
 21
3.638048177887585
 31
0.025
  0
LINE
  5
177
330
6F
100
AcDbEntity
  8
0
100
AcDbLine
 10
20.22544780728845
 20
3.638048177887585
 30
0.025
 11
20.17757875231624
 21
4.056516368128475
 31
0.025
  0
LINE
  5
178
330
6F
100
AcDbEntity
  8
0
100
AcDbLine
 10
20.17757875231624
 20
4.056516368128475
 30
0.025
 11
20.11388202594194
 21
4.129478072884496
 31
0.025
  0
LINE
  5
179
330
6F
100
AcDbEntity
  8
0
100
AcDbLine
 10
20.11388202594194
 20
4.129478072884496
 30
0.025
 11
20.01852995676343
 21
4.153798641136504
 31
0.025
  0
LINE
  5
17A
330
6F
100
AcDbEntity
  8
0
100
AcDbLine
 10
20.01852995676343
 20
4.153798641136504
 30
0.025
 11
19.91584311303274
 21
4.133338480543546
 31
0.025
  0
LINE
  5
17B
330
6F
100
AcDbEntity
  8
0
100
AcDbLine
 10
19.91584311303274
 20
4.133338480543546
 30
0.025
 11
19.86102532427424
 21
4.071957998764669
 31
0.025
  0
LINE
  5
17C
330
6F
100
AcDbEntity
  8
0
100
AcDbLine
 10
19.86102532427424
 20
4.071957998764669
 30
0.025
 11
19.83014206300185
 21
3.647313156269302
 31
0.025
  0
LINE
  5
17D
330
6F
100
AcDbEntity
  8
0
100
AcDbLine
 10
19.83014206300185
 20
3.647313156269302
 30
0.025
 11
19.83014206300185
 21
3.218035824583076
 31
0.025
  0
LINE
  5
17E
330
6F
100
AcDbEntity
  8
0
100
AcDbLine
 10
20.22544780728845
 20
2.655960469425572
 30
0.025
 11
19.98880481778876
 21
2.454447189623225
 31
0.025
  0
LINE
  5
17F
330
6F
100
AcDbEntity
  8
0
100
AcDbLine
 10
19.98880481778876
 20
2.454447189623225
 30
0.025
 11
19.87801111797406
 21
2.288449660284126
 31
0.025
  0
LINE
  5
180
330
6F
100
AcDbEntity
  8
0
100
AcDbLine
 10
19.87801111797406
 20
2.288449660284126
 30
0.025
 11
19.83014206300185
 21
1.862260654725139
 31
0.025
  0
LINE
  5
181
330
6F
100
AcDbEntity
  8
0
100
AcDbLine
 10
19.83014206300185
 20
1.862260654725139
 30
0.025
 11
19.87183446571958
 21
1.451513279802347
 31
0.025
  0
LINE
  5
182
330
6F
100
AcDbEntity
  8
0
100
AcDbLine
 10
19.87183446571958
 20
1.451513279802347
 30
0.025
 11
19.93398702903027
 21
1.382025941939469
 31
0.025
  0
LINE
  5
183
330
6F
100
AcDbEntity
  8
0
100
AcDbLine
 10
19.93398702903027
 20
1.382025941939469
 30
0.025
 11
20.03705991352687
 21
1.358863495985176
 31
0.025
  0
LINE
  5
184
330
6F
100
AcDbEntity
  8
0
100
AcDbLine
 10
20.03705991352687
 20
1.358863495985176
 30
0.025
 11
20.13395614576899
 21
1.377007411982705
 31
0.025
  0
LINE
  5
185
330
6F
100
AcDbEntity
  8
0
100
AcDbLine
 10
20.13395614576899
 20
1.377007411982705
 30
0.025
 11
20.1899320568252
 21
1.431439159975293
 31
0.025
  0
LINE
  5
186
330
6F
100
AcDbEntity
  8
0
100
AcDbLine
 10
20.1899320568252
 20
1.431439159975293
 30
0.025
 11
20.22544780728845
 21
1.812847436689314
 31
0.025
  0
LINE
  5
187
330
6F
100
AcDbEntity
  8
0
100
AcDbLine
 10
20.22544780728845
 20
1.812847436689314
 30
0.025
 11
20.22544780728845
 21
2.655960469425572
 31
0.025
  0
LINE
  5
188
330
6F
100
AcDbEntity
  8
0
100
AcDbLine
 10
23.17171093267449
 20
4.805435453983941
 30
0.025
 11
23.15009264978382
 21
4.427887584928969
 31
0.025
  0
LINE
  5
189
330
6F
100
AcDbEntity
  8
0
100
AcDbLine
 10
23.15009264978382
 20
4.427887584928969
 30
0.025
 11
23.30103458925263
 21
4.625492201976529
 31
0.025
  0
LINE
  5
18A
330
6F
100
AcDbEntity
  8
0
100
AcDbLine
 10
23.30103458925263
 20
4.625492201976529
 30
0.025
 11
23.48208770846201
 21
4.766638357010501
 31
0.025
  0
LINE
  5
18B
330
6F
100
AcDbEntity
  8
0
100
AcDbLine
 10
23.48208770846201
 20
4.766638357010501
 30
0.025
 11
23.69325200741199
 21
4.851326050030884
 31
0.025
  0
LINE
  5
18C
330
6F
100
AcDbEntity
  8
0
100
AcDbLine
 10
23.69325200741199
 20
4.851326050030884
 30
0.025
 11
23.93452748610254
 21
4.879555281037677
 31
0.025
  0
LINE
  5
18D
330
6F
100
AcDbEntity
  8
0
100
AcDbLine
 10
23.93452748610254
 20
4.879555281037677
 30
0.025
 11
24.22637430512663
 21
4.841723285979
 31
0.025
  0
LINE
  5
18E
330
6F
100
AcDbEntity
  8
0
100
AcDbLine
 10
24.22637430512663
 20
4.841723285979
 30
0.025
 11
24.45954292773317
 21
4.728227300802965
 31
0.025
  0
LINE
  5
18F
330
6F
100
AcDbEntity
  8
0
100
AcDbLine
 10
24.45954292773317
 20
4.728227300802965
 30
0.025
 11
24.62708462013589
 21
4.557211241507104
 31
0.025
  0
LINE
  5
190
330
6F
100
AcDbEntity
  8
0
100
AcDbLine
 10
24.62708462013589
 20
4.557211241507104
 30
0.025
 11
24.72205064854849
 21
4.346819024088944
 31
0.025
  0
LINE
  5
191
330
6F
100
AcDbEntity
  8
0
100
AcDbLine
 10
24.72205064854849
 20
4.346819024088944
 30
0.025
 11
24.76605929586164
 21
4.039916615194564
 31
0.025
  0
POLYLINE
  5
192
330
6F
100
AcDbEntity
  8
0
100
AcDb3dPolyline
 66
     1
 10
0.0
 20
0.0
 30
0.0
 70
     8
  0
VERTEX
  5
193
330
192
100
AcDbEntity
  8
0
100
AcDbVertex
100
AcDb3dPolylineVertex
 10
24.76605929586164
 20
4.039916615194564
 30
0.025
 70
    32
  0
VERTEX
  5
194
330
192
100
AcDbEntity
  8
0
100
AcDbVertex
100
AcDb3dPolylineVertex
 10
24.78072884496603
 20
3.579369981470043
 30
0.025
 70
    32
  0
VERTEX
  5
195
330
192
100
AcDbEntity
  8
0
100
AcDbVertex
100
AcDb3dPolylineVertex
 10
24.78072884496603
 20
0.7072266831377394
 30
0.025
 70
    32
  0
SEQEND
  5
196
330
192
100
AcDbEntity
  8
0
  0
LINE
  5
197
330
6F
100
AcDbEntity
  8
0
100
AcDbLine
 10
24.78072884496603
 20
0.7072266831377394
 30
0.025
 11
23.53304508956146
 21
0.7072266831377394
 31
0.025
  0
POLYLINE
  5
198
330
6F
100
AcDbEntity
  8
0
100
AcDb3dPolyline
 66
     1
 10
0.0
 20
0.0
 30
0.0
 70
     8
  0
VERTEX
  5
199
330
198
100
AcDbEntity
  8
0
100
AcDbVertex
100
AcDb3dPolylineVertex
 10
23.53304508956146
 20
0.7072266831377394
 30
0.025
 70
    32
  0
VERTEX
  5
19A
330
198
100
AcDbEntity
  8
0
100
AcDbVertex
100
AcDb3dPolylineVertex
 10
23.53304508956146
 20
3.545398394070414
 30
0.025
 70
    32
  0
VERTEX
  5
19B
330
198
100
AcDbEntity
  8
0
100
AcDbVertex
100
AcDb3dPolylineVertex
 10
23.50525015441631
 20
4.061148857319333
 30
0.025
 70
    32
  0
SEQEND
  5
19C
330
198
100
AcDbEntity
  8
0
  0
LINE
  5
19D
330
6F
100
AcDbEntity
  8
0
100
AcDbLine
 10
23.50525015441631
 20
4.061148857319333
 30
0.025
 11
23.45274861025324
 21
4.130636195182211
 31
0.025
  0
LINE
  5
19E
330
6F
100
AcDbEntity
  8
0
100
AcDbLine
 10
23.45274861025324
 20
4.130636195182211
 30
0.025
 11
23.35083384805436
 21
4.153798641136504
 31
0.025
  0
LINE
  5
19F
330
6F
100
AcDbEntity
  8
0
100
AcDbLine
 10
23.35083384805436
 20
4.153798641136504
 30
0.025
 11
23.24274243360099
 21
4.127161828289068
 31
0.025
  0
LINE
  5
1A0
330
6F
100
AcDbEntity
  8
0
100
AcDbLine
 10
23.24274243360099
 20
4.127161828289068
 30
0.025
 11
23.18406423718345
 21
4.047251389746758
 31
0.025
  0
POLYLINE
  5
1A1
330
6F
100
AcDbEntity
  8
0
100
AcDb3dPolyline
 66
     1
 10
0.0
 20
0.0
 30
0.0
 70
     8
  0
VERTEX
  5
1A2
330
1A1
100
AcDbEntity
  8
0
100
AcDbVertex
100
AcDb3dPolylineVertex
 10
23.18406423718345
 20
4.047251389746758
 30
0.025
 70
    32
  0
VERTEX
  5
1A3
330
1A1
100
AcDbEntity
  8
0
100
AcDbVertex
100
AcDb3dPolylineVertex
 10
23.15009264978382
 20
3.477455219271155
 30
0.025
 70
    32
  0
VERTEX
  5
1A4
330
1A1
100
AcDbEntity
  8
0
100
AcDbVertex
100
AcDb3dPolylineVertex
 10
23.15009264978382
 20
0.7072266831377394
 30
0.025
 70
    32
  0
SEQEND
  5
1A5
330
1A1
100
AcDbEntity
  8
0
  0
LINE
  5
1A6
330
6F
100
AcDbEntity
  8
0
100
AcDbLine
 10
23.15009264978382
 20
0.7072266831377394
 30
0.025
 11
21.90240889437925
 21
0.7072266831377394
 31
0.025
  0
LINE
  5
1A7
330
6F
100
AcDbEntity
  8
0
100
AcDbLine
 10
21.90240889437925
 20
0.7072266831377394
 30
0.025
 11
21.90240889437925
 21
4.805435453983941
 31
0.025
  0
LINE
  5
1A8
330
6F
100
AcDbEntity
  8
0
100
AcDbLine
 10
21.90240889437925
 20
4.805435453983941
 30
0.025
 11
23.17171093267449
 21
4.805435453983941
 31
0.025
  0
POLYLINE
  5
1A9
330
6F
100
AcDbEntity
  8
0
100
AcDb3dPolyline
 66
     1
 10
0.0
 20
0.0
 30
0.0
 70
     8
  0
VERTEX
  5
1AA
330
1A9
100
AcDbEntity
  8
0
100
AcDbVertex
100
AcDb3dPolylineVertex
 10
28.04508956145769
 20
4.805435453983941
 30
0.025
 70
    32
  0
VERTEX
  5
1AB
330
1A9
100
AcDbEntity
  8
0
100
AcDbVertex
100
AcDb3dPolylineVertex
 10
28.04508956145769
 20
1.649166151945646
 30
0.025
 70
    32
  0
VERTEX
  5
1AC
330
1A9
100
AcDbEntity
  8
0
100
AcDbVertex
100
AcDb3dPolylineVertex
 10
28.01575046324892
 20
0.8230389129092033
 30
0.025
 70
    32
  0
SEQEND
  5
1AD
330
1A9
100
AcDbEntity
  8
0
  0
LINE
  5
1AE
330
6F
100
AcDbEntity
  8
0
100
AcDbLine
 10
28.01575046324892
 20
0.8230389129092033
 30
0.025
 11
27.94896541074738
 21
0.6307906114885732
 31
0.025
  0
LINE
  5
1AF
330
6F
100
AcDbEntity
  8
0
100
AcDbLine
 10
27.94896541074738
 20
0.6307906114885732
 30
0.025
 11
27.80728844966028
 21
0.4277331686226065
 31
0.025
  0
LINE
  5
1B0
330
6F
100
AcDbEntity
  8
0
100
AcDbLine
 10
27.80728844966028
 20
0.4277331686226065
 30
0.025
 11
27.59303582458308
 21
0.2439777640518838
 31
0.025
  0
LINE
  5
1B1
330
6F
100
AcDbEntity
  8
0
100
AcDbLine
 10
27.59303582458308
 20
0.2439777640518838
 30
0.025
 11
27.30852378011118
 21
0.1096355775169858
 31
0.025
  0
LINE
  5
1B2
330
6F
100
AcDbEntity
  8
0
100
AcDbLine
 10
27.30852378011118
 20
0.1096355775169858
 30
0.025
 11
26.94757566399012
 21
0.0274088943792465
 31
0.025
  0
LINE
  5
1B3
330
6F
100
AcDbEntity
  8
0
100
AcDbLine
 10
26.94757566399012
 20
0.0274088943792465
 30
0.025
 11
26.50401482396541
 21
0.0
 31
0.025
  0
LINE
  5
1B4
330
6F
100
AcDbEntity
  8
0
100
AcDbLine
 10
26.50401482396541
 20
0.0
 30
0.025
 11
25.96664607782582
 21
0.0505713403335392
 31
0.025
  0
LINE
  5
1B5
330
6F
100
AcDbEntity
  8
0
100
AcDbLine
 10
25.96664607782582
 20
0.0505713403335392
 30
0.025
 11
25.54663372452131
 21
0.2022853613341569
 31
0.025
  0
LINE
  5
1B6
330
6F
100
AcDbEntity
  8
0
100
AcDbLine
 10
25.54663372452131
 20
0.2022853613341569
 30
0.025
 11
25.38777794935145
 21
0.327845120444719
 31
0.025
  0
LINE
  5
1B7
330
6F
100
AcDbEntity
  8
0
100
AcDbLine
 10
25.38777794935145
 20
0.327845120444719
 30
0.025
 11
25.27254478072885
 21
0.5022390364422483
 31
0.025
  0
LINE
  5
1B8
330
6F
100
AcDbEntity
  8
0
100
AcDbLine
 10
25.27254478072885
 20
0.5022390364422483
 30
0.025
 11
25.20093421865349
 21
0.725467109326745
 31
0.025
  0
LINE
  5
1B9
330
6F
100
AcDbEntity
  8
0
100
AcDbLine
 10
25.20093421865349
 20
0.725467109326745
 30
0.025
 11
25.17294626312539
 21
0.9975293390982088
 31
0.025
  0
LINE
  5
1BA
330
6F
100
AcDbEntity
  8
0
100
AcDbLine
 10
25.17294626312539
 20
0.9975293390982088
 30
0.025
 11
26.38357010500309
 21
0.9975293390982088
 31
0.025
  0
LINE
  5
1BB
330
6F
100
AcDbEntity
  8
0
100
AcDbLine
 10
26.38357010500309
 20
0.9975293390982088
 30
0.025
 11
26.43298332303891
 21
0.7936998147004324
 31
0.025
  0
LINE
  5
1BC
330
6F
100
AcDbEntity
  8
0
100
AcDbLine
 10
26.43298332303891
 20
0.7936998147004324
 30
0.025
 11
26.4947498455837
 21
0.7427424336009882
 31
0.025
  0
LINE
  5
1BD
330
6F
100
AcDbEntity
  8
0
100
AcDbLine
 10
26.4947498455837
 20
0.7427424336009882
 30
0.025
 11
26.58122297714639
 21
0.7257566399011736
 31
0.025
  0
LINE
  5
1BE
330
6F
100
AcDbEntity
  8
0
100
AcDbLine
 10
26.58122297714639
 20
0.7257566399011736
 30
0.025
 11
26.69935145151328
 21
0.7466269688079061
 31
0.025
  0
LINE
  5
1BF
330
6F
100
AcDbEntity
  8
0
100
AcDbLine
 10
26.69935145151328
 20
0.7466269688079061
 30
0.025
 11
26.76961087090797
 21
0.8092379555281038
 31
0.025
  0
LINE
  5
1C0
330
6F
100
AcDbEntity
  8
0
100
AcDbLine
 10
26.76961087090797
 20
0.8092379555281038
 30
0.025
 11
26.81593576281656
 21
1.158556593576282
 31
0.025
  0
LINE
  5
1C1
330
6F
100
AcDbEntity
  8
0
100
AcDbLine
 10
26.81593576281656
 20
1.158556593576282
 30
0.025
 11
26.81593576281656
 21
1.467726991970352
 31
0.025
  0
LINE
  5
1C2
330
6F
100
AcDbEntity
  8
0
100
AcDbLine
 10
26.81593576281656
 20
1.467726991970352
 30
0.025
 11
26.47776405188388
 21
1.247876775787523
 31
0.025
  0
LINE
  5
1C3
330
6F
100
AcDbEntity
  8
0
100
AcDbLine
 10
26.47776405188388
 20
1.247876775787523
 30
0.025
 11
26.29593885114268
 21
1.192142140210006
 31
0.025
  0
LINE
  5
1C4
330
6F
100
AcDbEntity
  8
0
100
AcDbLine
 10
26.29593885114268
 20
1.192142140210006
 30
0.025
 11
26.10562075355158
 21
1.173563928350834
 31
0.025
  0
LINE
  5
1C5
330
6F
100
AcDbEntity
  8
0
100
AcDbLine
 10
26.10562075355158
 20
1.173563928350834
 30
0.025
 11
25.79871834465719
 21
1.207535515750463
 31
0.025
  0
LINE
  5
1C6
330
6F
100
AcDbEntity
  8
0
100
AcDbLine
 10
25.79871834465719
 20
1.207535515750463
 30
0.025
 11
25.55126621371217
 21
1.309450277949352
 31
0.025
  0
LINE
  5
1C7
330
6F
100
AcDbEntity
  8
0
100
AcDbLine
 10
25.55126621371217
 20
1.309450277949352
 30
0.025
 11
25.36789684990735
 21
1.466568869672638
 31
0.025
  0
LINE
  5
1C8
330
6F
100
AcDbEntity
  8
0
100
AcDbLine
 10
25.36789684990735
 20
1.466568869672638
 30
0.025
 11
25.2532427424336
 21
1.66615194564546
 31
0.025
  0
LINE
  5
1C9
330
6F
100
AcDbEntity
  8
0
100
AcDbLine
 10
25.2532427424336
 20
1.66615194564546
 30
0.025
 11
25.19302038295244
 21
1.933678196417542
 31
0.025
  0
LINE
  5
1CA
330
6F
100
AcDbEntity
  8
0
100
AcDbLine
 10
25.19302038295244
 20
1.933678196417542
 30
0.025
 11
25.17294626312539
 21
2.294626312538604
 31
0.025
  0
POLYLINE
  5
1CB
330
6F
100
AcDbEntity
  8
0
100
AcDb3dPolyline
 66
     1
 10
0.0
 20
0.0
 30
0.0
 70
     8
  0
VERTEX
  5
1CC
330
1CB
100
AcDbEntity
  8
0
100
AcDbVertex
100
AcDb3dPolylineVertex
 10
25.17294626312539
 20
2.294626312538604
 30
0.025
 70
    32
  0
VERTEX
  5
1CD
330
1CB
100
AcDbEntity
  8
0
100
AcDbVertex
100
AcDb3dPolylineVertex
 10
25.17294626312539
 20
3.78319950586782
 30
0.025
 70
    32
  0
VERTEX
  5
1CE
330
1CB
100
AcDbEntity
  8
0
100
AcDbVertex
100
AcDb3dPolylineVertex
 10
25.22544780728845
 20
4.285052501544164
 30
0.025
 70
    32
  0
SEQEND
  5
1CF
330
1CB
100
AcDbEntity
  8
0
  0
LINE
  5
1D0
330
6F
100
AcDbEntity
  8
0
100
AcDbLine
 10
25.22544780728845
 20
4.285052501544164
 30
0.025
 11
25.29107473749228
 21
4.474598517603459
 31
0.025
  0
LINE
  5
1D1
330
6F
100
AcDbEntity
  8
0
100
AcDbLine
 10
25.29107473749228
 20
4.474598517603459
 30
0.025
 11
25.38295243977764
 21
4.623224212476837
 31
0.025
  0
LINE
  5
1D2
330
6F
100
AcDbEntity
  8
0
100
AcDbLine
 10
25.38295243977764
 20
4.623224212476837
 30
0.025
 11
25.5016599752934
 21
4.735369054972206
 31
0.025
  0
LINE
  5
1D3
330
6F
100
AcDbEntity
  8
0
100
AcDbLine
 10
25.5016599752934
 20
4.735369054972206
 30
0.025
 11
25.64777640518839
 21
4.815472513897468
 31
0.025
  0
LINE
  5
1D4
330
6F
100
AcDbEntity
  8
0
100
AcDbLine
 10
25.64777640518839
 20
4.815472513897468
 30
0.025
 11
26.02223594811613
 21
4.879555281037677
 31
0.025
  0
LINE
  5
1D5
330
6F
100
AcDbEntity
  8
0
100
AcDbLine
 10
26.02223594811613
 20
4.879555281037677
 30
0.025
 11
26.24652563310686
 21
4.855572498455837
 31
0.025
  0
LINE
  5
1D6
330
6F
100
AcDbEntity
  8
0
100
AcDbLine
 10
26.24652563310686
 20
4.855572498455837
 30
0.025
 11
26.44996911673873
 21
4.783624150710315
 31
0.025
  0
LINE
  5
1D7
330
6F
100
AcDbEntity
  8
0
100
AcDbLine
 10
26.44996911673873
 20
4.783624150710315
 30
0.025
 11
26.63256639901173
 21
4.663710237801112
 31
0.025
  0
LINE
  5
1D8
330
6F
100
AcDbEntity
  8
0
100
AcDbLine
 10
26.63256639901173
 20
4.663710237801112
 30
0.025
 11
26.79431747992588
 21
4.495830759728228
 31
0.025
  0
LINE
  5
1D9
330
6F
100
AcDbEntity
  8
0
100
AcDbLine
 10
26.79431747992588
 20
4.495830759728228
 30
0.025
 11
26.88387893761582
 21
4.805435453983941
 31
0.025
  0
LINE
  5
1DA
330
6F
100
AcDbEntity
  8
0
100
AcDbLine
 10
26.88387893761582
 20
4.805435453983941
 30
0.025
 11
28.04508956145769
 21
4.805435453983941
 31
0.025
  0
LINE
  5
1DB
330
6F
100
AcDbEntity
  8
0
100
AcDbLine
 10
26.79431747992588
 20
3.7183446571958
 30
0.025
 11
26.76189005558987
 21
4.076590487955528
 31
0.025
  0
LINE
  5
1DC
330
6F
100
AcDbEntity
  8
0
100
AcDbLine
 10
26.76189005558987
 20
4.076590487955528
 30
0.025
 11
26.70977455219272
 21
4.13449660284126
 31
0.025
  0
LINE
  5
1DD
330
6F
100
AcDbEntity
  8
0
100
AcDbLine
 10
26.70977455219272
 20
4.13449660284126
 30
0.025
 11
26.61828289067326
 21
4.153798641136504
 31
0.025
  0
LINE
  5
1DE
330
6F
100
AcDbEntity
  8
0
100
AcDbLine
 10
26.61828289067326
 20
4.153798641136504
 30
0.025
 11
26.52601914762199
 21
4.131794317479926
 31
0.025
  0
LINE
  5
1DF
330
6F
100
AcDbEntity
  8
0
100
AcDbLine
 10
26.52601914762199
 20
4.131794317479926
 30
0.025
 11
26.46541074737492
 21
4.065781346510192
 31
0.025
  0
LINE
  5
1E0
330
6F
100
AcDbEntity
  8
0
100
AcDbLine
 10
26.46541074737492
 20
4.065781346510192
 30
0.025
 11
26.42063001852996
 21
3.7183446571958
 31
0.025
  0
LINE
  5
1E1
330
6F
100
AcDbEntity
  8
0
100
AcDbLine
 10
26.42063001852996
 20
3.7183446571958
 30
0.025
 11
26.42063001852996
 21
2.34095120444719
 31
0.025
  0
LINE
  5
1E2
330
6F
100
AcDbEntity
  8
0
100
AcDbLine
 10
26.42063001852996
 20
2.34095120444719
 30
0.025
 11
26.45460160592959
 21
1.984249536751081
 31
0.025
  0
LINE
  5
1E3
330
6F
100
AcDbEntity
  8
0
100
AcDbLine
 10
26.45460160592959
 20
1.984249536751081
 30
0.025
 11
26.50710315009265
 21
1.922869054972205
 31
0.025
  0
LINE
  5
1E4
330
6F
100
AcDbEntity
  8
0
100
AcDbLine
 10
26.50710315009265
 20
1.922869054972205
 30
0.025
 11
26.59666460778259
 21
1.902408894379247
 31
0.025
  0
LINE
  5
1E5
330
6F
100
AcDbEntity
  8
0
100
AcDbLine
 10
26.59666460778259
 20
1.902408894379247
 30
0.025
 11
26.69857936998147
 21
1.927115503397159
 31
0.025
  0
LINE
  5
1E6
330
6F
100
AcDbEntity
  8
0
100
AcDbLine
 10
26.69857936998147
 20
1.927115503397159
 30
0.025
 11
26.75725756639902
 21
2.001235330450896
 31
0.025
  0
LINE
  5
1E7
330
6F
100
AcDbEntity
  8
0
100
AcDbLine
 10
26.75725756639902
 20
2.001235330450896
 30
0.025
 11
26.79431747992588
 21
2.449042618900556
 31
0.025
  0
LINE
  5
1E8
330
6F
100
AcDbEntity
  8
0
100
AcDbLine
 10
26.79431747992588
 20
2.449042618900556
 30
0.025
 11
26.79431747992588
 21
3.7183446571958
 31
0.025
  0
LINE
  5
1E9
330
6F
100
AcDbEntity
  8
0
100
AcDbLine
 10
31.31562693020383
 20
2.683755404570723
 30
0.025
 11
29.70043236565781
 21
2.683755404570723
 31
0.025
  0
LINE
  5
1EA
330
6F
100
AcDbEntity
  8
0
100
AcDbLine
 10
29.70043236565781
 20
2.683755404570723
 30
0.025
 11
29.70043236565781
 21
1.79740580605312
 31
0.025
  0
LINE
  5
1EB
330
6F
100
AcDbEntity
  8
0
100
AcDbLine
 10
29.70043236565781
 20
1.79740580605312
 30
0.025
 11
29.74058060531192
 21
1.439159975293391
 31
0.025
  0
LINE
  5
1EC
330
6F
100
AcDbEntity
  8
0
100
AcDbLine
 10
29.74058060531192
 20
1.439159975293391
 30
0.025
 11
29.79925880172946
 21
1.37893761581223
 31
0.025
  0
LINE
  5
1ED
330
6F
100
AcDbEntity
  8
0
100
AcDbLine
 10
29.79925880172946
 20
1.37893761581223
 30
0.025
 11
29.89499691167388
 21
1.358863495985176
 31
0.025
  0
LINE
  5
1EE
330
6F
100
AcDbEntity
  8
0
100
AcDbLine
 10
29.89499691167388
 20
1.358863495985176
 30
0.025
 11
30.01351142680667
 21
1.385500308832613
 31
0.025
  0
LINE
  5
1EF
330
6F
100
AcDbEntity
  8
0
100
AcDbLine
 10
30.01351142680667
 20
1.385500308832613
 30
0.025
 11
30.08492896849907
 21
1.465410747374923
 31
0.025
  0
LINE
  5
1F0
330
6F
100
AcDbEntity
  8
0
100
AcDbLine
 10
30.08492896849907
 20
1.465410747374923
 30
0.025
 11
30.13279802347128
 21
1.877702285361334
 31
0.025
  0
LINE
  5
1F1
330
6F
100
AcDbEntity
  8
0
100
AcDbLine
 10
30.13279802347128
 20
1.877702285361334
 30
0.025
 11
30.13279802347128
 21
2.418159357628165
 31
0.025
  0
LINE
  5
1F2
330
6F
100
AcDbEntity
  8
0
100
AcDbLine
 10
30.13279802347128
 20
2.418159357628165
 30
0.025
 11
31.31562693020383
 21
2.418159357628165
 31
0.025
  0
LINE
  5
1F3
330
6F
100
AcDbEntity
  8
0
100
AcDbLine
 10
31.31562693020383
 20
2.418159357628165
 30
0.025
 11
31.31562693020383
 21
2.11550339715874
 31
0.025
  0
LINE
  5
1F4
330
6F
100
AcDbEntity
  8
0
100
AcDbLine
 10
31.31562693020383
 20
2.11550339715874
 30
0.025
 11
31.26775787523163
 21
1.531809759110562
 31
0.025
  0
LINE
  5
1F5
330
6F
100
AcDbEntity
  8
0
100
AcDbLine
 10
31.26775787523163
 20
1.531809759110562
 30
0.025
 11
31.18784743668932
 21
1.321031500926498
 31
0.025
  0
LINE
  5
1F6
330
6F
100
AcDbEntity
  8
0
100
AcDbLine
 10
31.18784743668932
 20
1.321031500926498
 30
0.025
 11
31.0438542310068
 21
1.096355775169858
 31
0.025
  0
LINE
  5
1F7
330
6F
100
AcDbEntity
  8
0
100
AcDbLine
 10
31.0438542310068
 20
1.096355775169858
 30
0.025
 11
30.84427115503397
 21
0.8936843730697961
 31
0.025
  0
LINE
  5
1F8
330
6F
100
AcDbEntity
  8
0
100
AcDbLine
 10
30.84427115503397
 20
0.8936843730697961
 30
0.025
 11
30.59759110562075
 21
0.7489190858554664
 31
0.025
  0
LINE
  5
1F9
330
6F
100
AcDbEntity
  8
0
100
AcDbLine
 10
30.59759110562075
 20
0.7489190858554664
 30
0.025
 11
30.2930049413218
 21
0.6620599135268685
 31
0.025
  0
LINE
  5
1FA
330
6F
100
AcDbEntity
  8
0
100
AcDbLine
 10
30.2930049413218
 20
0.6620599135268685
 30
0.025
 11
29.91970352069179
 21
0.6331068560840025
 31
0.025
  0
LINE
  5
1FB
330
6F
100
AcDbEntity
  8
0
100
AcDbLine
 10
29.91970352069179
 20
0.6331068560840025
 30
0.025
 11
29.54756022235948
 21
0.6616738727609636
 31
0.025
  0
LINE
  5
1FC
330
6F
100
AcDbEntity
  8
0
100
AcDbLine
 10
29.54756022235948
 20
0.6616738727609636
 30
0.025
 11
29.22174181593576
 21
0.7473749227918468
 31
0.025
  0
LINE
  5
1FD
330
6F
100
AcDbEntity
  8
0
100
AcDbLine
 10
29.22174181593576
 20
0.7473749227918468
 30
0.025
 11
28.95267140210006
 21
0.8828752316244597
 31
0.025
  0
LINE
  5
1FE
330
6F
100
AcDbEntity
  8
0
100
AcDbLine
 10
28.95267140210006
 20
0.8828752316244597
 30
0.025
 11
28.75077208153181
 21
1.060840024706609
 31
0.025
  0
LINE
  5
1FF
330
6F
100
AcDbEntity
  8
0
100
AcDbLine
 10
28.75077208153181
 20
1.060840024706609
 30
0.025
 11
28.60832303891291
 21
1.270074119827054
 31
0.025
  0
LINE
  5
200
330
6F
100
AcDbEntity
  8
0
100
AcDbLine
 10
28.60832303891291
 20
1.270074119827054
 30
0.025
 11
28.51760345892526
 21
1.499382334774552
 31
0.025
  0
LINE
  5
201
330
6F
100
AcDbEntity
  8
0
100
AcDbLine
 10
28.51760345892526
 20
1.499382334774552
 30
0.025
 11
28.46896232242125
 21
1.793159357628166
 31
0.025
  0
LINE
  5
202
330
6F
100
AcDbEntity
  8
0
100
AcDbLine
 10
28.46896232242125
 20
1.793159357628166
 30
0.025
 11
28.45274861025324
 21
2.195799876466955
 31
0.025
  0
LINE
  5
203
330
6F
100
AcDbEntity
  8
0
100
AcDbLine
 10
28.45274861025324
 20
2.195799876466955
 30
0.025
 11
28.45274861025324
 21
3.390982087708462
 31
0.025
  0
LINE
  5
204
330
6F
100
AcDbEntity
  8
0
100
AcDbLine
 10
28.45274861025324
 20
3.390982087708462
 30
0.025
 11
28.4890364422483
 21
3.871602841260037
 31
0.025
  0
LINE
  5
205
330
6F
100
AcDbEntity
  8
0
100
AcDbLine
 10
28.4890364422483
 20
3.871602841260037
 30
0.025
 11
28.59789993823347
 21
4.238727609635577
 31
0.025
  0
LINE
  5
206
330
6F
100
AcDbEntity
  8
0
100
AcDbLine
 10
28.59789993823347
 20
4.238727609635577
 30
0.025
 11
28.7893761581223
 21
4.512816553428042
 31
0.025
  0
LINE
  5
207
330
6F
100
AcDbEntity
  8
0
100
AcDbLine
 10
28.7893761581223
 20
4.512816553428042
 30
0.025
 11
29.07350216182829
 21
4.714329833230389
 31
0.025
  0
LINE
  5
208
330
6F
100
AcDbEntity
  8
0
100
AcDbLine
 10
29.07350216182829
 20
4.714329833230389
 30
0.025
 11
29.42865966646078
 21
4.838248919085856
 31
0.025
  0
LINE
  5
209
330
6F
100
AcDbEntity
  8
0
100
AcDbLine
 10
29.42865966646078
 20
4.838248919085856
 30
0.025
 11
29.8332303891291
 21
4.879555281037677
 31
0.025
  0
LINE
  5
20A
330
6F
100
AcDbEntity
  8
0
100
AcDbLine
 10
29.8332303891291
 20
4.879555281037677
 30
0.025
 11
30.31230697961705
 21
4.829756022235948
 31
0.025
  0
LINE
  5
20B
330
6F
100
AcDbEntity
  8
0
100
AcDbLine
 10
30.31230697961705
 20
4.829756022235948
 30
0.025
 11
30.69950586781965
 21
4.68035824583076
 31
0.025
  0
LINE
  5
20C
330
6F
100
AcDbEntity
  8
0
100
AcDbLine
 10
30.69950586781965
 20
4.68035824583076
 30
0.025
 11
30.98980852378011
 21
4.448733786287832
 31
0.025
  0
LINE
  5
20D
330
6F
100
AcDbEntity
  8
0
100
AcDbLine
 10
30.98980852378011
 20
4.448733786287832
 30
0.025
 11
31.17819641754169
 21
4.152254478072885
 31
0.025
  0
LINE
  5
20E
330
6F
100
AcDbEntity
  8
0
100
AcDbLine
 10
31.17819641754169
 20
4.152254478072885
 30
0.025
 11
31.28126930203829
 21
3.756562693020383
 31
0.025
  0
LINE
  5
20F
330
6F
100
AcDbEntity
  8
0
100
AcDbLine
 10
31.28126930203829
 20
3.756562693020383
 30
0.025
 11
31.31562693020383
 21
3.227300802964793
 31
0.025
  0
LINE
  5
210
330
6F
100
AcDbEntity
  8
0
100
AcDbLine
 10
31.31562693020383
 20
3.227300802964793
 30
0.025
 11
31.31562693020383
 21
2.683755404570723
 31
0.025
  0
LINE
  5
211
330
6F
100
AcDbEntity
  8
0
100
AcDbLine
 10
30.06485484867202
 20
3.350833848054354
 30
0.025
 11
30.06485484867202
 21
3.650401482396541
 31
0.025
  0
LINE
  5
212
330
6F
100
AcDbEntity
  8
0
100
AcDbLine
 10
30.06485484867202
 20
3.650401482396541
 30
0.025
 11
30.03088326127239
 21
4.061148857319333
 31
0.025
  0
LINE
  5
213
330
6F
100
AcDbEntity
  8
0
100
AcDbLine
 10
30.03088326127239
 20
4.061148857319333
 30
0.025
 11
29.97915379864114
 21
4.130636195182211
 31
0.025
  0
LINE
  5
214
330
6F
100
AcDbEntity
  8
0
100
AcDbLine
 10
29.97915379864114
 20
4.130636195182211
 30
0.025
 11
29.89190858554663
 21
4.153798641136504
 31
0.025
  0
LINE
  5
215
330
6F
100
AcDbEntity
  8
0
100
AcDbLine
 10
29.89190858554663
 20
4.153798641136504
 30
0.025
 11
29.7869054972205
 21
4.134110562075356
 31
0.025
  0
LINE
  5
216
330
6F
100
AcDbEntity
  8
0
100
AcDbLine
 10
29.7869054972205
 20
4.134110562075356
 30
0.025
 11
29.7313156269302
 21
4.075046324891908
 31
0.025
  0
LINE
  5
217
330
6F
100
AcDbEntity
  8
0
100
AcDbLine
 10
29.7313156269302
 20
4.075046324891908
 30
0.025
 11
29.70043236565781
 21
3.650401482396541
 31
0.025
  0
LINE
  5
218
330
6F
100
AcDbEntity
  8
0
100
AcDbLine
 10
29.70043236565781
 20
3.650401482396541
 30
0.025
 11
29.70043236565781
 21
3.350833848054354
 31
0.025
  0
LINE
  5
219
330
6F
100
AcDbEntity
  8
0
100
AcDbLine
 10
29.70043236565781
 20
3.350833848054354
 30
0.025
 11
30.06485484867202
 21
3.350833848054354
 31
0.025
  0
LINE
  5
21A
330
6F
100
AcDbEntity
  8
0
100
AcDbLine
 10
32.97096973440395
 20
4.805435453983941
 30
0.025
 11
32.92155651636813
 21
4.266522544780729
 31
0.025
  0
LINE
  5
21B
330
6F
100
AcDbEntity
  8
0
100
AcDbLine
 10
32.92155651636813
 20
4.266522544780729
 30
0.025
 11
33.07269147621989
 21
4.52194883029648
 31
0.025
  0
LINE
  5
21C
330
6F
100
AcDbEntity
  8
0
100
AcDbLine
 10
33.07269147621989
 20
4.52194883029648
 30
0.025
 11
33.25432365657814
 21
4.709263048177888
 31
0.025
  0
LINE
  5
21D
330
6F
100
AcDbEntity
  8
0
100
AcDbLine
 10
33.25432365657814
 20
4.709263048177888
 30
0.025
 11
33.46645305744287
 21
4.828465198424954
 31
0.025
  0
LINE
  5
21E
330
6F
100
AcDbEntity
  8
0
100
AcDbLine
 10
33.46645305744287
 20
4.828465198424954
 30
0.025
 11
33.70907967881408
 21
4.879555281037677
 31
0.025
  0
LINE
  5
21F
330
6F
100
AcDbEntity
  8
0
100
AcDbLine
 10
33.70907967881408
 20
4.879555281037677
 30
0.025
 11
33.70907967881408
 21
3.437306979617047
 31
0.025
  0
LINE
  5
220
330
6F
100
AcDbEntity
  8
0
100
AcDbLine
 10
33.70907967881408
 20
3.437306979617047
 30
0.025
 11
33.41182828906733
 21
3.414144533662755
 31
0.025
  0
LINE
  5
221
330
6F
100
AcDbEntity
  8
0
100
AcDbLine
 10
33.41182828906733
 20
3.414144533662755
 30
0.025
 11
33.20568252007412
 21
3.344657195799877
 31
0.025
  0
LINE
  5
222
330
6F
100
AcDbEntity
  8
0
100
AcDbLine
 10
33.20568252007412
 20
3.344657195799877
 30
0.025
 11
33.07597282273008
 21
3.233863495985176
 31
0.025
  0
LINE
  5
223
330
6F
100
AcDbEntity
  8
0
100
AcDbLine
 10
33.07597282273008
 20
3.233863495985176
 30
0.025
 11
33.00802964793083
 21
3.086781964175417
 31
0.025
  0
POLYLINE
  5
224
330
6F
100
AcDbEntity
  8
0
100
AcDb3dPolyline
 66
     1
 10
0.0
 20
0.0
 30
0.0
 70
     8
  0
VERTEX
  5
225
330
224
100
AcDbEntity
  8
0
100
AcDbVertex
100
AcDb3dPolylineVertex
 10
33.00802964793083
 20
3.086781964175417
 30
0.025
 70
    32
  0
VERTEX
  5
226
330
224
100
AcDbEntity
  8
0
100
AcDbVertex
100
AcDb3dPolylineVertex
 10
32.97096973440395
 20
2.325509573810995
 30
0.025
 70
    32
  0
VERTEX
  5
227
330
224
100
AcDbEntity
  8
0
100
AcDbVertex
100
AcDb3dPolylineVertex
 10
32.97096973440395
 20
0.7072266831377394
 30
0.025
 70
    32
  0
SEQEND
  5
228
330
224
100
AcDbEntity
  8
0
  0
LINE
  5
229
330
6F
100
AcDbEntity
  8
0
100
AcDbLine
 10
32.97096973440395
 20
0.7072266831377394
 30
0.025
 11
31.72328597899939
 21
0.7072266831377394
 31
0.025
  0
LINE
  5
22A
330
6F
100
AcDbEntity
  8
0
100
AcDbLine
 10
31.72328597899939
 20
0.7072266831377394
 30
0.025
 11
31.72328597899939
 21
4.805435453983941
 31
0.025
  0
LINE
  5
22B
330
6F
100
AcDbEntity
  8
0
100
AcDbLine
 10
31.72328597899939
 20
4.805435453983941
 30
0.025
 11
32.97096973440395
 21
4.805435453983941
 31
0.025
  0
ENDBLK
  5
71
330
6F
100
AcDbEntity
  8
0
100
AcDbBlockEnd
  0
BLOCK
  5
73
330
72
100
AcDbEntity
  8
0
100
AcDbBlockBegin
  2
1
 70
     0
 10
0.0
 20
0.0
 30
0.0
  3
1
  1

  0
LINE
  5
22C
330
72
100
AcDbEntity
  8
0
100
AcDbLine
 10
2.14638665843113
 20
5.0
 30
0.025
 11
2.14638665843113
 21
0.0
 31
0.025
  0
LINE
  5
22D
330
72
100
AcDbEntity
  8
0
100
AcDbLine
 10
2.14638665843113
 20
0.0
 30
0.025
 11
0.8987029030265598
 21
0.0
 31
0.025
  0
POLYLINE
  5
22E
330
72
100
AcDbEntity
  8
0
100
AcDb3dPolyline
 66
     1
 10
0.0
 20
0.0
 30
0.0
 70
     8
  0
VERTEX
  5
22F
330
22E
100
AcDbEntity
  8
0
100
AcDbVertex
100
AcDb3dPolylineVertex
 10
0.8987029030265598
 20
0.0
 30
0.025
 70
    32
  0
VERTEX
  5
230
330
22E
100
AcDbEntity
  8
0
100
AcDbVertex
100
AcDb3dPolylineVertex
 10
0.8987029030265598
 20
2.680667078443484
 30
0.025
 70
    32
  0
VERTEX
  5
231
330
22E
100
AcDbEntity
  8
0
100
AcDbVertex
100
AcDb3dPolylineVertex
 10
0.8709079678814082
 20
3.378628783199506
 30
0.025
 70
    32
  0
SEQEND
  5
232
330
22E
100
AcDbEntity
  8
0
  0
LINE
  5
233
330
72
100
AcDbEntity
  8
0
100
AcDbLine
 10
0.8709079678814082
 20
3.378628783199506
 30
0.025
 11
0.8187924644842494
 21
3.481701667696109
 31
0.025
  0
LINE
  5
234
330
72
100
AcDbEntity
  8
0
100
AcDbLine
 10
0.8187924644842494
 20
3.481701667696109
 30
0.025
 11
0.718035824583076
 21
3.556207535515751
 31
0.025
  0
LINE
  5
235
330
72
100
AcDbEntity
  8
0
100
AcDbLine
 10
0.718035824583076
 20
3.556207535515751
 30
0.025
 11
0.516136504014824
 21
3.601374305126621
 31
0.025
  0
LINE
  5
236
330
72
100
AcDbEntity
  8
0
100
AcDbLine
 10
0.516136504014824
 20
3.601374305126621
 30
0.025
 11
0.1605929586164299
 21
3.616429894996912
 31
0.025
  0
LINE
  5
237
330
72
100
AcDbEntity
  8
0
100
AcDbLine
 10
0.1605929586164299
 20
3.616429894996912
 30
0.025
 11
0.0370599135268684
 21
3.616429894996912
 31
0.025
  0
LINE
  5
238
330
72
100
AcDbEntity
  8
0
100
AcDbLine
 10
0.0370599135268684
 20
3.616429894996912
 30
0.025
 11
0.0370599135268684
 21
4.19935145151328
 31
0.025
  0
LINE
  5
239
330
72
100
AcDbEntity
  8
0
100
AcDbLine
 10
0.0370599135268684
 20
4.19935145151328
 30
0.025
 11
0.4622838171710933
 21
4.32242607319333
 31
0.025
  0
LINE
  5
23A
330
72
100
AcDbEntity
  8
0
100
AcDbLine
 10
0.4622838171710933
 20
4.32242607319333
 30
0.025
 11
0.8330759728227303
 21
4.496892371834465
 31
0.025
  0
LINE
  5
23B
330
72
100
AcDbEntity
  8
0
100
AcDbLine
 10
0.8330759728227303
 20
4.496892371834465
 30
0.025
 11
1.149436380481779
 21
4.72275034743669
 31
0.025
  0
LINE
  5
23C
330
72
100
AcDbEntity
  8
0
100
AcDbLine
 10
1.149436380481779
 20
4.72275034743669
 30
0.025
 11
1.41136504014824
 21
5.0
 31
0.025
  0
LINE
  5
23D
330
72
100
AcDbEntity
  8
0
100
AcDbLine
 10
1.41136504014824
 20
5.0
 30
0.025
 11
2.14638665843113
 21
5.0
 31
0.025
  0
ENDBLK
  5
74
330
72
100
AcDbEntity
  8
0
100
AcDbBlockEnd
  0
BLOCK
  5
76
330
75
100
AcDbEntity
  8
0
100
AcDbBlockBegin
  2
4
 70
     0
 10
0.0
 20
0.0
 30
0.0
  3
4
  1

  0
LINE
  5
23E
330
75
100
AcDbEntity
  8
0
100
AcDbLine
 10
2.767140210006177
 20
5.0
 30
0.025
 11
2.767140210006177
 21
1.7325509573811
 31
0.025
  0
LINE
  5
23F
330
75
100
AcDbEntity
  8
0
100
AcDbLine
 10
2.767140210006177
 20
1.7325509573811
 30
0.025
 11
3.122297714638666
 21
1.7325509573811
 31
0.025
  0
LINE
  5
240
330
75
100
AcDbEntity
  8
0
100
AcDbLine
 10
3.122297714638666
 20
1.7325509573811
 30
0.025
 11
3.122297714638666
 21
0.8801729462631254
 31
0.025
  0
LINE
  5
241
330
75
100
AcDbEntity
  8
0
100
AcDbLine
 10
3.122297714638666
 20
0.8801729462631254
 30
0.025
 11
2.767140210006177
 21
0.8801729462631254
 31
0.025
  0
LINE
  5
242
330
75
100
AcDbEntity
  8
0
100
AcDbLine
 10
2.767140210006177
 20
0.8801729462631254
 30
0.025
 11
2.767140210006177
 21
0.0
 31
0.025
  0
LINE
  5
243
330
75
100
AcDbEntity
  8
0
100
AcDbLine
 10
2.767140210006177
 20
0.0
 30
0.025
 11
1.519456454601606
 21
0.0
 31
0.025
  0
LINE
  5
244
330
75
100
AcDbEntity
  8
0
100
AcDbLine
 10
1.519456454601606
 20
0.0
 30
0.025
 11
1.519456454601606
 21
0.8801729462631254
 31
0.025
  0
LINE
  5
245
330
75
100
AcDbEntity
  8
0
100
AcDbLine
 10
1.519456454601606
 20
0.8801729462631254
 30
0.025
 11
0.0370599135268684
 21
0.8801729462631254
 31
0.025
  0
POLYLINE
  5
246
330
75
100
AcDbEntity
  8
0
100
AcDb3dPolyline
 66
     1
 10
0.0
 20
0.0
 30
0.0
 70
     8
  0
VERTEX
  5
247
330
246
100
AcDbEntity
  8
0
100
AcDbVertex
100
AcDb3dPolylineVertex
 10
0.0370599135268684
 20
0.8801729462631254
 30
0.025
 70
    32
  0
VERTEX
  5
248
330
246
100
AcDbEntity
  8
0
100
AcDbVertex
100
AcDb3dPolylineVertex
 10
0.0370599135268684
 20
1.7325509573811
 30
0.025
 70
    32
  0
VERTEX
  5
249
330
246
100
AcDbEntity
  8
0
100
AcDbVertex
100
AcDb3dPolylineVertex
 10
1.114885731933292
 20
5.0
 30
0.025
 70
    32
  0
SEQEND
  5
24A
330
246
100
AcDbEntity
  8
0
  0
LINE
  5
24B
330
75
100
AcDbEntity
  8
0
100
AcDbLine
 10
1.114885731933292
 20
5.0
 30
0.025
 11
2.767140210006177
 21
5.0
 31
0.025
  0
LINE
  5
24C
330
75
100
AcDbEntity
  8
0
100
AcDbLine
 10
1.519456454601606
 20
1.7325509573811
 30
0.025
 11
1.519456454601606
 21
3.860407659048795
 31
0.025
  0
LINE
  5
24D
330
75
100
AcDbEntity
  8
0
100
AcDbLine
 10
1.519456454601606
 20
3.860407659048795
 30
0.025
 11
0.9681902408894381
 21
1.7325509573811
 31
0.025
  0
LINE
  5
24E
330
75
100
AcDbEntity
  8
0
100
AcDbLine
 10
0.9681902408894381
 20
1.7325509573811
 30
0.025
 11
1.519456454601606
 21
1.7325509573811
 31
0.025
  0
ENDBLK
  5
77
330
75
100
AcDbEntity
  8
0
100
AcDbBlockEnd
  0
BLOCK
  5
79
330
78
100
AcDbEntity
  8
0
100
AcDbBlockBegin
  2
3
 70
     0
 10
0.0
 20
0.0
 30
0.0
  3
3
  1

  0
LINE
  5
24F
330
78
100
AcDbEntity
  8
0
100
AcDbLine
 10
2.566399011735639
 20
2.932365657813465
 30
0.025
 11
2.814237183446572
 21
2.806063976605929
 31
0.025
  0
LINE
  5
250
330
78
100
AcDbEntity
  8
0
100
AcDbLine
 10
2.814237183446572
 20
2.806063976605929
 30
0.025
 11
2.989499691167387
 21
2.618731663063619
 31
0.025
  0
LINE
  5
251
330
78
100
AcDbEntity
  8
0
100
AcDbLine
 10
2.989499691167387
 20
2.618731663063619
 30
0.025
 11
3.093730697961705
 21
2.254496168545398
 31
0.025
  0
LINE
  5
252
330
78
100
AcDbEntity
  8
0
100
AcDbLine
 10
3.093730697961705
 20
2.254496168545398
 30
0.025
 11
3.128474366893144
 21
1.59748494441013
 31
0.025
  0
LINE
  5
253
330
78
100
AcDbEntity
  8
0
100
AcDbLine
 10
3.128474366893144
 20
1.59748494441013
 30
0.025
 11
3.094502779493514
 21
1.067963683214948
 31
0.025
  0
LINE
  5
254
330
78
100
AcDbEntity
  8
0
100
AcDbLine
 10
3.094502779493514
 20
1.067963683214948
 30
0.025
 11
2.992588017294626
 21
0.6720728458925262
 31
0.025
  0
LINE
  5
255
330
78
100
AcDbEntity
  8
0
100
AcDbLine
 10
2.992588017294626
 20
0.6720728458925262
 30
0.025
 11
2.807288449660284
 21
0.382391474289685
 31
0.025
  0
LINE
  5
256
330
78
100
AcDbEntity
  8
0
100
AcDbLine
 10
2.807288449660284
 20
0.382391474289685
 30
0.025
 11
2.523162445954293
 21
0.1714986102532428
 31
0.025
  0
LINE
  5
257
330
78
100
AcDbEntity
  8
0
100
AcDbLine
 10
2.523162445954293
 20
0.1714986102532428
 30
0.025
 11
2.142526250772082
 21
0.0428746525633107
 31
0.025
  0
LINE
  5
258
330
78
100
AcDbEntity
  8
0
100
AcDbLine
 10
2.142526250772082
 20
0.0428746525633107
 30
0.025
 11
1.66769610870908
 21
0.0
 31
0.025
  0
LINE
  5
259
330
78
100
AcDbEntity
  8
0
100
AcDbLine
 10
1.66769610870908
 20
0.0
 30
0.025
 11
1.13843421865349
 21
0.0497992588017295
 31
0.025
  0
LINE
  5
25A
330
78
100
AcDbEntity
  8
0
100
AcDbLine
 10
1.13843421865349
 20
0.0497992588017295
 30
0.025
 11
0.7365657813465103
 21
0.1991970352069178
 31
0.025
  0
LINE
  5
25B
330
78
100
AcDbEntity
  8
0
100
AcDbLine
 10
0.7365657813465103
 20
0.1991970352069178
 30
0.025
 11
0.4563001852995677
 21
0.4207844348363187
 31
0.025
  0
LINE
  5
25C
330
78
100
AcDbEntity
  8
0
100
AcDbLine
 10
0.4563001852995677
 20
0.4207844348363187
 30
0.025
 11
0.2918468190240889
 21
0.6871525633106856
 31
0.025
  0
LINE
  5
25D
330
78
100
AcDbEntity
  8
0
100
AcDbLine
 10
0.2918468190240889
 20
0.6871525633106856
 30
0.025
 11
0.2119363804817789
 21
1.082072266831378
 31
0.025
  0
LINE
  5
25E
330
78
100
AcDbEntity
  8
0
100
AcDbLine
 10
0.2119363804817789
 20
1.082072266831378
 30
0.025
 11
0.1852995676343422
 21
1.689314391599753
 31
0.025
  0
LINE
  5
25F
330
78
100
AcDbEntity
  8
0
100
AcDbLine
 10
0.1852995676343422
 20
1.689314391599753
 30
0.025
 11
0.1852995676343422
 21
2.08462013588635
 31
0.025
  0
LINE
  5
260
330
78
100
AcDbEntity
  8
0
100
AcDbLine
 10
0.1852995676343422
 20
2.08462013588635
 30
0.025
 11
1.432983323038913
 21
2.08462013588635
 31
0.025
  0
LINE
  5
261
330
78
100
AcDbEntity
  8
0
100
AcDbLine
 10
1.432983323038913
 20
2.08462013588635
 30
0.025
 11
1.432983323038913
 21
1.272390364422483
 31
0.025
  0
LINE
  5
262
330
78
100
AcDbEntity
  8
0
100
AcDbLine
 10
1.432983323038913
 20
1.272390364422483
 30
0.025
 11
1.471587399629401
 21
0.8600988264360716
 31
0.025
  0
LINE
  5
263
330
78
100
AcDbEntity
  8
0
100
AcDbLine
 10
1.471587399629401
 20
0.8600988264360716
 30
0.025
 11
1.533739962940087
 21
0.7940858554663373
 31
0.025
  0
LINE
  5
264
330
78
100
AcDbEntity
  8
0
100
AcDbLine
 10
1.533739962940087
 20
0.7940858554663373
 30
0.025
 11
1.642989499691167
 21
0.7720815318097591
 31
0.025
  0
LINE
  5
265
330
78
100
AcDbEntity
  8
0
100
AcDbLine
 10
1.642989499691167
 20
0.7720815318097591
 30
0.025
 11
1.76343421865349
 21
0.7998764669549103
 31
0.025
  0
LINE
  5
266
330
78
100
AcDbEntity
  8
0
100
AcDbLine
 10
1.76343421865349
 20
0.7998764669549103
 30
0.025
 11
1.834465719579988
 21
0.8832612723903644
 31
0.025
  0
LINE
  5
267
330
78
100
AcDbEntity
  8
0
100
AcDbLine
 10
1.834465719579988
 20
0.8832612723903644
 30
0.025
 11
1.880790611488573
 21
1.463866584311303
 31
0.025
  0
LINE
  5
268
330
78
100
AcDbEntity
  8
0
100
AcDbLine
 10
1.880790611488573
 20
1.463866584311303
 30
0.025
 11
1.880790611488573
 21
1.809759110562075
 31
0.025
  0
LINE
  5
269
330
78
100
AcDbEntity
  8
0
100
AcDbLine
 10
1.880790611488573
 20
1.809759110562075
 30
0.025
 11
1.864576899320568
 21
2.058369363804818
 31
0.025
  0
LINE
  5
26A
330
78
100
AcDbEntity
  8
0
100
AcDbLine
 10
1.864576899320568
 20
2.058369363804818
 30
0.025
 11
1.815935762816554
 21
2.229771463866584
 31
0.025
  0
LINE
  5
26B
330
78
100
AcDbEntity
  8
0
100
AcDbLine
 10
1.815935762816554
 20
2.229771463866584
 30
0.025
 11
1.735639283508339
 21
2.339793082149475
 31
0.025
  0
LINE
  5
26C
330
78
100
AcDbEntity
  8
0
100
AcDbLine
 10
1.735639283508339
 20
2.339793082149475
 30
0.025
 11
1.624459542927733
 21
2.40426189005559
 31
0.025
  0
LINE
  5
26D
330
78
100
AcDbEntity
  8
0
100
AcDbLine
 10
1.624459542927733
 20
2.40426189005559
 30
0.025
 11
1.133415688696726
 21
2.452130945027795
 31
0.025
  0
LINE
  5
26E
330
78
100
AcDbEntity
  8
0
100
AcDbLine
 10
1.133415688696726
 20
2.452130945027795
 30
0.025
 11
1.133415688696726
 21
3.177887584928969
 31
0.025
  0
LINE
  5
26F
330
78
100
AcDbEntity
  8
0
100
AcDbLine
 10
1.133415688696726
 20
3.177887584928969
 30
0.025
 11
1.683137739345275
 21
3.211859172328598
 31
0.025
  0
LINE
  5
270
330
78
100
AcDbEntity
  8
0
100
AcDbLine
 10
1.683137739345275
 20
3.211859172328598
 30
0.025
 11
1.773471278567017
 21
3.265904879555281
 31
0.025
  0
LINE
  5
271
330
78
100
AcDbEntity
  8
0
100
AcDbLine
 10
1.773471278567017
 20
3.265904879555281
 30
0.025
 11
1.834465719579988
 21
3.360098826436072
 31
0.025
  0
LINE
  5
272
330
78
100
AcDbEntity
  8
0
100
AcDbLine
 10
1.834465719579988
 20
3.360098826436072
 30
0.025
 11
1.880790611488573
 21
3.7183446571958
 31
0.025
  0
LINE
  5
273
330
78
100
AcDbEntity
  8
0
100
AcDbLine
 10
1.880790611488573
 20
3.7183446571958
 30
0.025
 11
1.880790611488573
 21
3.996294008647313
 31
0.025
  0
LINE
  5
274
330
78
100
AcDbEntity
  8
0
100
AcDbLine
 10
1.880790611488573
 20
3.996294008647313
 30
0.025
 11
1.867279184681902
 21
4.214021000617666
 31
0.025
  0
LINE
  5
275
330
78
100
AcDbEntity
  8
0
100
AcDbLine
 10
1.867279184681902
 20
4.214021000617666
 30
0.025
 11
1.82674490426189
 21
4.342186534898086
 31
0.025
  0
LINE
  5
276
330
78
100
AcDbEntity
  8
0
100
AcDbLine
 10
1.82674490426189
 20
4.342186534898086
 30
0.025
 11
1.757643607164917
 21
4.404725138974676
 31
0.025
  0
LINE
  5
277
330
78
100
AcDbEntity
  8
0
100
AcDbLine
 10
1.757643607164917
 20
4.404725138974676
 30
0.025
 11
1.658431130327363
 21
4.425571340333539
 31
0.025
  0
LINE
  5
278
330
78
100
AcDbEntity
  8
0
100
AcDbLine
 10
1.658431130327363
 20
4.425571340333539
 30
0.025
 11
1.549181593576282
 21
4.403567016676961
 31
0.025
  0
LINE
  5
279
330
78
100
AcDbEntity
  8
0
100
AcDbLine
 10
1.549181593576282
 20
4.403567016676961
 30
0.025
 11
1.480852378011118
 21
4.337554045707226
 31
0.025
  0
LINE
  5
27A
330
78
100
AcDbEntity
  8
0
100
AcDbLine
 10
1.480852378011118
 20
4.337554045707226
 30
0.025
 11
1.432983323038913
 21
3.962322421247684
 31
0.025
  0
LINE
  5
27B
330
78
100
AcDbEntity
  8
0
100
AcDbLine
 10
1.432983323038913
 20
3.962322421247684
 30
0.025
 11
1.432983323038913
 21
3.551575046324892
 31
0.025
  0
LINE
  5
27C
330
78
100
AcDbEntity
  8
0
100
AcDbLine
 10
1.432983323038913
 20
3.551575046324892
 30
0.025
 11
0.1852995676343422
 21
3.551575046324892
 31
0.025
  0
LINE
  5
27D
330
78
100
AcDbEntity
  8
0
100
AcDbLine
 10
0.1852995676343422
 20
3.551575046324892
 30
0.025
 11
0.1852995676343422
 21
3.977764051883879
 31
0.025
  0
LINE
  5
27E
330
78
100
AcDbEntity
  8
0
100
AcDbLine
 10
0.1852995676343422
 20
3.977764051883879
 30
0.025
 11
0.2057597282273008
 21
4.306960315009265
 31
0.025
  0
LINE
  5
27F
330
78
100
AcDbEntity
  8
0
100
AcDbLine
 10
0.2057597282273008
 20
4.306960315009265
 30
0.025
 11
0.2671402100061767
 21
4.578057442865966
 31
0.025
  0
LINE
  5
280
330
78
100
AcDbEntity
  8
0
100
AcDbLine
 10
0.2671402100061767
 20
4.578057442865966
 30
0.025
 11
0.3694410129709698
 21
4.791055435453984
 31
0.025
  0
LINE
  5
281
330
78
100
AcDbEntity
  8
0
100
AcDbLine
 10
0.3694410129709698
 20
4.791055435453984
 30
0.025
 11
0.5126621371216801
 21
4.945954292773317
 31
0.025
  0
LINE
  5
282
330
78
100
AcDbEntity
  8
0
100
AcDbLine
 10
0.5126621371216801
 20
4.945954292773317
 30
0.025
 11
0.700470969734404
 21
5.056072421247683
 31
0.025
  0
LINE
  5
283
330
78
100
AcDbEntity
  8
0
100
AcDbLine
 10
0.700470969734404
 20
5.056072421247683
 30
0.025
 11
0.9365348980852379
 21
5.134728227300803
 31
0.025
  0
LINE
  5
284
330
78
100
AcDbEntity
  8
0
100
AcDbLine
 10
0.9365348980852379
 20
5.134728227300803
 30
0.025
 11
1.553428042001235
 21
5.197652872143299
 31
0.025
  0
LINE
  5
285
330
78
100
AcDbEntity
  8
0
100
AcDbLine
 10
1.553428042001235
 20
5.197652872143299
 30
0.025
 11
1.963789376158122
 21
5.175856648587091
 31
0.025
  0
LINE
  5
286
330
78
100
AcDbEntity
  8
0
100
AcDbLine
 10
1.963789376158122
 20
5.175856648587091
 30
0.025
 11
2.302347127856702
 21
5.110467977918468
 31
0.025
  0
LINE
  5
287
330
78
100
AcDbEntity
  8
0
100
AcDbLine
 10
2.302347127856702
 20
5.110467977918468
 30
0.025
 11
2.569101297096974
 21
5.00148686013743
 31
0.025
  0
LINE
  5
288
330
78
100
AcDbEntity
  8
0
100
AcDbLine
 10
2.569101297096974
 20
5.00148686013743
 30
0.025
 11
2.764051883878938
 21
4.848913295243978
 31
0.025
  0
LINE
  5
289
330
78
100
AcDbEntity
  8
0
100
AcDbLine
 10
2.764051883878938
 20
4.848913295243978
 30
0.025
 11
2.903219579987647
 21
4.657569776868438
 31
0.025
  0
LINE
  5
28A
330
78
100
AcDbEntity
  8
0
100
AcDbLine
 10
2.903219579987647
 20
4.657569776868438
 30
0.025
 11
3.002625077208154
 21
4.432278798641136
 31
0.025
  0
LINE
  5
28B
330
78
100
AcDbEntity
  8
0
100
AcDbLine
 10
3.002625077208154
 20
4.432278798641136
 30
0.025
 11
3.062268375540457
 21
4.173040360562076
 31
0.025
  0
LINE
  5
28C
330
78
100
AcDbEntity
  8
0
100
AcDbLine
 10
3.062268375540457
 20
4.173040360562076
 30
0.025
 11
3.082149474984559
 21
3.879854462631254
 31
0.025
  0
LINE
  5
28D
330
78
100
AcDbEntity
  8
0
100
AcDbLine
 10
3.082149474984559
 20
3.879854462631254
 30
0.025
 11
3.053582458307597
 21
3.51838157234404
 31
0.025
  0
LINE
  5
28E
330
78
100
AcDbEntity
  8
0
100
AcDbLine
 10
3.053582458307597
 20
3.51838157234404
 30
0.025
 11
2.967881408276714
 21
3.273408546942557
 31
0.025
  0
LINE
  5
28F
330
78
100
AcDbEntity
  8
0
100
AcDbLine
 10
2.967881408276714
 20
3.273408546942557
 30
0.025
 11
2.810376775787523
 21
3.094786278180976
 31
0.025
  0
LINE
  5
290
330
78
100
AcDbEntity
  8
0
100
AcDbLine
 10
2.810376775787523
 20
3.094786278180976
 30
0.025
 11
2.566399011735639
 21
2.932365657813465
 31
0.025
  0
ENDBLK
  5
7A
330
78
100
AcDbEntity
  8
0
100
AcDbBlockEnd
  0
BLOCK
  5
7C
330
7B
100
AcDbEntity
  8
0
100
AcDbBlockBegin
  2
2
 70
     0
 10
0.0
 20
0.0
 30
0.0
  3
2
  1

  0
LINE
  5
291
330
7B
100
AcDbEntity
  8
0
100
AcDbLine
 10
2.912291537986412
 20
0.8523780111179741
 30
0.025
 11
2.912291537986412
 21
0.0
 31
0.025
  0
LINE
  5
292
330
7B
100
AcDbEntity
  8
0
100
AcDbLine
 10
2.912291537986412
 20
0.0
 30
0.025
 11
0.166769610870908
 21
0.0
 31
0.025
  0
LINE
  5
293
330
7B
100
AcDbEntity
  8
0
100
AcDbLine
 10
0.166769610870908
 20
0.0
 30
0.025
 11
0.1675416924027177
 21
0.7134033353922175
 31
0.025
  0
POLYLINE
  5
294
330
7B
100
AcDbEntity
  8
0
100
AcDb3dPolyline
 66
     1
 10
0.0
 20
0.0
 30
0.0
 70
     8
  0
VERTEX
  5
295
330
294
100
AcDbEntity
  8
0
100
AcDbVertex
100
AcDb3dPolylineVertex
 10
0.1675416924027177
 20
0.7134033353922175
 30
0.025
 70
    32
  0
VERTEX
  5
296
330
294
100
AcDbEntity
  8
0
100
AcDbVertex
100
AcDb3dPolylineVertex
 10
1.139978381717109
 20
2.328211859172329
 30
0.025
 70
    32
  0
VERTEX
  5
297
330
294
100
AcDbEntity
  8
0
100
AcDbVertex
100
AcDb3dPolylineVertex
 10
1.617510809141446
 20
3.182520074119827
 30
0.025
 70
    32
  0
SEQEND
  5
298
330
294
100
AcDbEntity
  8
0
  0
LINE
  5
299
330
7B
100
AcDbEntity
  8
0
100
AcDbLine
 10
1.617510809141446
 20
3.182520074119827
 30
0.025
 11
1.790071031500927
 21
3.604462631253861
 31
0.025
  0
LINE
  5
29A
330
7B
100
AcDbEntity
  8
0
100
AcDbLine
 10
1.790071031500927
 20
3.604462631253861
 30
0.025
 11
1.847591105620754
 21
3.922174181593576
 31
0.025
  0
LINE
  5
29B
330
7B
100
AcDbEntity
  8
0
100
AcDbLine
 10
1.847591105620754
 20
3.922174181593576
 30
0.025
 11
1.830195143607165
 21
4.100138974675725
 31
0.025
  0
LINE
  5
29C
330
7B
100
AcDbEntity
  8
0
100
AcDbLine
 10
1.830195143607165
 20
4.100138974675725
 30
0.025
 11
1.778007257566399
 21
4.226374305126622
 31
0.025
  0
LINE
  5
29D
330
7B
100
AcDbEntity
  8
0
100
AcDbLine
 10
1.778007257566399
 20
4.226374305126622
 30
0.025
 11
1.690255365966646
 21
4.301652254478073
 31
0.025
  0
LINE
  5
29E
330
7B
100
AcDbEntity
  8
0
100
AcDbLine
 10
1.690255365966646
 20
4.301652254478073
 30
0.025
 11
1.566167387276096
 21
4.32674490426189
 31
0.025
  0
LINE
  5
29F
330
7B
100
AcDbEntity
  8
0
100
AcDbLine
 10
1.566167387276096
 20
4.32674490426189
 30
0.025
 11
1.442079408585547
 21
4.298949969116739
 31
0.025
  0
LINE
  5
2A0
330
7B
100
AcDbEntity
  8
0
100
AcDbLine
 10
1.442079408585547
 20
4.298949969116739
 30
0.025
 11
1.354327516985794
 21
4.215565163681285
 31
0.025
  0
LINE
  5
2A1
330
7B
100
AcDbEntity
  8
0
100
AcDbLine
 10
1.354327516985794
 20
4.215565163681285
 30
0.025
 11
1.302139630945028
 21
4.049567634342187
 31
0.025
  0
LINE
  5
2A2
330
7B
100
AcDbEntity
  8
0
100
AcDbLine
 10
1.302139630945028
 20
4.049567634342187
 30
0.025
 11
1.284743668931439
 21
3.773934527486103
 31
0.025
  0
LINE
  5
2A3
330
7B
100
AcDbEntity
  8
0
100
AcDbLine
 10
1.284743668931439
 20
3.773934527486103
 30
0.025
 11
1.284743668931439
 21
3.298332303891292
 31
0.025
  0
LINE
  5
2A4
330
7B
100
AcDbEntity
  8
0
100
AcDbLine
 10
1.284743668931439
 20
3.298332303891292
 30
0.025
 11
0.166769610870908
 21
3.298332303891292
 31
0.025
  0
LINE
  5
2A5
330
7B
100
AcDbEntity
  8
0
100
AcDbLine
 10
0.166769610870908
 20
3.298332303891292
 30
0.025
 11
0.166769610870908
 21
3.480543545398394
 31
0.025
  0
LINE
  5
2A6
330
7B
100
AcDbEntity
  8
0
100
AcDbLine
 10
0.166769610870908
 20
3.480543545398394
 30
0.025
 11
0.2100061766522545
 21
4.142989499691168
 31
0.025
  0
LINE
  5
2A7
330
7B
100
AcDbEntity
  8
0
100
AcDbLine
 10
0.2100061766522545
 20
4.142989499691168
 30
0.025
 11
0.2848980852378011
 21
4.383492896849907
 31
0.025
  0
LINE
  5
2A8
330
7B
100
AcDbEntity
  8
0
100
AcDbLine
 10
0.2848980852378011
 20
4.383492896849907
 30
0.025
 11
0.423100679431748
 21
4.620135886349598
 31
0.025
  0
LINE
  5
2A9
330
7B
100
AcDbEntity
  8
0
100
AcDbLine
 10
0.423100679431748
 20
4.620135886349598
 30
0.025
 11
0.6184373069796171
 21
4.826281655342805
 31
0.025
  0
LINE
  5
2AA
330
7B
100
AcDbEntity
  8
0
100
AcDbLine
 10
0.6184373069796171
 20
4.826281655342805
 30
0.025
 11
0.8647313156269303
 21
4.975293390982088
 31
0.025
  0
LINE
  5
2AB
330
7B
100
AcDbEntity
  8
0
100
AcDbLine
 10
0.8647313156269303
 20
4.975293390982088
 30
0.025
 11
1.163526868437307
 21
5.06562693020383
 31
0.025
  0
LINE
  5
2AC
330
7B
100
AcDbEntity
  8
0
100
AcDbLine
 10
1.163526868437307
 20
5.06562693020383
 30
0.025
 11
1.516368128474367
 21
5.095738109944411
 31
0.025
  0
LINE
  5
2AD
330
7B
100
AcDbEntity
  8
0
100
AcDbLine
 10
1.516368128474367
 20
5.095738109944411
 30
0.025
 11
1.865831531809759
 21
5.072672174181593
 31
0.025
  0
LINE
  5
2AE
330
7B
100
AcDbEntity
  8
0
100
AcDbLine
 10
1.865831531809759
 20
5.072672174181593
 30
0.025
 11
2.169935145151328
 21
5.003474366893144
 31
0.025
  0
LINE
  5
2AF
330
7B
100
AcDbEntity
  8
0
100
AcDbLine
 10
2.169935145151328
 20
5.003474366893144
 30
0.025
 11
2.428678968499073
 21
4.888144688079062
 31
0.025
  0
LINE
  5
2B0
330
7B
100
AcDbEntity
  8
0
100
AcDbLine
 10
2.428678968499073
 20
4.888144688079062
 30
0.025
 11
2.642063001852996
 21
4.726683137739346
 31
0.025
  0
LINE
  5
2B1
330
7B
100
AcDbEntity
  8
0
100
AcDbLine
 10
2.642063001852996
 20
4.726683137739346
 30
0.025
 11
2.80892912291538
 21
4.529898857319333
 31
0.025
  0
LINE
  5
2B2
330
7B
100
AcDbEntity
  8
0
100
AcDbLine
 10
2.80892912291538
 20
4.529898857319333
 30
0.025
 11
2.928119209388512
 21
4.30860098826436
 31
0.025
  0
LINE
  5
2B3
330
7B
100
AcDbEntity
  8
0
100
AcDbLine
 10
2.928119209388512
 20
4.30860098826436
 30
0.025
 11
2.99963326127239
 21
4.062789530574429
 31
0.025
  0
LINE
  5
2B4
330
7B
100
AcDbEntity
  8
0
100
AcDbLine
 10
2.99963326127239
 20
4.062789530574429
 30
0.025
 11
3.023471278567017
 21
3.792464484249537
 31
0.025
  0
LINE
  5
2B5
330
7B
100
AcDbEntity
  8
0
100
AcDbLine
 10
3.023471278567017
 20
3.792464484249537
 30
0.025
 11
2.969805580219271
 21
3.350833848054354
 31
0.025
  0
LINE
  5
2B6
330
7B
100
AcDbEntity
  8
0
100
AcDbLine
 10
2.969805580219271
 20
3.350833848054354
 30
0.025
 11
2.808808485176035
 21
2.88449660284126
 31
0.025
  0
POLYLINE
  5
2B7
330
7B
100
AcDbEntity
  8
0
100
AcDb3dPolyline
 66
     1
 10
0.0
 20
0.0
 30
0.0
 70
     8
  0
VERTEX
  5
2B8
330
2B7
100
AcDbEntity
  8
0
100
AcDbVertex
100
AcDb3dPolylineVertex
 10
2.808808485176035
 20
2.88449660284126
 30
0.025
 70
    32
  0
VERTEX
  5
2B9
330
2B7
100
AcDbEntity
  8
0
100
AcDbVertex
100
AcDb3dPolylineVertex
 10
2.385291605543546
 20
2.137121680049413
 30
0.025
 70
    32
  0
VERTEX
  5
2BA
330
2B7
100
AcDbEntity
  8
0
100
AcDbVertex
100
AcDb3dPolylineVertex
 10
1.544066553428042
 20
0.8523780111179741
 30
0.025
 70
    32
  0
SEQEND
  5
2BB
330
2B7
100
AcDbEntity
  8
0
  0
LINE
  5
2BC
330
7B
100
AcDbEntity
  8
0
100
AcDbLine
 10
1.544066553428042
 20
0.8523780111179741
 30
0.025
 11
2.912291537986412
 21
0.8523780111179741
 31
0.025
  0
ENDBLK
  5
7D
330
7B
100
AcDbEntity
  8
0
100
AcDbBlockEnd
  0
BLOCK
  5
7F
330
7E
100
AcDbEntity
  8
0
100
AcDbBlockBegin
  2
Group_55
 70
     0
 10
0.0
 20
0.0
 30
0.0
  3
Group_55
  1

  0
POLYLINE
  5
2BD
330
7E
100
AcDbEntity
  8
0
100
AcDb3dPolyline
 66
     1
 10
0.0
 20
0.0
 30
0.0
 70
     8
  0
VERTEX
  5
2BE
330
2BD
100
AcDbEntity
  8
0
100
AcDbVertex
100
AcDb3dPolylineVertex
 10
-17.79999999999974
 20
-10.31440227814615
 30
0.0020054766536349
 70
    32
  0
VERTEX
  5
2BF
330
2BD
100
AcDbEntity
  8
0
100
AcDbVertex
100
AcDb3dPolylineVertex
 10
-18.19157852312197
 20
-10.34006772210034
 30
0.0017975006322712
 70
    32
  0
VERTEX
  5
2C0
330
2BD
100
AcDbEntity
  8
0
100
AcDbVertex
100
AcDb3dPolylineVertex
 10
-18.57645703098735
 20
-10.41662484790979
 30
0.0016007546883527
 70
    32
  0
VERTEX
  5
2C1
330
2BD
100
AcDbEntity
  8
0
100
AcDbVertex
100
AcDb3dPolylineVertex
 10
-18.94805014742644
 20
-10.54276374228602
 30
0.0014186051986005
 70
    32
  0
VERTEX
  5
2C2
330
2BD
100
AcDbEntity
  8
0
100
AcDbVertex
100
AcDb3dPolylineVertex
 10
-19.29999981293825
 20
-10.71632613436655
 30
0.0012541687904309
 70
    32
  0
VERTEX
  5
2C3
330
2BD
100
AcDbEntity
  8
0
100
AcDbVertex
100
AcDb3dPolylineVertex
 10
-19.62628407282047
 20
-10.93434232431803
 30
0.0011102590156076
 70
    32
  0
VERTEX
  5
2C4
330
2BD
100
AcDbEntity
  8
0
100
AcDbVertex
100
AcDb3dPolylineVertex
 10
-19.92132011445669
 20
-11.19308199570919
 30
0.0009893382095988
 70
    32
  0
VERTEX
  5
2C5
330
2BD
100
AcDbEntity
  8
0
100
AcDbVertex
100
AcDb3dPolylineVertex
 10
-20.18005979076155
 20
-11.4881180422422
 30
0.0008934753603555
 70
    32
  0
VERTEX
  5
2C6
330
2BD
100
AcDbEntity
  8
0
100
AcDbVertex
100
AcDb3dPolylineVertex
 10
-20.39807599535295
 20
-11.81440231674778
 30
0.0008243107073523
 70
    32
  0
VERTEX
  5
2C7
330
2BD
100
AcDbEntity
  8
0
100
AcDbVertex
100
AcDb3dPolylineVertex
 10
-20.57163841154946
 20
-12.16635200635927
 30
0.0007830276766573
 70
    32
  0
VERTEX
  5
2C8
330
2BD
100
AcDbEntity
  8
0
100
AcDbVertex
100
AcDb3dPolylineVertex
 10
-20.69777733910463
 20
-12.53794515596232
 30
0.0007703326321742
 70
    32
  0
VERTEX
  5
2C9
330
2BD
100
AcDbEntity
  8
0
100
AcDbVertex
100
AcDb3dPolylineVertex
 10
-20.77433450658855
 20
-12.92282370548818
 30
0.0007864427895733
 70
    32
  0
VERTEX
  5
2CA
330
2BD
100
AcDbEntity
  8
0
100
AcDbVertex
100
AcDb3dPolylineVertex
 10
-20.79999999999987
 20
-13.31440227805452
 30
0.0008310824996748
 70
    32
  0
SEQEND
  5
2CB
330
2BD
100
AcDbEntity
  8
0
  0
ARC
  5
2CC
330
7E
100
AcDbEntity
  8
0
100
AcDbCircle
 10
8.000000534044696
 20
67.06296518979055
 30
-0.0028981754788445
 40
2.999999999999972
210
0.0
220
0.0
230
-1.0
100
AcDbArc
 50
270.0
 51
0.0
  0
LINE
  5
2CD
330
7E
100
AcDbEntity
  8
0
100
AcDbLine
 10
-8.000000534044696
 20
64.0629651897906
 30
0.0028981754788445
 11
-0.0000005340446208
 21
64.0629651897906
 31
0.0028981754788445
  0
ARC
  5
2CE
330
7E
100
AcDbEntity
  8
0
100
AcDbCircle
 10
99.01945943915938
 20
176.1560234324525
 30
0.0000000000360307
 40
77.28922209515831
100
AcDbArc
 50
268.6510799956406
 51
301.7840916646061
  0
LINE
  5
2CF
330
7E
100
AcDbEntity
  8
0
100
AcDbLine
 10
139.7163563662559
 20
110.4779373198875
 30
0.0000000000360307
 11
140.1360851502976
 21
110.7033223609445
 31
0.0000000000359546
  0
LINE
  5
2D0
330
7E
100
AcDbEntity
  8
0
100
AcDbLine
 10
140.1360851502976
 20
110.7033223609445
 30
0.0000000000359546
 11
140.5804490360434
 21
110.8751112020558
 31
0.000000000035729
  0
LINE
  5
2D1
330
7E
100
AcDbEntity
  8
0
100
AcDbLine
 10
140.5804490360434
 20
110.8751112020558
 30
0.000000000035729
 11
141.042635963242
 21
110.9906703350233
 31
0.0000000000353596
  0
LINE
  5
2D2
330
7E
100
AcDbEntity
  8
0
100
AcDbLine
 10
141.042635963242
 20
110.9906703350233
 30
0.0000000000353596
 11
141.5155606459455
 21
111.0482282482509
 31
0.0000000000348491
  0
LINE
  5
2D3
330
7E
100
AcDbEntity
  8
0
100
AcDbLine
 10
141.5155606459455
 20
111.0482282482509
 30
0.0000000000348491
 11
141.9919731893355
 21
111.0469025838664
 31
0.0000000000342034
  0
LINE
  5
2D4
330
7E
100
AcDbEntity
  8
0
100
AcDbLine
 10
141.9919731893355
 20
111.0469025838664
 30
0.0000000000342034
 11
142.4645702299883
 21
110.9867136641909
 31
0.0000000000334363
  0
LINE
  5
2D5
330
7E
100
AcDbEntity
  8
0
100
AcDbLine
 10
142.4645702299883
 20
110.9867136641909
 30
0.0000000000334363
 11
142.9261068958096
 21
110.8685841802001
 31
0.0000000000325593
  0
LINE
  5
2D6
330
7E
100
AcDbEntity
  8
0
100
AcDbLine
 10
142.9261068958096
 20
110.8685841802001
 30
0.0000000000325593
 11
143.3695078693029
 21
110.6943250467506
 31
0.0000000000315836
  0
LINE
  5
2D7
330
7E
100
AcDbEntity
  8
0
100
AcDbLine
 10
143.3695078693029
 20
110.6943250467506
 30
0.0000000000315836
 11
143.7879758515793
 21
110.4666076414102
 31
0.0000000000305261
  0
LINE
  5
2D8
330
7E
100
AcDbEntity
  8
0
100
AcDbLine
 10
143.7879758515793
 20
110.4666076414102
 30
0.0000000000305261
 11
144.1750957643664
 21
110.1889228524693
 31
0.000000000029401
  0
LINE
  5
2D9
330
7E
100
AcDbEntity
  8
0
100
AcDbLine
 10
144.1750957643664
 20
110.1889228524693
 30
0.000000000029401
 11
144.5249330926081
 21
109.8655275639228
 31
0.0000000000282279
  0
ARC
  5
2DA
330
7E
100
AcDbEntity
  8
0
100
AcDbCircle
 10
141.3680232475421
 20
107.5013793993091
 30
0.0000000000180168
 40
3.999999996987996
100
AcDbArc
 50
270.0000000000155
 51
36.82882362002837
  0
POLYLINE
  5
2DB
330
7E
100
AcDbEntity
  8
0
100
AcDb3dPolyline
 66
     1
 10
0.0
 20
0.0
 30
0.0
 70
     8
  0
VERTEX
  5
2DC
330
2DB
100
AcDbEntity
  8
0
100
AcDbVertex
100
AcDb3dPolylineVertex
 10
-20.80000000007712
 20
-43.81440216445081
 30
0.0000177579578932
 70
    32
  0
VERTEX
  5
2DD
330
2DB
100
AcDbEntity
  8
0
100
AcDbVertex
100
AcDb3dPolylineVertex
 10
-20.77433458420585
 20
-44.2059807408964
 30
0.0000081056377683
 70
    32
  0
VERTEX
  5
2DE
330
2DB
100
AcDbEntity
  8
0
100
AcDbVertex
100
AcDb3dPolylineVertex
 10
-20.69777747897352
 20
-44.5908592993478
 30
-0.0000007811395213
 70
    32
  0
VERTEX
  5
2DF
330
2DB
100
AcDbEntity
  8
0
100
AcDbVertex
100
AcDb3dPolylineVertex
 10
-20.57163859767636
 20
-44.96245246096108
 30
-0.0000087503187525
 70
    32
  0
VERTEX
  5
2E0
330
2DB
100
AcDbEntity
  8
0
100
AcDbVertex
100
AcDb3dPolylineVertex
 10
-20.39807621154575
 20
-45.31440216371558
 30
-0.000015665545059
 70
    32
  0
VERTEX
  5
2E1
330
2DB
100
AcDbEntity
  8
0
100
AcDbVertex
100
AcDb3dPolylineVertex
 10
-20.18006002112917
 20
-45.64068645061798
 30
-0.0000214084970015
 70
    32
  0
VERTEX
  5
2E2
330
2DB
100
AcDbEntity
  8
0
100
AcDbVertex
100
AcDb3dPolylineVertex
 10
-19.92132034389025
 20
-45.93572250705596
 30
-0.0000258809110799
 70
    32
  0
VERTEX
  5
2E3
330
2DB
100
AcDbEntity
  8
0
100
AcDbVertex
100
AcDb3dPolylineVertex
 10
-19.62628428744311
 20
-46.19446218430416
 30
-0.0000290062630495
 70
    32
  0
VERTEX
  5
2E4
330
2DB
100
AcDbEntity
  8
0
100
AcDbVertex
100
AcDb3dPolylineVertex
 10
-19.30000000051322
 20
-46.41247837474844
 30
-0.0000307310772716
 70
    32
  0
VERTEX
  5
2E5
330
2DB
100
AcDbEntity
  8
0
100
AcDbVertex
100
AcDb3dPolylineVertex
 10
-18.94805029771333
 20
-46.58604076092457
 30
-0.0000310258416964
 70
    32
  0
VERTEX
  5
2E6
330
2DB
100
AcDbEntity
  8
0
100
AcDbVertex
100
AcDb3dPolylineVertex
 10
-18.57645713603765
 20
-46.71217964228434
 30
-0.0000298855128231
 70
    32
  0
VERTEX
  5
2E7
330
2DB
100
AcDbEntity
  8
0
100
AcDbVertex
100
AcDb3dPolylineVertex
 10
-18.19157857750771
 20
-46.78873674759527
 30
-0.0000273296019948
 70
    32
  0
VERTEX
  5
2E8
330
2DB
100
AcDbEntity
  8
0
100
AcDbVertex
100
AcDb3dPolylineVertex
 10
-17.800000000969
 20
-46.81440216355977
 30
-0.0000234018415544
 70
    32
  0
SEQEND
  5
2E9
330
2DB
100
AcDbEntity
  8
0
  0
LINE
  5
2EA
330
7E
100
AcDbEntity
  8
0
100
AcDbLine
 10
-20.80000000007712
 20
-43.81440216445081
 30
0.0000177579578932
 11
-20.79999999999987
 21
-13.31440227805452
 31
0.0008310824996748
  0
LINE
  5
2EB
330
7E
100
AcDbEntity
  8
0
100
AcDbLine
 10
-17.800000000969
 20
-46.81440216355977
 30
-0.0000234018415544
 11
94.20000000000809
 21
-46.81440216350614
 31
-0.0002560617951134
  0
POLYLINE
  5
2EC
330
7E
100
AcDbEntity
  8
0
100
AcDb3dPolyline
 66
     1
 10
0.0
 20
0.0
 30
0.0
 70
     8
  0
VERTEX
  5
2ED
330
2EC
100
AcDbEntity
  8
0
100
AcDbVertex
100
AcDb3dPolylineVertex
 10
97.19999999999351
 20
-43.81440216351952
 30
-0.0002557477906142
 70
    32
  0
VERTEX
  5
2EE
330
2EC
100
AcDbEntity
  8
0
100
AcDbVertex
100
AcDb3dPolylineVertex
 10
97.17433458411502
 20
-44.2059807401772
 30
-0.0002565771493567
 70
    32
  0
VERTEX
  5
2EF
330
2EC
100
AcDbEntity
  8
0
100
AcDbVertex
100
AcDb3dPolylineVertex
 10
97.09777747886112
 20
-44.59085929882239
 30
-0.0002572817234368
 70
    32
  0
VERTEX
  5
2F0
330
2EC
100
AcDbEntity
  8
0
100
AcDbVertex
100
AcDb3dPolylineVertex
 10
96.97163859752823
 20
-44.96245246060813
 30
-0.0002578494573968
 70
    32
  0
VERTEX
  5
2F1
330
2EC
100
AcDbEntity
  8
0
100
AcDbVertex
100
AcDb3dPolylineVertex
 10
96.79807621134835
 20
-45.31440216351115
 30
-0.0002582706371511
 70
    32
  0
VERTEX
  5
2F2
330
2EC
100
AcDbEntity
  8
0
100
AcDbVertex
100
AcDb3dPolylineVertex
 10
96.5800600208696
 20
-45.64068645053587
 30
-0.0002585380561973
 70
    32
  0
VERTEX
  5
2F3
330
2EC
100
AcDbEntity
  8
0
100
AcDbVertex
100
AcDb3dPolylineVertex
 10
96.32132034355668
 20
-45.93572250706815
 30
-0.0002586471389215
 70
    32
  0
VERTEX
  5
2F4
330
2EC
100
AcDbEntity
  8
0
100
AcDbVertex
100
AcDb3dPolylineVertex
 10
96.02628428702445
 20
-46.19446218438125
 30
-0.000258596018888
 70
    32
  0
VERTEX
  5
2F5
330
2EC
100
AcDbEntity
  8
0
100
AcDbVertex
100
AcDb3dPolylineVertex
 10
95.6999999999998
 20
-46.41247837486014
 30
-0.0002583855707747
 70
    32
  0
VERTEX
  5
2F6
330
2EC
100
AcDbEntity
  8
0
100
AcDbVertex
100
AcDb3dPolylineVertex
 10
95.34805029709685
 20
-46.58604076104019
 30
-0.0002580193954072
 70
    32
  0
VERTEX
  5
2F7
330
2EC
100
AcDbEntity
  8
0
100
AcDbVertex
100
AcDb3dPolylineVertex
 10
94.97645713531108
 20
-46.71217964237326
 30
-0.0002575037581476
 70
    32
  0
VERTEX
  5
2F8
330
2EC
100
AcDbEntity
  8
0
100
AcDbVertex
100
AcDb3dPolylineVertex
 10
94.59157857666581
 20
-46.78873674762742
 30
-0.0002568474816922
 70
    32
  0
VERTEX
  5
2F9
330
2EC
100
AcDbEntity
  8
0
100
AcDbVertex
100
AcDb3dPolylineVertex
 10
94.20000000000809
 20
-46.81440216350614
 30
-0.0002560617951134
 70
    32
  0
SEQEND
  5
2FA
330
2EC
100
AcDbEntity
  8
0
  0
CIRCLE
  5
2FB
330
7E
100
AcDbEntity
  8
0
100
AcDbCircle
 10
-1.440000410647234
 20
-32.25202144891179
 30
-0.0002044738873811
 40
8.000000000000004
  0
CIRCLE
  5
2FC
330
7E
100
AcDbEntity
  8
0
100
AcDbCircle
 10
-94.20000000015473
 20
-7.314403567379043
 30
-0.0000096012911038
 40
1.49999999974166
210
-1.587297865098181E-6
220
4.383281798149087E-6
230
-0.9999999999891338
  0
POLYLINE
  5
2FD
330
7E
100
AcDbEntity
  8
0
100
AcDb3dPolyline
 66
     1
 10
0.0
 20
0.0
 30
0.0
 70
     9
  0
VERTEX
  5
2FE
330
2FD
100
AcDbEntity
  8
0
100
AcDbVertex
100
AcDb3dPolylineVertex
 10
7.150001172304372
 20
68.4973645691313
 30
-0.0001313139481029
 70
    32
  0
VERTEX
  5
2FF
330
2FD
100
AcDbEntity
  8
0
100
AcDbVertex
100
AcDb3dPolylineVertex
 10
6.839341004771766
 20
68.73574250725059
 30
-0.0001297759602071
 70
    32
  0
VERTEX
  5
300
330
2FD
100
AcDbEntity
  8
0
100
AcDbVertex
100
AcDb3dPolylineVertex
 10
6.600963076071483
 20
69.04640268200949
 30
-0.0001280358723408
 70
    32
  0
VERTEX
  5
301
330
2FD
100
AcDbEntity
  8
0
100
AcDbVertex
100
AcDb3dPolylineVertex
 10
6.451112448106088
 20
69.40817411588831
 30
-0.0001262122686178
 70
    32
  0
VERTEX
  5
302
330
2FD
100
AcDbEntity
  8
0
100
AcDbVertex
100
AcDb3dPolylineVertex
 10
6.400001193531626
 20
69.79640268352384
 30
-0.0001244294246171
 70
    32
  0
VERTEX
  5
303
330
2FD
100
AcDbEntity
  8
0
100
AcDbVertex
100
AcDb3dPolylineVertex
 10
6.451112459882268
 20
70.18463124960978
 30
-0.0001228088382138
 70
    32
  0
VERTEX
  5
304
330
2FD
100
AcDbEntity
  8
0
100
AcDbVertex
100
AcDb3dPolylineVertex
 10
6.600963098821079
 20
70.54640267894536
 30
-0.0001214609496926
 70
    32
  0
VERTEX
  5
305
330
2FD
100
AcDbEntity
  8
0
100
AcDbVertex
100
AcDb3dPolylineVertex
 10
6.839341036944471
 20
70.85706284647692
 30
-0.0001204776154263
 70
    32
  0
VERTEX
  5
306
330
2FD
100
AcDbEntity
  8
0
100
AcDbVertex
100
AcDb3dPolylineVertex
 10
7.15000121170738
 20
71.09544077517742
 30
-0.000119925848024
 70
    32
  0
VERTEX
  5
307
330
2FD
100
AcDbEntity
  8
0
100
AcDbVertex
100
AcDb3dPolylineVertex
 10
7.511772645590629
 20
71.2452914031441
 30
-0.0001198432495165
 70
    32
  0
VERTEX
  5
308
330
2FD
100
AcDbEntity
  8
0
100
AcDbVertex
100
AcDb3dPolylineVertex
 10
7.90000121322936
 20
71.2964026577208
 30
-0.0001202354488617
 70
    32
  0
VERTEX
  5
309
330
2FD
100
AcDbEntity
  8
0
100
AcDbVertex
100
AcDb3dPolylineVertex
 10
8.288229779318508
 20
71.2452913913735
 30
-0.0001210757183183
 70
    32
  0
VERTEX
  5
30A
330
2FD
100
AcDbEntity
  8
0
100
AcDbVertex
100
AcDb3dPolylineVertex
 10
8.650001208655882
 20
71.09544075243848
 30
-0.0001223067949167
 70
    32
  0
VERTEX
  5
30B
330
2FD
100
AcDbEntity
  8
0
100
AcDbVertex
100
AcDb3dPolylineVertex
 10
8.960661376188487
 20
70.85706281431919
 30
-0.0001238447828126
 70
    32
  0
VERTEX
  5
30C
330
2FD
100
AcDbEntity
  8
0
100
AcDbVertex
100
AcDb3dPolylineVertex
 10
9.19903930488877
 20
70.5464026395603
 30
-0.0001255848706789
 70
    32
  0
VERTEX
  5
30D
330
2FD
100
AcDbEntity
  8
0
100
AcDbVertex
100
AcDb3dPolylineVertex
 10
9.348889932854165
 20
70.18463120568147
 30
-0.0001274084744018
 70
    32
  0
VERTEX
  5
30E
330
2FD
100
AcDbEntity
  8
0
100
AcDbVertex
100
AcDb3dPolylineVertex
 10
9.400001187428627
 20
69.79640263804595
 30
-0.0001291913184025
 70
    32
  0
VERTEX
  5
30F
330
2FD
100
AcDbEntity
  8
0
100
AcDbVertex
100
AcDb3dPolylineVertex
 10
9.348889921078346
 20
69.40817407196
 30
-0.0001308119048058
 70
    32
  0
VERTEX
  5
310
330
2FD
100
AcDbEntity
  8
0
100
AcDbVertex
100
AcDb3dPolylineVertex
 10
9.199039282139175
 20
69.04640264262439
 30
-0.000132159793327
 70
    32
  0
VERTEX
  5
311
330
2FD
100
AcDbEntity
  8
0
100
AcDbVertex
100
AcDb3dPolylineVertex
 10
8.960661344015783
 20
68.73574247509286
 30
-0.0001331431275933
 70
    32
  0
VERTEX
  5
312
330
2FD
100
AcDbEntity
  8
0
100
AcDbVertex
100
AcDb3dPolylineVertex
 10
8.650001169252873
 20
68.49736454639236
 30
-0.0001336948949956
 70
    32
  0
VERTEX
  5
313
330
2FD
100
AcDbEntity
  8
0
100
AcDbVertex
100
AcDb3dPolylineVertex
 10
8.288229735369624
 20
68.3475139184257
 30
-0.0001337774935031
 70
    32
  0
VERTEX
  5
314
330
2FD
100
AcDbEntity
  8
0
100
AcDbVertex
100
AcDb3dPolylineVertex
 10
7.900001167730532
 20
68.29640266384902
 30
-0.000133385294158
 70
    32
  0
VERTEX
  5
315
330
2FD
100
AcDbEntity
  8
0
100
AcDbVertex
100
AcDb3dPolylineVertex
 10
7.511772601641745
 20
68.34751393019629
 30
-0.0001325450247013
 70
    32
  0
VERTEX
  5
316
330
2FD
100
AcDbEntity
  8
0
100
AcDbVertex
100
AcDb3dPolylineVertex
 10
7.150001172304372
 20
68.4973645691313
 30
-0.0001313139481029
 70
    32
  0
SEQEND
  5
317
330
2FD
100
AcDbEntity
  8
0
  0
CIRCLE
  5
318
330
7E
100
AcDbEntity
  8
0
100
AcDbCircle
 10
8.000000000030125
 20
39.84944462803593
 30
0.0015032294420924
 40
2.499999999999968
  0
CIRCLE
  5
319
330
7E
100
AcDbEntity
  8
0
100
AcDbCircle
 10
-7.899999468957882
 20
-7.314403042418862
 30
0.0037415963033514
 40
1.499999997844116
210
-1.587297865236366E-6
220
4.383281798722389E-6
230
-0.9999999999891338
  0
CIRCLE
  5
31A
330
7E
100
AcDbEntity
  8
0
100
AcDbCircle
 10
19.20000000000014
 20
-26.31440216349684
 30
-0.0002044738873811
 40
1.999999999999995
  0
CIRCLE
  5
31B
330
7E
100
AcDbEntity
  8
0
100
AcDbCircle
 10
39.19999999999992
 20
-26.31440227805454
 30
0.0008310824996719
 40
1.999999999999997
  0
CIRCLE
  5
31C
330
7E
100
AcDbEntity
  8
0
100
AcDbCircle
 10
-94.20000000004117
 20
69.79640137409746
 30
0.0002568600236983
 40
1.499999994773827
210
-1.587297865752469E-6
220
4.383281797688724E-6
230
-0.9999999999891338
  0
POLYLINE
  5
31D
330
7E
100
AcDbEntity
  8
0
100
AcDb3dPolyline
 66
     1
 10
0.0
 20
0.0
 30
0.0
 70
     9
  0
VERTEX
  5
31E
330
31D
100
AcDbEntity
  8
0
100
AcDbVertex
100
AcDb3dPolylineVertex
 10
8.90143933185245
 20
-25.32779930509684
 30
-0.0002140364187958
 70
    32
  0
VERTEX
  5
31F
330
31D
100
AcDbEntity
  8
0
100
AcDbVertex
100
AcDb3dPolylineVertex
 10
8.611998518135005
 20
-25.47848377078482
 30
-0.0002127769130691
 70
    32
  0
VERTEX
  5
320
330
31D
100
AcDbEntity
  8
0
100
AcDbVertex
100
AcDb3dPolylineVertex
 10
8.37142017050576
 20
-25.69894658283098
 30
-0.0002109515698611
 70
    32
  0
VERTEX
  5
321
330
31D
100
AcDbEntity
  8
0
100
AcDbVertex
100
AcDb3dPolylineVertex
 10
8.196099305781068
 20
-25.97416356492639
 30
-0.0002086847832993
 70
    32
  0
VERTEX
  5
322
330
31D
100
AcDbEntity
  8
0
100
AcDbVertex
100
AcDb3dPolylineVertex
 10
8.097983751160607
 20
-26.28537913455882
 30
-0.000206131031139
 70
    32
  0
VERTEX
  5
323
330
31D
100
AcDbEntity
  8
0
100
AcDbVertex
100
AcDb3dPolylineVertex
 10
8.083759919547706
 20
-26.61138446496587
 30
-0.0002034643473694
 70
    32
  0
VERTEX
  5
324
330
31D
100
AcDbEntity
  8
0
100
AcDbVertex
100
AcDb3dPolylineVertex
 10
8.154397141561498
 20
-26.92996283162956
 30
-0.0002008664620851
 70
    32
  0
VERTEX
  5
325
330
31D
100
AcDbEntity
  8
0
100
AcDbVertex
100
AcDb3dPolylineVertex
 10
8.305081607254646
 20
-27.21940364533743
 30
-0.0001985144168681
 70
    32
  0
VERTEX
  5
326
330
31D
100
AcDbEntity
  8
0
100
AcDbVertex
100
AcDb3dPolylineVertex
 10
8.52554441930857
 20
-27.45998199295882
 30
-0.0001965684997216
 70
    32
  0
VERTEX
  5
327
330
31D
100
AcDbEntity
  8
0
100
AcDbVertex
100
AcDb3dPolylineVertex
 10
8.800761401413114
 20
-27.63530285767787
 30
-0.0001951613216786
 70
    32
  0
VERTEX
  5
328
330
31D
100
AcDbEntity
  8
0
100
AcDbVertex
100
AcDb3dPolylineVertex
 10
9.111976971056153
 20
-27.73341841229541
 30
-0.0001943887795995
 70
    32
  0
VERTEX
  5
329
330
31D
100
AcDbEntity
  8
0
100
AcDbVertex
100
AcDb3dPolylineVertex
 10
9.43798230147399
 20
-27.74764224390786
 30
-0.0001943035209472
 70
    32
  0
VERTEX
  5
32A
330
31D
100
AcDbEntity
  8
0
100
AcDbVertex
100
AcDb3dPolylineVertex
 10
9.756560668148374
 20
-27.67700502189683
 30
-0.0001949113559609
 70
    32
  0
VERTEX
  5
32B
330
31D
100
AcDbEntity
  8
0
100
AcDbVertex
100
AcDb3dPolylineVertex
 10
10.04600148186582
 20
-27.52632055620884
 30
-0.0001961708616876
 70
    32
  0
VERTEX
  5
32C
330
31D
100
AcDbEntity
  8
0
100
AcDbVertex
100
AcDb3dPolylineVertex
 10
10.28657982949507
 20
-27.30585774416267
 30
-0.0001979962048956
 70
    32
  0
VERTEX
  5
32D
330
31D
100
AcDbEntity
  8
0
100
AcDbVertex
100
AcDb3dPolylineVertex
 10
10.46190069421976
 20
-27.03064076206727
 30
-0.0002002629914574
 70
    32
  0
VERTEX
  5
32E
330
31D
100
AcDbEntity
  8
0
100
AcDbVertex
100
AcDb3dPolylineVertex
 10
10.56001624884022
 20
-26.71942519243483
 30
-0.0002028167436176
 70
    32
  0
VERTEX
  5
32F
330
31D
100
AcDbEntity
  8
0
100
AcDbVertex
100
AcDb3dPolylineVertex
 10
10.57424008045312
 20
-26.39341986202779
 30
-0.0002054834273873
 70
    32
  0
VERTEX
  5
330
330
31D
100
AcDbEntity
  8
0
100
AcDbVertex
100
AcDb3dPolylineVertex
 10
10.50360285843933
 20
-26.0748414953641
 30
-0.0002080813126716
 70
    32
  0
VERTEX
  5
331
330
31D
100
AcDbEntity
  8
0
100
AcDbVertex
100
AcDb3dPolylineVertex
 10
10.35291839274618
 20
-25.78540068165623
 30
-0.0002104333578885
 70
    32
  0
VERTEX
  5
332
330
31D
100
AcDbEntity
  8
0
100
AcDbVertex
100
AcDb3dPolylineVertex
 10
10.13245558069225
 20
-25.54482233403483
 30
-0.0002123792750351
 70
    32
  0
VERTEX
  5
333
330
31D
100
AcDbEntity
  8
0
100
AcDbVertex
100
AcDb3dPolylineVertex
 10
9.85723859858771
 20
-25.36950146931578
 30
-0.000213786453078
 70
    32
  0
VERTEX
  5
334
330
31D
100
AcDbEntity
  8
0
100
AcDbVertex
100
AcDb3dPolylineVertex
 10
9.546023028944672
 20
-25.27138591469824
 30
-0.0002145589951571
 70
    32
  0
VERTEX
  5
335
330
31D
100
AcDbEntity
  8
0
100
AcDbVertex
100
AcDb3dPolylineVertex
 10
9.220017698526833
 20
-25.2571620830858
 30
-0.0002146442538095
 70
    32
  0
VERTEX
  5
336
330
31D
100
AcDbEntity
  8
0
100
AcDbVertex
100
AcDb3dPolylineVertex
 10
8.90143933185245
 20
-25.32779930509684
 30
-0.0002140364187958
 70
    32
  0
SEQEND
  5
337
330
31D
100
AcDbEntity
  8
0
  0
LINE
  5
338
330
7E
100
AcDbEntity
  8
0
100
AcDbLine
 10
97.20000000000009
 20
67.88822018625609
 30
0.0000000000000085
 11
97.19999999999351
 21
-43.81440216351952
 31
-0.0002557477906142
  0
LINE
  5
339
330
7E
100
AcDbEntity
  8
0
100
AcDbLine
 10
0.0000000000005414
 20
-10.31440216349693
 30
-0.0002044738873783
 11
-0.0000005340446208
 21
64.0629651897906
 31
0.0028981754788445
  0
LINE
  5
33A
330
7E
100
AcDbEntity
  8
0
100
AcDbLine
 10
106.2382408670828
 20
81.0331663183838
 30
0.0000000000000113
 11
106.4797538476697
 21
80.78637570596892
 31
0.0000000000000113
  0
LINE
  5
33B
330
7E
100
AcDbEntity
  8
0
100
AcDbLine
 10
107.1763901486886
 20
79.23271503540369
 30
0.0000000000000113
 11
107.2
 21
78.88822018625612
 31
0.0000000000000113
  0
LINE
  5
33C
330
7E
100
AcDbEntity
  8
0
100
AcDbLine
 10
107.1124922599812
 20
79.57205437292129
 30
0.0000000000000113
 11
107.1763901486886
 21
79.23271503540369
 31
0.0000000000000113
  0
ARC
  5
33D
330
7E
100
AcDbEntity
  8
0
100
AcDbCircle
 10
8.000000671427507
 20
86.88822072582967
 30
-0.0019149153525375
 40
2.999999999999953
210
0.0
220
0.0
230
-1.0
100
AcDbArc
 50
359.9999999999991
 51
90.00000000000173
  0
LINE
  5
33E
330
7E
100
AcDbEntity
  8
0
100
AcDbLine
 10
106.8679138834542
 20
80.21662261380082
 30
0.0000000000000113
 11
107.0091904153597
 21
79.90154315128252
 31
0.0000000000000113
  0
CIRCLE
  5
33F
330
7E
100
AcDbEntity
  8
0
100
AcDbCircle
 10
69.37900000001962
 20
-26.40240216099671
 30
-0.0004137286786581
 40
1.250000000000004
210
9.518703443635766E-8
220
8.175724739441194E-6
230
0.9999999999665743
  0
LINE
  5
340
330
7E
100
AcDbEntity
  8
0
100
AcDbLine
 10
104.7000000000002
 20
81.76322018625609
 30
0.0000000000000056
 11
105.3650580767166
 21
81.58160368367601
 31
0.0000000000000085
  0
LINE
  5
341
330
7E
100
AcDbEntity
  8
0
100
AcDbLine
 10
105.6770104320837
 20
81.4335501320501
 30
0.0000000000000085
 11
105.9694199400502
 21
81.24989064871521
 31
0.0000000000000085
  0
LINE
  5
342
330
7E
100
AcDbEntity
  8
0
100
AcDbLine
 10
105.3650580767166
 20
81.58160368367601
 30
0.0000000000000085
 11
105.6770104320837
 21
81.4335501320501
 31
0.0000000000000085
  0
LINE
  5
343
330
7E
100
AcDbEntity
  8
0
100
AcDbLine
 10
105.9694199400502
 20
81.24989064871521
 30
0.0000000000000085
 11
106.2382408670828
 21
81.0331663183838
 31
0.0000000000000113
  0
LINE
  5
344
330
7E
100
AcDbEntity
  8
0
100
AcDbLine
 10
-17.79999999999974
 20
-10.31440227814615
 30
0.0020054766536349
 11
0.0000000000005414
 21
-10.31440216349693
 31
-0.0002044738873783
  0
LINE
  5
345
330
7E
100
AcDbEntity
  8
0
100
AcDbLine
 10
107.0091904153597
 20
79.90154315128252
 30
0.0000000000000113
 11
107.1124922599812
 21
79.57205437292129
 31
0.0000000000000113
  0
LINE
  5
346
330
7E
100
AcDbEntity
  8
0
100
AcDbLine
 10
106.4797538476697
 20
80.78637570596892
 30
0.0000000000000113
 11
106.690617344899
 21
80.5129333688951
 31
0.0000000000000113
  0
ARC
  5
347
330
7E
100
AcDbEntity
  8
0
100
AcDbCircle
 10
-96.92464055066758
 20
78.18400150383135
 30
-0.0000000000000034
 40
10.2994628872417
210
-6.128123902189908E-16
220
9.328559945994837E-16
230
-1.0
100
AcDbArc
 50
176.0793816295327
 51
268.467996382656
  0
LINE
  5
348
330
7E
100
AcDbEntity
  8
0
100
AcDbLine
 10
106.690617344899
 20
80.5129333688951
 30
0.0000000000000113
 11
106.8679138834542
 21
80.21662261380082
 31
0.0000000000000113
  0
LINE
  5
349
330
7E
100
AcDbEntity
  8
0
100
AcDbLine
 10
24.19999999999973
 20
67.88822018625605
 30
0.0
 11
24.19999999999973
 21
82.88822018625602
 31
0.0
  0
ARC
  5
34A
330
7E
100
AcDbEntity
  8
0
100
AcDbCircle
 10
19.19999999999978
 20
67.888220186256
 30
0.0
 40
4.999999999999993
100
AcDbArc
 50
179.9999999999995
 51
0.0000000000005089
  0
LINE
  5
34B
330
7E
100
AcDbEntity
  8
0
100
AcDbLine
 10
64.20000000000002
 20
67.88822018625605
 30
0.0
 11
64.20000000000037
 21
82.88822018625612
 31
0.0
  0
ARC
  5
34C
330
7E
100
AcDbEntity
  8
0
100
AcDbCircle
 10
59.20000000000007
 20
67.88822018625609
 30
0.0
 40
5.000000000000003
100
AcDbArc
 50
180.000000000001
 51
359.9999999999995
  0
LINE
  5
34D
330
7E
100
AcDbEntity
  8
0
100
AcDbLine
 10
44.19999999999987
 20
67.88822018625613
 30
0.0
 11
44.19999999999987
 21
82.88822018625612
 31
0.0
  0
LINE
  5
34E
330
7E
100
AcDbEntity
  8
0
100
AcDbLine
 10
97.20000000000009
 20
90.88822018625538
 30
0.0
 11
19.19999999999978
 21
90.88822018625538
 31
0.0
  0
LINE
  5
34F
330
7E
100
AcDbEntity
  8
0
100
AcDbLine
 10
15.53344024868013
 20
89.29347687627438
 30
0.0
 11
15.10175443483559
 21
88.76171384948618
 31
0.0
  0
LINE
  5
350
330
7E
100
AcDbEntity
  8
0
100
AcDbLine
 10
19.19999999999978
 20
90.88822018625538
 30
0.0
 11
18.51667385268766
 21
90.84142344563304
 31
0.0
  0
LINE
  5
351
330
7E
100
AcDbEntity
  8
0
100
AcDbLine
 10
16.59286459663732
 20
90.15681837612095
 30
0.0
 11
16.03358998867644
 21
89.7614243050686
 31
0.0
  0
LINE
  5
352
330
7E
100
AcDbEntity
  8
0
100
AcDbLine
 10
34.19999999999998
 20
82.88822018625606
 30
0.0
 11
24.19999999999973
 21
82.88822018625602
 31
0.0
  0
LINE
  5
353
330
7E
100
AcDbEntity
  8
0
100
AcDbLine
 10
14.29081882084051
 20
86.88765152799841
 30
0.0
 11
14.19871611289663
 21
86.20894566407571
 31
0.0
  0
LINE
  5
354
330
7E
100
AcDbEntity
  8
0
100
AcDbLine
 10
54.19999999999977
 20
82.88822018625612
 30
0.0
 11
54.20000000000012
 21
67.888220186256
 31
0.0
  0
LINE
  5
355
330
7E
100
AcDbEntity
  8
0
100
AcDbLine
 10
14.19999999999984
 20
67.88822018625605
 30
0.0
 11
14.19871611289663
 21
86.20894566407571
 31
0.0
  0
LINE
  5
356
330
7E
100
AcDbEntity
  8
0
100
AcDbLine
 10
14.47458833377611
 20
87.5474646262685
 30
0.0
 11
14.29081882084051
 21
86.88765152799841
 31
0.0
  0
LINE
  5
357
330
7E
100
AcDbEntity
  8
0
100
AcDbLine
 10
34.19999999999998
 20
82.88822018625606
 30
0.0
 11
34.19999999999998
 21
67.88822018625609
 31
0.0
  0
LINE
  5
358
330
7E
100
AcDbEntity
  8
0
100
AcDbLine
 10
16.03358998867644
 20
89.7614243050686
 30
0.0
 11
15.53344024868013
 21
89.29347687627438
 31
0.0
  0
ARC
  5
359
330
7E
100
AcDbEntity
  8
0
100
AcDbCircle
 10
39.19999999999992
 20
67.88822018625609
 30
0.0
 40
4.999999999999973
100
AcDbArc
 50
180.0
 51
0.0000000000005089
  0
LINE
  5
35A
330
7E
100
AcDbEntity
  8
0
100
AcDbLine
 10
84.20000000000016
 20
67.88822018625609
 30
0.0
 11
84.20000000000016
 21
82.88822018625612
 31
0.0
  0
LINE
  5
35B
330
7E
100
AcDbEntity
  8
0
100
AcDbLine
 10
-0.0000004939142869
 20
89.88822072186362
 30
-0.0002885176197018
 11
-0.0000004382661061
 21
95.88822022693553
 31
0.0011708646763475
  0
LINE
  5
35C
330
7E
100
AcDbEntity
  8
0
100
AcDbLine
 10
17.20082100384107
 20
90.47227608402093
 30
0.0
 11
16.59286459663732
 21
90.15681837612095
 31
0.0
  0
LINE
  5
35D
330
7E
100
AcDbEntity
  8
0
100
AcDbLine
 10
74.20000000000027
 20
82.88822018625616
 30
0.0
 11
64.20000000000037
 21
82.88822018625612
 31
0.0
  0
ARC
  5
35E
330
7E
100
AcDbEntity
  8
0
100
AcDbCircle
 10
99.0194594391601
 20
168.156023438476
 30
0.0
 40
77.28922209515777
100
AcDbArc
 50
268.6510799956395
 51
303.2246573893434
  0
LINE
  5
35F
330
7E
100
AcDbEntity
  8
0
100
AcDbLine
 10
14.74659321100359
 20
88.17606458275746
 30
0.0
 11
14.47458833377611
 21
87.5474646262685
 31
0.0
  0
LINE
  5
360
330
7E
100
AcDbEntity
  8
0
100
AcDbLine
 10
74.20000000000027
 20
82.88822018625616
 30
0.0
 11
74.20000000000027
 21
67.88822018625609
 31
0.0
  0
LINE
  5
361
330
7E
100
AcDbEntity
  8
0
100
AcDbLine
 10
15.10175443483559
 20
88.76171384948618
 30
0.0
 11
14.74659321100359
 21
88.17606458275746
 31
0.0
  0
ARC
  5
362
330
7E
100
AcDbEntity
  8
0
100
AcDbCircle
 10
-91.83352393803045
 20
34.64771194591912
 30
-0.0000000000001487
 40
48.84073425941182
210
2.151359891826681E-16
220
-2.011931148865124E-15
230
-1.0
100
AcDbArc
 50
81.0081361465771
 51
105.2741235246952
  0
LINE
  5
363
330
7E
100
AcDbEntity
  8
0
100
AcDbLine
 10
17.84610712948414
 20
90.70190703704374
 30
0.0
 11
17.20082100384107
 21
90.47227608402093
 31
0.0
  0
LINE
  5
364
330
7E
100
AcDbEntity
  8
0
100
AcDbLine
 10
54.19999999999977
 20
82.88822018625612
 30
0.0
 11
44.19999999999987
 21
82.88822018625612
 31
0.0
  0
LINE
  5
365
330
7E
100
AcDbEntity
  8
0
100
AcDbLine
 10
18.51667385268766
 20
90.84142344563304
 30
0.0
 11
17.84610712948414
 21
90.70190703704374
 31
0.0
  0
ARC
  5
366
330
7E
100
AcDbEntity
  8
0
100
AcDbCircle
 10
79.20000000000022
 20
67.88822018625613
 30
0.0
 40
4.999999999999976
100
AcDbArc
 50
180.0000000000005
 51
359.9999999999995
  0
LINE
  5
367
330
7E
100
AcDbEntity
  8
0
100
AcDbLine
 10
-0.0000004939142869
 20
89.88822072186362
 30
-0.0002885176197018
 11
-8.000000671427417
 21
89.88822072582961
 31
0.0019149153525375
  0
ARC
  5
368
330
7E
100
AcDbEntity
  8
0
100
AcDbCircle
 10
-2.999999561733933
 20
95.88822022693553
 30
-0.0011708646763475
 40
2.999999999999953
210
0.0
220
0.0
230
-1.0
100
AcDbArc
 50
0.0
 51
90.0
  0
LINE
  5
369
330
7E
100
AcDbEntity
  8
0
100
AcDbLine
 10
97.20000000000081
 20
98.88822018023137
 30
0.0000000000360307
 11
2.999999561733933
 21
98.88822022693557
 31
0.0011708646763475
  0
CIRCLE
  5
36A
330
7E
100
AcDbEntity
  8
0
100
AcDbCircle
 10
79.20000000000022
 20
-26.31440227805454
 30
0.0008310824996719
 40
1.999999999999996
  0
CIRCLE
  5
36B
330
7E
100
AcDbEntity
  8
0
100
AcDbCircle
 10
59.20000000000007
 20
-26.31440227805452
 30
0.0008310824996719
 40
1.999999999999995
  0
LINE
  5
36C
330
7E
100
AcDbEntity
  8
0
100
AcDbLine
 10
-11.00000067142746
 20
86.88822072582963
 30
0.0019149153525375
 11
-11.00000053404464
 21
67.06296518979055
 31
0.0028981754788445
  0
INSERT
  5
36D
330
7E
100
AcDbEntity
  8
0
100
AcDbBlockReference
  2
1
 10
77.18017016490806
 20
-40.96248832305321
 30
0.007280487188857
 41
1.692331889270418
 42
1.692331889270414
 50
359.3329559130654
210
9.518703285799019E-8
220
8.175724739367918E-6
230
0.9999999999665744
  0
INSERT
  5
36E
330
7E
100
AcDbEntity
  8
0
100
AcDbBlockReference
  2
2
 10
56.65655472589045
 20
-40.98578384593837
 30
0.0072856218310114
 41
1.692331889270418
 42
1.692331889270414
 50
359.3329559130654
210
9.518703285799019E-8
220
8.175724739367918E-6
230
0.9999999999665744
  0
INSERT
  5
36F
330
7E
100
AcDbEntity
  8
0
100
AcDbBlockReference
  2
3
 10
36.4860914951725
 20
-40.98710980843421
 30
-0.0244653955499243
 41
1.692331889270414
 42
1.692331889270414
  0
INSERT
  5
370
330
7E
100
AcDbEntity
  8
0
100
AcDbBlockReference
  2
4
 10
16.65354585160549
 20
-40.94488280855045
 30
-0.02477877941683
 41
1.692331889270418
 42
1.692331889270416
 50
359.3329559130655
210
9.518703285797902E-8
220
8.175724739367924E-6
230
0.9999999999665743
  0
INSERT
  5
371
330
7E
100
AcDbEntity
  8
0
100
AcDbBlockReference
  2
AutoChanger
 10
10.79339098211713
 20
-1.127931222019726
 30
-0.0239414613723162
 50
89.9999999999986
  0
ENDBLK
  5
80
330
7E
100
AcDbEntity
  8
0
100
AcDbBlockEnd
  0
ENDSEC
  0
SECTION
  2
ENTITIES
  0
INSERT
  5
372
330
1F
100
AcDbEntity
  8
0
100
AcDbBlockReference
  2
Group_55
 10
20.80000000007712
 20
46.81440216355977
 30
0.0037931641673265
  0
ENDSEC
  0
SECTION
  2
OBJECTS
  0
DICTIONARY
  5
C
330
0
100
AcDbDictionary
281
     1
  3
ACAD_DETAILVIEWSTYLE
350
37A
  3
ACAD_GROUP
350
D
  3
ACAD_LAYOUT
350
1A
  3
ACAD_MATERIAL
350
43
  3
ACAD_MLEADERSTYLE
350
6B
  3
ACAD_MLINESTYLE
350
17
  3
ACAD_PLOTSETTINGS
350
19
  3
ACAD_PLOTSTYLENAME
350
E
  3
ACAD_SCALELIST
350
47
  3
ACAD_SECTIONVIEWSTYLE
350
37B
  3
ACAD_TABLESTYLE
350
69
  3
ACAD_VISUALSTYLE
350
2A
  3
ACDB_RECOMPOSE_DATA
350
377
  3
AcDbVariableDictionary
350
373
  0
SUN
  5
6D
330
29
100
AcDbSun
 90
        1
290
     0
 63
     7
421
 16777215
 40
1.0
291
     1
 91
  2455826
 92
 54000000
292
     0
 70
     2
 71
   256
280
     1
  0
DICTIONARY
  5
37A
102
{ACAD_REACTORS
330
C
102
}
330
C
100
AcDbDictionary
281
     1
  0
DICTIONARY
  5
D
102
{ACAD_REACTORS
330
C
102
}
330
C
100
AcDbDictionary
281
     1
  0
DICTIONARY
  5
1A
102
{ACAD_REACTORS
330
C
102
}
330
C
100
AcDbDictionary
281
     1
  3
Layout1
350
1E
  3
Layout2
350
26
  3
Model
350
22
  0
DICTIONARY
  5
43
102
{ACAD_REACTORS
330
C
102
}
330
C
100
AcDbDictionary
281
     1
  3
ByBlock
350
45
  3
ByLayer
350
44
  3
Global
350
46
  0
DICTIONARY
  5
6B
102
{ACAD_REACTORS
330
C
102
}
330
C
100
AcDbDictionary
281
     1
  3
Standard
350
6C
  0
DICTIONARY
  5
17
102
{ACAD_REACTORS
330
C
102
}
330
C
100
AcDbDictionary
281
     1
  3
Standard
350
18
  0
DICTIONARY
  5
19
102
{ACAD_REACTORS
330
C
102
}
330
C
100
AcDbDictionary
281
     1
  0
ACDBDICTIONARYWDFLT
  5
E
102
{ACAD_REACTORS
330
C
102
}
330
C
100
AcDbDictionary
281
     1
  3
Normal
350
F
100
AcDbDictionaryWithDefault
340
F
  0
DICTIONARY
  5
47
102
{ACAD_REACTORS
330
C
102
}
330
C
100
AcDbDictionary
281
     1
  3
A0
350
48
  3
A1
350
49
  3
A2
350
4A
  3
A3
350
4B
  3
A4
350
4C
  3
A5
350
4D
  3
A6
350
4E
  3
A7
350
4F
  3
A8
350
50
  3
A9
350
51
  3
B0
350
52
  3
B1
350
53
  3
B2
350
54
  3
B3
350
55
  3
B4
350
56
  3
B5
350
57
  3
B6
350
58
  3
B7
350
59
  3
B8
350
5A
  3
B9
350
5B
  3
C0
350
5C
  3
C1
350
5D
  3
C2
350
5E
  3
C3
350
5F
  3
C4
350
60
  3
C5
350
61
  3
C6
350
62
  3
C7
350
63
  3
C8
350
64
  3
C9
350
65
  3
D0
350
66
  3
D1
350
67
  3
D2
350
68
  0
DICTIONARY
  5
37B
102
{ACAD_REACTORS
330
C
102
}
330
C
100
AcDbDictionary
281
     1
  0
DICTIONARY
  5
69
102
{ACAD_REACTORS
330
C
102
}
330
C
100
AcDbDictionary
281
     1
  3
Standard
350
6A
  0
DICTIONARY
  5
2A
102
{ACAD_REACTORS
330
C
102
}
330
C
100
AcDbDictionary
281
     1
  3
2dWireframe
350
2F
  3
Basic
350
32
  3
Brighten
350
36
  3
ColorChange
350
3A
  3
Conceptual
350
34
  3
Dim
350
35
  3
EdgeColorOff
350
3D
  3
Facepattern
350
39
  3
Flat
350
2B
  3
FlatWithEdges
350
2C
  3
Gouraud
350
2D
  3
GouraudWithEdges
350
2E
  3
Hidden
350
31
  3
JitterOff
350
3B
  3
Linepattern
350
38
  3
OverhangOff
350
3C
  3
Realistic
350
33
  3
Shaded
350
42
  3
Shaded with edges
350
41
  3
Shades of Gray
350
3E
  3
Sketchy
350
3F
  3
Thicken
350
37
  3
Wireframe
350
30
  3
X-Ray
350
40
  0
XRECORD
  5
377
102
{ACAD_REACTORS
330
C
102
}
330
C
100
AcDbXrecord
280
     1
 90
        1
330
6A
  0
DICTIONARY
  5
373
102
{ACAD_REACTORS
330
C
102
}
330
C
100
AcDbDictionary
281
     1
  3
CANNOSCALE
350
374
  3
CMLEADERSTYLE
350
379
  3
CTABLESTYLE
350
378
  0
LAYOUT
  5
1E
102
{ACAD_REACTORS
330
1A
102
}
330
1A
100
AcDbPlotSettings
  1

  2
none_device
  4

  6

 40
0.0
 41
0.0
 42
0.0
 43
0.0
 44
0.0
 45
0.0
 46
0.0
 47
0.0
 48
0.0
 49
0.0
140
0.0
141
0.0
142
1.0
143
1.0
 70
   688
 72
     0
 73
     0
 74
     5
  7

 75
    16
 76
     0
 77
     2
 78
   300
147
1.0
148
0.0
149
0.0
100
AcDbLayout
  1
Layout1
 70
     1
 71
     1
 10
0.0
 20
0.0
 11
12.0
 21
9.0
 12
0.0
 22
0.0
 32
0.0
 14
1.000000000000000E+20
 24
1.000000000000000E+20
 34
1.000000000000000E+20
 15
-1.000000000000000E+20
 25
-1.000000000000000E+20
 35
-1.000000000000000E+20
146
0.0
 13
0.0
 23
0.0
 33
0.0
 16
1.0
 26
0.0
 36
0.0
 17
0.0
 27
1.0
 37
0.0
 76
     0
330
1B
  0
LAYOUT
  5
26
102
{ACAD_REACTORS
330
1A
102
}
330
1A
100
AcDbPlotSettings
  1

  2
none_device
  4

  6

 40
0.0
 41
0.0
 42
0.0
 43
0.0
 44
0.0
 45
0.0
 46
0.0
 47
0.0
 48
0.0
 49
0.0
140
0.0
141
0.0
142
1.0
143
1.0
 70
   688
 72
     0
 73
     0
 74
     5
  7

 75
    16
 76
     0
 77
     2
 78
   300
147
1.0
148
0.0
149
0.0
100
AcDbLayout
  1
Layout2
 70
     1
 71
     2
 10
0.0
 20
0.0
 11
0.0
 21
0.0
 12
0.0
 22
0.0
 32
0.0
 14
0.0
 24
0.0
 34
0.0
 15
0.0
 25
0.0
 35
0.0
146
0.0
 13
0.0
 23
0.0
 33
0.0
 16
1.0
 26
0.0
 36
0.0
 17
0.0
 27
1.0
 37
0.0
 76
     0
330
23
  0
LAYOUT
  5
22
102
{ACAD_REACTORS
330
1A
102
}
330
1A
100
AcDbPlotSettings
  1

  2
none_device
  4
Letter_(8.50_x_11.00_Inches)
  6

 40
6.35
 41
6.35
 42
6.35000508
 43
6.35000508
 44
215.9
 45
279.4
 46
0.0
 47
0.0
 48
0.0
 49
0.0
140
0.0
141
0.0
142
1.0
143
1.0
 70
  1712
 72
     0
 73
     0
 74
     0
  7

 75
     0
 76
     0
 77
     2
 78
   300
147
1.0
148
0.0
149
0.0
100
AcDbLayout
  1
Model
 70
     1
 71
     0
 10
0.0
 20
0.0
 11
12.0
 21
9.0
 12
0.0
 22
0.0
 32
0.0
 14
1.000000000000000E+20
 24
1.000000000000000E+20
 34
1.000000000000000E+20
 15
-1.000000000000000E+20
 25
-1.000000000000000E+20
 35
-1.000000000000000E+20
146
0.0
 13
0.0
 23
0.0
 33
0.0
 16
1.0
 26
0.0
 36
0.0
 17
0.0
 27
1.0
 37
0.0
 76
     0
330
1F
331
29
  0
MATERIAL
  5
45
102
{ACAD_REACTORS
330
43
102
}
330
43
100
AcDbMaterial
  1
ByBlock
 72
     1
 94
      127
  0
MATERIAL
  5
44
102
{ACAD_REACTORS
330
43
102
}
330
43
100
AcDbMaterial
  1
ByLayer
 72
     1
 94
      127
  0
MATERIAL
  5
46
102
{ACAD_REACTORS
330
43
102
}
330
43
100
AcDbMaterial
  1
Global
 72
     1
 94
      127
  0
MLEADERSTYLE
  5
6C
102
{ACAD_REACTORS
330
6B
102
}
330
6B
100
AcDbMLeaderStyle
179
     2
170
     2
171
     1
172
     0
 90
        2
 40
0.0
 41
0.0
173
     1
 91
-1056964608
340
14
 92
       -2
290
     1
 42
0.09
291
     1
 43
0.36
  3
Standard
341
0
 44
0.18
300

342
11
174
     1
178
     6
175
     1
176
     0
 93
-1056964608
 45
0.18
292
     0
297
     0
 46
0.18
343
0
 94
-1056964608
 47
1.0
 49
1.0
140
1.0
293
     1
141
0.0
294
     1
177
     0
142
1.0
295
     0
296
     0
143
0.125
271
     0
272
     9
273
     9
298
     0
  0
MLINESTYLE
  5
18
102
{ACAD_REACTORS
330
17
102
}
330
17
100
AcDbMlineStyle
  2
Standard
 70
     0
  3

 62
   256
 51
90.0
 52
90.0
 71
     2
 49
0.5
 62
   256
  6
BYLAYER
 49
-0.5
 62
   256
  6
BYLAYER
  0
ACDBPLACEHOLDER
  5
F
102
{ACAD_REACTORS
330
E
102
}
330
E
  0
SCALE
  5
48
102
{ACAD_REACTORS
330
47
102
}
330
47
100
AcDbScale
 70
     0
300
1:1
140
1.0
141
1.0
290
     1
  0
SCALE
  5
49
102
{ACAD_REACTORS
330
47
102
}
330
47
100
AcDbScale
 70
     0
300
1:2
140
1.0
141
2.0
290
     0
  0
SCALE
  5
4A
102
{ACAD_REACTORS
330
47
102
}
330
47
100
AcDbScale
 70
     0
300
1:4
140
1.0
141
4.0
290
     0
  0
SCALE
  5
4B
102
{ACAD_REACTORS
330
47
102
}
330
47
100
AcDbScale
 70
     0
300
1:5
140
1.0
141
5.0
290
     0
  0
SCALE
  5
4C
102
{ACAD_REACTORS
330
47
102
}
330
47
100
AcDbScale
 70
     0
300
1:8
140
1.0
141
8.0
290
     0
  0
SCALE
  5
4D
102
{ACAD_REACTORS
330
47
102
}
330
47
100
AcDbScale
 70
     0
300
1:10
140
1.0
141
10.0
290
     0
  0
SCALE
  5
4E
102
{ACAD_REACTORS
330
47
102
}
330
47
100
AcDbScale
 70
     0
300
1:16
140
1.0
141
16.0
290
     0
  0
SCALE
  5
4F
102
{ACAD_REACTORS
330
47
102
}
330
47
100
AcDbScale
 70
     0
300
1:20
140
1.0
141
20.0
290
     0
  0
SCALE
  5
50
102
{ACAD_REACTORS
330
47
102
}
330
47
100
AcDbScale
 70
     0
300
1:30
140
1.0
141
30.0
290
     0
  0
SCALE
  5
51
102
{ACAD_REACTORS
330
47
102
}
330
47
100
AcDbScale
 70
     0
300
1:40
140
1.0
141
40.0
290
     0
  0
SCALE
  5
52
102
{ACAD_REACTORS
330
47
102
}
330
47
100
AcDbScale
 70
     0
300
1:50
140
1.0
141
50.0
290
     0
  0
SCALE
  5
53
102
{ACAD_REACTORS
330
47
102
}
330
47
100
AcDbScale
 70
     0
300
1:100
140
1.0
141
100.0
290
     0
  0
SCALE
  5
54
102
{ACAD_REACTORS
330
47
102
}
330
47
100
AcDbScale
 70
     0
300
2:1
140
2.0
141
1.0
290
     0
  0
SCALE
  5
55
102
{ACAD_REACTORS
330
47
102
}
330
47
100
AcDbScale
 70
     0
300
4:1
140
4.0
141
1.0
290
     0
  0
SCALE
  5
56
102
{ACAD_REACTORS
330
47
102
}
330
47
100
AcDbScale
 70
     0
300
8:1
140
8.0
141
1.0
290
     0
  0
SCALE
  5
57
102
{ACAD_REACTORS
330
47
102
}
330
47
100
AcDbScale
 70
     0
300
10:1
140
10.0
141
1.0
290
     0
  0
SCALE
  5
58
102
{ACAD_REACTORS
330
47
102
}
330
47
100
AcDbScale
 70
     0
300
100:1
140
100.0
141
1.0
290
     0
  0
SCALE
  5
59
102
{ACAD_REACTORS
330
47
102
}
330
47
100
AcDbScale
 70
     0
300
1/128" = 1'-0"
140
0.0078125
141
12.0
290
     0
  0
SCALE
  5
5A
102
{ACAD_REACTORS
330
47
102
}
330
47
100
AcDbScale
 70
     0
300
1/64" = 1'-0"
140
0.015625
141
12.0
290
     0
  0
SCALE
  5
5B
102
{ACAD_REACTORS
330
47
102
}
330
47
100
AcDbScale
 70
     0
300
1/32" = 1'-0"
140
0.03125
141
12.0
290
     0
  0
SCALE
  5
5C
102
{ACAD_REACTORS
330
47
102
}
330
47
100
AcDbScale
 70
     0
300
1/16" = 1'-0"
140
0.0625
141
12.0
290
     0
  0
SCALE
  5
5D
102
{ACAD_REACTORS
330
47
102
}
330
47
100
AcDbScale
 70
     0
300
3/32" = 1'-0"
140
0.09375
141
12.0
290
     0
  0
SCALE
  5
5E
102
{ACAD_REACTORS
330
47
102
}
330
47
100
AcDbScale
 70
     0
300
1/8" = 1'-0"
140
0.125
141
12.0
290
     0
  0
SCALE
  5
5F
102
{ACAD_REACTORS
330
47
102
}
330
47
100
AcDbScale
 70
     0
300
3/16" = 1'-0"
140
0.1875
141
12.0
290
     0
  0
SCALE
  5
60
102
{ACAD_REACTORS
330
47
102
}
330
47
100
AcDbScale
 70
     0
300
1/4" = 1'-0"
140
0.25
141
12.0
290
     0
  0
SCALE
  5
61
102
{ACAD_REACTORS
330
47
102
}
330
47
100
AcDbScale
 70
     0
300
3/8" = 1'-0"
140
0.375
141
12.0
290
     0
  0
SCALE
  5
62
102
{ACAD_REACTORS
330
47
102
}
330
47
100
AcDbScale
 70
     0
300
1/2" = 1'-0"
140
0.5
141
12.0
290
     0
  0
SCALE
  5
63
102
{ACAD_REACTORS
330
47
102
}
330
47
100
AcDbScale
 70
     0
300
3/4" = 1'-0"
140
0.75
141
12.0
290
     0
  0
SCALE
  5
64
102
{ACAD_REACTORS
330
47
102
}
330
47
100
AcDbScale
 70
     0
300
1" = 1'-0"
140
1.0
141
12.0
290
     0
  0
SCALE
  5
65
102
{ACAD_REACTORS
330
47
102
}
330
47
100
AcDbScale
 70
     0
300
1-1/2" = 1'-0"
140
1.5
141
12.0
290
     0
  0
SCALE
  5
66
102
{ACAD_REACTORS
330
47
102
}
330
47
100
AcDbScale
 70
     0
300
3" = 1'-0"
140
3.0
141
12.0
290
     0
  0
SCALE
  5
67
102
{ACAD_REACTORS
330
47
102
}
330
47
100
AcDbScale
 70
     0
300
6" = 1'-0"
140
6.0
141
12.0
290
     0
  0
SCALE
  5
68
102
{ACAD_REACTORS
330
47
102
}
330
47
100
AcDbScale
 70
     0
300
1'-0" = 1'-0"
140
12.0
141
12.0
290
     0
  0
TABLESTYLE
  5
6A
102
{ACAD_REACTORS
330
69
102
}
102
{ACAD_XDICTIONARY
360
375
102
}
330
69
100
AcDbTableStyle
  3
Standard
 70
     0
 71
     0
 40
0.06
 41
0.06
280
     0
281
     0
  7
Standard
140
0.18
170
     2
 62
     0
 63
   257
283
     0
 90
        4
 91
        0
  1

274
    -2
284
     1
 64
     0
275
    -2
285
     1
 65
     0
276
    -2
286
     1
 66
     0
277
    -2
287
     1
 67
     0
278
    -2
288
     1
 68
     0
279
    -2
289
     1
 69
     0
  7
Standard
140
0.25
170
     5
 62
     0
 63
   257
283
     0
 90
        4
 91
        0
  1

274
    -2
284
     1
 64
     0
275
    -2
285
     1
 65
     0
276
    -2
286
     1
 66
     0
277
    -2
287
     1
 67
     0
278
    -2
288
     1
 68
     0
279
    -2
289
     1
 69
     0
  7
Standard
140
0.18
170
     5
 62
     0
 63
   257
283
     0
 90
        4
 91
        0
  1

274
    -2
284
     1
 64
     0
275
    -2
285
     1
 65
     0
276
    -2
286
     1
 66
     0
277
    -2
287
     1
 67
     0
278
    -2
288
     1
 68
     0
279
    -2
289
     1
 69
     0
  0
VISUALSTYLE
  5
2F
102
{ACAD_REACTORS
330
2A
102
}
330
2A
100
AcDbVisualStyle
  2
2dWireframe
 70
     4
177
     3
291
     0
 70
    58
 90
        0
176
     1
 90
        2
176
     1
 90
        0
176
     1
 90
        0
176
     1
 40
0.6
176
     1
 40
30.0
176
     1
 62
     7
420
 16777215
176
     1
 90
        1
176
     1
 90
        4
176
     1
 62
     7
176
     1
 62
   257
176
     1
 90
        1
176
     1
 90
        1
176
     1
 40
1.0
176
     1
 90
        0
176
     1
 62
   257
176
     1
 40
1.0
176
     1
 90
        1
176
     1
 90
        6
176
     1
 90
        2
176
     1
 62
     7
176
     1
 90
        5
176
     1
 90
        0
176
     1
 90
        0
176
     1
290
     0
176
     1
 90
        1
176
     1
 40
0.0
176
     1
 90
        0
176
     1
290
     1
176
     1
290
     1
176
     1
290
     0
176
     1
290
     0
176
     1
290
     0
176
     1
290
     0
176
     1
290
     0
176
     1
290
     0
176
     1
290
     0
176
     1
 90
       50
176
     1
 40
0.0
176
     1
 40
1.0
176
     1
 90
        0
176
     1
 62
    18
420
        0
176
     1
 90
       50
176
     1
 90
        3
176
     1
 62
     5
420
      255
176
     1
290
     0
176
     1
 90
       50
176
     1
 90
       50
176
     1
 90
       50
176
     1
290
     0
176
     1
 90
       50
176
     1
 62
   256
176
     0
 40
1.0
176
     0
 90
        2
176
     1
  1
strokes_ogs.tif
176
     1
290
     0
176
     1
 40
1.0
176
     1
 40
1.0
176
     1
  0
VISUALSTYLE
  5
32
102
{ACAD_REACTORS
330
2A
102
}
330
2A
100
AcDbVisualStyle
  2
Basic
 70
     7
177
     3
291
     1
 70
    58
 90
        1
176
     1
 90
        0
176
     1
 90
        1
176
     1
 90
        0
176
     1
 40
0.6
176
     1
 40
30.0
176
     1
 62
     7
420
 16777215
176
     1
 90
        0
176
     1
 90
        4
176
     1
 62
     7
176
     1
 62
   257
176
     1
 90
        1
176
     1
 90
        1
176
     1
 40
1.0
176
     1
 90
        8
176
     1
 62
     7
176
     1
 40
1.0
176
     1
 90
        1
176
     1
 90
        6
176
     1
 90
        2
176
     1
 62
     7
176
     1
 90
        5
176
     1
 90
        0
176
     1
 90
        0
176
     1
290
     0
176
     1
 90
        1
176
     1
 40
0.0
176
     1
 90
        0
176
     1
290
     0
176
     1
290
     1
176
     1
290
     1
176
     1
290
     0
176
     1
290
     0
176
     1
290
     0
176
     1
290
     0
176
     1
290
     0
176
     1
290
     0
176
     1
 90
       50
176
     1
 40
0.0
176
     1
 40
1.0
176
     1
 90
        0
176
     1
 62
    18
420
        0
176
     1
 90
       50
176
     1
 90
        3
176
     1
 62
     5
420
      255
176
     1
290
     0
176
     1
 90
       50
176
     1
 90
       50
176
     1
 90
       50
176
     1
290
     0
176
     1
 90
       50
176
     1
 62
   256
176
     0
 40
1.0
176
     0
 90
        2
176
     1
  1
strokes_ogs.tif
176
     1
290
     0
176
     1
 40
1.0
176
     1
 40
1.0
176
     1
  0
VISUALSTYLE
  5
36
102
{ACAD_REACTORS
330
2A
102
}
330
2A
100
AcDbVisualStyle
  2
Brighten
 70
    12
177
     3
291
     1
 70
    58
 90
        2
176
     1
 90
        2
176
     1
 90
        0
176
     1
 90
        0
176
     1
 40
0.6
176
     1
 40
30.0
176
     1
 62
     7
420
 16777215
176
     1
 90
        1
176
     1
 90
        4
176
     1
 62
     7
176
     1
 62
   257
176
     1
 90
        1
176
     1
 90
        1
176
     1
 40
1.0
176
     1
 90
        8
176
     1
 62
     7
176
     1
 40
1.0
176
     1
 90
        1
176
     1
 90
        6
176
     1
 90
        2
176
     1
 62
     7
176
     1
 90
        5
176
     1
 90
        0
176
     1
 90
        0
176
     1
290
     0
176
     1
 90
        1
176
     1
 40
50.0
176
     1
 90
        0
176
     1
290
     0
176
     1
290
     1
176
     1
290
     1
176
     1
290
     0
176
     1
290
     0
176
     1
290
     0
176
     1
290
     0
176
     1
290
     0
176
     1
290
     0
176
     1
 90
       50
176
     1
 40
0.0
176
     1
 40
1.0
176
     1
 90
        0
176
     1
 62
    18
420
        0
176
     1
 90
       50
176
     1
 90
        3
176
     1
 62
     5
420
      255
176
     1
290
     0
176
     1
 90
       50
176
     1
 90
       50
176
     1
 90
       50
176
     1
290
     0
176
     1
 90
       50
176
     1
 62
   256
176
     0
 40
1.0
176
     0
 90
        2
176
     1
  1
strokes_ogs.tif
176
     1
290
     0
176
     1
 40
1.0
176
     1
 40
1.0
176
     1
  0
VISUALSTYLE
  5
3A
102
{ACAD_REACTORS
330
2A
102
}
330
2A
100
AcDbVisualStyle
  2
ColorChange
 70
    16
177
     3
291
     1
 70
    58
 90
        2
176
     1
 90
        2
176
     1
 90
        3
176
     1
 90
        0
176
     1
 40
0.6
176
     1
 40
30.0
176
     1
 62
     8
420
  8421504
176
     1
 90
        1
176
     1
 90
        4
176
     1
 62
     7
176
     1
 62
   257
176
     1
 90
        1
176
     1
 90
        1
176
     1
 40
1.0
176
     1
 90
        8
176
     1
 62
     8
420
  8421504
176
     1
 40
1.0
176
     1
 90
        1
176
     1
 90
        6
176
     1
 90
        2
176
     1
 62
     7
176
     1
 90
        5
176
     1
 90
        0
176
     1
 90
        0
176
     1
290
     0
176
     1
 90
        1
176
     1
 40
0.0
176
     1
 90
        0
176
     1
290
     0
176
     1
290
     1
176
     1
290
     1
176
     1
290
     0
176
     1
290
     0
176
     1
290
     0
176
     1
290
     0
176
     1
290
     0
176
     1
290
     0
176
     1
 90
       50
176
     1
 40
0.0
176
     1
 40
1.0
176
     1
 90
        0
176
     1
 62
    18
420
        0
176
     1
 90
       50
176
     1
 90
        3
176
     1
 62
     5
420
      255
176
     1
290
     0
176
     1
 90
       50
176
     1
 90
       50
176
     1
 90
       50
176
     1
290
     0
176
     1
 90
       50
176
     1
 62
   256
176
     0
 40
1.0
176
     0
 90
        2
176
     1
  1
strokes_ogs.tif
176
     1
290
     0
176
     1
 40
1.0
176
     1
 40
1.0
176
     1
  0
VISUALSTYLE
  5
34
102
{ACAD_REACTORS
330
2A
102
}
330
2A
100
AcDbVisualStyle
  2
Conceptual
 70
     9
177
     3
291
     0
 70
    58
 90
        3
176
     1
 90
        2
176
     1
 90
        0
176
     1
 90
        0
176
     1
 40
0.6
176
     1
 40
30.0
176
     1
 62
     7
420
 16777215
176
     1
 90
        2
176
     1
 90
        2
176
     1
 62
     7
176
     1
 62
   257
176
     1
 90
        1
176
     1
 90
        1
176
     1
 40
179.0
176
     1
 90
        8
176
     1
 62
     7
176
     1
 40
1.0
176
     1
 90
        1
176
     1
 90
        6
176
     1
 90
        2
176
     1
 62
     7
176
     1
 90
        3
176
     1
 90
        0
176
     1
 90
        0
176
     1
290
     0
176
     1
 90
        1
176
     1
 40
0.0
176
     1
 90
        0
176
     1
290
     0
176
     1
290
     1
176
     1
290
     1
176
     1
290
     0
176
     1
290
     0
176
     1
290
     0
176
     1
290
     0
176
     1
290
     0
176
     1
290
     0
176
     1
 90
       50
176
     1
 40
0.0
176
     1
 40
1.0
176
     1
 90
        0
176
     1
 62
    18
420
        0
176
     1
 90
       50
176
     1
 90
        3
176
     1
 62
     5
420
      255
176
     1
290
     0
176
     1
 90
       50
176
     1
 90
       50
176
     1
 90
       50
176
     1
290
     0
176
     1
 90
       50
176
     1
 62
   256
176
     0
 40
1.0
176
     0
 90
        2
176
     1
  1
strokes_ogs.tif
176
     1
290
     0
176
     1
 40
1.0
176
     1
 40
1.0
176
     1
  0
VISUALSTYLE
  5
35
102
{ACAD_REACTORS
330
2A
102
}
330
2A
100
AcDbVisualStyle
  2
Dim
 70
    11
177
     3
291
     1
 70
    58
 90
        2
176
     1
 90
        2
176
     1
 90
        0
176
     1
 90
        0
176
     1
 40
0.6
176
     1
 40
30.0
176
     1
 62
     7
420
 16777215
176
     1
 90
        1
176
     1
 90
        4
176
     1
 62
     7
176
     1
 62
   257
176
     1
 90
        1
176
     1
 90
        1
176
     1
 40
1.0
176
     1
 90
        8
176
     1
 62
     7
176
     1
 40
1.0
176
     1
 90
        1
176
     1
 90
        6
176
     1
 90
        2
176
     1
 62
     7
176
     1
 90
        5
176
     1
 90
        0
176
     1
 90
        0
176
     1
290
     0
176
     1
 90
        1
176
     1
 40
-50.0
176
     1
 90
        0
176
     1
290
     0
176
     1
290
     1
176
     1
290
     1
176
     1
290
     0
176
     1
290
     0
176
     1
290
     0
176
     1
290
     0
176
     1
290
     0
176
     1
290
     0
176
     1
 90
       50
176
     1
 40
0.0
176
     1
 40
1.0
176
     1
 90
        0
176
     1
 62
    18
420
        0
176
     1
 90
       50
176
     1
 90
        3
176
     1
 62
     5
420
      255
176
     1
290
     0
176
     1
 90
       50
176
     1
 90
       50
176
     1
 90
       50
176
     1
290
     0
176
     1
 90
       50
176
     1
 62
   256
176
     0
 40
1.0
176
     0
 90
        2
176
     1
  1
strokes_ogs.tif
176
     1
290
     0
176
     1
 40
1.0
176
     1
 40
1.0
176
     1
  0
VISUALSTYLE
  5
3D
102
{ACAD_REACTORS
330
2A
102
}
330
2A
100
AcDbVisualStyle
  2
EdgeColorOff
 70
    22
177
     3
291
     1
 70
    58
 90
        2
176
     0
 90
        2
176
     0
 90
        0
176
     0
 90
        0
176
     0
 40
0.6
176
     0
 40
30.0
176
     0
 62
     7
420
 16777215
176
     0
 90
        1
176
     0
 90
        4
176
     0
 62
     7
176
     0
 62
   257
176
     0
 90
        1
176
     0
 90
        1
176
     0
 40
1.0
176
     0
 90
        8
176
     2
 62
     7
176
     0
 40
1.0
176
     0
 90
        1
176
     0
 90
        6
176
     0
 90
        2
176
     0
 62
     7
176
     0
 90
        5
176
     0
 90
        0
176
     0
 90
        0
176
     0
290
     0
176
     0
 90
        1
176
     0
 40
0.0
176
     0
 90
        0
176
     0
290
     0
176
     0
290
     1
176
     0
290
     1
176
     0
290
     0
176
     0
290
     0
176
     0
290
     0
176
     0
290
     0
176
     0
290
     0
176
     0
290
     0
176
     0
 90
       50
176
     0
 40
0.0
176
     0
 40
1.0
176
     0
 90
        0
176
     0
 62
    18
420
        0
176
     0
 90
       50
176
     0
 90
        3
176
     0
 62
     5
420
      255
176
     0
290
     0
176
     0
 90
       50
176
     0
 90
       50
176
     0
 90
       50
176
     0
290
     0
176
     0
 90
       50
176
     0
 62
   256
176
     0
 40
1.0
176
     0
 90
        2
176
     0
  1
strokes_ogs.tif
176
     0
290
     0
176
     0
 40
1.0
176
     0
 40
1.0
176
     0
  0
VISUALSTYLE
  5
39
102
{ACAD_REACTORS
330
2A
102
}
330
2A
100
AcDbVisualStyle
  2
Facepattern
 70
    15
177
     3
291
     1
 70
    58
 90
        2
176
     1
 90
        2
176
     1
 90
        0
176
     1
 90
        0
176
     1
 40
0.6
176
     1
 40
30.0
176
     1
 62
     7
420
 16777215
176
     1
 90
        1
176
     1
 90
        4
176
     1
 62
     7
176
     1
 62
   257
176
     1
 90
        1
176
     1
 90
        1
176
     1
 40
1.0
176
     1
 90
        8
176
     1
 62
     7
176
     1
 40
1.0
176
     1
 90
        1
176
     1
 90
        6
176
     1
 90
        2
176
     1
 62
     7
176
     1
 90
        5
176
     1
 90
        0
176
     1
 90
        0
176
     1
290
     0
176
     1
 90
        1
176
     1
 40
0.0
176
     1
 90
        0
176
     1
290
     0
176
     1
290
     1
176
     1
290
     1
176
     1
290
     0
176
     1
290
     0
176
     1
290
     0
176
     1
290
     0
176
     1
290
     0
176
     1
290
     0
176
     1
 90
       50
176
     1
 40
0.0
176
     1
 40
1.0
176
     1
 90
        0
176
     1
 62
    18
420
        0
176
     1
 90
       50
176
     1
 90
        3
176
     1
 62
     5
420
      255
176
     1
290
     0
176
     1
 90
       50
176
     1
 90
       50
176
     1
 90
       50
176
     1
290
     0
176
     1
 90
       50
176
     1
 62
   256
176
     0
 40
1.0
176
     0
 90
        2
176
     1
  1
strokes_ogs.tif
176
     1
290
     0
176
     1
 40
1.0
176
     1
 40
1.0
176
     1
  0
VISUALSTYLE
  5
2B
102
{ACAD_REACTORS
330
2A
102
}
330
2A
100
AcDbVisualStyle
  2
Flat
 70
     0
177
     3
291
     1
 70
    58
 90
        2
176
     1
 90
        1
176
     1
 90
        1
176
     1
 90
        2
176
     1
 40
0.6
176
     1
 40
30.0
176
     1
 62
     7
420
 16777215
176
     1
 90
        0
176
     1
 90
        0
176
     1
 62
     7
176
     1
 62
   257
176
     1
 90
        1
176
     1
 90
        1
176
     1
 40
1.0
176
     1
 90
        8
176
     1
 62
     7
176
     1
 40
1.0
176
     1
 90
        1
176
     1
 90
        6
176
     1
 90
        2
176
     1
 62
     7
176
     1
 90
        5
176
     1
 90
        0
176
     1
 90
        0
176
     1
290
     0
176
     1
 90
       13
176
     1
 40
0.0
176
     1
 90
        0
176
     1
290
     0
176
     1
290
     1
176
     1
290
     1
176
     1
290
     0
176
     1
290
     0
176
     1
290
     0
176
     1
290
     0
176
     1
290
     0
176
     1
290
     0
176
     1
 90
       50
176
     1
 40
0.0
176
     1
 40
1.0
176
     1
 90
        0
176
     1
 62
    18
420
        0
176
     1
 90
       50
176
     1
 90
        3
176
     1
 62
     5
420
      255
176
     1
290
     0
176
     1
 90
       50
176
     1
 90
       50
176
     1
 90
       50
176
     1
290
     0
176
     1
 90
       50
176
     1
 62
   256
176
     0
 40
1.0
176
     0
 90
        2
176
     1
  1
strokes_ogs.tif
176
     1
290
     0
176
     1
 40
1.0
176
     1
 40
1.0
176
     1
  0
VISUALSTYLE
  5
2C
102
{ACAD_REACTORS
330
2A
102
}
330
2A
100
AcDbVisualStyle
  2
FlatWithEdges
 70
     1
177
     3
291
     1
 70
    58
 90
        2
176
     1
 90
        1
176
     1
 90
        1
176
     1
 90
        2
176
     1
 40
0.6
176
     1
 40
30.0
176
     1
 62
     7
420
 16777215
176
     1
 90
        1
176
     1
 90
        0
176
     1
 62
     7
176
     1
 62
   257
176
     1
 90
        1
176
     1
 90
        1
176
     1
 40
1.0
176
     1
 90
        0
176
     1
 62
   257
176
     1
 40
1.0
176
     1
 90
        1
176
     1
 90
        6
176
     1
 90
        2
176
     1
 62
     7
176
     1
 90
        5
176
     1
 90
        0
176
     1
 90
        0
176
     1
290
     0
176
     1
 90
       13
176
     1
 40
0.0
176
     1
 90
        0
176
     1
290
     0
176
     1
290
     1
176
     1
290
     1
176
     1
290
     0
176
     1
290
     0
176
     1
290
     0
176
     1
290
     0
176
     1
290
     0
176
     1
290
     0
176
     1
 90
       50
176
     1
 40
0.0
176
     1
 40
1.0
176
     1
 90
        0
176
     1
 62
    18
420
        0
176
     1
 90
       50
176
     1
 90
        3
176
     1
 62
     5
420
      255
176
     1
290
     0
176
     1
 90
       50
176
     1
 90
       50
176
     1
 90
       50
176
     1
290
     0
176
     1
 90
       50
176
     1
 62
   256
176
     0
 40
1.0
176
     0
 90
        2
176
     1
  1
strokes_ogs.tif
176
     1
290
     0
176
     1
 40
1.0
176
     1
 40
1.0
176
     1
  0
VISUALSTYLE
  5
2D
102
{ACAD_REACTORS
330
2A
102
}
330
2A
100
AcDbVisualStyle
  2
Gouraud
 70
     2
177
     3
291
     1
 70
    58
 90
        2
176
     1
 90
        2
176
     1
 90
        1
176
     1
 90
        2
176
     1
 40
0.6
176
     1
 40
30.0
176
     1
 62
     7
420
 16777215
176
     1
 90
        0
176
     1
 90
        0
176
     1
 62
     7
176
     1
 62
   257
176
     1
 90
        1
176
     1
 90
        1
176
     1
 40
1.0
176
     1
 90
        0
176
     1
 62
     7
176
     1
 40
1.0
176
     1
 90
        1
176
     1
 90
        6
176
     1
 90
        2
176
     1
 62
     7
176
     1
 90
        5
176
     1
 90
        0
176
     1
 90
        0
176
     1
290
     0
176
     1
 90
       13
176
     1
 40
0.0
176
     1
 90
        0
176
     1
290
     0
176
     1
290
     1
176
     1
290
     1
176
     1
290
     0
176
     1
290
     0
176
     1
290
     0
176
     1
290
     0
176
     1
290
     0
176
     1
290
     0
176
     1
 90
       50
176
     1
 40
0.0
176
     1
 40
1.0
176
     1
 90
        0
176
     1
 62
    18
420
        0
176
     1
 90
       50
176
     1
 90
        3
176
     1
 62
     5
420
      255
176
     1
290
     0
176
     1
 90
       50
176
     1
 90
       50
176
     1
 90
       50
176
     1
290
     0
176
     1
 90
       50
176
     1
 62
   256
176
     0
 40
1.0
176
     0
 90
        2
176
     1
  1
strokes_ogs.tif
176
     1
290
     0
176
     1
 40
1.0
176
     1
 40
1.0
176
     1
  0
VISUALSTYLE
  5
2E
102
{ACAD_REACTORS
330
2A
102
}
330
2A
100
AcDbVisualStyle
  2
GouraudWithEdges
 70
     3
177
     3
291
     1
 70
    58
 90
        2
176
     1
 90
        2
176
     1
 90
        1
176
     1
 90
        2
176
     1
 40
0.6
176
     1
 40
30.0
176
     1
 62
     7
420
 16777215
176
     1
 90
        1
176
     1
 90
        0
176
     1
 62
     7
176
     1
 62
   257
176
     1
 90
        1
176
     1
 90
        1
176
     1
 40
1.0
176
     1
 90
        0
176
     1
 62
   257
176
     1
 40
1.0
176
     1
 90
        1
176
     1
 90
        6
176
     1
 90
        2
176
     1
 62
     7
176
     1
 90
        5
176
     1
 90
        0
176
     1
 90
        0
176
     1
290
     0
176
     1
 90
       13
176
     1
 40
0.0
176
     1
 90
        0
176
     1
290
     0
176
     1
290
     1
176
     1
290
     1
176
     1
290
     0
176
     1
290
     0
176
     1
290
     0
176
     1
290
     0
176
     1
290
     0
176
     1
290
     0
176
     1
 90
       50
176
     1
 40
0.0
176
     1
 40
1.0
176
     1
 90
        0
176
     1
 62
    18
420
        0
176
     1
 90
       50
176
     1
 90
        3
176
     1
 62
     5
420
      255
176
     1
290
     0
176
     1
 90
       50
176
     1
 90
       50
176
     1
 90
       50
176
     1
290
     0
176
     1
 90
       50
176
     1
 62
   256
176
     0
 40
1.0
176
     0
 90
        2
176
     1
  1
strokes_ogs.tif
176
     1
290
     0
176
     1
 40
1.0
176
     1
 40
1.0
176
     1
  0
VISUALSTYLE
  5
31
102
{ACAD_REACTORS
330
2A
102
}
330
2A
100
AcDbVisualStyle
  2
Hidden
 70
     6
177
     3
291
     0
 70
    58
 90
        1
176
     1
 90
        2
176
     1
 90
        2
176
     1
 90
        0
176
     1
 40
0.6
176
     1
 40
30.0
176
     1
 62
     7
420
 16777215
176
     1
 90
        2
176
     1
 90
        2
176
     1
 62
     7
176
     1
 62
   257
176
     1
 90
        2
176
     1
 90
        1
176
     1
 40
40.0
176
     1
 90
        0
176
     1
 62
   257
176
     1
 40
1.0
176
     1
 90
        1
176
     1
 90
        6
176
     1
 90
        2
176
     1
 62
     7
176
     1
 90
        3
176
     1
 90
        0
176
     1
 90
        0
176
     1
290
     0
176
     1
 90
        1
176
     1
 40
0.0
176
     1
 90
        0
176
     1
290
     0
176
     1
290
     1
176
     1
290
     1
176
     1
290
     0
176
     1
290
     0
176
     1
290
     0
176
     1
290
     0
176
     1
290
     0
176
     1
290
     0
176
     1
 90
       50
176
     1
 40
0.0
176
     1
 40
1.0
176
     1
 90
        0
176
     1
 62
    18
420
        0
176
     1
 90
       50
176
     1
 90
        3
176
     1
 62
     5
420
      255
176
     1
290
     0
176
     1
 90
       50
176
     1
 90
       50
176
     1
 90
       50
176
     1
290
     0
176
     1
 90
       50
176
     1
 62
   256
176
     0
 40
1.0
176
     0
 90
        2
176
     1
  1
strokes_ogs.tif
176
     1
290
     0
176
     1
 40
1.0
176
     1
 40
1.0
176
     1
  0
VISUALSTYLE
  5
3B
102
{ACAD_REACTORS
330
2A
102
}
330
2A
100
AcDbVisualStyle
  2
JitterOff
 70
    20
177
     3
291
     1
 70
    58
 90
        2
176
     0
 90
        2
176
     0
 90
        0
176
     0
 90
        0
176
     0
 40
0.6
176
     0
 40
30.0
176
     0
 62
     7
420
 16777215
176
     0
 90
        1
176
     0
 90
        4
176
     0
 62
     7
176
     0
 62
   257
176
     0
 90
        1
176
     0
 90
        1
176
     0
 40
1.0
176
     0
 90
       10
176
     2
 62
     7
176
     0
 40
1.0
176
     0
 90
        1
176
     0
 90
        6
176
     0
 90
        2
176
     0
 62
     7
176
     0
 90
        5
176
     0
 90
        0
176
     0
 90
        0
176
     0
290
     0
176
     0
 90
        1
176
     0
 40
0.0
176
     0
 90
        0
176
     0
290
     0
176
     0
290
     1
176
     0
290
     1
176
     0
290
     0
176
     0
290
     0
176
     0
290
     0
176
     0
290
     0
176
     0
290
     0
176
     0
290
     0
176
     0
 90
       50
176
     0
 40
0.0
176
     0
 40
1.0
176
     0
 90
        0
176
     0
 62
    18
420
        0
176
     0
 90
       50
176
     0
 90
        3
176
     0
 62
     5
420
      255
176
     0
290
     0
176
     0
 90
       50
176
     0
 90
       50
176
     0
 90
       50
176
     0
290
     0
176
     0
 90
       50
176
     0
 62
   256
176
     0
 40
1.0
176
     0
 90
        2
176
     0
  1
strokes_ogs.tif
176
     0
290
     0
176
     0
 40
1.0
176
     0
 40
1.0
176
     0
  0
VISUALSTYLE
  5
38
102
{ACAD_REACTORS
330
2A
102
}
330
2A
100
AcDbVisualStyle
  2
Linepattern
 70
    14
177
     3
291
     1
 70
    58
 90
        2
176
     1
 90
        2
176
     1
 90
        0
176
     1
 90
        0
176
     1
 40
0.6
176
     1
 40
30.0
176
     1
 62
     7
420
 16777215
176
     1
 90
        1
176
     1
 90
        4
176
     1
 62
     7
176
     1
 62
   257
176
     1
 90
        7
176
     1
 90
        7
176
     1
 40
1.0
176
     1
 90
        8
176
     1
 62
     7
176
     1
 40
1.0
176
     1
 90
        1
176
     1
 90
        6
176
     1
 90
        2
176
     1
 62
     7
176
     1
 90
        5
176
     1
 90
        0
176
     1
 90
        0
176
     1
290
     0
176
     1
 90
        1
176
     1
 40
0.0
176
     1
 90
        0
176
     1
290
     0
176
     1
290
     1
176
     1
290
     1
176
     1
290
     0
176
     1
290
     0
176
     1
290
     0
176
     1
290
     0
176
     1
290
     0
176
     1
290
     0
176
     1
 90
       50
176
     1
 40
0.0
176
     1
 40
1.0
176
     1
 90
        0
176
     1
 62
    18
420
        0
176
     1
 90
       50
176
     1
 90
        3
176
     1
 62
     5
420
      255
176
     1
290
     0
176
     1
 90
       50
176
     1
 90
       50
176
     1
 90
       50
176
     1
290
     0
176
     1
 90
       50
176
     1
 62
   256
176
     0
 40
1.0
176
     0
 90
        2
176
     1
  1
strokes_ogs.tif
176
     1
290
     0
176
     1
 40
1.0
176
     1
 40
1.0
176
     1
  0
VISUALSTYLE
  5
3C
102
{ACAD_REACTORS
330
2A
102
}
330
2A
100
AcDbVisualStyle
  2
OverhangOff
 70
    21
177
     3
291
     1
 70
    58
 90
        2
176
     0
 90
        2
176
     0
 90
        0
176
     0
 90
        0
176
     0
 40
0.6
176
     0
 40
30.0
176
     0
 62
     7
420
 16777215
176
     0
 90
        1
176
     0
 90
        4
176
     0
 62
     7
176
     0
 62
   257
176
     0
 90
        1
176
     0
 90
        1
176
     0
 40
1.0
176
     0
 90
        9
176
     2
 62
     7
176
     0
 40
1.0
176
     0
 90
        1
176
     0
 90
        6
176
     0
 90
        2
176
     0
 62
     7
176
     0
 90
        5
176
     0
 90
        0
176
     0
 90
        0
176
     0
290
     0
176
     0
 90
        1
176
     0
 40
0.0
176
     0
 90
        0
176
     0
290
     0
176
     0
290
     1
176
     0
290
     1
176
     0
290
     0
176
     0
290
     0
176
     0
290
     0
176
     0
290
     0
176
     0
290
     0
176
     0
290
     0
176
     0
 90
       50
176
     0
 40
0.0
176
     0
 40
1.0
176
     0
 90
        0
176
     0
 62
    18
420
        0
176
     0
 90
       50
176
     0
 90
        3
176
     0
 62
     5
420
      255
176
     0
290
     0
176
     0
 90
       50
176
     0
 90
       50
176
     0
 90
       50
176
     0
290
     0
176
     0
 90
       50
176
     0
 62
   256
176
     0
 40
1.0
176
     0
 90
        2
176
     0
  1
strokes_ogs.tif
176
     0
290
     0
176
     0
 40
1.0
176
     0
 40
1.0
176
     0
  0
VISUALSTYLE
  5
33
102
{ACAD_REACTORS
330
2A
102
}
330
2A
100
AcDbVisualStyle
  2
Realistic
 70
     8
177
     3
291
     0
 70
    58
 90
        2
176
     1
 90
        3
176
     1
 90
        0
176
     1
 90
        2
176
     1
 40
0.6
176
     1
 40
30.0
176
     1
 62
     7
420
 16777215
176
     1
 90
        0
176
     1
 90
        0
176
     1
 62
     7
176
     1
 62
   257
176
     1
 90
        1
176
     1
 90
        1
176
     1
 40
1.0
176
     1
 90
        8
176
     1
 62
   257
176
     1
 40
1.0
176
     1
 90
        1
176
     1
 90
        6
176
     1
 90
        2
176
     1
 62
     7
176
     1
 90
        3
176
     1
 90
        0
176
     1
 90
        0
176
     1
290
     0
176
     1
 90
       13
176
     1
 40
0.0
176
     1
 90
        0
176
     1
290
     0
176
     1
290
     1
176
     1
290
     1
176
     1
290
     0
176
     1
290
     0
176
     1
290
     0
176
     1
290
     0
176
     1
290
     0
176
     1
290
     0
176
     1
 90
       50
176
     1
 40
0.0
176
     1
 40
1.0
176
     1
 90
        0
176
     1
 62
    18
420
        0
176
     1
 90
       50
176
     1
 90
        3
176
     1
 62
     5
420
      255
176
     1
290
     0
176
     1
 90
       50
176
     1
 90
       50
176
     1
 90
       50
176
     1
290
     0
176
     1
 90
       50
176
     1
 62
   256
176
     0
 40
1.0
176
     0
 90
        2
176
     1
  1
strokes_ogs.tif
176
     1
290
     0
176
     1
 40
1.0
176
     1
 40
1.0
176
     1
  0
VISUALSTYLE
  5
42
102
{ACAD_REACTORS
330
2A
102
}
330
2A
100
AcDbVisualStyle
  2
Shaded
 70
    27
177
     3
291
     0
 70
    58
 90
        2
176
     1
 90
        2
176
     1
 90
        1
176
     1
 90
        2
176
     1
 40
0.6
176
     1
 40
30.0
176
     1
 62
     7
420
 16777215
176
     1
 90
        0
176
     1
 90
        4
176
     1
 62
     7
176
     1
 62
   257
176
     1
 90
        1
176
     1
 90
        1
176
     1
 40
1.0
176
     1
 90
        8
176
     1
 62
   257
176
     1
 40
1.0
176
     1
 90
        1
176
     1
 90
        6
176
     1
 90
        2
176
     1
 62
     8
420
  7895160
176
     1
 90
        3
176
     1
 90
        0
176
     1
 90
        0
176
     1
290
     0
176
     1
 90
        5
176
     1
 40
0.0
176
     1
 90
        0
176
     1
290
     0
176
     1
290
     1
176
     1
290
     1
176
     1
290
     0
176
     1
290
     0
176
     1
290
     0
176
     1
290
     0
176
     1
290
     0
176
     1
290
     0
176
     1
 90
       50
176
     1
 40
0.0
176
     1
 40
1.0
176
     1
 90
        0
176
     1
 62
    18
420
        0
176
     1
 90
       50
176
     1
 90
        3
176
     1
 62
     5
420
      255
176
     1
290
     0
176
     1
 90
       50
176
     1
 90
       50
176
     1
 90
       50
176
     1
290
     0
176
     1
 90
       50
176
     1
 62
   256
176
     0
 40
1.0
176
     0
 90
        2
176
     1
  1
strokes_ogs.tif
176
     1
290
     0
176
     1
 40
1.0
176
     1
 40
1.0
176
     1
  0
VISUALSTYLE
  5
41
102
{ACAD_REACTORS
330
2A
102
}
330
2A
100
AcDbVisualStyle
  2
Shaded with edges
 70
    26
177
     3
291
     0
 70
    58
 90
        2
176
     1
 90
        2
176
     1
 90
        1
176
     1
 90
        2
176
     1
 40
0.6
176
     1
 40
30.0
176
     1
 62
     7
420
 16777215
176
     1
 90
        1
176
     1
 90
       10
176
     1
 62
     7
176
     1
 62
   257
176
     1
 90
        2
176
     1
 90
        1
176
     1
 40
1.0
176
     1
 90
        8
176
     1
 62
   257
176
     1
 40
1.0
176
     1
 90
        1
176
     1
 90
        6
176
     1
 90
        2
176
     1
 62
     7
176
     1
 90
        3
176
     1
 90
        0
176
     1
 90
        0
176
     1
290
     0
176
     1
 90
        5
176
     1
 40
0.0
176
     1
 90
        0
176
     1
290
     0
176
     1
290
     1
176
     1
290
     1
176
     1
290
     0
176
     1
290
     0
176
     1
290
     0
176
     1
290
     0
176
     1
290
     0
176
     1
290
     0
176
     1
 90
       50
176
     1
 40
0.0
176
     1
 40
1.0
176
     1
 90
        0
176
     1
 62
    18
420
        0
176
     1
 90
       50
176
     1
 90
        3
176
     1
 62
     5
420
      255
176
     1
290
     0
176
     1
 90
       50
176
     1
 90
       50
176
     1
 90
       50
176
     1
290
     0
176
     1
 90
       50
176
     1
 62
   256
176
     0
 40
1.0
176
     0
 90
        2
176
     1
  1
strokes_ogs.tif
176
     1
290
     0
176
     1
 40
1.0
176
     1
 40
1.0
176
     1
  0
VISUALSTYLE
  5
3E
102
{ACAD_REACTORS
330
2A
102
}
330
2A
100
AcDbVisualStyle
  2
Shades of Gray
 70
    23
177
     3
291
     0
 70
    58
 90
        2
176
     1
 90
        2
176
     1
 90
        3
176
     1
 90
        0
176
     1
 40
0.6
176
     1
 40
30.0
176
     1
 62
     7
420
 16777215
176
     1
 90
        2
176
     1
 90
        2
176
     1
 62
     7
176
     1
 62
     7
176
     1
 90
        1
176
     1
 90
        1
176
     1
 40
40.0
176
     1
 90
        8
176
     1
 62
     7
176
     1
 40
1.0
176
     1
 90
        1
176
     1
 90
        6
176
     1
 90
        2
176
     1
 62
     7
176
     1
 90
        3
176
     1
 90
        0
176
     1
 90
        0
176
     1
290
     0
176
     1
 90
        1
176
     1
 40
0.0
176
     1
 90
        0
176
     1
290
     0
176
     1
290
     1
176
     1
290
     1
176
     1
290
     0
176
     1
290
     0
176
     1
290
     0
176
     1
290
     0
176
     1
290
     0
176
     1
290
     0
176
     1
 90
       50
176
     1
 40
0.0
176
     1
 40
1.0
176
     1
 90
        0
176
     1
 62
    18
420
        0
176
     1
 90
       50
176
     1
 90
        3
176
     1
 62
     5
420
      255
176
     1
290
     0
176
     1
 90
       50
176
     1
 90
       50
176
     1
 90
       50
176
     1
290
     0
176
     1
 90
       50
176
     1
 62
   256
176
     0
 40
1.0
176
     0
 90
        2
176
     1
  1
strokes_ogs.tif
176
     1
290
     0
176
     1
 40
1.0
176
     1
 40
1.0
176
     1
  0
VISUALSTYLE
  5
3F
102
{ACAD_REACTORS
330
2A
102
}
330
2A
100
AcDbVisualStyle
  2
Sketchy
 70
    24
177
     3
291
     0
 70
    58
 90
        1
176
     1
 90
        2
176
     1
 90
        2
176
     1
 90
        0
176
     1
 40
0.6
176
     1
 40
30.0
176
     1
 62
     7
420
 16777215
176
     1
 90
        2
176
     1
 90
        2
176
     1
 62
     7
176
     1
 62
     7
176
     1
 90
        1
176
     1
 90
        1
176
     1
 40
40.0
176
     1
 90
       11
176
     1
 62
     7
176
     1
 40
1.0
176
     1
 90
        1
176
     1
 90
        6
176
     1
 90
        2
176
     1
 62
     7
176
     1
 90
        6
176
     1
 90
        0
176
     1
 90
        0
176
     1
290
     0
176
     1
 90
        1
176
     1
 40
0.0
176
     1
 90
        0
176
     1
290
     0
176
     1
290
     1
176
     1
290
     1
176
     1
290
     0
176
     1
290
     0
176
     1
290
     0
176
     1
290
     0
176
     1
290
     0
176
     1
290
     0
176
     1
 90
       50
176
     1
 40
0.0
176
     1
 40
1.0
176
     1
 90
        0
176
     1
 62
    18
420
        0
176
     1
 90
       50
176
     1
 90
        3
176
     1
 62
     5
420
      255
176
     1
290
     0
176
     1
 90
       50
176
     1
 90
       50
176
     1
 90
       50
176
     1
290
     0
176
     1
 90
       50
176
     1
 62
   256
176
     0
 40
1.0
176
     0
 90
        2
176
     1
  1
strokes_ogs.tif
176
     1
290
     0
176
     1
 40
1.0
176
     1
 40
1.0
176
     1
  0
VISUALSTYLE
  5
37
102
{ACAD_REACTORS
330
2A
102
}
330
2A
100
AcDbVisualStyle
  2
Thicken
 70
    13
177
     3
291
     1
 70
    58
 90
        2
176
     1
 90
        2
176
     1
 90
        0
176
     1
 90
        0
176
     1
 40
0.6
176
     1
 40
30.0
176
     1
 62
     7
420
 16777215
176
     1
 90
        1
176
     1
 90
        4
176
     1
 62
     7
176
     1
 62
   257
176
     1
 90
        1
176
     1
 90
        1
176
     1
 40
1.0
176
     1
 90
       12
176
     1
 62
     7
176
     1
 40
1.0
176
     1
 90
        1
176
     1
 90
        6
176
     1
 90
        2
176
     1
 62
     7
176
     1
 90
        5
176
     1
 90
        0
176
     1
 90
        0
176
     1
290
     0
176
     1
 90
        1
176
     1
 40
0.0
176
     1
 90
        0
176
     1
290
     0
176
     1
290
     1
176
     1
290
     1
176
     1
290
     0
176
     1
290
     0
176
     1
290
     0
176
     1
290
     0
176
     1
290
     0
176
     1
290
     0
176
     1
 90
       50
176
     1
 40
0.0
176
     1
 40
1.0
176
     1
 90
        0
176
     1
 62
    18
420
        0
176
     1
 90
       50
176
     1
 90
        3
176
     1
 62
     5
420
      255
176
     1
290
     0
176
     1
 90
       50
176
     1
 90
       50
176
     1
 90
       50
176
     1
290
     0
176
     1
 90
       50
176
     1
 62
   256
176
     0
 40
1.0
176
     0
 90
        2
176
     1
  1
strokes_ogs.tif
176
     1
290
     0
176
     1
 40
1.0
176
     1
 40
1.0
176
     1
  0
VISUALSTYLE
  5
30
102
{ACAD_REACTORS
330
2A
102
}
330
2A
100
AcDbVisualStyle
  2
Wireframe
 70
     5
177
     3
291
     0
 70
    58
 90
        0
176
     1
 90
        2
176
     1
 90
        0
176
     1
 90
        0
176
     1
 40
0.6
176
     1
 40
30.0
176
     1
 62
     7
420
 16777215
176
     1
 90
        1
176
     1
 90
        4
176
     1
 62
     7
176
     1
 62
   257
176
     1
 90
        1
176
     1
 90
        1
176
     1
 40
1.0
176
     1
 90
        0
176
     1
 62
   257
176
     1
 40
1.0
176
     1
 90
        1
176
     1
 90
        6
176
     1
 90
        2
176
     1
 62
     7
176
     1
 90
        3
176
     1
 90
        0
176
     1
 90
        0
176
     1
290
     0
176
     1
 90
        1
176
     1
 40
0.0
176
     1
 90
        0
176
     1
290
     0
176
     1
290
     1
176
     1
290
     1
176
     1
290
     0
176
     1
290
     0
176
     1
290
     0
176
     1
290
     0
176
     1
290
     0
176
     1
290
     0
176
     1
 90
       50
176
     1
 40
0.0
176
     1
 40
1.0
176
     1
 90
        0
176
     1
 62
    18
420
        0
176
     1
 90
       50
176
     1
 90
        3
176
     1
 62
     5
420
      255
176
     1
290
     0
176
     1
 90
       50
176
     1
 90
       50
176
     1
 90
       50
176
     1
290
     0
176
     1
 90
       50
176
     1
 62
   256
176
     0
 40
1.0
176
     0
 90
        2
176
     1
  1
strokes_ogs.tif
176
     1
290
     0
176
     1
 40
1.0
176
     1
 40
1.0
176
     1
  0
VISUALSTYLE
  5
40
102
{ACAD_REACTORS
330
2A
102
}
330
2A
100
AcDbVisualStyle
  2
X-Ray
 70
    25
177
     3
291
     0
 70
    58
 90
        2
176
     1
 90
        2
176
     1
 90
        1
176
     1
 90
        1
176
     1
 40
0.5
176
     1
 40
30.0
176
     1
 62
     7
420
 16777215
176
     1
 90
        1
176
     1
 90
        0
176
     1
 62
     7
176
     1
 62
   257
176
     1
 90
        1
176
     1
 90
        1
176
     1
 40
1.0
176
     1
 90
        8
176
     1
 62
     7
176
     1
 40
1.0
176
     1
 90
        1
176
     1
 90
        6
176
     1
 90
        2
176
     1
 62
     7
176
     1
 90
        3
176
     1
 90
        0
176
     1
 90
        0
176
     1
290
     0
176
     1
 90
       13
176
     1
 40
0.0
176
     1
 90
        0
176
     1
290
     0
176
     1
290
     1
176
     1
290
     1
176
     1
290
     0
176
     1
290
     0
176
     1
290
     0
176
     1
290
     0
176
     1
290
     0
176
     1
290
     0
176
     1
 90
       50
176
     1
 40
0.0
176
     1
 40
1.0
176
     1
 90
        0
176
     1
 62
    18
420
        0
176
     1
 90
       50
176
     1
 90
        3
176
     1
 62
     5
420
      255
176
     1
290
     0
176
     1
 90
       50
176
     1
 90
       50
176
     1
 90
       50
176
     1
290
     0
176
     1
 90
       50
176
     1
 62
   256
176
     0
 40
1.0
176
     0
 90
        2
176
     1
  1
strokes_ogs.tif
176
     1
290
     0
176
     1
 40
1.0
176
     1
 40
1.0
176
     1
  0
DICTIONARYVAR
  5
374
102
{ACAD_REACTORS
330
373
102
}
330
373
100
DictionaryVariables
280
     0
  1
1:1
  0
DICTIONARYVAR
  5
379
102
{ACAD_REACTORS
330
373
102
}
330
373
100
DictionaryVariables
280
     0
  1
Standard
  0
DICTIONARYVAR
  5
378
102
{ACAD_REACTORS
330
373
102
}
330
373
100
DictionaryVariables
280
     0
  1
Standard
  0
DICTIONARY
  5
375
330
6A
100
AcDbDictionary
280
     1
281
     1
  3
ACAD_ROUNDTRIP_2008_TABLESTYLE_CELLSTYLEMAP
360
376
  0
CELLSTYLEMAP
  5
376
102
{ACAD_REACTORS
330
375
102
}
330
375
100
AcDbCellStyleMap
 90
        3
300
CELLSTYLE
  1
TABLEFORMAT_BEGIN
 90
        5
170
     1
 91
        0
 92
    32768
 62
   257
 93
        1
300
CONTENTFORMAT
  1
CONTENTFORMAT_BEGIN
 90
        0
 91
        0
 92
        4
 93
        0
300

 40
0.0
140
1.0
 94
        5
 62
     0
340
11
144
0.25
309
CONTENTFORMAT_END
171
     1
301
MARGIN
  1
CELLMARGIN_BEGIN
 40
0.06
 40
0.06
 40
0.06
 40
0.06
 40
0.06
 40
0.06
309
CELLMARGIN_END
 94
        6
 95
        1
302
GRIDFORMAT
  1
GRIDFORMAT_BEGIN
 90
        0
 91
        1
 62
     0
 92
       -2
340
14
 93
        0
 40
0.045
309
GRIDFORMAT_END
 95
        2
302
GRIDFORMAT
  1
GRIDFORMAT_BEGIN
 90
        0
 91
        1
 62
     0
 92
       -2
340
14
 93
        0
 40
0.045
309
GRIDFORMAT_END
 95
        4
302
GRIDFORMAT
  1
GRIDFORMAT_BEGIN
 90
        0
 91
        1
 62
     0
 92
       -2
340
14
 93
        0
 40
0.045
309
GRIDFORMAT_END
 95
        8
302
GRIDFORMAT
  1
GRIDFORMAT_BEGIN
 90
        0
 91
        1
 62
     0
 92
       -2
340
14
 93
        0
 40
0.045
309
GRIDFORMAT_END
 95
       16
302
GRIDFORMAT
  1
GRIDFORMAT_BEGIN
 90
        0
 91
        1
 62
     0
 92
       -2
340
14
 93
        0
 40
0.045
309
GRIDFORMAT_END
 95
       32
302
GRIDFORMAT
  1
GRIDFORMAT_BEGIN
 90
        0
 91
        1
 62
     0
 92
       -2
340
14
 93
        0
 40
0.045
309
GRIDFORMAT_END
309
TABLEFORMAT_END
  1
CELLSTYLE_BEGIN
 90
        1
 91
        1
300
_TITLE
309
CELLSTYLE_END
300
CELLSTYLE
  1
TABLEFORMAT_BEGIN
 90
        5
170
     1
 91
        0
 92
        0
 62
   257
 93
        1
300
CONTENTFORMAT
  1
CONTENTFORMAT_BEGIN
 90
        0
 91
        0
 92
        4
 93
        0
300

 40
0.0
140
1.0
 94
        5
 62
     0
340
11
144
0.18
309
CONTENTFORMAT_END
171
     1
301
MARGIN
  1
CELLMARGIN_BEGIN
 40
0.06
 40
0.06
 40
0.06
 40
0.06
 40
0.06
 40
0.06
309
CELLMARGIN_END
 94
        6
 95
        1
302
GRIDFORMAT
  1
GRIDFORMAT_BEGIN
 90
        0
 91
        1
 62
     0
 92
       -2
340
14
 93
        0
 40
0.045
309
GRIDFORMAT_END
 95
        2
302
GRIDFORMAT
  1
GRIDFORMAT_BEGIN
 90
        0
 91
        1
 62
     0
 92
       -2
340
14
 93
        0
 40
0.045
309
GRIDFORMAT_END
 95
        4
302
GRIDFORMAT
  1
GRIDFORMAT_BEGIN
 90
        0
 91
        1
 62
     0
 92
       -2
340
14
 93
        0
 40
0.045
309
GRIDFORMAT_END
 95
        8
302
GRIDFORMAT
  1
GRIDFORMAT_BEGIN
 90
        0
 91
        1
 62
     0
 92
       -2
340
14
 93
        0
 40
0.045
309
GRIDFORMAT_END
 95
       16
302
GRIDFORMAT
  1
GRIDFORMAT_BEGIN
 90
        0
 91
        1
 62
     0
 92
       -2
340
14
 93
        0
 40
0.045
309
GRIDFORMAT_END
 95
       32
302
GRIDFORMAT
  1
GRIDFORMAT_BEGIN
 90
        0
 91
        1
 62
     0
 92
       -2
340
14
 93
        0
 40
0.045
309
GRIDFORMAT_END
309
TABLEFORMAT_END
  1
CELLSTYLE_BEGIN
 90
        2
 91
        1
300
_HEADER
309
CELLSTYLE_END
300
CELLSTYLE
  1
TABLEFORMAT_BEGIN
 90
        5
170
     1
 91
        0
 92
        0
 62
   257
 93
        1
300
CONTENTFORMAT
  1
CONTENTFORMAT_BEGIN
 90
        0
 91
        0
 92
        4
 93
        0
300

 40
0.0
140
1.0
 94
        2
 62
     0
340
11
144
0.18
309
CONTENTFORMAT_END
171
     1
301
MARGIN
  1
CELLMARGIN_BEGIN
 40
0.06
 40
0.06
 40
0.06
 40
0.06
 40
0.06
 40
0.06
309
CELLMARGIN_END
 94
        6
 95
        1
302
GRIDFORMAT
  1
GRIDFORMAT_BEGIN
 90
        0
 91
        1
 62
     0
 92
       -2
340
14
 93
        0
 40
0.045
309
GRIDFORMAT_END
 95
        2
302
GRIDFORMAT
  1
GRIDFORMAT_BEGIN
 90
        0
 91
        1
 62
     0
 92
       -2
340
14
 93
        0
 40
0.045
309
GRIDFORMAT_END
 95
        4
302
GRIDFORMAT
  1
GRIDFORMAT_BEGIN
 90
        0
 91
        1
 62
     0
 92
       -2
340
14
 93
        0
 40
0.045
309
GRIDFORMAT_END
 95
        8
302
GRIDFORMAT
  1
GRIDFORMAT_BEGIN
 90
        0
 91
        1
 62
     0
 92
       -2
340
14
 93
        0
 40
0.045
309
GRIDFORMAT_END
 95
       16
302
GRIDFORMAT
  1
GRIDFORMAT_BEGIN
 90
        0
 91
        1
 62
     0
 92
       -2
340
14
 93
        0
 40
0.045
309
GRIDFORMAT_END
 95
       32
302
GRIDFORMAT
  1
GRIDFORMAT_BEGIN
 90
        0
 91
        1
 62
     0
 92
       -2
340
14
 93
        0
 40
0.045
309
GRIDFORMAT_END
309
TABLEFORMAT_END
  1
CELLSTYLE_BEGIN
 90
        3
 91
        2
300
_DATA
309
CELLSTYLE_END
  0
ENDSEC
  0
EOF
